<svg width="131" height="105" viewBox="0 0 131 105" fill="none" xmlns="http://www.w3.org/2000/svg">
<path d="M40.12 92.9727C39.9 93.24 39.68 93.4974 39.44 93.7449C39.2 93.9925 38.74 94.4776 38.36 94.8439C33.2976 99.6653 26.7485 102.667 19.76 103.369L14.76 103.903L18.17 100.844L0 104.131L7.62 86.4183L3.72998 88.7747L5.72998 84.2204C8.29903 78.219 12.6971 73.1618 18.31 69.7553C18.67 69.5375 19.04 69.3296 19.42 69.1217L20.28 68.6662C22.7043 67.4497 25.4048 66.8734 28.12 66.993C31.1073 67.117 34.0017 68.0571 36.4827 69.7093C38.9637 71.3615 40.9345 73.6612 42.1768 76.3539C43.4191 79.0466 43.8845 82.0271 43.5215 84.9655C43.1585 87.9039 41.9812 90.6855 40.12 93.0024V92.9727Z" fill="#FF7676"/>
<path d="M40.3005 85.8839C40.1605 86.0621 40.0105 86.2304 39.8605 86.3888C39.7105 86.5472 39.4005 86.8739 39.1505 87.1115C35.837 90.2776 31.5501 92.2569 26.9705 92.7352L23.7205 93.0817L25.9605 91.1015L14.0605 93.25L19.0605 81.6562L16.4705 83.1908L17.7606 80.2206C19.4451 76.2907 22.3254 72.9786 26.0005 70.7456L26.7205 70.3298L27.2905 70.0328C28.8833 69.2336 30.6564 68.8518 32.4405 68.9239C34.397 69.0039 36.293 69.6185 37.9185 70.6996C39.544 71.7806 40.8357 73.2859 41.6504 75.0489C42.4652 76.8119 42.7712 78.7637 42.5348 80.6882C42.2983 82.6128 41.5284 84.435 40.3105 85.9531L40.3005 85.8839Z" fill="#FFC261"/>
<path d="M37.6003 54.7654C37.6003 54.7654 31.0102 47.6862 21.7402 46.2308C21.7402 46.2308 38.1502 35.5378 47.1403 46.7556L37.6003 54.7654Z" fill="#FF7676" stroke="#302C2C" stroke-width="3.8" stroke-linecap="round" stroke-linejoin="round"/>
<path d="M58.3799 79.577C58.3799 79.577 64.1799 87.2997 63.9099 96.5867C63.9099 96.5867 77.5599 82.6067 68.0999 71.7751L58.3799 79.577Z" fill="#FF7676" stroke="#302C2C" stroke-width="3.8" stroke-linecap="round" stroke-linejoin="round"/>
<path d="M128.99 2.45918C127.813 13.0947 124.695 23.4303 119.79 32.9637C107.79 56.1614 87.0202 69.3692 70.8402 76.5275C66.6102 78.3988 62.7002 79.8641 59.3302 80.9928L58.7502 81.1908C55.3733 82.3198 51.9385 83.2716 48.4602 84.0422C46.6502 82.5868 44.9402 81.072 43.3302 79.4977C40.7794 77.0184 38.4382 74.3362 36.3302 71.4781C34.6232 69.1767 33.089 66.7544 31.7402 64.2306C33.1972 60.999 34.8261 57.8461 36.6202 54.7852L37.0002 54.1516C39.1016 50.5678 41.3845 47.0915 43.8402 43.7358C54.2802 29.3994 71.7103 11.7957 97.4003 4.90469C107.69 2.1805 118.388 1.30197 128.99 2.31067V2.45918Z" fill="white" stroke="#302C2C" stroke-width="3.8" stroke-miterlimit="10"/>
<path d="M58.9205 81.3492L55.6105 84.062C54.6095 84.8788 53.3527 85.3254 52.0555 85.3254C50.7584 85.3254 49.5016 84.8788 48.5005 84.062H48.4505C41.5865 78.6443 35.8993 71.9089 31.7305 64.2603C31.1385 63.1334 30.9546 61.8396 31.2094 60.5946C31.4641 59.3497 32.1422 58.2288 33.1305 57.4189L36.5305 54.6367C41.7453 65.1863 49.4282 74.351 58.9406 81.369L58.9205 81.3492Z" fill="#ADA6A3" stroke="#302C2C" stroke-width="3.8" stroke-miterlimit="10"/>
<path d="M128.99 2.45928C127.812 13.0946 124.695 23.4301 119.79 32.9634C115.85 20.6568 108.55 11.1818 97.3896 4.91466C107.679 2.19051 118.378 1.31198 128.98 2.32067L128.99 2.45928Z" fill="#FF7676" stroke="#302C2C" stroke-width="3.8" stroke-linecap="round" stroke-linejoin="round"/>
<path d="M102.55 45.5479C100.186 47.4875 97.3347 48.7568 94.3002 49.2211C92.9086 49.4467 91.4931 49.4899 90.0901 49.3498C89.0509 49.2596 88.0229 49.0706 87.0202 48.7854C84.6443 48.1285 82.445 46.9585 80.5802 45.3597C79.8544 44.7393 79.1852 44.0568 78.5802 43.3202C77.1459 41.6167 76.0657 39.6495 75.4017 37.5314C74.7378 35.4133 74.5031 33.1862 74.7113 30.9781C74.9194 28.77 75.5663 26.6243 76.6146 24.6645C77.663 22.7046 79.0923 20.9692 80.8202 19.558C82.7865 17.951 85.0926 16.8025 87.568 16.1976C90.0433 15.5926 92.6244 15.5466 95.1202 16.063C97.4412 16.5298 99.636 17.478 101.56 18.8452C102.76 19.6912 103.843 20.6898 104.78 21.8154C106.21 23.5175 107.287 25.4822 107.95 27.597C108.612 29.7118 108.846 31.9352 108.639 34.1398C108.432 36.3444 107.787 38.4868 106.742 40.4444C105.698 42.402 104.273 44.1363 102.55 45.5479Z" fill="#8BD9FC"/>
<path d="M95.1204 16.0632L87.0103 48.7854C84.6345 48.1284 82.4351 46.9585 80.5703 45.3597L87.5703 16.2117C90.0432 15.5969 92.6248 15.5461 95.1204 16.0632Z" fill="#CCF2FF"/>
<path d="M101.57 18.8449L94.2998 49.2211C92.9083 49.4467 91.4928 49.4899 90.0898 49.3498L98.0898 16.9539L101.57 18.8449Z" fill="#CCF2FF"/>
<path d="M91.8201 49.3103C101.226 49.3103 108.85 41.7613 108.85 32.4491C108.85 23.1369 101.226 15.5879 91.8201 15.5879C82.4147 15.5879 74.79 23.1369 74.79 32.4491C74.79 41.7613 82.4147 49.3103 91.8201 49.3103Z" stroke="#302C2C" stroke-width="3.8" stroke-miterlimit="10"/>
<path d="M32.9502 80.9729C32.9502 80.9729 50.4602 84.171 55.8002 62.7354C55.8002 62.7354 34.4002 62.8542 32.9502 80.9729Z" fill="#FF7676" stroke="#302C2C" stroke-width="3.8" stroke-linecap="round" stroke-linejoin="round"/>
</svg>
