<svg width="302" height="216" viewBox="0 0 302 216" fill="none" xmlns="http://www.w3.org/2000/svg">
<path d="M63.1033 121.91C63.1033 121.91 62.9734 122.18 62.9334 122.27C62.8934 122.36 62.8034 122.6 62.7334 122.76C62.5934 123.15 62.4733 123.54 62.3533 123.93C61.8083 125.889 61.473 127.9 61.3533 129.93C61.2234 131.985 61.2234 134.046 61.3533 136.1C61.4133 136.96 61.4933 137.82 61.6133 138.68C61.6854 139.38 61.8295 140.07 62.0434 140.74C63.1577 144.994 65.3281 148.898 68.3533 152.09C71.3507 154.918 74.8601 157.148 78.6933 158.66C80.5833 159.45 82.5334 160.07 84.4334 160.82C86.3334 161.57 88.3134 162.42 90.3234 163.02C90.8834 163.18 91.4434 163.33 92.0134 163.45C92.3134 163.51 92.6034 163.57 92.9034 163.6H93.1633C93.5225 163.635 93.8842 163.635 94.2433 163.6C94.3257 163.577 94.406 163.547 94.4834 163.51H94.5634L94.6534 163.43C94.9793 162.919 95.2098 162.353 95.3333 161.76C95.5232 160.858 95.6336 159.941 95.6633 159.02C95.8733 154.39 96.1233 149.7 94.3033 145.34C92.7033 141.49 89.8033 138.21 87.1133 134.9C82.0333 128.64 76.9333 120.09 68.6333 118.43C70.2733 122.43 70.8033 126.8 72.2833 130.73C73.4233 133.73 68.6834 135.39 67.5634 132.37C66.1234 128.47 65.6133 124.32 64.0833 120.45C63.6879 120.887 63.3578 121.379 63.1033 121.91Z" fill="#A3D280"/>
<path d="M172.494 54.5202C173.061 54.8628 173.469 55.4155 173.631 56.058C173.792 56.7005 173.692 57.3807 173.354 57.9502C163.414 70.5702 156.914 85.4002 150.764 100.14C155.324 99.9402 159.554 97.2602 162.944 94.3202C168.29 89.6574 172.61 83.937 175.634 77.5202C175.468 76.8915 175.558 76.2228 175.884 75.6602C176.37 74.7931 176.911 73.958 177.504 73.1602C180.437 65.3615 181.515 56.9875 180.654 48.7002C176.287 49.2092 172.035 50.4428 168.074 52.3502C159.547 56.408 152.718 63.3355 148.784 71.9202C145.136 80.0825 144.268 89.2169 146.314 97.9202C152.544 83.0502 159.194 68.2802 169.064 55.4202C169.409 54.8564 169.959 54.4479 170.598 54.2801C171.237 54.1124 171.917 54.1984 172.494 54.5202Z" fill="#A3D280"/>
<path d="M146.453 107.89C142.833 107.962 139.247 108.613 135.833 109.82C132.203 110.97 128.503 112.34 124.653 112.46C116.023 112.74 108.033 108.3 99.3734 108.59C96.8334 108.67 96.6034 112.59 98.7934 113.38C109.793 117.54 116.483 127.32 121.383 137.59C116.934 132.767 112.024 128.389 106.723 124.52C98.7867 118.73 90.0212 114.172 80.7234 111C75.3108 109.22 69.7979 107.761 64.2134 106.63C62.9434 106.36 61.6734 106.11 60.4034 105.86C59.7334 104.98 59.0634 104.08 58.4034 103.16C56.9134 101.01 54.0134 102.66 53.9834 104.77C51.2634 104.36 48.5334 104.01 45.7834 103.77C42.5534 103.49 39.3134 103.48 36.0834 103.26C33.4665 103.243 30.8952 102.573 28.6034 101.31C26.1834 99.7899 24.2034 97.7099 21.9234 96.0099C20.6334 95.0099 18.3734 93.2599 16.6634 93.1999H16.3034C15.5745 92.7328 14.729 92.4798 13.8634 92.4699C11.8634 92.2699 9.75339 92.1199 7.70338 91.8799C3.75467 91.4901 -0.153107 90.7607 -3.97661 89.6999C-7.2666 88.6999 -10.6066 87.4299 -12.9166 84.7899C-14.6466 82.7099 -15.6466 80.0299 -16.6466 77.5199C-17.7064 74.5172 -19.1055 71.6453 -20.8166 68.9599C-22.8555 65.9209 -25.4676 63.3088 -28.5066 61.2699C-31.448 59.3708 -34.7506 58.1009 -38.2066 57.5399C-42.1166 56.8799 -46.0666 57.2699 -49.9966 57.4699C-59.8366 57.9499 -69.6866 58.1699 -79.5166 58.6799L-84.0366 58.9399C-86.7539 57.4654 -89.5947 56.2308 -92.5266 55.2499C-97.2666 53.5299 -102.027 51.7899 -106.017 48.6099C-108.527 46.6099 -111.417 50.7899 -108.847 52.7399C-105.209 55.3816 -101.203 57.474 -96.9566 58.9499C-94.3866 59.9499 -91.7266 60.7899 -89.2566 61.9499C-89.2498 62.2611 -89.1789 62.5675 -89.0481 62.85C-88.9174 63.1324 -88.7297 63.3848 -88.4969 63.5914C-88.2641 63.7979 -87.9911 63.9541 -87.6951 64.0502C-87.399 64.1464 -87.0864 64.1803 -86.7766 64.1499L-85.3466 64.0699C-82.3054 66.1346 -79.8521 68.9531 -78.2266 72.2499C-76.9766 74.6799 -75.8666 77.1799 -74.7966 79.7099V79.6499C-83.7266 69.2099 -98.1166 65.6499 -111.147 63.7799C-124.697 61.7799 -138.527 61.8599 -151.997 59.2699C-156.997 58.2699 -161.877 57.0999 -166.807 55.9799C-170.714 54.9883 -174.678 54.2336 -178.677 53.7199C-181.757 53.3899 -184.847 53.1599 -187.907 52.6599C-189.327 52.4627 -190.728 52.1482 -192.097 51.7199C-192.694 51.5195 -193.282 51.2892 -193.857 51.0299C-193.929 50.9894 -194.006 50.9591 -194.087 50.9399L-194.277 50.7999C-194.467 50.6599 -194.667 50.5199 -194.847 50.3699C-194.929 50.2853 -195.006 50.1951 -195.077 50.0999C-195.126 50.0164 -195.169 49.9295 -195.207 49.8399L-195.407 49.3299C-195.407 49.2599 -195.567 48.6599 -195.597 48.5199C-195.807 47.2544 -195.908 45.9729 -195.897 44.6899C-195.897 41.3399 -195.547 37.9999 -195.257 34.6899C-195.257 34.2299 -195.177 33.7699 -195.147 33.3199C-194.927 30.5409 -194.927 27.7489 -195.147 24.9699C-195.597 19.9699 -196.427 15.1199 -196.737 10.1599C-196.837 8.65992 -196.867 7.15992 -196.827 5.66992C-188.224 7.58795 -179.52 9.02352 -170.757 9.96992C-166.417 10.4599 -162.067 10.9699 -157.687 10.9699C-153.627 11.0299 -149.537 10.9699 -145.487 11.3199C-141.638 11.5854 -137.928 12.8579 -134.727 15.0099C-134.601 15.3941 -134.373 15.7364 -134.066 15.9993C-133.759 16.2621 -133.386 16.4353 -132.987 16.4999H-132.837C-132.517 16.8301 -132.102 17.052 -131.65 17.1345C-131.199 17.217 -130.732 17.156 -130.317 16.9599C-109.257 21.0099 -87.6466 20.8999 -66.1866 21.5199C-55.4766 21.8199 -44.7466 22.3699 -34.1066 23.7399C-28.9566 24.3999 -23.8566 25.3299 -18.7566 26.3699C-14.4466 27.2499 -10.1166 28.0399 -5.87662 29.2399C-1.69269 30.3051 2.27341 32.0919 5.84338 34.5199C9.44986 37.2769 12.5033 40.69 14.8434 44.5799C15.0534 44.9099 15.2334 45.2499 15.4334 45.5799C15.4412 46.0046 15.5597 46.4198 15.7771 46.7846C15.9946 47.1494 16.3036 47.4511 16.6734 47.6599C18.3334 50.5999 19.8034 53.6599 21.2834 56.6599C23.2034 60.6599 25.0434 64.7599 27.7034 68.2899C33.2541 75.417 40.7856 80.7465 49.3534 83.6099C54.0034 85.2099 58.8634 85.6099 63.6634 86.5399C68.4634 87.4699 72.3934 90.0699 76.6634 92.4099C85.8434 97.4099 97.0634 98.1299 107.293 98.8099C112.543 99.1599 117.803 99.2599 122.963 100.41C124.253 100.7 125.533 101.02 126.823 101.34C128.113 101.66 129.363 101.96 130.633 102.23C133.108 102.722 135.621 102.989 138.143 103.03C139.661 103.059 141.177 103.169 142.683 103.36C142.683 103.48 142.753 103.61 142.803 103.73C142.947 104.238 143.276 104.674 143.727 104.95C144.177 105.227 144.715 105.323 145.233 105.22C145.633 106.13 146.033 107.02 146.453 107.89Z" fill="#FAAE66"/>
<path d="M156.453 205.33C164.923 209.15 174.233 209.72 183.363 210.52C183.222 206.17 182.219 201.89 180.413 197.93C178.544 193.566 175.882 189.585 172.563 186.19C169.68 183.4 166.183 181.325 162.353 180.13C157.961 178.678 153.446 177.63 148.863 177C146.342 176.593 143.796 176.363 141.243 176.31C141.433 176.57 141.603 176.84 141.793 177.09C145.879 182.449 151.541 186.393 157.983 188.37C158.318 188.427 158.638 188.551 158.923 188.736C159.208 188.92 159.453 189.161 159.642 189.443C159.831 189.726 159.961 190.043 160.023 190.377C160.085 190.711 160.078 191.054 160.004 191.386C159.929 191.717 159.787 192.03 159.587 192.304C159.388 192.579 159.134 192.81 158.842 192.984C158.55 193.158 158.226 193.27 157.889 193.314C157.552 193.358 157.21 193.333 156.883 193.24C152.687 191.968 148.733 190.004 145.183 187.43C142.107 185.113 139.409 182.333 137.183 179.19C136.427 182.153 136.783 185.291 138.183 188.01C141.643 195.69 148.863 201.92 156.453 205.33Z" fill="#B6D991"/>
<path d="M55.0639 39.65C55.9195 39.0633 56.744 38.4324 57.5339 37.76C57.7977 37.5142 58.1196 37.3394 58.4694 37.2519C58.8192 37.1645 59.1855 37.1672 59.5339 37.26C63.1639 35.26 66.7439 33.15 70.424 31.26C77.124 27.75 83.9739 25.15 91.5539 24.43C94.7739 24.12 95.2539 29.28 92.0539 29.43C84.9139 29.7 77.9439 32.86 71.7839 36.21C66.8739 38.88 62.0839 41.92 57.0439 44.37C56.0439 45.04 54.9839 45.67 53.9039 46.24C58.6039 48.32 64.2239 48.66 69.1839 48.8C75.4239 48.97 81.7439 49.01 87.7639 47.16C92.9096 45.5885 97.5971 42.7918 101.424 39.01C103.554 36.9 105.594 34.64 107.614 32.42C108.572 31.4511 109.396 30.358 110.064 29.17C110.316 28.7184 110.479 28.2228 110.544 27.71C110.527 27.4502 110.487 27.1925 110.424 26.94C110.315 26.6501 110.17 26.3747 109.994 26.12C109.956 26.0693 109.923 26.0158 109.894 25.96C109.847 25.9135 109.803 25.8634 109.764 25.81C109.448 25.4598 109.114 25.126 108.764 24.81C107.879 24.064 106.932 23.3949 105.934 22.81C103.781 21.474 101.532 20.3007 99.2039 19.3C93.2303 16.6932 86.6944 15.6397 80.2043 16.2377C73.7141 16.8356 67.4807 19.0656 62.0839 22.72C58.6678 25.0996 55.8339 28.2208 53.7939 31.85C52.1057 34.9942 51.0844 38.453 50.7939 42.01C50.9869 41.7788 51.2296 41.5942 51.5039 41.47C52.7039 40.83 53.8839 40.25 55.0639 39.65Z" fill="#A3D280"/>
<path d="M-22.8961 129.08C-27.3861 124.43 -33.8061 121.6 -39.7061 119.24C-43.2561 117.82 -46.8661 116.58 -50.4961 115.44C-47.8361 123.83 -42.9161 131.37 -35.4961 136.33C-31.8006 138.789 -27.6964 140.57 -23.3761 141.59C-21.2581 142.104 -19.1004 142.438 -16.9261 142.59C-16.5681 142.274 -16.118 142.082 -15.6425 142.043C-15.167 142.003 -14.6913 142.118 -14.2861 142.37C-14.0761 142.48 -13.8761 142.6 -13.6761 142.73C-12.4061 142.73 -11.1261 142.73 -9.85609 142.73C-6.08609 142.62 -2.4361 142.68 1.4239 141.73L1.82391 141.62C1.97391 141.56 2.12391 141.51 2.26391 141.44C2.40391 141.37 2.42391 141.36 2.51391 141.32C2.50728 141.21 2.50728 141.1 2.51391 140.99C2.21652 139.071 1.53638 137.231 0.513908 135.58C-3.28992 128.727 -8.74727 122.934 -15.3614 118.728C-21.9756 114.522 -29.5365 112.037 -37.3561 111.5C-40.0105 111.29 -42.681 111.438 -45.2961 111.94C-42.2961 112.94 -39.3961 114.01 -36.5161 115.21C-30.5161 117.72 -24.3261 120.71 -19.6361 125.34C-19.1376 125.771 -18.8265 126.38 -18.7687 127.037C-18.7108 127.694 -18.9107 128.348 -19.3261 128.86C-19.5446 129.111 -19.8109 129.316 -20.1094 129.463C-20.408 129.61 -20.7328 129.697 -21.065 129.717C-21.3973 129.738 -21.7302 129.692 -22.0446 129.582C-22.3589 129.473 -22.6484 129.302 -22.8961 129.08Z" fill="#A3D280"/>
<path d="M-15.1966 147.65C-18.9146 147.511 -22.6049 146.951 -26.1966 145.98C-26.3829 146.865 -26.41 147.776 -26.2766 148.67C-26.1266 149.768 -25.8411 150.842 -25.4266 151.87C-24.4059 154.418 -23.0615 156.825 -21.4266 159.03C-17.8755 163.873 -13.8083 168.316 -9.2966 172.28C-6.8966 174.44 -10.3566 178.04 -12.7466 175.9C-17.7789 171.523 -22.2557 166.546 -26.0766 161.08C-29.3266 156.27 -32.4966 150.29 -30.9166 144.39C-33.1385 143.502 -35.2769 142.417 -37.3066 141.15C-37.3066 141.91 -37.3066 142.68 -37.3066 143.47C-37.4616 146.224 -37.4616 148.985 -37.3066 151.74C-36.8646 157.462 -34.9529 162.973 -31.7566 167.74C-28.9885 171.643 -25.34 174.839 -21.1066 177.07C-13.2166 181.38 -4.2866 183.16 4.5134 184.68C4.64007 183.863 4.70691 183.037 4.7134 182.21C4.70813 181.525 4.66808 180.841 4.5934 180.16C4.5034 179.31 4.36339 178.46 4.19339 177.62C2.8434 170.9 -0.606606 164.62 -4.51661 159C-6.40439 156.293 -8.52224 153.753 -10.8466 151.41C-12.1779 150.025 -13.634 148.767 -15.1966 147.65Z" fill="#B6D991"/>
<path d="M240.904 177C240.98 177.657 240.796 178.317 240.39 178.839C239.984 179.361 239.389 179.702 238.734 179.79C233.854 179.79 228.964 179.67 224.094 179.27C228.654 183.42 235.014 184.93 241.284 184.27C245.404 183.81 249.014 182.04 252.694 180.27C254.388 179.387 256.15 178.642 257.964 178.04C258.764 177.8 259.574 177.58 260.384 177.36H260.494C260.286 176.832 260.046 176.317 259.774 175.82C259.053 174.587 258.146 173.474 257.084 172.52C254.678 170.41 251.915 168.747 248.924 167.61C246.071 166.437 243.105 165.559 240.074 164.99C237.122 164.301 234.063 164.203 231.074 164.7C228.436 165.341 226.065 166.793 224.294 168.85C222.744 170.46 221.344 172.21 219.934 173.94C225.975 174.637 232.052 174.971 238.134 174.94C238.769 174.878 239.404 175.055 239.916 175.436C240.428 175.816 240.78 176.374 240.904 177Z" fill="#B6D991"/>
<path d="M280.224 17.86C274.623 18.0068 269.067 18.9014 263.704 20.5201C259.142 21.9338 254.79 23.9517 250.764 26.5201C246.179 29.391 242.005 32.8692 238.354 36.8601C236.16 39.2021 234.333 41.8621 232.934 44.7501C237.574 41.8473 242.704 39.8141 248.074 38.7501C250.454 33.9501 254.544 30.75 259.274 28.29C263.704 25.97 268.484 24.2301 272.274 21.0301C272.809 20.6421 273.475 20.4792 274.13 20.5764C274.784 20.6736 275.374 21.0231 275.774 21.5501C276.152 22.089 276.309 22.7526 276.212 23.4038C276.115 24.055 275.772 24.6443 275.254 25.0501C271.754 28.0501 267.464 29.7701 263.394 31.7801C260.094 33.4201 256.784 35.2501 254.394 37.9901C256.265 37.9033 258.14 37.9568 260.004 38.1501C264.117 38.6269 268.169 39.5318 272.094 40.8501C273.007 40.8448 273.906 40.6183 274.714 40.1901C275.756 39.7642 276.738 39.2027 277.634 38.5201C278.606 37.798 279.516 36.9952 280.354 36.1201C282.539 33.9234 284.576 31.585 286.454 29.1201C288.914 25.9501 291.254 22.4701 294.014 19.4901C289.53 18.2328 284.877 17.6829 280.224 17.86Z" fill="#B6D991"/>
<path d="M160.353 102.39C157.41 104.089 154.099 105.047 150.703 105.18C152.997 110.168 156.556 114.468 161.025 117.656C165.495 120.843 170.72 122.806 176.183 123.35C184.283 124.17 192.403 122.19 200.183 119.98C195.261 114.569 189.267 110.242 182.582 107.272C175.897 104.302 168.668 102.755 161.353 102.73C160.994 102.715 160.647 102.597 160.353 102.39Z" fill="#B6D991"/>
<path d="M271.273 45.7999C269.673 45.7999 268.133 45.4999 267.333 44.6099C264.389 43.7894 261.377 43.2372 258.333 42.9599C253.763 42.6703 249.18 43.2784 244.843 44.7499C236.353 47.4199 227.093 53.0599 224.903 62.1999H226.203C235.043 56.4799 245.803 54.1999 255.633 50.8099C258.683 49.8099 260.173 54.5199 257.133 55.5799C252.423 57.2299 247.623 58.6399 242.893 60.2099C239.681 61.2261 236.535 62.4418 233.473 63.8499C237.423 64.4299 241.373 65.0899 245.363 65.4499C253.565 66.225 261.837 65.1731 269.583 62.3699C276.152 59.9104 282.487 56.8683 288.513 53.2799C284.269 51.0091 279.887 49.0052 275.393 47.2799C274.063 46.7799 272.673 46.2699 271.273 45.7999Z" fill="#A3D280"/>
<path d="M246.124 101.73C247.541 103.975 249.358 105.941 251.484 107.53C256.926 111.722 263.121 114.832 269.734 116.69C272.959 117.678 276.265 118.381 279.614 118.79C281.244 118.983 282.883 119.087 284.524 119.1C285.164 119.1 285.804 119.1 286.444 119.05C285.96 115.2 284.773 111.472 282.944 108.05C275.844 94.7199 260.454 85.9799 245.354 85.1699C248.072 88.4244 251.261 91.2555 254.814 93.5699C259.39 96.7409 264.231 99.5111 269.284 101.85C269.849 102.194 270.256 102.747 270.417 103.389C270.577 104.03 270.48 104.71 270.144 105.28C269.788 105.831 269.235 106.226 268.597 106.384C267.96 106.542 267.286 106.451 266.714 106.13C261.233 103.683 256.024 100.666 251.174 97.1299C248.489 95.2146 245.971 93.077 243.644 90.7399C243.164 90.2399 242.704 89.7399 242.254 89.2099C242.654 91.1199 243.064 93.0299 243.554 94.9099C244.088 97.2922 244.953 99.5879 246.124 101.73Z" fill="#B6D991"/>
<path d="M186.354 71.5898C184.666 72.6615 183.174 74.0144 181.944 75.5898C178.601 84.1721 173.288 91.8486 166.434 97.9998C168.174 98.1498 169.914 98.3698 171.634 98.6898C171.701 98.2425 171.874 97.8177 172.138 97.4506C172.402 97.0836 172.751 96.7851 173.154 96.5798C176.774 94.4898 179.154 90.7598 181.154 87.2198C185.154 80.2198 188.854 72.6998 197.154 70.1298C201.354 68.8198 205.654 67.6598 210.014 66.7298C205.092 66.6245 200.174 67.074 195.354 68.0698C192.175 68.7236 189.132 69.914 186.354 71.5898Z" fill="#ED9254"/>
<path d="M299.643 16.1401C294.037 13.8837 288.036 12.7718 281.993 12.8701C275.885 12.83 269.799 13.6206 263.903 15.2201C253.023 18.1401 243.013 24.7101 235.263 32.8201C230.753 37.5501 226.963 43.3801 226.263 50.0101C223.054 53.1931 220.841 57.2409 219.893 61.6601C219.884 61.7732 219.884 61.8869 219.893 62.0001C215.363 61.8101 210.823 61.6301 206.273 61.7901C198.923 62.0401 191.083 63.0101 184.633 66.7901C184.963 65.3101 185.233 63.7901 185.443 62.3401C186.234 56.8495 186.204 51.2717 185.353 45.7901C185.28 45.1368 184.96 44.5365 184.457 44.1124C183.955 43.6883 183.309 43.4727 182.653 43.5101C172.021 44.2093 161.965 48.5904 154.213 55.9001C146.261 63.4832 141.365 73.7194 140.453 84.6701C140.077 89.1926 140.377 93.746 141.343 98.1801C138.133 97.9401 134.883 98.0301 131.733 97.3401C126.603 96.2101 121.593 94.7601 116.333 94.3901C105.813 93.6401 95.1432 93.3901 84.9532 90.3901C80.2832 89.0201 76.4733 86.1601 72.1533 84.0501C67.4133 81.7401 62.2733 81.2301 57.1533 80.3701C48.4936 78.9237 40.5132 74.776 34.3533 68.5201C31.2533 65.3201 29.1933 61.5201 27.2133 57.5801C25.8133 54.7601 24.4733 51.9101 23.0533 49.1001C24.8932 49.5401 26.7233 50.0101 28.5833 50.3501C32.371 51.1003 36.2569 51.2186 40.0833 50.7001C42.8366 50.2885 45.5452 49.6188 48.1733 48.7001C53.5233 52.2801 60.0633 53.2101 66.3733 53.6201C72.6833 54.0301 78.9933 54.1301 85.1032 52.9101C91.1203 51.7795 96.7805 49.2288 101.613 45.4701C104.104 43.343 106.443 41.044 108.613 38.5901C110.753 36.3401 113.263 34.1001 114.613 31.2401C115.323 29.8634 115.607 28.3065 115.429 26.7678C115.251 25.229 114.619 23.7782 113.613 22.6001C111.771 20.5583 109.576 18.8646 107.133 17.6001C102.599 14.904 97.6532 12.9684 92.4933 11.8701C82.3713 9.81955 71.8507 11.3948 62.7733 16.3201C53.7233 21.4101 47.2033 29.9201 45.8733 40.3201C45.7233 41.6148 45.6432 42.9167 45.6333 44.2201C43.4835 44.9052 41.2787 45.4037 39.0433 45.7101C32.4633 46.6001 26.3033 44.4801 19.9333 43.3101C15.5133 36.0001 9.65326 29.8401 1.54326 26.5201C-2.72774 24.8472 -7.14281 23.5686 -11.6467 22.7001C-16.3067 21.7001 -20.9767 20.7001 -25.6467 19.9301C-36.206 18.2438 -46.8599 17.2151 -57.5468 16.8501C-79.7467 15.8501 -102.187 16.5301 -124.207 13.0101C-126.367 12.6601 -128.517 12.2601 -130.667 11.8301C-137.007 6.64007 -145.187 6.04008 -153.177 5.99008C-162.558 5.86252 -171.917 5.04026 -181.177 3.53007C-186.987 2.63007 -192.787 1.53007 -198.497 0.120073C-198.858 0.00510401 -199.24 -0.0278585 -199.616 0.0235806C-199.992 0.0750198 -200.351 0.209569 -200.668 0.417433C-200.985 0.625297 -201.252 0.901242 -201.449 1.22519C-201.646 1.54913 -201.768 1.91292 -201.807 2.29008C-202.317 7.62008 -201.727 12.9601 -201.087 18.2901C-200.787 20.7501 -200.467 23.2001 -200.247 25.6701C-200.147 26.8101 -200.067 27.9601 -200.007 29.1101V29.3301C-200.007 29.7001 -200.007 30.0701 -200.007 30.4401C-200.167 33.5801 -200.547 36.7001 -200.757 39.8401C-201.122 43.0515 -201.052 46.2976 -200.547 49.4901C-200.32 50.8758 -199.741 52.1801 -198.866 53.278C-197.99 54.3759 -196.847 55.2305 -195.547 55.7601C-192.526 56.9569 -189.345 57.6983 -186.107 57.9601C-183.277 58.3201 -180.427 58.4701 -177.597 58.8701C-172.837 59.5401 -168.117 60.7701 -163.437 61.8701C-155.693 63.7584 -147.832 65.1314 -139.907 65.9801C-132.907 66.6501 -125.907 67.0901 -118.907 67.8401C-105.907 69.2401 -91.2667 71.3601 -81.1967 80.2601C-76.5367 84.3901 -74.0167 90.2601 -71.4267 96.0401C-70.3467 98.4401 -69.2267 100.92 -67.9368 103.3C-67.8268 103.67 -67.7067 104.04 -67.5667 104.4C-67.3453 105 -66.9436 105.517 -66.4167 105.88C-64.7809 108.577 -62.6622 110.95 -60.1667 112.88C-58.8121 113.886 -57.3332 114.713 -55.7668 115.34C-53.7243 122.936 -49.7723 129.883 -44.2867 135.52C-44.3048 135.882 -44.2383 136.243 -44.0925 136.574C-43.9467 136.906 -43.7256 137.199 -43.4467 137.43C-41.6967 138.99 -42.1967 142.51 -42.3067 144.55C-42.4919 147.403 -42.4417 150.266 -42.1568 153.11C-41.5423 159.35 -39.3728 165.336 -35.8468 170.52C-29.8468 179.16 -20.2967 183.77 -10.4267 186.52C-4.9882 187.963 0.522812 189.118 6.08325 189.98C6.6219 190.054 7.17006 189.952 7.64586 189.689C8.12166 189.426 8.4996 189.016 8.72325 188.52C11.0332 181.64 9.01324 174.12 6.20325 167.7C3.11087 160.686 -1.16856 154.259 -6.44675 148.7C-6.82675 148.3 -7.21675 147.91 -7.60675 147.52C-4.54872 147.522 -1.49663 147.251 1.51326 146.71C3.41325 146.31 5.59325 145.71 6.70325 143.94C7.97325 141.94 7.44325 139.36 6.70325 137.26C2.96324 126.61 -6.08675 117.91 -15.7968 112.61C-22.0273 109.217 -28.8899 107.144 -35.9568 106.52C-41.7368 106 -48.0468 106.47 -53.1667 109.4L-53.4967 109.3C-53.8667 109.171 -54.265 109.147 -54.6478 109.23C-55.0307 109.313 -55.3832 109.5 -55.6667 109.77C-58.9467 107.86 -61.2867 104.77 -63.1967 101.43C-63.5793 99.5717 -63.8465 97.6914 -63.9967 95.8001C-64.2285 93.1871 -64.8451 90.6227 -65.8268 88.1901C-68.1367 82.8001 -70.2567 77.3301 -72.8268 72.0401C-74.2057 68.9801 -76.0324 66.1423 -78.2467 63.6201C-70.6568 63.2401 -63.0467 62.9701 -55.4567 62.6801C-51.0967 62.5201 -46.6667 62.0001 -42.3167 62.1301C-39.1415 62.2042 -36.02 62.965 -33.1667 64.3601C-27.1667 67.3601 -23.8767 72.8801 -21.5067 78.8701C-20.5596 81.6674 -19.259 84.3323 -17.6367 86.8001C-15.5646 89.5827 -12.7554 91.7302 -9.52675 93.0001C-5.79837 94.4783 -1.9131 95.5251 2.05325 96.1201C4.05325 96.4401 5.97325 96.6801 7.94325 96.8901C10.2063 97.2549 12.4916 97.4654 14.7832 97.5201H14.9633C15.2319 97.7555 15.5356 97.9478 15.8633 98.0901C18.1532 99.0901 20.0833 100.89 21.9532 102.49C23.9066 104.293 26.1431 105.763 28.5733 106.84C33.5733 108.84 39.2332 108.27 44.4733 108.65C48.8885 108.994 53.2816 109.578 57.6332 110.4C59.0533 112.22 60.4733 114.04 61.7133 115.97C58.5933 117.97 57.3532 122.31 56.7832 125.81C56.082 130.048 55.9743 134.363 56.4633 138.63C57.6333 148.35 63.9033 156.63 72.4033 161.21C76.7032 163.52 81.4033 165.07 85.9232 166.81C90.2232 168.45 96.6732 170.51 99.3532 165.25C100.583 162.84 100.583 159.97 100.663 157.33C100.847 154.542 100.77 151.744 100.433 148.97C99.6133 143.88 97.1532 139.58 94.0332 135.56C92.1132 133.1 90.1033 130.72 88.1833 128.26C86.2632 125.8 84.4732 123.45 82.3932 121.26C77.9232 116.52 72.3932 113.1 65.7232 113.15C65.4532 112.73 65.1732 112.31 64.8932 111.9C69.1969 112.779 73.4498 113.891 77.6332 115.23C95.0794 121.077 110.496 131.779 122.073 146.08C123.396 150.062 124.921 153.974 126.643 157.8C128.493 162.01 130.203 166.3 132.093 170.49C132.663 171.76 133.293 173 133.963 174.22C128.273 183.09 134.223 193.44 140.563 200.12C147.723 207.65 157.053 211.94 167.203 213.77C173.323 214.87 179.553 215.19 185.733 215.77C187.163 215.91 188.123 214.51 188.233 213.27C188.57 208.058 187.722 202.837 185.753 198C183.874 192.944 181.081 188.276 177.513 184.23C174.329 180.629 170.322 177.851 165.833 176.13C161.146 174.393 156.295 173.136 151.353 172.38C147.018 171.53 142.595 171.218 138.183 171.45C136.073 167.45 134.433 163.27 132.673 159.14C133.133 159.59 133.603 160.04 134.093 160.47C136.376 162.512 139.017 164.112 141.883 165.19C144.572 166.042 147.204 167.064 149.763 168.25C153.205 170.333 157.056 171.646 161.053 172.1C165.443 172.74 169.933 172.72 174.283 173.65C177.494 174.281 180.507 175.67 183.073 177.7C185.549 179.869 187.886 182.19 190.073 184.65C192.481 187.332 195.231 189.686 198.253 191.65C201.39 193.547 204.749 195.052 208.253 196.13C215.323 198.33 222.813 199.05 230.163 199.49C238.093 199.97 246.083 199.94 253.973 201.02C257.153 201.46 257.973 196.53 254.823 196.1C240.373 194.1 225.463 195.66 211.263 191.8C207.869 190.924 204.607 189.599 201.563 187.86C198.527 185.947 195.773 183.618 193.383 180.94C191.152 178.428 188.757 176.066 186.213 173.87C183.169 171.427 179.604 169.716 175.793 168.87C171.053 167.87 166.153 167.87 161.363 167.1C159.31 166.815 157.297 166.295 155.363 165.55C157.906 164.369 160.374 163.034 162.753 161.55C164.933 160.32 166.943 159.21 169.473 159.13C172.531 159.204 175.513 160.103 178.103 161.73C180.873 163.27 183.403 165.19 186.003 166.98C188.785 168.912 191.714 170.624 194.763 172.1C201.086 175.006 207.779 177.025 214.653 178.1L216.843 178.43C216.838 178.456 216.838 178.484 216.843 178.51C221.653 185.78 229.843 189.51 238.443 189.38C243.098 189.287 247.675 188.164 251.843 186.09C253.973 185.09 256.063 183.93 258.263 183.09C259.713 182.53 261.173 182.27 262.673 181.73C263.373 181.527 264.006 181.143 264.508 180.616C265.01 180.089 265.364 179.438 265.533 178.73C265.923 176.91 264.973 175.02 264.113 173.47C262.107 170.086 259.24 167.295 255.803 165.38C252.378 163.385 248.698 161.865 244.863 160.86C241.109 159.746 237.209 159.206 233.293 159.26C229.177 159.393 225.24 160.972 222.173 163.72C219.173 166.44 216.803 169.86 214.083 172.88C208.574 171.913 203.202 170.285 198.083 168.03C195.126 166.714 192.292 165.137 189.613 163.32C186.963 161.51 184.383 159.6 181.613 157.93C176.083 154.57 169.793 152.76 163.613 155.42C160.903 156.58 158.443 158.28 155.843 159.67C153.843 160.72 151.073 162.3 148.783 161.47C148.114 161.21 147.372 161.21 146.703 161.47C143.593 160.37 140.483 159.31 137.903 157.11C135.879 155.32 134.034 153.337 132.393 151.19C127.393 138.38 122.313 124.66 111.733 115.38H111.903C116.213 116.46 120.523 117.47 124.993 117.29C132.783 116.98 139.773 112.21 147.643 112.83C148.158 112.888 148.676 112.768 149.113 112.49C152.134 116.976 156.104 120.741 160.743 123.52C169.033 128.45 178.643 129.3 188.043 127.89C193.92 126.876 199.723 125.473 205.413 123.69C205.769 123.552 206.089 123.336 206.35 123.056C206.61 122.777 206.803 122.442 206.914 122.077C207.026 121.712 207.054 121.326 206.994 120.949C206.935 120.572 206.791 120.213 206.573 119.9C199.065 110.315 188.719 103.35 177.013 100C183.013 95.7001 185.643 88.6701 189.573 82.5801C191.523 79.5801 193.573 77.1101 196.843 75.5801C199.111 74.6746 201.453 73.9686 203.843 73.4701C206.553 72.7501 209.273 72.0701 212.023 71.4701C216.805 70.4527 221.649 69.7578 226.523 69.3901C227.561 69.6829 228.542 70.1495 229.423 70.7701C229.703 70.9701 229.973 71.1801 230.233 71.4001L230.593 71.7201C231.063 72.187 231.498 72.6884 231.893 73.2201C233.37 75.2992 234.455 77.6309 235.093 80.1001C236.843 85.6401 237.453 91.4801 238.993 97.1001C239.664 99.6752 240.673 102.15 241.993 104.46C243.608 106.988 245.636 109.226 247.993 111.08C253.596 115.54 259.987 118.909 266.833 121.01C274.193 123.4 282.133 124.79 289.833 123.75C290.364 123.618 290.836 123.314 291.176 122.885C291.516 122.456 291.705 121.927 291.713 121.38C290.783 101.31 273.353 86.2001 254.813 81.6101C250.08 80.4259 245.195 79.9641 240.323 80.2401C240.153 79.6101 239.983 78.9801 239.793 78.3501C238.841 74.9554 237.166 71.8067 234.883 69.1201C242.193 70.1901 249.473 71.2601 256.883 70.5201C265.643 69.6501 274.203 66.5201 282.033 62.5201C286.383 60.3401 290.613 57.9601 294.773 55.4501C296.273 54.5401 296.773 52.1401 295.013 51.1401C289.976 48.2081 284.74 45.6318 279.343 43.4301C282.993 41.1701 286.003 37.6501 288.613 34.4301C290.793 31.7301 292.863 28.9401 295.003 26.2101C296.554 24.0749 298.339 22.1194 300.323 20.3801C300.647 20.098 300.894 19.738 301.04 19.334C301.187 18.9301 301.228 18.4956 301.16 18.0714C301.092 17.6471 300.917 17.2472 300.652 16.9094C300.386 16.5715 300.039 16.3067 299.643 16.1401ZM53.8233 31.7501C55.8632 28.1209 58.6971 24.9997 62.1133 22.6201C67.51 18.9657 73.7434 16.7357 80.2336 16.1378C86.7237 15.5398 93.2596 16.5932 99.2332 19.2001C101.561 20.2008 103.81 21.374 105.963 22.7101C106.962 23.295 107.909 23.9641 108.793 24.7101C109.143 25.0261 109.477 25.3598 109.793 25.7101C109.832 25.7635 109.876 25.8136 109.923 25.8601C109.952 25.9159 109.986 25.9694 110.023 26.0201C110.2 26.2748 110.344 26.5502 110.453 26.8401C110.516 27.0926 110.557 27.3503 110.573 27.6101C110.508 28.1229 110.345 28.6185 110.093 29.0701C109.426 30.2581 108.602 31.3512 107.643 32.3201C105.643 34.5401 103.583 36.8001 101.453 38.9101C97.6264 42.6919 92.9389 45.4886 87.7932 47.0601C81.7932 48.9101 75.4532 48.8701 69.2133 48.7001C64.2133 48.5601 58.6333 48.2201 53.9333 46.1401C55.0132 45.5701 56.0533 44.9401 57.0732 44.2701C62.0732 41.8201 66.9033 38.7801 71.8133 36.1101C77.9733 32.7601 84.9432 29.6001 92.0833 29.3301C95.2833 29.2001 94.8033 24.0401 91.5833 24.3301C84.0033 25.0501 77.1533 27.6501 70.4532 31.1601C66.7733 33.0901 63.1933 35.1601 59.5633 37.1601C59.2148 37.0673 58.8485 37.0645 58.4987 37.152C58.1489 37.2394 57.8271 37.4143 57.5633 37.6601C56.7733 38.3325 55.9488 38.9634 55.0933 39.5501C53.9133 40.1501 52.7333 40.7301 51.5233 41.2701C51.2489 41.3943 51.0063 41.5789 50.8133 41.8101C51.1203 38.2866 52.1446 34.8631 53.8233 31.7501ZM-4.47675 159C-0.566742 164.57 2.88324 170.9 4.23325 177.62C4.40324 178.46 4.54326 179.31 4.63326 180.16C4.70793 180.841 4.74799 181.525 4.75325 182.21C4.74677 183.037 4.67992 183.863 4.55325 184.68C-4.24675 183.16 -13.1767 181.38 -21.0667 177.07C-25.3001 174.839 -28.9486 171.643 -31.7168 167.74C-34.913 162.973 -36.8247 157.462 -37.2668 151.74C-37.4218 148.986 -37.4218 146.225 -37.2668 143.47C-37.2668 142.68 -37.2668 141.91 -37.2668 141.15C-35.237 142.417 -33.0986 143.502 -30.8768 144.39C-32.4568 150.29 -29.2867 156.27 -26.0367 161.08C-22.2158 166.546 -17.7391 171.523 -12.7067 175.9C-10.3167 178.04 -6.85675 174.44 -9.25674 172.28C-13.7684 168.316 -17.8357 163.873 -21.3867 159.03C-23.0217 156.825 -24.3661 154.418 -25.3867 151.87C-25.8013 150.843 -26.0868 149.768 -26.2368 148.67C-26.3701 147.776 -26.343 146.865 -26.1568 145.98C-22.565 146.951 -18.8748 147.511 -15.1568 147.65C-13.5803 148.765 -12.1107 150.024 -10.7668 151.41C-8.45625 153.755 -6.35181 156.294 -4.47675 159ZM-19.6467 125.25C-24.3367 120.62 -30.5067 117.63 -36.5267 115.12C-39.4068 113.92 -42.3367 112.84 -45.3067 111.85C-42.6917 111.349 -40.0212 111.201 -37.3667 111.41C-29.5512 111.957 -21.9965 114.45 -15.3896 118.66C-8.78273 122.871 -3.33324 128.667 0.463257 135.52C1.48573 137.171 2.16586 139.011 2.46326 140.93C2.45662 141.04 2.45662 141.15 2.46326 141.26C2.37326 141.26 2.30325 141.35 2.21326 141.38C2.12326 141.41 1.92325 141.5 1.77325 141.56L1.37325 141.67C-2.48676 142.62 -6.13675 142.56 -9.90675 142.67C-11.1768 142.67 -12.4567 142.67 -13.7267 142.67C-13.9267 142.54 -14.1267 142.42 -14.3367 142.31C-14.742 142.058 -15.2176 141.944 -15.6932 141.983C-16.1687 142.023 -16.6188 142.215 -16.9767 142.53C-19.151 142.379 -21.3087 142.044 -23.4267 141.53C-27.7471 140.51 -31.8512 138.729 -35.5468 136.27C-42.9268 131.27 -47.8468 123.77 -50.5468 115.38C-46.9167 116.52 -43.3067 117.76 -39.7567 119.18C-33.8568 121.54 -27.4368 124.37 -22.9467 129.02C-22.4376 129.443 -21.7822 129.648 -21.123 129.589C-20.4637 129.531 -19.8541 129.215 -19.4267 128.71C-19.0183 128.213 -18.8138 127.579 -18.8546 126.937C-18.8955 126.294 -19.1786 125.692 -19.6467 125.25ZM137.153 179.19C139.379 182.333 142.077 185.113 145.153 187.43C148.703 190.004 152.657 191.968 156.853 193.24C157.18 193.333 157.522 193.358 157.859 193.314C158.196 193.27 158.52 193.158 158.812 192.984C159.104 192.81 159.358 192.579 159.558 192.304C159.757 192.03 159.899 191.717 159.974 191.386C160.049 191.054 160.055 190.711 159.993 190.377C159.931 190.043 159.801 189.726 159.612 189.443C159.423 189.161 159.178 188.92 158.893 188.736C158.608 188.551 158.288 188.427 157.953 188.37C151.511 186.393 145.849 182.449 141.763 177.09C141.573 176.84 141.403 176.57 141.213 176.31C143.766 176.363 146.312 176.593 148.833 177C153.426 177.628 157.952 178.676 162.353 180.13C166.187 181.323 169.687 183.399 172.573 186.19C175.892 189.585 178.554 193.566 180.423 197.93C182.223 201.892 183.218 206.171 183.353 210.52C174.223 209.72 164.913 209.15 156.443 205.33C148.853 201.92 141.633 195.69 138.143 188.01C136.746 185.29 136.394 182.152 137.153 179.19ZM224.283 168.75C226.054 166.693 228.425 165.242 231.063 164.6C234.053 164.103 237.112 164.201 240.063 164.89C243.095 165.459 246.06 166.337 248.913 167.51C251.904 168.647 254.668 170.31 257.073 172.42C258.135 173.374 259.043 174.488 259.763 175.72C260.036 176.218 260.276 176.732 260.483 177.26H260.373C259.563 177.48 258.753 177.7 257.953 177.94C256.14 178.542 254.378 179.288 252.683 180.17C249.003 181.98 245.393 183.75 241.273 184.17C235.003 184.85 228.643 183.34 224.083 179.17C228.953 179.57 233.843 179.7 238.723 179.69C239.379 179.603 239.973 179.261 240.379 178.739C240.785 178.217 240.97 177.557 240.893 176.9C240.796 176.25 240.454 175.662 239.937 175.257C239.42 174.851 238.767 174.659 238.113 174.72C232.032 174.751 225.954 174.417 219.913 173.72C221.353 172.11 222.733 170.36 224.283 168.75ZM67.5732 132.33C68.6932 135.33 73.4333 133.7 72.2932 130.69C70.8132 126.76 70.2932 122.37 68.6432 118.39C76.9432 120.05 82.0433 128.6 87.1233 134.86C89.8133 138.17 92.7133 141.45 94.3133 145.3C96.1333 149.66 95.8832 154.35 95.6732 158.98C95.6435 159.901 95.5331 160.818 95.3433 161.72C95.2197 162.313 94.9892 162.879 94.6632 163.39L94.5732 163.47H94.4933C94.4159 163.507 94.3356 163.537 94.2532 163.56C93.8941 163.595 93.5324 163.595 93.1732 163.56H92.9132C92.6133 163.56 92.3232 163.47 92.0233 163.41C91.4532 163.29 90.8932 163.14 90.3333 162.98C88.3333 162.38 86.3932 161.56 84.4432 160.78C82.4932 160 80.5933 159.41 78.7032 158.62C74.8697 157.121 71.357 154.905 68.3532 152.09C65.3142 148.912 63.1266 145.019 61.9933 140.77C61.7794 140.1 61.6353 139.41 61.5633 138.71C61.4433 137.85 61.3633 136.99 61.3033 136.13C61.1733 134.075 61.1733 132.015 61.3033 129.96C61.4229 127.93 61.7582 125.919 62.3033 123.96C62.4232 123.57 62.5432 123.18 62.6833 122.79C62.7533 122.63 62.8132 122.46 62.8832 122.3C62.9532 122.14 63.0333 121.97 63.0533 121.94C63.3105 121.393 63.6475 120.888 64.0533 120.44C65.6233 124.28 66.1332 128.43 67.5732 132.33ZM135.833 109.82C132.203 110.97 128.503 112.34 124.653 112.46C116.023 112.74 108.033 108.3 99.3733 108.59C96.8333 108.67 96.6032 112.59 98.7932 113.38C109.793 117.54 116.483 127.32 121.383 137.59C116.933 132.767 112.023 128.389 106.723 124.52C98.7866 118.73 90.0211 114.172 80.7232 111C75.3106 109.22 69.7978 107.761 64.2133 106.63C62.9433 106.36 61.6732 106.11 60.4033 105.86C59.7332 104.98 59.0633 104.08 58.4033 103.16C56.9133 101.01 54.0133 102.66 53.9833 104.77C51.2633 104.36 48.5332 104.01 45.7832 103.77C42.5533 103.49 39.3132 103.48 36.0833 103.26C33.4664 103.244 30.8951 102.573 28.6033 101.31C26.1833 99.7901 24.2032 97.7101 21.9232 96.0101C20.6333 95.0101 18.3733 93.2601 16.6633 93.2001H16.3033C15.5744 92.7329 14.7289 92.48 13.8633 92.4701C11.8633 92.2701 9.75325 92.1201 7.70325 91.8801C3.75453 91.4902 -0.153244 90.7608 -3.97675 89.7001C-7.26674 88.7001 -10.6068 87.4301 -12.9167 84.7901C-14.6467 82.7101 -15.6467 80.0301 -16.6467 77.5201C-17.7066 74.5174 -19.1056 71.6455 -20.8167 68.9601C-22.8557 65.9211 -25.4678 63.309 -28.5067 61.2701C-31.4482 59.371 -34.7507 58.101 -38.2068 57.5401C-42.1168 56.8801 -46.0668 57.2701 -49.9967 57.4701C-59.8367 57.9501 -69.6868 58.1701 -79.5167 58.6801L-84.0368 58.9401C-86.7541 57.4656 -89.5948 56.2309 -92.5267 55.2501C-97.2667 53.5301 -102.027 51.7901 -106.017 48.6101C-108.527 46.6101 -111.417 50.7901 -108.847 52.7401C-105.209 55.3818 -101.203 57.4742 -96.9567 58.9501C-94.3867 59.9501 -91.7268 60.7901 -89.2568 61.9501C-89.25 62.2612 -89.179 62.5677 -89.0483 62.8501C-88.9175 63.1326 -88.7299 63.385 -88.4971 63.5915C-88.2642 63.7981 -87.9912 63.9543 -87.6952 64.0504C-87.3992 64.1465 -87.0865 64.1804 -86.7767 64.1501L-85.3467 64.0701C-82.3056 66.1347 -79.8523 68.9533 -78.2267 72.2501C-76.9767 74.6801 -75.8667 77.1801 -74.7967 79.7101V79.6501C-83.7267 69.2101 -98.1168 65.6501 -111.147 63.7801C-124.697 61.7801 -138.527 61.8601 -151.997 59.2701C-156.997 58.2701 -161.877 57.1001 -166.807 55.9801C-170.714 54.9885 -174.678 54.2338 -178.677 53.7201C-181.757 53.3901 -184.847 53.1601 -187.907 52.6601C-189.327 52.4628 -190.728 52.1484 -192.097 51.7201C-192.695 51.5196 -193.282 51.2893 -193.857 51.0301C-193.929 50.9895 -194.006 50.9592 -194.087 50.9401L-194.277 50.8001C-194.467 50.6601 -194.667 50.5201 -194.847 50.3701C-194.93 50.2855 -195.006 50.1953 -195.077 50.1001C-195.126 50.0165 -195.169 49.9296 -195.207 49.8401L-195.407 49.3301C-195.407 49.3301 -195.567 48.6701 -195.597 48.5201C-195.807 47.2545 -195.908 45.973 -195.897 44.6901C-195.897 41.3401 -195.547 38.0001 -195.257 34.6901C-194.947 31.4584 -194.927 28.2054 -195.197 24.9701C-195.647 19.9701 -196.477 15.1201 -196.787 10.1601C-196.887 8.66007 -196.917 7.16008 -196.877 5.67008C-188.274 7.5881 -179.57 9.02367 -170.807 9.97008C-166.467 10.4601 -162.117 10.9701 -157.737 10.9701C-153.677 11.0301 -149.587 10.9701 -145.537 11.3201C-141.689 11.5855 -137.978 12.8581 -134.777 15.0101C-134.652 15.3943 -134.423 15.7366 -134.116 15.9994C-133.809 16.2623 -133.436 16.4355 -133.037 16.5001H-132.887C-132.567 16.8303 -132.153 17.0522 -131.701 17.1347C-131.249 17.2172 -130.782 17.1561 -130.367 16.9601C-109.257 21.0101 -87.6468 20.9001 -66.1868 21.5201C-55.4767 21.8201 -44.7467 22.3701 -34.1068 23.7401C-28.9568 24.4001 -23.8568 25.3301 -18.7567 26.3701C-14.4467 27.2501 -10.1168 28.0401 -5.87675 29.2401C-1.69283 30.3053 2.27327 32.0921 5.84325 34.5201C9.44972 37.277 12.5032 40.6901 14.8432 44.5801C15.0533 44.9101 15.2333 45.2501 15.4333 45.5801C15.4411 46.0047 15.5595 46.42 15.777 46.7848C15.9945 47.1496 16.3034 47.4513 16.6732 47.6601C18.3333 50.6001 19.8033 53.6601 21.2832 56.6601C23.2032 60.6601 25.0432 64.7601 27.7032 68.2901C33.2539 75.4172 40.7855 80.7467 49.3533 83.6101C54.0033 85.2101 58.8633 85.6101 63.6632 86.5401C68.4632 87.4701 72.3932 90.0701 76.6632 92.4101C85.8432 97.4101 97.0632 98.1301 107.293 98.8101C112.543 99.1601 117.803 99.2601 122.963 100.41C125.523 100.99 128.063 101.68 130.633 102.23C133.107 102.722 135.621 102.989 138.143 103.03C139.661 103.059 141.177 103.169 142.683 103.36C142.683 103.48 142.753 103.61 142.803 103.73C142.947 104.239 143.276 104.674 143.727 104.95C144.177 105.227 144.715 105.323 145.233 105.22C145.583 106.13 145.983 107.02 146.403 107.89C142.8 107.967 139.231 108.619 135.833 109.82ZM146.353 97.8901C144.318 89.2026 145.186 80.0876 148.823 71.9401C152.758 63.3554 159.586 56.4279 168.113 52.3701C172.075 50.4626 176.326 49.229 180.693 48.7201C181.554 57.0074 180.476 65.3813 177.543 73.1801C176.95 73.9779 176.409 74.813 175.923 75.6801C175.597 76.2427 175.508 76.9114 175.673 77.5401C172.649 83.9533 168.328 89.6702 162.983 94.3301C159.593 97.2701 155.363 99.9501 150.803 100.15C156.953 85.4101 163.453 70.5801 173.393 57.9601C173.732 57.3906 173.831 56.7104 173.67 56.0679C173.509 55.4254 173.1 54.8726 172.533 54.5301C171.961 54.2047 171.285 54.1125 170.646 54.2727C170.007 54.4329 169.455 54.8331 169.103 55.3901C159.193 68.2501 152.543 83.0201 146.353 97.8901ZM200.183 119.98C192.393 122.19 184.273 124.17 176.183 123.35C170.721 122.806 165.495 120.843 161.025 117.656C156.556 114.468 152.997 110.167 150.703 105.18C154.099 105.047 157.411 104.089 160.353 102.39C160.664 102.608 161.034 102.726 161.413 102.73C168.711 102.769 175.921 104.323 182.588 107.292C189.255 110.261 195.232 114.582 200.143 119.98H200.183ZM197.183 70.1201C188.923 72.6901 185.183 80.2201 181.183 87.2101C179.183 90.7501 176.833 94.4801 173.183 96.5701C172.78 96.7753 172.432 97.0739 172.168 97.4409C171.903 97.8079 171.73 98.2327 171.663 98.6801C169.943 98.3601 168.203 98.1401 166.463 97.9901C173.318 91.8388 178.631 84.1624 181.973 75.5801C183.204 74.0046 184.696 72.6517 186.383 71.5801C189.137 69.9126 192.153 68.7225 195.303 68.0601C200.127 67.0602 205.048 66.6073 209.973 66.7101C205.613 67.6501 201.353 68.8101 197.113 70.1201H197.183ZM243.713 90.7601C246.04 93.0972 248.559 95.2347 251.243 97.1501C256.094 100.686 261.302 103.703 266.783 106.15C267.356 106.471 268.029 106.562 268.667 106.404C269.304 106.247 269.857 105.852 270.213 105.3C270.549 104.73 270.647 104.051 270.486 103.409C270.325 102.767 269.918 102.214 269.353 101.87C264.301 99.5313 259.46 96.761 254.883 93.5901C251.33 91.2757 248.142 88.4446 245.423 85.1901C260.523 86.0001 275.913 94.7401 283.013 108.07C284.843 111.492 286.029 115.22 286.513 119.07C285.873 119.07 285.233 119.13 284.593 119.12C282.952 119.107 281.313 119.003 279.683 118.81C276.335 118.401 273.029 117.698 269.803 116.71C263.163 114.851 256.943 111.731 251.483 107.52C249.357 105.931 247.54 103.965 246.123 101.72C244.954 99.5843 244.089 97.2954 243.553 94.9201C243.063 93.0401 242.653 91.1301 242.253 89.2201C242.703 89.7501 243.163 90.2601 243.643 90.7601H243.713ZM288.553 53.3201C282.527 56.9085 276.192 59.9506 269.623 62.4101C261.879 65.2235 253.607 66.2856 245.403 65.5201C241.403 65.1601 237.463 64.5201 233.513 63.9201C236.574 62.512 239.721 61.2963 242.933 60.2801C247.663 58.7101 252.463 57.2801 257.173 55.6501C260.173 54.5901 258.723 49.8301 255.673 50.8801C245.843 54.2801 235.083 56.5501 226.243 62.2701H224.943C227.133 53.1301 236.393 47.4901 244.883 44.8201C249.209 43.3275 253.785 42.6956 258.353 42.9601C261.397 43.2374 264.409 43.7897 267.353 44.6101C268.153 45.5001 269.693 45.8001 271.293 45.8001C272.693 46.2701 274.083 46.8001 275.453 47.3101C279.94 49.0395 284.316 51.0467 288.553 53.3201ZM286.473 29.0801C284.596 31.545 282.558 33.8834 280.373 36.0801C279.531 36.9699 278.614 37.7862 277.633 38.5201C276.757 39.2052 275.796 39.7733 274.773 40.2101C273.966 40.6384 273.067 40.8648 272.153 40.8701C268.228 39.5518 264.176 38.6469 260.063 38.1701C258.2 37.9768 256.325 37.9233 254.453 38.0101C256.803 35.2701 260.113 33.4401 263.453 31.8001C267.523 29.8001 271.813 28.0501 275.313 25.0701C275.832 24.6643 276.175 24.0751 276.271 23.4238C276.368 22.7726 276.211 22.109 275.833 21.5701C275.434 21.0431 274.843 20.6936 274.189 20.5964C273.535 20.4993 272.869 20.6621 272.333 21.0501C268.503 24.2501 263.723 25.9901 259.333 28.3101C254.603 30.7801 250.513 33.9701 248.133 38.7701C242.764 39.8341 237.634 41.8673 232.993 44.7701C234.372 41.879 236.179 39.2123 238.353 36.8601C242.004 32.8693 246.179 29.391 250.763 26.5201C254.79 23.9517 259.142 21.9338 263.703 20.5201C269.069 18.9184 274.625 18.0406 280.223 17.9101C284.881 17.7178 289.541 18.2543 294.033 19.5001C291.273 22.4301 288.933 25.9101 286.473 29.0801Z" fill="#23201E"/>
<path d="M146.453 107.89C142.833 107.961 139.247 108.613 135.833 109.82C132.203 110.97 128.503 112.34 124.653 112.46C116.023 112.74 108.033 108.3 99.3734 108.59C96.8334 108.67 96.6034 112.59 98.7934 113.38C109.793 117.54 116.483 127.32 121.383 137.59C116.934 132.767 112.024 128.389 106.723 124.52C98.7867 118.73 90.0212 114.172 80.7234 111C75.3108 109.22 69.7979 107.76 64.2134 106.63C62.9434 106.36 61.6734 106.11 60.4034 105.86C59.7334 104.98 59.0634 104.08 58.4034 103.16C56.9134 101.01 54.0134 102.66 53.9834 104.77C51.2634 104.36 48.5334 104.01 45.7834 103.77C42.5534 103.49 39.3134 103.48 36.0834 103.26C33.4665 103.243 30.8952 102.573 28.6034 101.31C26.1834 99.7898 24.2034 97.7098 21.9234 96.0098C20.6334 95.0098 18.3734 93.2598 16.6634 93.1998H16.3034C15.5745 92.7327 14.729 92.4797 13.8634 92.4698C11.8634 92.2698 9.75337 92.1198 7.70337 91.8798C3.75465 91.4899 -0.153137 90.7606 -3.97664 89.6998C-7.26663 88.6998 -10.6066 87.4298 -12.9166 84.7898C-14.6466 82.7098 -15.6466 80.0298 -16.6466 77.5198C-17.7065 74.5171 -19.1055 71.6452 -20.8166 68.9598C-22.8555 65.9208 -25.4677 63.3087 -28.5066 61.2698C-31.4481 59.3707 -34.7506 58.1008 -38.2066 57.5398C-42.1166 56.8798 -46.0666 57.2698 -49.9966 57.4698C-59.8366 57.9498 -69.6866 58.1698 -79.5166 58.6798L-84.0366 58.9398C-86.754 57.4653 -89.5947 56.2307 -92.5266 55.2498C-97.2666 53.5298 -102.027 51.7898 -106.017 48.6098C-108.527 46.6098 -111.417 50.7898 -108.847 52.7398C-105.209 55.3815 -101.203 57.4739 -96.9566 58.9498C-94.3866 59.9498 -91.7266 60.7898 -89.2566 61.9498C-89.2499 62.261 -89.1789 62.5674 -89.0481 62.8499C-88.9174 63.1323 -88.7298 63.3847 -88.4969 63.5913C-88.2641 63.7978 -87.9911 63.954 -87.6951 64.0501C-87.3991 64.1463 -87.0864 64.1802 -86.7766 64.1498L-85.3466 64.0698C-82.3055 66.1345 -79.8522 68.953 -78.2266 72.2498C-76.9766 74.6798 -75.8666 77.1798 -74.7966 79.7098V79.6498C-83.7266 69.2098 -98.1166 65.6498 -111.147 63.7798C-124.697 61.7798 -138.527 61.8598 -151.997 59.2698C-156.997 58.2698 -161.877 57.0998 -166.807 55.9798C-170.714 54.9882 -174.678 54.2335 -178.677 53.7198C-181.757 53.3898 -184.847 53.1598 -187.907 52.6598C-189.327 52.4626 -190.728 52.1481 -192.097 51.7198C-192.694 51.5194 -193.282 51.2891 -193.857 51.0298C-193.929 50.9893 -194.006 50.959 -194.087 50.9398L-194.277 50.7998C-194.467 50.6598 -194.667 50.5198 -194.847 50.3698C-194.929 50.2852 -195.006 50.195 -195.077 50.0998C-195.126 50.0163 -195.169 49.9294 -195.207 49.8398L-195.407 49.3298C-195.407 49.2598 -195.567 48.6598 -195.597 48.5198C-195.807 47.2543 -195.908 45.9728 -195.897 44.6898C-195.897 41.3398 -195.547 37.9998 -195.257 34.6898C-195.257 34.2298 -195.177 33.7698 -195.147 33.3198C-174.287 38.8098 -150.257 34.6298 -132.057 46.3198L-140.467 36.0998C-129.347 43.8998 -114.257 40.5098 -100.767 42.0998C-92.7666 43.0998 -85.1166 45.8698 -77.1966 47.2898C-64.9766 49.4798 -52.4166 48.2898 -40.0366 49.2898C-27.6566 50.2898 -14.6366 53.7298 -6.46663 63.0698C-4.29663 65.5498 -2.54663 68.3598 -0.466629 70.9098C4.84337 77.3998 12.1434 81.9598 19.5334 85.8498C42.0808 97.5602 66.9607 104.083 92.3534 104.94C103.953 105.33 115.783 104.46 126.913 101.34C128.183 101.65 129.453 101.96 130.723 102.23C133.198 102.721 135.711 102.989 138.233 103.03C139.751 103.059 141.267 103.169 142.773 103.36C142.773 103.48 142.843 103.61 142.893 103.73C143.037 104.238 143.366 104.674 143.817 104.95C144.267 105.226 144.805 105.323 145.323 105.22C145.633 106.13 146.033 107.02 146.453 107.89Z" fill="#ED9254"/>
</svg>
