<svg width="298" height="104" viewBox="0 0 298 104" fill="none" xmlns="http://www.w3.org/2000/svg">
<path d="M288.006 22.8487C285.535 22.8007 283.063 22.8836 280.601 23.0969C280.163 23.1541 279.718 23.1185 279.295 22.9924L278.524 22.6529C278.157 22.4282 277.838 22.1332 277.585 21.7848C277.333 21.4364 277.151 21.0415 277.052 20.6227C276.952 20.204 276.937 19.7697 277.006 19.3448C277.074 18.9199 277.227 18.5129 277.454 18.1471C277.904 17.421 278.622 16.9005 279.452 16.6974C281.963 16.4322 284.488 16.3102 287.014 16.3317C286.831 14.6731 286.661 13.0144 286.583 11.3558H286.308C275.782 11.3558 265.307 10.0498 254.794 9.76244C249.642 9.53745 244.479 9.72523 239.357 10.324C234.642 10.9509 229.967 12.048 225.2 12.1916C216.789 12.4528 209.096 8.54784 200.855 7.63362C191.883 6.62799 182.715 8.87435 173.769 9.47512C164.47 10.102 155.184 9.01801 145.937 8.1691C136.691 7.32018 127.235 7.01978 117.858 6.92836C99.0773 6.74552 80.4404 7.94709 61.699 9.40983C44.1852 10.7812 26.6976 8.2997 9.18392 8.01238C9.19007 8.06007 9.19007 8.10833 9.18392 8.15602C9.49143 11.5294 9.45205 14.9254 9.06638 18.2908C13.0889 18.2908 17.0984 18.4997 21.1079 18.8001C21.9672 18.8404 22.7778 19.2104 23.3713 19.8331C23.9648 20.4558 24.2955 21.2833 24.2946 22.1435C24.2706 23.0084 23.9057 23.8287 23.2794 24.4257C22.6531 25.0226 21.8162 25.3477 20.9511 25.3302C16.6674 25.008 12.3706 24.8339 8.06072 24.8078C7.98236 25.2126 7.90399 25.6306 7.81257 26.0485C9.11859 26.1138 10.5291 26.2052 11.8743 26.3619C12.7295 26.4229 13.5371 26.7783 14.1598 27.3676C14.6017 27.837 14.8953 28.4262 15.004 29.0616C15.1127 29.697 15.0317 30.3503 14.771 30.9399C14.5104 31.5294 14.0817 32.0291 13.5386 32.3763C12.9955 32.7235 12.3621 32.9029 11.7176 32.892C9.98059 32.6831 8.23052 32.6047 6.49352 32.5003C6.38888 33.2804 6.38888 34.071 6.49352 34.8511C6.92636 36.6683 7.65433 38.4022 8.64844 39.9837C9.79468 42.141 10.5298 44.4927 10.8164 46.9187C10.9961 49.7943 10.754 52.6807 10.0981 55.4862C9.56264 58.3072 8.79212 61.1021 8.37419 63.9362C8.00505 66.9724 8.00505 70.0421 8.37419 73.0783C8.50479 74.5672 8.67457 76.0429 8.85741 77.5318L9.40592 77.6494C12.0152 77.8197 14.6328 77.8197 17.242 77.6494C18.108 77.6702 18.9302 78.0341 19.5279 78.6611C20.1255 79.2881 20.4495 80.1268 20.4287 80.9928C20.4079 81.8587 20.044 82.6809 19.417 83.2786C18.79 83.8762 17.9513 84.2003 17.0853 84.1795C14.6039 84.1795 12.1616 84.4276 9.71939 84.2448C9.95447 86.2038 10.1634 88.1628 10.2679 90.161C10.6394 90.7742 10.8204 91.4839 10.7879 92.2001C10.7553 92.9163 10.5107 93.6066 10.0851 94.1835C10.0851 94.3011 10.0067 94.4317 9.95446 94.5492C19.8541 95.2153 29.7668 94.9149 39.6795 94.6929C50.1277 94.4709 60.5758 94.6929 71.0893 95.4374C80.2314 96.0642 89.3736 96.8086 98.6071 96.8348C107.841 96.8609 117.009 95.5288 126.242 94.915C144.853 93.6089 163.503 94.2489 182.127 94.7582C191.413 95.0063 200.646 94.941 209.932 94.6798C214.477 94.5623 219.074 94.5101 223.554 94.7713C228.034 95.0325 232.827 95.5157 237.476 95.7377C246.54 96.1818 255.63 96.3124 264.694 95.8945C272.869 95.5157 281.045 94.8366 289.234 94.928C289.234 93.9615 289.129 92.9951 289.064 92.0156C286.909 92.0156 284.741 92.0156 282.534 92.2768C282.182 92.2952 281.829 92.2555 281.489 92.1592L280.719 91.8066C280.173 91.4686 279.74 90.9773 279.472 90.3942C279.204 89.8111 279.114 89.1621 279.213 88.5281C279.312 87.8941 279.595 87.3034 280.028 86.8296C280.461 86.3559 281.023 86.0201 281.646 85.8642C283.941 85.6299 286.247 85.5122 288.555 85.5116C288.346 82.8996 288.137 80.3789 288.019 77.8191C287.822 71.9206 288.295 66.0188 289.43 60.227C290.618 54.5397 291.101 48.7276 290.866 42.9223C290.254 36.187 289.299 29.4872 288.006 22.8487ZM276.108 91.7805C275.466 92.358 274.634 92.6788 273.771 92.6816C271.807 92.7297 269.843 92.6336 267.893 92.3943C267.315 92.3869 266.75 92.2197 266.261 91.9111L265.608 91.3887C265.311 91.0777 265.079 90.7113 264.925 90.3105C264.77 89.9096 264.696 89.4821 264.707 89.0526C264.718 88.6231 264.814 88.2 264.988 87.8075C265.163 87.415 265.414 87.0609 265.725 86.7654C266.351 86.1705 267.187 85.8467 268.05 85.8642C269.999 86.1097 271.964 86.2057 273.927 86.1515C274.792 86.1707 275.614 86.5324 276.213 87.1572C276.808 87.7879 277.132 88.6276 277.114 89.4949C277.085 90.3578 276.725 91.1763 276.108 91.7805Z" fill="#FAAE66"/>
<path d="M273.927 86.1518C271.964 86.206 269.999 86.1099 268.05 85.8644C267.187 85.8469 266.352 86.1708 265.726 86.7656C265.414 87.0611 265.163 87.4152 264.988 87.8077C264.814 88.2002 264.718 88.6233 264.707 89.0529C264.696 89.4824 264.77 89.9098 264.925 90.3107C265.079 90.7116 265.312 91.078 265.608 91.3889L266.261 91.9113C266.75 92.2199 267.315 92.3872 267.894 92.3945C269.843 92.6339 271.807 92.7299 273.771 92.6819C274.634 92.679 275.466 92.3582 276.108 91.7807C276.725 91.1765 277.085 90.358 277.114 89.4952C277.132 88.6278 276.809 87.7882 276.213 87.1574C275.614 86.5326 274.792 86.1709 273.927 86.1518Z" fill="#23201E"/>
<path d="M297.593 45.43C297.314 39.5636 296.594 33.7267 295.438 27.9685C294.105 21.6392 293.314 15.2077 293.074 8.74386C293.064 8.21908 292.929 7.7042 292.682 7.24123C292.435 6.77826 292.082 6.3803 291.651 6.07981C291.221 5.77932 290.726 5.5848 290.206 5.51213C289.686 5.43946 289.156 5.49068 288.66 5.66163C288.378 5.39005 288.044 5.17743 287.678 5.03616C287.313 4.8949 286.923 4.82785 286.531 4.83887C277.141 4.83887 267.816 3.82014 258.452 3.3761C253.745 3.12141 249.028 3.12141 244.321 3.3761C239.763 3.66342 235.322 4.42094 230.829 5.11313C226.807 5.84249 222.685 5.82033 218.67 5.0478C214.752 4.21195 210.926 2.99736 207.021 2.12233C202.859 1.15141 198.581 0.768942 194.313 0.986098C189.69 1.2473 185.106 1.84807 180.509 2.29212C171.39 3.21552 162.201 3.21552 153.082 2.29212C143.744 1.4432 134.445 0.751006 125.081 0.528983C106.112 0.0794176 87.1324 0.681115 68.2299 2.3313C63.2279 2.76228 58.2519 3.19327 53.2238 3.27163C47.9997 3.33693 42.7756 3.15411 37.5515 2.87984C27.1034 2.34437 16.6552 1.44319 6.14171 1.45625C5.57216 1.46736 5.015 1.62441 4.52345 1.91232C4.03191 2.20024 3.62243 2.60942 3.33417 3.10077C3.04592 3.59211 2.88852 4.1492 2.87702 4.71875C2.86552 5.28829 3.00031 5.85124 3.26849 6.35382C2.92054 6.82873 2.75377 7.41237 2.7983 7.99942C3.27361 13.539 2.87252 19.119 1.60982 24.5336C0.835708 27.3971 0.298454 30.3194 0.00343956 33.2709C-0.0497759 35.7895 0.515215 38.2828 1.649 40.5324C2.58667 42.2095 3.39442 43.9559 4.06514 45.7565C4.60033 48.0211 4.62709 50.3761 4.1435 52.6523C3.16399 58.5685 1.41394 64.1452 1.71432 70.2052C2.08001 77.7148 3.80396 85.0938 3.88232 92.6165C3.88872 92.8678 3.92375 93.1176 3.98678 93.3609C3.67132 94.0768 3.6148 94.8801 3.82688 95.6331C4.03896 96.3862 4.50645 97.0419 5.14916 97.4879C5.11535 97.918 5.16707 98.3505 5.30137 98.7604C5.43568 99.1703 5.64989 99.5496 5.93163 99.8763C6.21336 100.203 6.55707 100.471 6.94283 100.664C7.32859 100.857 7.74875 100.971 8.1791 101.001C26.7376 102.464 45.3615 100.479 63.9462 101.537C73.2189 102.059 82.4786 102.921 91.7775 103.247C96.3616 103.417 100.92 103.443 105.556 103.247C110.192 103.052 114.985 102.451 119.713 101.941C138.285 100.178 156.961 100.57 175.585 101.079C184.727 101.328 193.987 101.667 203.194 101.393C207.817 101.249 212.454 101.066 217.09 101.079C221.726 101.093 225.984 101.484 230.438 101.824C240.744 102.614 251.085 102.849 261.416 102.529C271.786 102.177 282.143 101.106 292.526 101.51C293.311 101.565 294.086 101.307 294.682 100.794C295.279 100.28 295.649 99.5523 295.713 98.7678C295.815 98.4424 295.868 98.1034 295.869 97.7622C295.869 91.9504 295.151 86.1647 294.772 80.366C294.353 74.6652 294.616 68.9348 295.556 63.2963C296.601 57.3539 297.75 51.4899 297.593 45.43ZM289.522 60.1749C288.387 65.9667 287.914 71.8685 288.111 77.767C288.229 80.3791 288.438 82.8997 288.647 85.4595C286.34 85.46 284.034 85.5778 281.738 85.8121C281.116 85.968 280.553 86.3037 280.12 86.7775C279.688 87.2513 279.404 87.842 279.305 88.476C279.206 89.1099 279.296 89.759 279.564 90.3421C279.832 90.9252 280.265 91.4164 280.811 91.7545L281.581 92.1071C281.921 92.2034 282.274 92.2431 282.626 92.2246C284.794 92.0026 286.962 91.9765 289.156 91.9635C289.156 92.943 289.287 93.9094 289.326 94.8759C281.137 94.7844 272.962 95.4636 264.786 95.8424C255.722 96.2603 246.632 96.1297 237.568 95.6856C232.919 95.4636 228.296 94.9804 223.646 94.7192C218.997 94.4579 214.569 94.5102 210.025 94.6278C200.739 94.889 191.505 94.9543 182.219 94.7061C163.596 94.1968 144.946 93.5568 126.335 94.8628C117.101 95.5028 108.05 96.8088 98.6994 96.7827C89.3483 96.7566 80.3498 96.0121 71.1815 95.3852C60.7334 94.6539 50.2852 94.4188 39.7717 94.6408C29.859 94.8628 19.9464 95.1632 10.0467 94.4972C10.0467 94.3796 10.1381 94.249 10.1773 94.1315C10.6029 93.5546 10.8476 92.8642 10.8801 92.148C10.9127 91.4318 10.7317 90.7221 10.3602 90.1089C10.2557 88.1238 10.0467 86.1908 9.81162 84.1926C12.2539 84.3755 14.6962 84.1926 17.1776 84.1273C18.0435 84.1481 18.8823 83.824 19.5093 83.2264C20.1363 82.6288 20.5002 81.8066 20.521 80.9407C20.5418 80.0747 20.2177 79.236 19.6201 78.609C19.0225 77.982 18.2003 77.618 17.3343 77.5972C14.7251 77.7676 12.1075 77.7676 9.49819 77.5972L8.94969 77.4797C8.76684 75.9908 8.59703 74.515 8.46642 73.0262C8.09729 69.99 8.09729 66.9202 8.46642 63.884C8.88435 61.05 9.65491 58.2551 10.1904 55.4341C10.8463 52.6286 11.0883 49.7422 10.9087 46.8666C10.6221 44.4405 9.88695 42.0889 8.74072 39.9316C7.7466 38.3501 7.0186 36.6161 6.58575 34.7989C6.48111 34.0188 6.48111 33.2282 6.58575 32.4481C8.33582 32.5526 10.0859 32.6309 11.8098 32.8399C12.6732 32.8574 13.5086 32.5336 14.1346 31.9388C14.4465 31.6433 14.697 31.2892 14.8717 30.8967C15.0465 30.5042 15.1421 30.081 15.153 29.6515C15.1639 29.222 15.09 28.7946 14.9354 28.3937C14.7808 27.9928 14.5486 27.6264 14.2521 27.3155C13.6294 26.7262 12.8218 26.3708 11.9666 26.3098C10.6606 26.1531 9.26311 26.0617 7.90485 25.9964C7.99627 25.5785 8.07463 25.1605 8.15299 24.7557C12.4629 24.7557 16.7597 24.9298 21.0434 25.2781C21.9084 25.2956 22.7454 24.9705 23.3717 24.3736C23.998 23.7766 24.3629 22.9563 24.3868 22.0914C24.3878 21.2312 24.0571 20.4036 23.4636 19.7809C22.8701 19.1582 22.0594 18.7883 21.2001 18.748C17.1906 18.4476 13.1812 18.2909 9.15861 18.2386C9.54429 14.8733 9.58371 11.4773 9.27619 8.10392C9.28234 8.05623 9.28234 8.00793 9.27619 7.96024C26.7899 8.24757 44.2775 10.729 61.7912 9.35769C80.5065 7.89495 99.1434 6.74566 117.95 6.87626C127.327 6.96768 136.692 7.2811 146.03 8.11696C155.368 8.95281 164.562 10.0368 173.861 9.42298C182.807 8.82221 191.975 6.57585 200.948 7.58148C209.189 8.4957 216.881 12.4007 225.292 12.1395C230.059 11.9959 234.734 10.8988 239.449 10.2719C244.572 9.67309 249.734 9.48531 254.886 9.7103C265.334 10.0107 275.874 11.2775 286.401 11.3036H286.675C286.753 12.9623 286.923 14.6209 287.106 16.2796C284.58 16.258 282.056 16.3801 279.544 16.6453C278.714 16.8484 277.996 17.3689 277.546 18.095C277.319 18.4608 277.167 18.8678 277.098 19.2927C277.029 19.7175 277.045 20.1518 277.144 20.5706C277.244 20.9893 277.425 21.3843 277.678 21.7327C277.93 22.0811 278.25 22.3761 278.617 22.6007L279.387 22.9403C279.81 23.0663 280.255 23.1019 280.693 23.0448C283.156 22.8314 285.627 22.7486 288.098 22.7967C289.421 29.4205 290.406 36.1072 291.05 42.831C291.258 48.6575 290.745 54.4875 289.522 60.188V60.1749Z" fill="#23201E"/>
</svg>
