<svg width="404" height="103" viewBox="0 0 404 103" fill="none" xmlns="http://www.w3.org/2000/svg">
<path d="M393.006 41.545C394.711 30.9713 393.984 20.3183 393.667 9.66526C386.569 9.28197 379.485 8.80615 372.387 8.52859C357.544 7.9206 342.688 8.25103 327.858 7.85452C314.562 7.48444 301.358 6.53281 288.048 6.70463C274.739 6.87645 261.482 7.12758 248.199 7.10114C221.989 7.03506 195.78 6.55924 169.583 7.31262C143.056 8.05278 116.569 8.63433 90.0293 8.63433C76.7328 8.63433 63.432 8.58587 50.1267 8.48894C43.1877 8.48894 36.2487 8.48894 29.2833 8.40964C22.0007 8.40964 14.7445 8.51537 7.39573 8.40964C7.39573 12.3748 7.19747 16.3399 7.39573 20.3051C7.39573 21.2303 7.47503 22.1687 7.55433 23.0939C7.55433 23.6358 7.67329 24.1645 7.72616 24.7064C7.73181 24.7767 7.73181 24.8475 7.72616 24.9178V25.0236L9.04787 25.5126C10.4984 26.0498 11.7144 27.0788 12.4843 28.4204C12.7249 28.7935 12.8844 29.213 12.9526 29.6516C13.0209 30.0903 12.9962 30.5384 12.8804 30.967C12.7645 31.3955 12.56 31.795 12.28 32.1395C12.0001 32.484 11.6509 32.766 11.2552 32.9671C10.198 33.4625 9.22913 34.1278 8.38702 34.9364C8.24163 49.9114 8.387 64.8997 8.45309 79.8747C9.485 80.2719 10.418 80.8891 11.1872 81.6834C11.9564 82.4778 12.5434 83.4301 12.9073 84.4743C13.0999 85.1945 13.0411 85.959 12.7408 86.6414C12.4404 87.3238 11.9164 87.8834 11.2552 88.2279C10.1343 89.0246 9.07804 89.9085 8.09624 90.8713C8.31683 91.7926 8.40584 92.7404 8.3606 93.6866C8.3606 94.0435 8.29449 94.3871 8.25484 94.744C9.96402 94.5872 11.68 94.5166 13.3963 94.5325C19.648 94.5325 25.8469 95.5238 32.0721 95.9996C39.3416 96.5679 46.7167 96.5415 53.9994 96.4886C68.0624 96.3829 82.1254 96.1053 96.1884 96.145C110.251 96.1846 124.222 96.2772 138.232 96.145C152.242 96.0128 166.332 95.1537 180.395 94.4796C208.97 93.1579 237.519 94.8629 266.108 95.1934C294.128 95.5238 322.003 92.4574 350.024 92.735C360.597 92.8407 371.092 92.735 381.652 92.2459C385.231 92.0279 388.819 92.0279 392.398 92.2459C392.926 92.2459 393.482 92.3385 394.037 92.4178C394.037 89.7743 393.944 87.1309 394.037 84.5668C389.476 84.9804 384.894 85.104 380.317 84.9369C379.862 84.9052 379.417 84.7832 379.01 84.5779C378.602 84.3727 378.239 84.0882 377.943 83.7412C377.646 83.3943 377.422 82.9917 377.283 82.557C377.143 82.1224 377.092 81.6643 377.132 81.2096C377.207 80.7742 377.37 80.3585 377.611 79.9881C377.851 79.6177 378.165 79.3003 378.533 79.0552C379.361 78.5261 380.344 78.2932 381.322 78.3944C383.852 78.4827 386.385 78.4254 388.908 78.2225C390.68 78.0904 392.464 77.945 394.195 77.9582H394.407C394.539 76.7687 394.711 75.5659 394.962 74.3764C395.617 71.7731 396.059 69.121 396.284 66.4461C396.167 63.6372 395.581 60.8675 394.552 58.2515C392.744 52.8787 392.215 47.1583 393.006 41.545ZM30.8561 85.981C30.8073 86.2702 30.6791 86.5401 30.4861 86.7608C30.3503 87.0379 30.1397 87.2714 29.8781 87.4349C29.6614 87.6738 29.3889 87.8554 29.0851 87.9636C28.8092 88.1374 28.4973 88.2459 28.1731 88.2808C27.7445 88.4066 27.2955 88.447 26.8514 88.3997H25.8072H23.3488H22.0271C21.0834 88.4285 20.1558 88.1502 19.3837 87.6067C19.0153 87.3366 18.7074 86.9925 18.4798 86.5965C18.2522 86.2004 18.1099 85.7612 18.062 85.3069C18.0414 84.872 18.1106 84.4375 18.2652 84.0305C18.4198 83.6235 18.6566 83.2526 18.9607 82.9411C19.2884 82.5826 19.7025 82.3141 20.1635 82.1612C20.5959 81.9338 21.0759 81.8115 21.5645 81.8044H23.0448C23.8775 81.8044 24.7234 81.8044 25.5561 81.8044H26.4813C27.2269 81.7591 27.9746 81.8486 28.6885 82.0687L29.5212 82.5049L30.2217 83.1393L30.6975 83.9191C30.7769 84.1967 30.8561 84.4743 30.9222 84.7518C31.0226 85.159 30.9996 85.5869 30.8561 85.981ZM374.502 83.8398C374.078 84.3259 373.536 84.6945 372.929 84.9104C372.161 85.1527 371.349 85.2249 370.55 85.1219H371.501C369.876 85.1219 368.25 85.1219 366.624 85.1219H367.576C365.633 85.1219 363.69 85.1219 361.747 85.1219C360.822 85.1327 359.93 84.7801 359.263 84.1399C358.596 83.4997 358.206 82.623 358.179 81.6987C358.205 81.2613 358.321 80.834 358.518 80.4431C358.716 80.0521 358.992 79.7058 359.328 79.4253C360.08 78.8304 361.014 78.5129 361.972 78.5265C363.518 78.5265 365.065 78.5265 366.611 78.5265H367.126C368.752 78.5265 370.365 78.5265 371.99 78.5265C372.301 78.564 372.607 78.6349 372.902 78.738C373.414 78.9147 373.876 79.2106 374.251 79.6013C374.626 79.992 374.902 80.4663 375.057 80.9849C375.223 81.4676 375.259 81.9856 375.162 82.4868C375.064 82.9879 374.837 83.4546 374.502 83.8398Z" fill="#FAAE66"/>
<path d="M400.263 43.3688C401.184 37.2757 401.626 31.1196 401.584 24.9574C401.439 19.9348 401.227 14.9123 401.109 9.88982C401.109 7.69578 401.016 5.48851 401.016 3.28125C400.157 3.28125 399.285 3.28125 398.439 3.28125L393.575 3.04334L378.203 2.11814C364.986 1.44407 351.835 1.29868 338.631 1.29868C325.427 1.29868 312.197 0.28096 298.98 0.0562687C285.763 -0.168423 272.427 0.347049 259.13 0.426352C232.431 0.611392 205.706 -0.0494649 178.995 0.426352C165.777 0.66426 152.56 1.25903 139.343 1.53659C126.126 1.81415 112.803 2.02562 99.586 2.11814C67.6798 2.22388 35.7737 1.56303 3.86749 1.84059C3.16526 1.83125 2.47995 2.05619 1.91985 2.47986C1.35975 2.90352 0.956805 3.50176 0.774684 4.18002C0.511415 4.46144 0.310576 4.79529 0.185301 5.15973C0.0600271 5.52416 0.0131598 5.91095 0.0477574 6.29476C0.417837 11.3437 -0.163717 16.4323 0.0477574 21.4812C-0.0173589 23.6575 0.323293 25.8268 1.05227 27.8783C1.51514 28.8649 2.25433 29.6959 3.18021 30.2706C3.11552 30.3246 3.05377 30.3819 2.99519 30.4425C2.85734 30.5749 2.73335 30.7211 2.62511 30.8786C2.11902 31.1891 1.70123 31.6245 1.4119 32.1429C1.12258 32.6614 0.971449 33.2455 0.972973 33.8393C1.11836 50.0435 0.89367 66.2609 0.972973 82.4651C1.04024 83.1832 1.33171 83.8619 1.80614 84.4051C2.28057 84.9484 2.9139 85.3285 3.6164 85.4918C2.79694 86.1924 2.01709 86.9193 1.26371 87.6991C0.714566 88.1842 0.352037 88.8458 0.238625 89.5697C0.125213 90.2936 0.268074 91.0344 0.642545 91.6642C1.00966 92.8082 1.03721 94.034 0.721844 95.1932C0.467054 96.151 0.580211 97.1696 1.03904 98.0481C1.02086 98.6226 1.1377 99.1934 1.3802 99.7145C1.6227 100.236 1.98409 100.693 2.4353 101.049C2.88651 101.405 3.41498 101.65 3.97821 101.765C4.54144 101.88 5.12373 101.86 5.67827 101.709C11.7053 100.388 18.1156 101.207 24.1823 101.815C30.5265 102.463 36.8046 102.846 43.1885 102.952C57.2647 103.15 71.341 102.674 85.4172 102.674C113.067 102.674 140.718 103.229 168.342 101.709C182.074 100.956 195.767 100.388 209.526 100.467C223.285 100.546 237.084 101.114 250.856 101.471C264.628 101.828 278.295 101.974 292.027 101.379C305.76 100.784 319.189 99.7796 332.802 99.4095C346.416 99.0394 360.188 99.7399 373.881 99.2244C380.186 98.9865 386.583 98.2332 392.874 98.8544C393.148 98.9268 393.426 98.9798 393.707 99.013C394.247 99.4556 394.886 99.7596 395.571 99.8985C396.142 100.275 396.803 100.494 397.487 100.533C399.364 100.652 401.452 99.2112 401.452 97.4798C401.452 90.7523 400.738 83.8397 401.941 77.165C403.038 71.1512 404.585 65.4414 402.589 59.4144C400.937 54.1276 399.615 48.92 400.263 43.3688ZM394.976 74.3498C394.725 75.5393 394.553 76.7421 394.421 77.9316H394.209C392.425 77.9316 390.641 78.0638 388.922 78.196C386.399 78.3988 383.866 78.4562 381.336 78.3678C380.358 78.2666 379.375 78.4995 378.547 79.0287C378.179 79.2737 377.865 79.5911 377.624 79.9616C377.384 80.332 377.221 80.7476 377.146 81.183C377.106 81.6377 377.157 82.0958 377.297 82.5305C377.436 82.9651 377.66 83.3677 377.957 83.7147C378.253 84.0617 378.616 84.3461 379.024 84.5514C379.431 84.7566 379.876 84.8787 380.331 84.9103C384.908 85.0774 389.49 84.9538 394.051 84.5402C394.051 87.1836 394.051 89.8271 394.051 92.3912C393.495 92.3119 392.94 92.259 392.412 92.2194C388.833 92.0013 385.245 92.0013 381.666 92.2194C371.092 92.6952 360.611 92.8141 350.038 92.7084C322.017 92.4308 294.142 95.4972 266.122 95.1668C237.533 94.8364 208.984 93.0653 180.409 94.4531C166.346 95.1271 152.336 96.0259 138.246 96.1184C124.157 96.2109 110.213 96.1184 96.2024 96.1184C82.1923 96.1184 68.0763 96.3563 54.0133 96.4621C46.7307 96.4621 39.3555 96.5414 32.0861 95.973C25.8608 95.4972 19.662 94.5059 13.4103 94.5059C11.694 94.4901 9.978 94.5606 8.26882 94.7174C8.26882 94.3605 8.36132 94.0169 8.37454 93.66C8.41978 92.7138 8.33081 91.766 8.11022 90.8448C9.09202 89.8819 10.1482 88.998 11.2691 88.2013C11.9303 87.8569 12.4544 87.2972 12.7547 86.6148C13.0551 85.9324 13.1138 85.168 12.9212 84.4477C12.5574 83.4035 11.9704 82.4512 11.2012 81.6569C10.432 80.8626 9.49898 80.2453 8.46707 79.8481C8.34811 64.8863 8.25561 49.8981 8.401 34.9099C9.29096 34.0866 10.3144 33.4206 11.4277 32.9405C11.8235 32.7394 12.1727 32.4575 12.4526 32.1129C12.7326 31.7684 12.9371 31.3689 13.0529 30.9404C13.1688 30.5118 13.1934 30.0637 13.1252 29.6251C13.057 29.1864 12.8975 28.7669 12.6569 28.3938C11.887 27.0523 10.6709 26.0233 9.22045 25.486L7.89874 24.997V24.8913C7.90439 24.8209 7.90439 24.7502 7.89874 24.6798C7.89874 24.1379 7.76656 23.6092 7.72691 23.0673C7.64761 22.1421 7.62118 21.2037 7.56831 20.2785C7.34362 16.3134 7.48901 12.3482 7.56831 8.38307C14.8642 8.51524 22.1732 8.38307 29.4559 8.38307C36.4213 8.38307 43.3603 8.38307 50.2993 8.46237C63.5957 8.57692 76.8966 8.62538 90.2018 8.60776C116.742 8.60776 143.229 7.98655 169.756 7.28604C195.952 6.53267 222.162 7.00848 248.371 7.07457C261.588 7.07457 274.938 6.79701 288.221 6.67806C301.504 6.5591 314.735 7.45787 328.031 7.82795C342.861 8.22446 357.717 7.82795 372.56 8.50202C379.657 8.77958 386.741 9.25539 393.839 9.63869C394.156 20.2917 394.883 30.9315 393.178 41.5184C392.381 47.1157 392.897 52.8217 394.685 58.1852C395.714 60.8013 396.3 63.571 396.416 66.3799C396.15 69.0718 395.664 71.7373 394.963 74.3498H394.976Z" fill="#23201E"/>
<path d="M372.929 78.7773C372.633 78.6742 372.328 78.6033 372.017 78.5658C370.391 78.5658 368.779 78.5658 367.153 78.5658H366.638C365.091 78.5658 363.545 78.5658 361.998 78.5658C361.04 78.5522 360.106 78.8697 359.355 79.4646C359.018 79.7451 358.743 80.0914 358.545 80.4824C358.347 80.8734 358.232 81.3006 358.205 81.738C358.233 82.6624 358.622 83.539 359.29 84.1792C359.957 84.8194 360.849 85.172 361.774 85.1612C363.717 85.1612 365.66 85.1612 367.603 85.1612H366.572C368.197 85.1612 369.823 85.1612 371.449 85.1612H370.537C371.336 85.2642 372.147 85.192 372.916 84.9497C373.523 84.7339 374.065 84.3652 374.489 83.8791C374.828 83.5044 375.064 83.0476 375.173 82.5539C375.282 82.0602 375.26 81.5467 375.11 81.0639C374.958 80.5351 374.68 80.0509 374.3 79.6528C373.92 79.2546 373.45 78.9542 372.929 78.7773Z" fill="#23201E"/>
<path d="M30.8549 83.906L30.3791 83.1262L29.6786 82.4917L28.846 82.0556C28.1321 81.8355 27.3843 81.7459 26.6387 81.7912H25.7135C24.8808 81.7912 24.0349 81.7912 23.2022 81.7912H21.7219C21.2333 81.7983 20.7533 81.9206 20.3209 82.1481C19.8599 82.301 19.4458 82.5695 19.1181 82.9279C18.814 83.2395 18.5772 83.6103 18.4226 84.0173C18.268 84.4244 18.1988 84.8588 18.2194 85.2938C18.2673 85.748 18.4096 86.1873 18.6372 86.5833C18.8648 86.9794 19.1727 87.3235 19.5411 87.5935C20.3132 88.137 21.2408 88.4153 22.1845 88.3866H23.5062H25.9646H26.8898C27.3339 88.4339 27.783 88.3934 28.2115 88.2676C28.5357 88.2327 28.8476 88.1242 29.1235 87.9504C29.4274 87.8423 29.6998 87.6606 29.9165 87.4217C30.1782 87.2582 30.3888 87.0247 30.5245 86.7477C30.7176 86.5269 30.8457 86.257 30.8946 85.9678C31.0672 85.5778 31.1179 85.1448 31.04 84.7254C30.9739 84.4611 30.8549 84.1835 30.8549 83.906Z" fill="#23201E"/>
</svg>
