<svg width="94" height="89" viewBox="0 0 94 89" fill="none" xmlns="http://www.w3.org/2000/svg">
<path d="M54.2831 25.913L54.1777 25.8311L54.2831 25.913Z" fill="#FFD357"/>
<path d="M53.2878 29.1904L53.1825 29.2489H53.0889L53.2878 29.1904Z" fill="#FFD357"/>
<path d="M53.8962 28.5928C53.7323 28.7215 53.627 28.9556 53.8962 28.5928V28.5928Z" fill="#FFD357"/>
<path d="M54.0839 25.7147C53.9903 25.5977 53.9435 25.5977 53.9669 25.7147L54.1775 25.8903L54.0839 25.7147Z" fill="#FFD357"/>
<path d="M50.7495 26.6162C50.7534 26.6512 50.7534 26.6865 50.7495 26.7215C50.6793 26.8386 50.691 26.8737 50.7495 26.862C50.8081 26.8503 50.7495 26.862 50.7495 26.7683V26.6162Z" fill="#FFD357"/>
<path d="M50.8545 26.4639C50.8632 26.5142 50.8632 26.5657 50.8545 26.616C50.8545 26.616 50.8545 26.5107 50.8545 26.4639Z" fill="#FFD357"/>
<path d="M53.1236 25.2119H52.7959H53.0885C53.0885 25.2119 53.1938 25.2236 53.1236 25.2119Z" fill="#FFD357"/>
<path d="M50.5491 27.4814C50.5435 27.5671 50.5435 27.6531 50.5491 27.7389C50.5491 27.9495 50.6193 28.1719 50.6544 28.3825C50.6785 28.4746 50.7098 28.5646 50.748 28.6517C50.748 28.7336 50.8065 28.8155 50.8417 28.9091C50.9746 29.1526 51.1231 29.3871 51.2863 29.6113L51.4268 29.7751C51.5438 29.8805 51.6843 30.0209 51.4268 29.7751C51.5087 29.7751 51.5672 29.9039 51.6374 29.9624H51.7545L52.0002 29.8688C52.246 29.7634 52.48 29.6581 52.7141 29.5294L53.0417 29.3421C52.8896 29.4241 52.8311 29.4241 53.2056 29.2368L53.4162 29.073C53.4982 29.0028 53.7205 28.7336 53.8726 28.6049L54.0716 28.324C54.0716 28.324 54.2471 28.0197 54.2003 28.1134L54.3056 27.8793C54.3418 27.8074 54.3731 27.7331 54.3993 27.657C54.3993 27.4814 54.4929 27.3176 54.528 27.142C54.5231 27.0758 54.5231 27.0093 54.528 26.9431C54.528 26.9431 54.528 26.7793 54.528 26.6973C54.528 26.6154 54.528 26.5686 54.528 26.5101L54.4578 26.2526L54.3291 26.0654L54.1886 25.9016C54.0922 25.8606 54.0105 25.7912 53.9546 25.7026L53.8492 25.609L53.7556 25.5388L53.3226 25.3281H53.229H53.1003C52.993 25.3575 52.8798 25.3575 52.7726 25.3281H52.679H52.4332H52.3396L52.0353 25.4334L51.5672 25.7377C51.4034 25.8899 51.2629 26.0537 51.1108 26.2058C51.026 26.3383 50.9478 26.475 50.8768 26.6154C50.8678 26.7224 50.827 26.8243 50.7597 26.908C50.7543 26.9468 50.7543 26.9862 50.7597 27.025C50.7585 27.1354 50.7304 27.2439 50.6778 27.341C50.6778 27.341 50.5491 27.4229 50.5491 27.4814Z" fill="#B88A64"/>
<path d="M39.4329 35.2879C39.9595 34.7496 40.5096 34.223 41.0713 33.7198C41.2468 33.5676 41.633 33.1814 42.0426 32.807C39.152 25.9726 36.2849 19.068 33.1135 12.3741C32.1655 10.3495 31.1708 7.58768 29.2165 6.28868C27.2621 4.98968 25.2727 6.46422 23.88 7.77492C21.7527 9.99882 19.9449 12.5077 18.5085 15.2295C17.0095 17.7595 15.6652 20.3778 14.4828 23.0703C13.306 25.7685 12.3053 28.54 11.4869 31.3675C10.7028 34.024 9.94216 36.9497 10.6092 39.6998C10.8636 40.7493 11.3725 41.72 12.0909 42.5262C12.8093 43.3324 13.7152 43.9493 14.7286 44.3224C15.9045 44.7179 17.1662 44.7841 18.3771 44.5139C19.588 44.2437 20.7018 43.6473 21.598 42.7893C22.2415 42.3583 23.0282 42.1965 23.7895 42.3387C24.5508 42.4809 25.2261 42.9158 25.6706 43.55C26.0831 44.2 26.2328 44.9826 26.0894 45.739C25.9459 46.4953 25.52 47.1687 24.8982 47.6225C18.7544 52.1891 13.1966 57.4953 8.35058 63.4212C7.87077 64.0063 7.40268 64.5914 6.93457 65.2351C7.56652 64.9425 8.17506 64.6265 8.7836 64.3223C16.2343 60.5415 23.3379 56.1125 30.0123 51.0865C30.378 50.8028 30.8081 50.6139 31.2644 50.5365C31.7144 48.6072 32.3291 46.72 33.1018 44.8958C34.105 42.5292 35.3856 40.29 36.9168 38.2253C37.6883 37.1905 38.5289 36.2092 39.4329 35.2879Z" fill="#FFD357"/>
<path d="M50.5625 27.2598C50.5677 27.3143 50.5677 27.3691 50.5625 27.4236V27.3066V27.2598Z" fill="#FFD357"/>
<path d="M47.7172 38.1543C47.7531 37.678 47.6728 37.2001 47.4831 36.7617C47.1842 36.8778 46.8675 36.9411 46.5469 36.949C45.6224 37.7799 44.4756 38.482 43.7149 39.2895C42.2742 40.7834 41.0134 42.4408 39.9583 44.228C38.102 47.3589 36.9703 50.8658 36.6465 54.4913C36.4255 55.8924 36.5052 57.3246 36.8805 58.6925C37.2901 58.2829 38.1327 57.5223 38.238 57.3701C40.7759 54.1782 43.0129 50.7581 44.9203 47.1537C45.9939 45.1221 46.8078 42.9636 47.3427 40.7289C47.55 39.8848 47.6754 39.0226 47.7172 38.1543Z" fill="#B88A64"/>
<path d="M81.6777 30.5246C78.5049 30.5158 75.3424 30.8851 72.257 31.6246C65.719 33.0974 59.52 35.7978 53.9892 39.5824C53.8337 39.6874 53.6643 39.7701 53.4859 39.8282C53.1881 41.8296 52.6701 43.7919 51.9412 45.6795C50.457 49.4554 48.4902 53.0231 46.0898 56.2939C46.4823 56.8466 46.7243 57.4918 46.792 58.1663C47.318 63.5485 48.1858 68.8918 49.39 74.1639C49.7906 76.5447 50.4701 78.87 51.4146 81.0918C51.7539 81.7706 52.2689 82.6249 53.0646 82.8121C53.2274 82.8823 53.4083 82.8985 53.581 82.8585C53.7536 82.8185 53.9089 82.7243 54.0243 82.5898C54.8631 81.4691 55.3845 80.1432 55.5339 78.7513C55.8714 76.2307 55.9928 73.6859 55.8967 71.1446C55.76 65.8931 54.8126 60.6943 53.0881 55.7321C51.9178 52.432 56.1191 50.5947 58.2255 53.0171C61.9236 57.3003 67.5877 63.5495 73.8603 60.0387C78.3424 57.4992 81.8649 52.4905 84.2172 48.0201C85.5986 45.421 86.6784 42.6725 87.4354 39.8282C88.0088 37.6632 88.8046 34.6907 87.5759 32.6076C86.3471 30.5246 83.714 30.5597 81.6777 30.5246Z" fill="#FFD357"/>
<path d="M50.5732 27.1426C50.5789 27.1774 50.5789 27.213 50.5732 27.2479C50.5732 27.1543 50.6318 27.0723 50.6552 26.9787C50.6786 26.8851 50.5849 26.9904 50.5732 27.1426Z" fill="#FFD357"/>
<path d="M50.6444 26.9785C50.6444 27.0721 50.6444 27.1541 50.5625 27.2477C50.6083 27.1647 50.6362 27.073 50.6444 26.9785Z" fill="#23201E"/>
<path d="M50.748 26.6152V26.7673C50.748 26.7673 50.748 26.8258 50.748 26.8609C50.8154 26.7773 50.8561 26.6754 50.8651 26.5684L50.748 26.6152Z" fill="#23201E"/>
<path d="M52.7959 25.1885C52.9031 25.2179 53.0163 25.2179 53.1236 25.1885H52.7959Z" fill="#23201E"/>
<path d="M54.1999 25.8552L53.9893 25.6797C54.0423 25.7562 54.1151 25.8168 54.1999 25.8552Z" fill="#23201E"/>
<path d="M75.5467 25.1178C70.1836 25.849 64.9464 27.3139 59.9821 29.4712C60.4044 28.2733 60.5186 26.9884 60.3141 25.7347C60.1096 24.4811 59.593 23.2991 58.8118 22.2975C57.847 21.1131 56.5608 20.2324 55.1077 19.7611C53.6545 19.2899 52.0963 19.2482 50.62 19.641C49.358 20.0261 48.2056 20.7054 47.2575 21.623C46.3094 22.5406 45.5927 23.6702 45.1665 24.9189C42.7207 19.0675 40.0759 13.1577 37.2204 7.47018C35.6639 4.38067 33.4873 1.40819 30.035 0.354948C26.5827 -0.698293 23.1421 0.717731 20.5792 2.95294C17.8868 5.53854 15.6022 8.5176 13.8033 11.7885C11.943 14.8245 10.3156 17.9972 8.93501 21.2793C6.14977 27.8562 2.66238 36.2588 5.68168 43.3038C6.37014 44.8754 7.3909 46.2792 8.67373 47.4186C9.95656 48.558 11.471 49.4059 13.1129 49.9041C8.96096 53.7255 5.14366 57.8951 1.70276 62.3675C0.286739 64.2282 -0.637773 66.5219 0.532495 68.7688C1.11283 69.7681 1.98321 70.5674 3.02823 71.0606C4.07324 71.5539 5.24351 71.7178 6.38384 71.5307C8.63075 71.2615 10.7723 69.8923 12.7384 68.8624C15.0087 67.6922 17.2673 66.4166 19.4908 65.1059C23.3527 62.8356 27.121 60.4248 30.7722 57.78C30.8503 58.4464 30.9714 59.107 31.135 59.7578C31.3219 60.8743 31.8287 61.9126 32.5939 62.7469C33.3592 63.5812 34.35 64.1755 35.4462 64.458C36.5425 64.7404 37.6972 64.6988 38.7703 64.3381C39.8433 63.9774 40.7887 63.3132 41.4919 62.426C42.0185 66.6155 42.6621 70.7817 43.6335 74.9127C44.6282 79.3714 45.4474 85.1409 49.7423 87.7038C53.6744 90.0443 58.1097 88.0782 59.9587 84.193C61.8077 80.3077 61.8545 75.3691 61.7258 71.0742C61.6517 68.6361 61.425 66.205 61.0471 63.7952C64.6164 66.323 68.6889 67.7975 73.3232 66.6155C76.9978 65.6793 79.9586 63.1047 82.4981 60.4599C84.9534 57.828 87.0867 54.913 88.8526 51.7765C90.5219 48.8203 91.8378 45.678 92.773 42.4144C93.7327 39.0908 94.505 35.5449 93.5922 32.1277C91.4506 24.1348 82.0885 24.2167 75.5467 25.1178ZM50.5615 27.2594C50.5671 27.2245 50.5671 27.189 50.5615 27.1541C50.5615 27.002 50.5615 26.9551 50.6317 26.9902C50.6262 26.9514 50.6262 26.912 50.6317 26.8732C50.6317 26.8732 50.6317 26.8732 50.6317 26.7328C50.6355 26.6978 50.6355 26.6625 50.6317 26.6275C50.6404 26.5771 50.6404 26.5257 50.6317 26.4753C50.6317 26.4753 50.6317 26.5455 50.6317 26.5807C50.7028 26.4403 50.7809 26.3036 50.8657 26.1711C51.0179 26.0189 51.1583 25.8551 51.3221 25.703L51.7902 25.3987L52.0945 25.2934H52.1881H52.4339H52.5275H52.4456H52.5626H52.8903H53.019H53.1126L53.5456 25.504L53.6393 25.5742L53.7446 25.6678C53.7446 25.6093 53.7446 25.6093 53.8616 25.6678L53.9552 25.7849L54.0606 25.8668L53.9786 25.8083L54.1191 25.9721L54.2478 26.1594L54.318 26.4168C54.318 26.4168 54.318 26.5455 54.318 26.6041C54.318 26.6626 54.318 26.803 54.318 26.8498C54.3131 26.916 54.3131 26.9825 54.318 27.0488C54.318 27.2243 54.2361 27.3881 54.1893 27.5637C54.1631 27.6398 54.1318 27.7141 54.0957 27.786L53.9903 28.0201C53.9903 27.9265 53.8967 28.1722 53.8616 28.2307L53.6627 28.5116C53.3935 28.8744 53.4988 28.6403 53.6627 28.5116C53.5105 28.6403 53.2882 28.9095 53.2063 28.9797L52.9956 29.1435L53.1009 29.085L52.902 29.2021H52.9956C52.6211 29.3893 52.6796 29.3893 52.8318 29.3074L52.5041 29.4946C52.2701 29.6234 52.036 29.7287 51.7902 29.834L51.5445 29.9276H51.6264H51.5328H51.4392H51.2051H51.4392C51.3689 29.8691 51.3104 29.7989 51.2285 29.7404C51.5094 29.9627 51.3689 29.8223 51.2285 29.7404L51.0881 29.5765C50.9248 29.3523 50.7763 29.1178 50.6434 28.8744C50.6434 28.7808 50.5732 28.6988 50.5498 28.6169C50.5115 28.5298 50.4802 28.4398 50.4561 28.3478C50.4561 28.1371 50.4561 27.9148 50.3508 27.7041C50.3453 27.6184 50.3453 27.5324 50.3508 27.4467C50.3508 27.4467 50.3508 27.3179 50.3508 27.2594V27.3764C50.4261 27.3474 50.497 27.308 50.5615 27.2594ZM33.0894 44.8953C32.3167 46.7196 31.702 48.6067 31.252 50.536C30.7957 50.6134 30.3655 50.8023 29.9998 51.0861C23.3106 56.1144 16.1912 60.5435 8.72437 64.3218C8.11583 64.6261 7.5541 64.942 6.87535 65.2346C7.34345 64.6261 7.81157 64.0643 8.29138 63.4207C13.1374 57.4948 18.6951 52.1886 24.839 47.6221C25.4608 47.1683 25.8867 46.4948 26.0301 45.7385C26.1736 44.9821 26.0238 44.1995 25.6113 43.5495C25.1669 42.9153 24.4916 42.4805 23.7303 42.3383C22.969 42.1961 22.1822 42.3578 21.5388 42.7889C20.6437 43.6447 19.5319 44.2398 18.3233 44.51C17.1147 44.7802 15.8553 44.7151 14.681 44.3219C13.6677 43.9488 12.7618 43.3319 12.0434 42.5257C11.3249 41.7195 10.8161 40.7488 10.5617 39.6994C9.89465 36.9492 10.6553 34.0236 11.4394 31.367C12.2578 28.5395 13.2585 25.768 14.4353 23.0698C15.6177 20.3774 16.962 17.759 18.461 15.2291C19.9298 12.5008 21.7733 9.99157 23.9379 7.77445C25.3305 6.46375 27.4487 5.04772 29.2743 6.28821C31.0999 7.52869 32.2234 10.349 33.1713 12.3736C36.2842 19.0675 39.1513 25.9721 42.0419 32.8065C41.6323 33.181 41.2461 33.5672 41.0706 33.7193C40.5089 34.2225 39.9588 34.7491 39.4322 35.2874C38.5242 36.2083 37.6797 37.1897 36.9044 38.2248C35.3732 40.2895 34.0926 42.5287 33.0894 44.8953ZM38.2268 57.347C38.1215 57.4874 37.2789 58.2598 36.8693 58.6694C36.494 57.3015 36.4143 55.8693 36.6353 54.4681C36.9591 50.8427 38.0908 47.3358 39.9471 44.2049C41.0022 42.4177 42.263 40.7602 43.7037 39.2664C44.4644 38.4706 45.6112 37.7684 46.5357 36.9258C46.8563 36.918 47.173 36.8546 47.472 36.7386C47.6616 37.177 47.7419 37.6549 47.706 38.1312C47.6642 38.9994 47.5388 39.8616 47.3315 40.7058C46.8021 42.948 45.9922 45.1144 44.9208 47.154C43.0084 50.7507 40.7676 54.1629 38.2268 57.347ZM87.3781 39.9217C86.621 42.7661 85.5413 45.5145 84.1599 48.1136C81.8193 52.584 78.3085 57.5928 73.803 60.1322C67.5772 63.643 61.8662 57.3587 58.1682 53.1106C56.0617 50.6882 51.9073 52.5255 53.0307 55.8257C54.7553 60.7878 55.7027 65.9866 55.8394 71.2381C55.9496 73.7466 55.8478 76.2599 55.5351 78.7512C55.3906 80.1367 54.8773 81.4581 54.0489 82.578C53.9335 82.7125 53.7782 82.8067 53.6056 82.8467C53.4329 82.8867 53.252 82.8705 53.0892 82.8003C52.2935 82.6131 51.7785 81.7588 51.4392 81.08C50.5139 78.8519 49.854 76.5227 49.4731 74.1403C48.2689 68.8683 47.4011 63.525 46.8751 58.1428C46.8074 57.4683 46.5654 56.8231 46.173 56.2704C48.5734 52.9996 50.5402 49.4319 52.0243 45.656C52.7532 43.7684 53.2712 41.8061 53.5691 39.8047C53.7474 39.7466 53.9168 39.6639 54.0723 39.5589C59.6031 35.7742 65.8021 33.0738 72.3401 31.6011C75.4255 30.8616 78.588 30.4923 81.7608 30.5011C83.7971 30.5011 86.4419 30.7351 87.6121 32.6778C88.7824 34.6204 87.9866 37.7918 87.4132 39.9217H87.3781Z" fill="#23201E"/>
</svg>
