<svg width="469" height="201" viewBox="0 0 469 201" fill="none" xmlns="http://www.w3.org/2000/svg">
<path d="M221.537 113.435C221.537 113.435 221.658 113.687 221.695 113.77C221.732 113.854 221.816 114.077 221.881 114.226C222.011 114.589 222.123 114.952 222.235 115.315C222.742 117.138 223.054 119.009 223.165 120.898C223.286 122.81 223.286 124.727 223.165 126.639C223.109 127.439 223.035 128.239 222.923 129.04C222.856 129.691 222.722 130.333 222.523 130.956C221.486 134.915 219.467 138.547 216.652 141.517C213.863 144.149 210.597 146.223 207.031 147.631C205.272 148.366 203.457 148.943 201.69 149.641C199.922 150.338 198.079 151.129 196.209 151.688C195.688 151.836 195.167 151.976 194.636 152.088C194.357 152.144 194.087 152.199 193.808 152.227H193.566C193.232 152.26 192.896 152.26 192.562 152.227C192.485 152.206 192.41 152.178 192.338 152.144H192.264L192.18 152.069C191.877 151.594 191.662 151.067 191.547 150.515C191.371 149.676 191.268 148.823 191.24 147.966C191.045 143.657 190.812 139.294 192.506 135.237C193.994 131.654 196.693 128.602 199.196 125.522C203.923 119.698 208.668 111.742 216.391 110.197C214.865 113.919 214.372 117.985 212.995 121.642C211.934 124.434 216.345 125.978 217.387 123.168C218.727 119.539 219.201 115.678 220.625 112.077C220.993 112.483 221.3 112.941 221.537 113.435V113.435Z" fill="#A3D280"/>
<path d="M119.751 50.7299C119.223 51.0486 118.843 51.563 118.693 52.1608C118.543 52.7587 118.636 53.3915 118.951 53.9214C128.2 65.6642 134.248 79.4632 139.97 93.1786C135.727 92.9925 131.791 90.4988 128.637 87.7632C123.663 83.4245 119.642 78.1018 116.829 72.131C116.983 71.546 116.9 70.9238 116.597 70.4003C116.144 69.5935 115.641 68.8165 115.089 68.0741C112.36 60.8175 111.357 53.0256 112.158 45.3145C116.222 45.788 120.178 46.9359 123.864 48.7107C131.798 52.4864 138.152 58.9324 141.813 66.9203C145.208 74.5152 146.015 83.0146 144.111 91.1129C138.314 77.2766 132.126 63.5333 122.942 51.5673C122.621 51.0427 122.11 50.6626 121.515 50.5065C120.92 50.3504 120.288 50.4305 119.751 50.7299V50.7299Z" fill="#A3D280"/>
<path d="M143.981 100.39C147.35 100.456 150.686 101.063 153.863 102.185C157.241 103.255 160.684 104.53 164.266 104.642C172.296 104.902 179.731 100.771 187.789 101.041C190.152 101.115 190.366 104.763 188.328 105.498C178.093 109.369 171.868 118.469 167.309 128.025C171.449 123.537 176.018 119.464 180.949 115.863C188.334 110.476 196.491 106.235 205.142 103.283C210.178 101.627 215.308 100.269 220.504 99.2171C221.686 98.9659 222.868 98.7333 224.05 98.5006C224.673 97.6818 225.296 96.8444 225.91 95.9883C227.297 93.9878 229.995 95.5231 230.023 97.4864C232.554 97.1049 235.094 96.7792 237.653 96.5559C240.659 96.2954 243.673 96.2861 246.679 96.0814C249.114 96.0661 251.506 95.4424 253.639 94.2669C255.891 92.8526 257.733 90.9172 259.855 89.3354C261.055 88.4049 263.158 86.7765 264.749 86.7207H265.084C265.762 86.286 266.549 86.0507 267.354 86.0415C269.215 85.8554 271.179 85.7158 273.086 85.4925C276.76 85.1297 280.396 84.451 283.954 83.464C287.015 82.5335 290.123 81.3518 292.273 78.8953C293.882 76.9599 294.813 74.4662 295.743 72.1307C296.73 69.3368 298.031 66.6645 299.623 64.1658C301.521 61.338 303.951 58.9075 306.779 57.0103C309.516 55.2433 312.589 54.0616 315.805 53.5396C319.443 52.9255 323.118 53.2884 326.775 53.4745C335.931 53.9211 345.096 54.1258 354.243 54.6004L358.449 54.8423C360.977 53.4703 363.62 52.3215 366.349 51.4088C370.759 49.8084 375.188 48.1893 378.901 45.2304C381.236 43.3694 383.925 47.2589 381.534 49.0733C378.149 51.5314 374.422 53.4783 370.471 54.8516C368.079 55.7821 365.604 56.5637 363.306 57.6431C363.3 57.9326 363.234 58.2177 363.112 58.4805C362.99 58.7434 362.816 58.9782 362.599 59.1704C362.382 59.3626 362.128 59.5079 361.853 59.5974C361.577 59.6868 361.286 59.7184 360.998 59.6901L359.668 59.6157C356.838 61.5368 354.555 64.1594 353.043 67.2271C351.88 69.4881 350.847 71.8143 349.851 74.1685V74.1126C358.16 64.3984 371.55 61.0859 383.674 59.3459C396.282 57.4849 409.151 57.5593 421.684 55.1494C426.337 54.2189 430.878 53.1302 435.465 52.0881C439.101 51.1654 442.789 50.4632 446.51 49.9852C449.376 49.6781 452.251 49.4641 455.098 48.9989C456.42 48.8153 457.724 48.5228 458.997 48.1242C459.553 47.9377 460.1 47.7234 460.635 47.4822C460.702 47.4444 460.774 47.4163 460.849 47.3984L461.025 47.2682C461.202 47.1379 461.388 47.0076 461.556 46.8681C461.633 46.7894 461.704 46.7054 461.77 46.6168C461.816 46.5391 461.856 46.4582 461.891 46.3749L462.077 45.9003C462.077 45.8352 462.226 45.2769 462.254 45.1467C462.45 43.9691 462.543 42.7767 462.533 41.5829C462.533 38.4658 462.207 35.358 461.937 32.2781C461.937 31.85 461.863 31.422 461.835 31.0033C461.63 28.4175 461.63 25.8195 461.835 23.2337C462.254 18.5813 463.026 14.0685 463.314 9.45326C463.407 8.05754 463.435 6.66181 463.398 5.27539C455.393 7.06008 447.295 8.39586 439.14 9.27647C435.102 9.73241 431.054 10.207 426.979 10.207C423.201 10.2628 419.395 10.207 415.627 10.5326C412.046 10.7796 408.594 11.9637 405.615 13.9661C405.499 14.3236 405.286 14.6421 405 14.8867C404.715 15.1312 404.367 15.2924 403.996 15.3525H403.856C403.559 15.6598 403.173 15.8663 402.753 15.943C402.332 16.0198 401.898 15.963 401.512 15.7806C381.916 19.549 361.808 19.4467 341.84 20.0236C331.874 20.3027 321.89 20.8145 311.99 22.0892C307.198 22.7034 302.452 23.5687 297.707 24.5364C293.696 25.3552 289.667 26.0903 285.722 27.2069C281.829 28.1981 278.139 29.8607 274.817 32.1199C271.461 34.6852 268.62 37.861 266.442 41.4805C266.247 41.7876 266.08 42.104 265.893 42.411C265.886 42.8061 265.776 43.1925 265.574 43.532C265.371 43.8714 265.084 44.1522 264.74 44.3464C263.195 47.0821 261.827 49.9293 260.45 52.7208C258.664 56.4427 256.951 60.2577 254.476 63.5423C249.312 70.174 242.304 75.133 234.331 77.7974C230.005 79.2861 225.482 79.6583 221.016 80.5237C216.55 81.389 212.893 83.8083 208.92 85.9856C200.378 90.6381 189.938 91.308 180.419 91.9407C175.534 92.2664 170.64 92.3594 165.838 93.4295C164.638 93.6993 163.447 93.9971 162.247 94.2949C161.046 94.5926 159.883 94.8718 158.702 95.123C156.399 95.5805 154.061 95.8296 151.714 95.8674C150.301 95.8946 148.891 95.9971 147.489 96.1744C147.489 96.2861 147.424 96.4071 147.378 96.5187C147.244 96.9919 146.937 97.3973 146.518 97.6543C146.099 97.9113 145.599 98.0008 145.117 97.9051C144.744 98.7519 144.372 99.58 143.981 100.39Z" fill="#FAAE66"/>
<path d="M134.677 191.056C126.796 194.611 118.133 195.141 109.638 195.886C109.769 191.838 110.702 187.856 112.383 184.171C114.122 180.11 116.598 176.406 119.687 173.247C122.37 170.651 125.623 168.72 129.187 167.608C133.274 166.257 137.475 165.282 141.739 164.696C144.085 164.317 146.454 164.103 148.83 164.054C148.653 164.296 148.495 164.547 148.318 164.78C144.516 169.766 139.248 173.436 133.253 175.275C132.942 175.328 132.644 175.444 132.379 175.616C132.113 175.787 131.886 176.011 131.71 176.274C131.534 176.537 131.413 176.832 131.356 177.143C131.298 177.454 131.304 177.773 131.373 178.081C131.443 178.39 131.575 178.681 131.761 178.936C131.946 179.192 132.182 179.407 132.454 179.569C132.726 179.73 133.028 179.834 133.341 179.875C133.654 179.916 133.973 179.893 134.277 179.807C138.181 178.623 141.861 176.796 145.164 174.401C148.026 172.244 150.537 169.658 152.608 166.734C153.311 169.491 152.98 172.41 151.677 174.94C148.458 182.087 141.739 187.883 134.677 191.056Z" fill="#B6D991"/>
<path d="M229.018 36.8935C228.222 36.3475 227.455 35.7605 226.72 35.1349C226.474 34.9061 226.175 34.7435 225.849 34.6621C225.524 34.5807 225.183 34.5833 224.859 34.6696C221.481 32.8086 218.15 30.8453 214.726 29.0867C208.492 25.8207 202.118 23.4014 195.065 22.7315C192.069 22.443 191.622 27.2443 194.599 27.3839C201.243 27.6352 207.729 30.5755 213.46 33.6926C218.029 36.177 222.486 39.0057 227.176 41.2854C228.106 41.9088 229.092 42.495 230.097 43.0254C225.724 44.9608 220.495 45.2771 215.88 45.4074C210.073 45.5656 204.193 45.6028 198.591 43.8814C193.803 42.4192 189.442 39.8169 185.881 36.298C183.899 34.3346 182.001 32.2317 180.121 30.1661C179.229 29.2645 178.463 28.2474 177.841 27.142C177.607 26.7218 177.456 26.2607 177.395 25.7835C177.41 25.5418 177.448 25.302 177.506 25.067C177.608 24.7972 177.742 24.541 177.907 24.304C177.941 24.2569 177.972 24.2071 178 24.1551C178.044 24.1119 178.084 24.0652 178.121 24.0156C178.415 23.6897 178.725 23.3791 179.051 23.0851C179.874 22.3909 180.755 21.7684 181.684 21.2241C183.687 19.981 185.781 18.8892 187.946 17.9581C193.505 15.5325 199.586 14.5523 205.625 15.1087C211.664 15.6651 217.464 17.74 222.486 21.1404C225.665 23.3546 228.302 26.2588 230.2 29.6357C231.771 32.5614 232.721 35.7797 232.991 39.0894C232.812 38.8743 232.586 38.7026 232.331 38.587C231.214 37.9914 230.116 37.4518 229.018 36.8935Z" fill="#A3D280"/>
<path d="M301.559 120.108C305.737 115.781 311.71 113.148 317.2 110.952C320.504 109.63 323.863 108.477 327.24 107.416C324.765 115.223 320.187 122.238 313.283 126.854C309.844 129.142 306.026 130.799 302.005 131.748C300.035 132.226 298.027 132.538 296.004 132.679C295.671 132.385 295.252 132.206 294.81 132.17C294.367 132.133 293.924 132.239 293.547 132.474C293.352 132.576 293.166 132.688 292.98 132.809C291.798 132.809 290.607 132.809 289.425 132.809C285.917 132.706 282.521 132.762 278.929 131.878L278.557 131.776C278.418 131.72 278.278 131.674 278.148 131.608C278.018 131.543 277.999 131.534 277.915 131.497C277.921 131.395 277.921 131.292 277.915 131.19C278.192 129.404 278.825 127.692 279.776 126.156C283.316 119.779 288.394 114.389 294.548 110.475C300.702 106.562 307.738 104.25 315.014 103.75C317.484 103.555 319.968 103.693 322.402 104.159C319.61 105.09 316.912 106.085 314.232 107.202C308.649 109.537 302.889 112.32 298.525 116.628C298.062 117.029 297.772 117.596 297.718 118.207C297.665 118.818 297.851 119.426 298.237 119.903C298.44 120.137 298.688 120.327 298.966 120.464C299.244 120.601 299.546 120.682 299.855 120.701C300.164 120.72 300.474 120.677 300.767 120.575C301.059 120.474 301.328 120.315 301.559 120.108Z" fill="#A3D280"/>
<path d="M294.394 137.387C297.854 137.257 301.287 136.736 304.629 135.833C304.803 136.656 304.828 137.503 304.704 138.336C304.564 139.357 304.299 140.357 303.913 141.313C302.963 143.684 301.712 145.924 300.191 147.975C296.887 152.482 293.102 156.616 288.904 160.304C286.671 162.314 289.89 165.664 292.114 163.673C296.797 159.6 300.962 154.969 304.518 149.883C307.542 145.407 310.491 139.843 309.021 134.353C311.089 133.527 313.078 132.518 314.967 131.338C314.967 132.046 314.967 132.762 314.967 133.497C315.111 136.06 315.111 138.629 314.967 141.192C314.556 146.517 312.777 151.645 309.803 156.08C307.227 159.712 303.832 162.686 299.893 164.761C292.552 168.772 284.242 170.428 276.054 171.842C275.936 171.082 275.874 170.314 275.868 169.544C275.873 168.907 275.91 168.27 275.98 167.637C276.063 166.846 276.194 166.055 276.352 165.273C277.608 159.02 280.818 153.177 284.456 147.948C286.213 145.428 288.184 143.065 290.346 140.885C291.585 139.597 292.94 138.426 294.394 137.387Z" fill="#B6D991"/>
<path d="M56.0971 164.696C56.0258 165.307 56.1975 165.922 56.5752 166.407C56.9529 166.893 57.5064 167.211 58.1162 167.292C62.657 167.292 67.2071 167.18 71.7386 166.808C67.4955 170.67 61.5777 172.075 55.7435 171.461C51.9099 171.033 48.5509 169.386 45.1267 167.739C43.55 166.918 41.9102 166.224 40.223 165.664C39.4787 165.44 38.7249 165.236 37.9713 165.031H37.8689C38.0617 164.54 38.2854 164.061 38.5388 163.598C39.2093 162.451 40.0537 161.415 41.0418 160.527C43.2802 158.564 45.8516 157.017 48.6346 155.959C51.2892 154.867 54.0485 154.051 56.8694 153.521C59.6158 152.88 62.4618 152.788 65.2438 153.251C67.6983 153.848 69.9043 155.198 71.5524 157.112C72.9947 158.611 74.2974 160.239 75.6094 161.849C69.9881 162.497 64.333 162.808 58.6745 162.779C58.0836 162.722 57.4925 162.886 57.0161 163.24C56.5397 163.595 56.2121 164.113 56.0971 164.696V164.696Z" fill="#B6D991"/>
<path d="M19.5101 16.619C24.7213 16.7556 29.8909 17.588 34.8817 19.0941C39.1263 20.4095 43.1757 22.2872 46.9221 24.677C51.1877 27.3484 55.0721 30.5848 58.4695 34.2982C60.5107 36.4775 62.2109 38.9526 63.5127 41.6398C59.1948 38.9388 54.421 37.047 49.4251 36.0569C47.2106 31.5905 43.4049 28.613 39.0037 26.324C34.8817 24.1653 30.4339 22.5462 26.9074 19.5687C26.409 19.2076 25.7891 19.0561 25.1804 19.1466C24.5717 19.237 24.0226 19.5622 23.6507 20.0525C23.2989 20.554 23.1529 21.1714 23.2429 21.7774C23.333 22.3834 23.6521 22.9317 24.1346 23.3092C27.3913 26.1007 31.383 27.7011 35.1701 29.5714C38.2407 31.0974 41.3206 32.8002 43.5445 35.3497C41.8032 35.269 40.0583 35.3187 38.3245 35.4986C34.4974 35.9422 30.7271 36.7842 27.0749 38.0109C26.2246 38.006 25.3882 37.7953 24.637 37.3968C23.667 37.0005 22.7535 36.478 21.92 35.8428C21.015 35.171 20.1684 34.424 19.3891 33.6097C17.3559 31.5657 15.4598 29.3899 13.7131 27.0963C11.4241 24.1466 9.24681 20.9086 6.67868 18.1357C10.8509 16.9659 15.1801 16.4542 19.5101 16.619V16.619Z" fill="#B6D991"/>
<path d="M131.048 95.2725C133.786 96.8535 136.868 97.7445 140.027 97.8685C137.893 102.509 134.582 106.511 130.423 109.477C126.264 112.443 121.402 114.269 116.319 114.775C108.782 115.538 101.226 113.696 93.987 111.64C98.567 106.605 104.144 102.578 110.364 99.8148C116.585 97.0515 123.311 95.6124 130.118 95.5888C130.452 95.5745 130.775 95.4647 131.048 95.2725V95.2725Z" fill="#B6D991"/>
<path d="M27.8388 42.6161C29.3275 42.6161 30.7605 42.337 31.5049 41.5088C34.2443 40.7454 37.0472 40.2316 39.8792 39.9735C44.1319 39.7041 48.3962 40.2699 52.4315 41.6391C60.3313 44.1235 68.9476 49.3714 70.9854 57.8761H69.7757C61.5502 52.5537 51.5382 50.4322 42.3915 47.2778C39.5536 46.3473 38.1671 50.7299 40.9958 51.7162C45.3784 53.2515 49.8447 54.5635 54.2459 56.0244C57.2352 56.97 60.1627 58.1012 63.0111 59.4114C59.3357 59.951 55.6602 60.5652 51.9476 60.9001C44.316 61.6214 36.6194 60.6426 29.4113 58.0342C23.2994 55.7458 17.4046 52.9151 11.7972 49.5761C15.7465 47.4633 19.8238 45.5987 24.0052 43.9932C25.2427 43.528 26.5361 43.0534 27.8388 42.6161Z" fill="#A3D280"/>
<path d="M51.2398 94.6583C49.9215 96.7472 48.231 98.5764 46.2524 100.055C41.1891 103.956 35.4245 106.849 29.2711 108.578C26.2699 109.498 23.1937 110.152 20.0779 110.532C18.5614 110.712 17.0362 110.808 15.5092 110.821C14.9137 110.821 14.3182 110.821 13.7227 110.774C14.1733 107.192 15.2771 103.723 16.9794 100.539C23.5858 88.1356 37.906 80.0032 51.9563 79.2495C49.4269 82.2778 46.4601 84.9121 43.1539 87.0656C38.8958 90.0161 34.391 92.5938 29.6898 94.77C29.1642 95.0904 28.7856 95.6047 28.6359 96.2019C28.4862 96.799 28.5773 97.431 28.8896 97.9616C29.2211 98.4747 29.7357 98.8422 30.3287 98.9892C30.9217 99.1362 31.5484 99.0515 32.0812 98.7525C37.1812 96.4753 42.0277 93.6684 46.5409 90.3781C49.0388 88.5959 51.3825 86.607 53.5474 84.4323C53.9941 83.9671 54.4221 83.5018 54.8408 83.0087C54.4686 84.7859 54.0871 86.5631 53.6312 88.3124C53.1345 90.5291 52.3296 92.6652 51.2398 94.6583V94.6583Z" fill="#B6D991"/>
<path d="M106.854 66.6133C108.425 67.6104 109.813 68.8693 110.958 70.3352C114.068 78.3209 119.011 85.4637 125.39 91.1874C123.771 91.3269 122.152 91.5316 120.551 91.8294C120.489 91.4132 120.328 91.0178 120.082 90.6763C119.836 90.3348 119.512 90.057 119.137 89.8661C115.768 87.9214 113.554 84.4506 111.693 81.1567C107.971 74.6433 104.528 67.6461 96.8052 65.2548C92.8971 64.0358 88.896 62.9565 84.8391 62.0911C89.4185 61.9931 93.9943 62.4114 98.48 63.338C101.437 63.9463 104.269 65.0539 106.854 66.6133Z" fill="#ED9254"/>
<path d="M1.44057 15.0181C6.65716 12.9185 12.2411 11.884 17.8636 11.9754C23.5476 11.9381 29.2103 12.6737 34.6961 14.162C44.8198 16.8791 54.1339 22.9924 61.3452 30.5386C65.5417 34.9398 69.0682 40.3645 69.7195 46.5336C72.7052 49.4953 74.7647 53.2618 75.6467 57.3738C75.6553 57.479 75.6553 57.5848 75.6467 57.6901C79.8618 57.5133 84.0862 57.3458 88.3199 57.4947C95.159 57.7273 102.454 58.6299 108.456 62.1471C108.149 60.77 107.897 59.3557 107.702 58.0065C106.966 52.8976 106.994 47.7076 107.786 42.607C107.854 41.9991 108.152 41.4405 108.619 41.0459C109.087 40.6513 109.687 40.4507 110.298 40.4855C120.191 41.1361 129.548 45.2126 136.761 52.0142C144.161 59.0702 148.716 68.5948 149.564 78.7842C149.915 82.9924 149.636 87.2293 148.736 91.3551C151.723 91.1317 154.747 91.2155 157.678 90.5735C162.452 89.522 167.113 88.1728 172.008 87.8285C181.796 87.1307 191.725 86.898 201.206 84.1066C205.552 82.8318 209.097 80.1706 213.117 78.2073C217.527 76.0579 222.31 75.5833 227.074 74.7831C235.131 73.4373 242.557 69.5779 248.289 63.7569C251.173 60.7793 253.09 57.2435 254.932 53.5774C256.235 50.9534 257.482 48.3015 258.803 45.6869C257.091 46.0963 255.388 46.5336 253.658 46.85C250.133 47.5481 246.518 47.6581 242.957 47.1756C240.395 46.7926 237.875 46.1696 235.43 45.3147C230.451 48.6458 224.366 49.5112 218.495 49.8927C212.623 50.2742 206.752 50.3672 201.067 49.232C195.468 48.1801 190.201 45.8067 185.704 42.3092C183.387 40.33 181.21 38.1908 179.191 35.9075C177.2 33.8139 174.864 31.7296 173.608 29.0684C172.947 27.7874 172.683 26.3388 172.849 24.907C173.015 23.4752 173.603 22.1252 174.539 21.029C176.253 19.1292 178.296 17.5533 180.568 16.3766C184.788 13.8679 189.389 12.0669 194.19 11.0449C203.609 9.13694 213.398 10.6027 221.844 15.1856C230.265 19.9218 236.332 27.8402 237.57 37.5172C237.709 38.722 237.784 39.9333 237.793 41.1461C239.793 41.7836 241.845 42.2474 243.925 42.5325C250.047 43.3607 255.779 41.388 261.706 40.2994C265.819 33.4975 271.272 27.7657 278.818 24.6765C282.792 23.12 286.9 21.9302 291.091 21.1221C295.427 20.1916 299.773 19.2611 304.118 18.5446C313.943 16.9756 323.856 16.0184 333.8 15.6787C354.457 14.7483 375.337 15.381 395.826 12.1057C397.836 11.78 399.837 11.4078 401.837 11.0077C407.737 6.17849 415.348 5.6202 422.783 5.57367C431.512 5.45498 440.22 4.68989 448.836 3.28468C454.242 2.44724 459.639 1.42371 464.952 0.111726C465.288 0.00474921 465.644 -0.0259219 465.994 0.0219414C466.343 0.0698047 466.678 0.195001 466.973 0.388415C467.268 0.581829 467.516 0.838592 467.699 1.14002C467.882 1.44144 467.996 1.77995 468.032 2.13088C468.507 7.09036 467.958 12.0591 467.362 17.0186C467.083 19.3076 466.785 21.5873 466.581 23.8856C466.487 24.9464 466.413 26.0164 466.357 27.0865V27.2912C466.357 27.6355 466.357 27.9797 466.357 28.324C466.506 31.2457 466.86 34.1489 467.055 37.0706C467.395 40.0588 467.329 43.0792 466.86 46.0498C466.649 47.3392 466.11 48.5528 465.295 49.5744C464.481 50.5959 463.417 51.3912 462.207 51.8839C459.397 52.9975 456.437 53.6874 453.423 53.931C450.79 54.2659 448.138 54.4055 445.505 54.7777C441.076 55.4011 436.684 56.5456 432.329 57.5692C425.124 59.3262 417.81 60.6038 410.435 61.3934C403.922 62.0169 397.408 62.4263 390.895 63.1242C378.799 64.4268 365.176 66.3995 355.806 74.6808C351.47 78.5237 349.125 83.9856 346.716 89.3638C345.711 91.597 344.668 93.9046 343.468 96.1191C343.366 96.4634 343.254 96.8077 343.124 97.1427C342.918 97.7011 342.544 98.1822 342.054 98.5198C340.532 101.03 338.56 103.238 336.238 105.033C334.978 105.969 333.602 106.739 332.144 107.322C330.244 114.39 326.566 120.854 321.462 126.099C321.479 126.436 321.417 126.772 321.281 127.08C321.146 127.389 320.94 127.661 320.681 127.877C319.052 129.328 319.517 132.603 319.62 134.502C319.792 137.156 319.745 139.82 319.48 142.467C318.909 148.273 316.89 153.842 313.609 158.666C308.026 166.706 299.14 170.995 289.956 173.554C284.895 174.897 279.768 175.972 274.594 176.774C274.092 176.842 273.582 176.747 273.14 176.503C272.697 176.258 272.345 175.876 272.137 175.415C269.988 169.013 271.867 162.016 274.482 156.042C277.359 149.516 281.341 143.535 286.253 138.363C286.606 137.991 286.969 137.628 287.332 137.265C284.487 137.267 281.647 137.014 278.846 136.511C277.078 136.139 275.05 135.581 274.017 133.934C272.835 132.073 273.328 129.672 274.017 127.718C277.497 117.809 285.918 109.714 294.953 104.782C300.75 101.625 307.136 99.6961 313.711 99.1153C319.089 98.6314 324.961 99.0688 329.725 101.795L330.032 101.702C330.376 101.582 330.747 101.56 331.103 101.637C331.459 101.714 331.787 101.888 332.051 102.139C335.103 100.362 337.28 97.487 339.058 94.3791C339.414 92.6499 339.662 90.9004 339.802 89.1405C340.018 86.7092 340.591 84.3231 341.505 82.0595C343.654 77.0442 345.627 71.9544 348.018 67.0322C349.301 64.1849 351.001 61.5444 353.061 59.1975C345.999 58.8439 338.918 58.5927 331.856 58.3229C327.799 58.174 323.677 57.6901 319.629 57.8111C316.675 57.8801 313.77 58.5879 311.115 59.8861C305.532 62.6775 302.471 67.8138 300.266 73.3874C299.384 75.9902 298.174 78.4699 296.665 80.7661C294.737 83.3553 292.123 85.3536 289.119 86.5351C285.649 87.9106 282.034 88.8847 278.343 89.4383C276.483 89.736 274.696 89.9593 272.863 90.1547C270.757 90.4942 268.631 90.69 266.498 90.7409H266.331C266.081 90.96 265.798 91.139 265.494 91.2713C263.363 92.2018 261.567 93.8767 259.827 95.3654C258.009 97.0431 255.928 98.4106 253.667 99.4131C249.015 101.274 243.748 100.744 238.872 101.097C234.764 101.417 230.676 101.961 226.627 102.726C225.306 104.419 223.985 106.113 222.831 107.908C225.734 109.769 226.888 113.808 227.418 117.064C228.071 121.008 228.171 125.022 227.716 128.993C226.627 138.037 220.793 145.742 212.884 150.004C208.883 152.153 204.51 153.595 200.304 155.214C196.303 156.74 190.301 158.657 187.807 153.763C186.663 151.52 186.663 148.85 186.588 146.393C186.418 143.799 186.489 141.195 186.802 138.614C187.565 133.878 189.854 129.877 192.758 126.137C194.544 123.848 196.414 121.633 198.201 119.344C199.987 117.055 201.653 114.868 203.588 112.831C207.748 108.42 212.893 105.238 219.1 105.284C219.351 104.894 219.611 104.503 219.872 104.121C215.867 104.939 211.91 105.974 208.017 107.22C191.784 112.66 177.439 122.618 166.667 135.925C165.436 139.631 164.017 143.27 162.414 146.831C160.693 150.748 159.102 154.74 157.343 158.638C156.813 159.82 156.227 160.974 155.603 162.109C160.898 170.363 155.361 179.993 149.462 186.209C142.8 193.215 134.118 197.207 124.674 198.91C118.979 199.933 113.182 200.231 107.432 200.771C106.101 200.901 105.208 199.598 105.106 198.445C104.792 193.595 105.581 188.737 107.413 184.236C109.162 179.531 111.761 175.188 115.081 171.423C118.044 168.073 121.772 165.487 125.949 163.886C130.31 162.27 134.824 161.101 139.422 160.397C143.456 159.606 147.572 159.316 151.677 159.532C153.64 155.81 155.166 151.92 156.804 148.077C156.376 148.496 155.938 148.915 155.482 149.315C153.359 151.215 150.901 152.704 148.234 153.707C145.732 154.5 143.283 155.451 140.902 156.554C137.699 158.492 134.116 159.714 130.396 160.136C126.312 160.732 122.134 160.713 118.086 161.579C115.099 162.166 112.295 163.458 109.907 165.347C107.604 167.365 105.429 169.525 103.394 171.814C101.153 174.31 98.5944 176.5 95.7824 178.327C92.8633 180.093 89.7382 181.493 86.4776 182.496C79.899 184.543 72.9297 185.213 66.0907 185.622C58.7119 186.069 51.2773 186.041 43.9358 187.046C40.9769 187.456 40.2139 182.868 43.1449 182.468C56.5904 180.607 70.4639 182.059 83.6768 178.467C86.8352 177.652 89.8706 176.419 92.7025 174.801C95.528 173.021 98.09 170.853 100.314 168.362C102.39 166.024 104.619 163.826 106.985 161.783C109.818 159.51 113.135 157.918 116.681 157.131C121.092 156.201 125.651 156.201 130.108 155.484C132.018 155.219 133.891 154.735 135.691 154.042C133.325 152.943 131.028 151.7 128.815 150.32C126.786 149.175 124.916 148.143 122.562 148.068C119.716 148.137 116.942 148.973 114.532 150.487C111.954 151.92 109.6 153.707 107.181 155.372C104.592 157.17 101.867 158.763 99.0298 160.136C93.147 162.84 86.9191 164.719 80.5225 165.719L78.4847 166.026C78.4897 166.051 78.4897 166.076 78.4847 166.101C74.0091 172.866 66.3884 176.336 58.3862 176.215C54.0549 176.129 49.7966 175.083 45.9178 173.154C43.9358 172.223 41.9911 171.144 39.944 170.363C38.5948 169.841 37.2363 169.6 35.8406 169.097C35.1899 168.908 34.6009 168.551 34.1334 168.06C33.666 167.57 33.3368 166.965 33.1794 166.306C32.8165 164.612 33.7005 162.854 34.5007 161.411C36.3674 158.263 39.0354 155.665 42.233 153.884C45.4202 152.027 48.8446 150.613 52.4125 149.678C55.9053 148.641 59.5351 148.139 63.1782 148.189C67.0079 148.313 70.6715 149.782 73.5252 152.339C76.3167 154.87 78.5219 158.052 81.0528 160.862C86.1789 159.962 91.1776 158.447 95.9406 156.349C98.6921 155.124 101.329 153.658 103.822 151.967C106.288 150.283 108.688 148.505 111.266 146.952C116.411 143.825 122.264 142.141 128.014 144.616C130.536 145.695 132.825 147.277 135.244 148.571C137.105 149.548 139.683 151.018 141.813 150.245C142.436 150.003 143.126 150.003 143.749 150.245C146.643 149.222 149.536 148.236 151.937 146.189C153.82 144.523 155.537 142.678 157.064 140.68C161.717 128.761 166.443 115.994 176.288 107.359H176.13C172.119 108.364 168.109 109.304 163.95 109.137C156.701 108.848 150.197 104.41 142.874 104.987C142.396 105.04 141.913 104.929 141.506 104.67C138.696 108.844 135.001 112.348 130.685 114.934C122.971 119.521 114.029 120.312 105.283 119C99.8146 118.056 94.4153 116.751 89.1201 115.092C88.7888 114.964 88.4909 114.762 88.249 114.502C88.007 114.242 87.8272 113.93 87.7233 113.591C87.6193 113.251 87.5939 112.892 87.6489 112.541C87.7039 112.191 87.8379 111.857 88.0408 111.565C95.0267 102.647 104.654 96.1653 115.546 93.0485C109.963 89.0475 107.516 82.5061 103.859 76.8395C102.045 74.048 100.137 71.7497 97.0944 70.3261C94.9845 69.4836 92.8051 68.8266 90.581 68.3628C88.0594 67.6928 85.5285 67.0601 82.9696 66.5018C78.5207 65.5552 74.0132 64.9086 69.4776 64.5664C68.512 64.8389 67.5996 65.273 66.7792 65.8505C66.5187 66.0366 66.2674 66.232 66.0255 66.4367L65.6906 66.7344C65.2532 67.1689 64.8488 67.6355 64.4809 68.1302C63.1065 70.0647 62.0974 72.2343 61.5034 74.5319C59.875 79.6868 59.3074 85.1208 57.8745 90.3501C57.2506 92.7462 56.3119 95.049 55.083 97.1985C53.5807 99.5503 51.6933 101.633 49.5001 103.358C44.2866 107.508 38.3401 110.643 31.9698 112.598C25.1214 114.822 17.7334 116.115 10.5686 115.148C10.0746 115.024 9.63519 114.741 9.31879 114.343C9.00239 113.944 8.82681 113.451 8.81933 112.942C9.68468 94.2675 25.903 80.2078 43.1542 75.9369C47.5586 74.8351 52.1041 74.4053 56.6369 74.6622C56.7951 74.076 56.9533 73.4898 57.1301 72.9035C58.0159 69.7448 59.5745 66.8151 61.6988 64.3152C54.8969 65.3108 48.123 66.3064 41.2281 65.6178C33.0771 64.8083 25.1121 61.8959 17.8264 58.174C13.7788 56.1455 9.84284 53.931 5.97203 51.5954C4.5763 50.7487 4.11106 48.5155 5.74872 47.5851C10.4358 44.8569 15.308 42.4597 20.3294 40.411C16.9332 38.3081 14.1324 35.0328 11.7038 32.0367C9.67536 29.5244 7.74927 26.9283 5.75803 24.3881C4.31491 22.4013 2.65457 20.5818 0.807847 18.9633C0.50635 18.7008 0.276664 18.3659 0.140452 17.99C0.0042401 17.6142 -0.0340231 17.2098 0.0292813 16.8151C0.0925857 16.4204 0.255393 16.0483 0.502304 15.7339C0.749216 15.4195 1.0721 15.1732 1.44057 15.0181V15.0181ZM230.172 29.543C228.274 26.166 225.637 23.2619 222.459 21.0476C217.437 17.6473 211.637 15.5723 205.598 15.0159C199.559 14.4596 193.477 15.4398 187.919 17.8654C185.753 18.7965 183.66 19.8882 181.657 21.1314C180.728 21.6756 179.847 22.2982 179.024 22.9923C178.698 23.2864 178.387 23.5969 178.093 23.9228C178.057 23.9725 178.016 24.0192 177.972 24.0624C177.945 24.1144 177.914 24.1642 177.879 24.2113C177.715 24.4483 177.581 24.7045 177.479 24.9743C177.42 25.2092 177.383 25.449 177.367 25.6907C177.428 26.1679 177.58 26.6291 177.814 27.0493C178.435 28.1547 179.202 29.1718 180.094 30.0733C181.955 32.139 183.871 34.2419 185.853 36.2052C189.414 39.7242 193.776 42.3264 198.564 43.7887C204.147 45.5101 210.046 45.4729 215.852 45.3147C220.505 45.1844 225.697 44.868 230.07 42.9326C229.065 42.4023 228.097 41.8161 227.148 41.1926C222.496 38.9129 218.002 36.0843 213.433 33.5999C207.701 30.4827 201.216 27.5424 194.572 27.2912C191.594 27.1702 192.041 22.3689 195.037 22.6388C202.09 23.3087 208.464 25.728 214.698 28.994C218.123 30.7898 221.454 32.7159 224.831 34.5769C225.156 34.4906 225.496 34.488 225.822 34.5694C226.147 34.6507 226.447 34.8134 226.692 35.0421C227.427 35.6678 228.194 36.2548 228.991 36.8007C230.089 37.359 231.187 37.8987 232.312 38.4012C232.568 38.5168 232.793 38.6886 232.973 38.9036C232.687 35.6251 231.734 32.4396 230.172 29.543V29.543ZM284.42 147.947C280.781 153.13 277.571 159.02 276.315 165.273C276.157 166.054 276.027 166.845 275.943 167.636C275.873 168.27 275.836 168.906 275.831 169.544C275.837 170.313 275.899 171.081 276.017 171.842V171.842C284.206 170.428 292.515 168.771 299.856 164.761C303.795 162.685 307.19 159.711 309.766 156.08C312.74 151.644 314.519 146.516 314.93 141.192C315.074 138.629 315.074 136.06 314.93 133.497C314.93 132.762 314.93 132.045 314.93 131.338C313.042 132.517 311.052 133.526 308.984 134.353C310.455 139.843 307.505 145.407 304.481 149.883C300.925 154.969 296.76 159.6 292.077 163.672C289.854 165.664 286.634 162.314 288.867 160.304C293.065 156.616 296.85 152.482 300.154 147.975C301.675 145.923 302.926 143.684 303.876 141.313C304.262 140.357 304.527 139.357 304.667 138.335C304.791 137.503 304.766 136.656 304.592 135.832C301.25 136.736 297.817 137.257 294.357 137.386C292.89 138.424 291.523 139.595 290.272 140.885C288.122 143.067 286.164 145.429 284.42 147.947V147.947ZM298.535 116.543C302.899 112.235 308.64 109.453 314.242 107.117C316.921 106.001 319.648 104.996 322.411 104.075C319.978 103.608 317.493 103.471 315.023 103.665C307.751 104.175 300.721 106.494 294.574 110.412C288.426 114.33 283.356 119.722 279.823 126.099C278.872 127.636 278.239 129.348 277.962 131.133C277.968 131.236 277.968 131.338 277.962 131.44C278.046 131.44 278.111 131.524 278.195 131.552C278.278 131.58 278.464 131.664 278.604 131.719L278.976 131.822C282.568 132.706 285.964 132.65 289.472 132.752C290.654 132.752 291.845 132.752 293.027 132.752C293.213 132.631 293.399 132.52 293.594 132.417C293.971 132.183 294.414 132.076 294.856 132.113C295.299 132.15 295.718 132.328 296.051 132.622C298.074 132.481 300.081 132.17 302.052 131.692C306.072 130.743 309.891 129.086 313.33 126.797C320.197 122.145 324.775 115.166 327.287 107.359C323.909 108.42 320.55 109.574 317.247 110.895C311.757 113.091 305.783 115.724 301.606 120.051C301.132 120.445 300.522 120.635 299.909 120.581C299.295 120.527 298.728 120.233 298.33 119.763C297.95 119.3 297.76 118.71 297.798 118.113C297.836 117.515 298.099 116.954 298.535 116.543V116.543ZM152.635 166.734C150.564 169.658 148.053 172.244 145.191 174.401C141.888 176.796 138.209 178.623 134.304 179.807C134 179.893 133.682 179.916 133.369 179.876C133.055 179.835 132.753 179.73 132.482 179.569C132.21 179.407 131.974 179.192 131.788 178.936C131.602 178.681 131.471 178.39 131.401 178.081C131.331 177.773 131.325 177.454 131.383 177.143C131.441 176.832 131.562 176.537 131.737 176.274C131.913 176.012 132.141 175.788 132.406 175.616C132.672 175.444 132.969 175.328 133.281 175.275C139.275 173.436 144.543 169.766 148.345 164.78C148.522 164.547 148.68 164.296 148.857 164.054C146.482 164.103 144.113 164.317 141.767 164.696C137.493 165.28 133.282 166.255 129.187 167.608C125.62 168.719 122.363 170.65 119.677 173.247C116.589 176.406 114.112 180.11 112.373 184.171C110.699 187.857 109.772 191.839 109.647 195.886C118.142 195.141 126.805 194.611 134.686 191.056C141.748 187.884 148.466 182.087 151.714 174.941C153.014 172.409 153.341 169.49 152.635 166.734V166.734ZM71.5619 157.019C69.9138 155.105 67.7077 153.755 65.2532 153.158C62.4713 152.695 59.6253 152.787 56.8789 153.428C54.058 153.957 51.2987 154.774 48.6441 155.866C45.861 156.924 43.2897 158.471 41.0513 160.434C40.0632 161.322 39.2188 162.358 38.5483 163.505C38.2949 163.968 38.0711 164.446 37.8784 164.938H37.9807C38.7344 165.143 39.4881 165.347 40.2325 165.571C41.9197 166.131 43.5594 166.824 45.1361 167.645C48.5603 169.33 51.9194 170.977 55.753 171.367C61.5871 172 67.505 170.595 71.748 166.715C67.2165 167.087 62.6665 167.208 58.1257 167.199C57.5159 167.118 56.9624 166.8 56.5847 166.314C56.207 165.829 56.0352 165.214 56.1065 164.603C56.1967 163.998 56.515 163.451 56.9961 163.074C57.4772 162.696 58.0845 162.518 58.6933 162.574C64.3518 162.603 70.0069 162.293 75.6281 161.644C74.2882 160.146 73.0042 158.517 71.5619 157.019ZM217.378 123.131C216.336 125.923 211.926 124.406 212.986 121.605C214.363 117.948 214.847 113.863 216.383 110.16C208.66 111.705 203.914 119.66 199.187 125.485C196.684 128.565 193.986 131.617 192.497 135.2C190.803 139.256 191.036 143.62 191.232 147.929C191.259 148.786 191.362 149.639 191.539 150.478C191.654 151.03 191.868 151.557 192.171 152.032L192.255 152.106H192.329C192.401 152.14 192.476 152.168 192.553 152.19C192.887 152.223 193.224 152.223 193.558 152.19H193.8C194.079 152.19 194.349 152.106 194.628 152.051C195.158 151.939 195.679 151.799 196.2 151.65C198.061 151.092 199.866 150.329 201.681 149.603C203.495 148.878 205.263 148.329 207.022 147.594C210.589 146.199 213.857 144.136 216.652 141.518C219.48 138.561 221.516 134.938 222.57 130.984C222.769 130.361 222.903 129.719 222.97 129.068C223.082 128.267 223.156 127.467 223.212 126.667C223.333 124.755 223.333 122.838 223.212 120.926C223.101 119.037 222.789 117.166 222.282 115.343C222.17 114.98 222.058 114.617 221.928 114.254C221.863 114.105 221.807 113.947 221.742 113.798C221.677 113.649 221.603 113.491 221.584 113.463C221.345 112.955 221.031 112.484 220.653 112.068C219.193 115.641 218.718 119.502 217.378 123.131ZM153.863 102.186C157.241 103.256 160.684 104.531 164.266 104.642C172.296 104.903 179.731 100.772 187.789 101.041C190.152 101.116 190.366 104.763 188.328 105.498C178.093 109.369 171.868 118.469 167.309 128.025C171.449 123.538 176.018 119.464 180.95 115.864C188.335 110.477 196.491 106.236 205.142 103.284C210.179 101.627 215.308 100.27 220.505 99.2177C221.686 98.9664 222.868 98.7338 224.05 98.5012C224.673 97.6823 225.297 96.8449 225.911 95.9889C227.297 93.9883 229.996 95.5236 230.023 97.487C232.554 97.1055 235.095 96.7798 237.653 96.5565C240.659 96.2959 243.674 96.2866 246.679 96.0819C249.114 96.0666 251.507 95.4429 253.639 94.2675C255.891 92.8531 257.733 90.9177 259.855 89.3359C261.055 88.4054 263.158 86.7771 264.749 86.7212H265.084C265.762 86.2866 266.549 86.0512 267.354 86.042C269.215 85.8559 271.179 85.7163 273.086 85.493C276.76 85.1302 280.397 84.4516 283.954 83.4645C287.016 82.5341 290.123 81.3524 292.273 78.8959C293.883 76.9605 294.813 74.4668 295.744 72.1312C296.73 69.3373 298.031 66.665 299.624 64.1663C301.521 61.3386 303.951 58.908 306.779 57.0109C309.516 55.2438 312.589 54.0621 315.805 53.5402C319.443 52.926 323.118 53.2889 326.775 53.475C335.931 53.9217 345.096 54.1264 354.243 54.6009L358.449 54.8428C360.977 53.4708 363.621 52.322 366.349 51.4094C370.759 49.8089 375.188 48.1899 378.901 45.2309C381.236 43.37 383.926 47.2594 381.534 49.0738C378.15 51.5319 374.422 53.4788 370.471 54.8521C368.079 55.7826 365.604 56.5642 363.306 57.6436C363.3 57.9331 363.234 58.2182 363.112 58.4811C362.99 58.7439 362.816 58.9787 362.599 59.1709C362.383 59.3631 362.129 59.5085 361.853 59.5979C361.578 59.6873 361.287 59.7189 360.998 59.6907L359.668 59.6162C356.838 61.5373 354.555 64.1599 353.043 67.2276C351.88 69.4887 350.847 71.8149 349.851 74.169V74.1132C358.16 64.3989 371.55 61.0864 383.674 59.3464C396.282 57.4854 409.151 57.5599 421.685 55.1499C426.337 54.2194 430.878 53.1307 435.465 52.0886C439.101 51.1659 442.789 50.4637 446.51 49.9857C449.376 49.6786 452.251 49.4646 455.098 48.9994C456.42 48.8158 457.724 48.5233 458.997 48.1247C459.553 47.9382 460.1 47.7239 460.635 47.4827C460.702 47.445 460.774 47.4168 460.849 47.399L461.026 47.2687C461.202 47.1384 461.388 47.0082 461.556 46.8686C461.633 46.7899 461.704 46.7059 461.77 46.6174C461.816 46.5396 461.856 46.4588 461.891 46.3754L462.077 45.9009C462.077 45.9009 462.226 45.2868 462.254 45.1472C462.45 43.9696 462.543 42.7772 462.533 41.5834C462.533 38.4663 462.207 35.3585 461.937 32.2786C461.649 29.2715 461.63 26.2447 461.882 23.2343C462.3 18.5818 463.073 14.069 463.361 9.45379C463.454 8.05807 463.482 6.66234 463.445 5.27592C455.44 7.06061 447.341 8.39639 439.187 9.277C435.149 9.73294 431.101 10.2075 427.026 10.2075C423.248 10.2633 419.442 10.2075 415.674 10.5332C412.093 10.7802 408.64 11.9642 405.662 13.9666C405.545 14.3241 405.332 14.6426 405.047 14.8872C404.761 15.1318 404.414 15.293 404.043 15.3531H403.903C403.606 15.6603 403.22 15.8668 402.799 15.9436C402.379 16.0203 401.945 15.9635 401.558 15.7811C381.916 19.5496 361.808 19.4472 341.84 20.0241C331.874 20.3032 321.89 20.815 311.99 22.0898C307.198 22.7039 302.452 23.5692 297.707 24.537C293.696 25.3558 289.667 26.0909 285.722 27.2074C281.829 28.1986 278.139 29.8612 274.817 32.1204C271.461 34.6857 268.62 37.8615 266.443 41.4811C266.247 41.7881 266.08 42.1045 265.894 42.4116C265.886 42.8067 265.776 43.1931 265.574 43.5325C265.371 43.8719 265.084 44.1527 264.74 44.347C263.195 47.0826 261.827 49.9299 260.45 52.7213C258.664 56.4433 256.952 60.2583 254.477 63.5429C249.312 70.1745 242.304 75.1335 234.332 77.7979C230.005 79.2867 225.483 79.6589 221.016 80.5242C216.55 81.3896 212.893 83.8088 208.92 85.9862C200.378 90.6386 189.938 91.3085 180.419 91.9413C175.534 92.2669 170.64 92.36 165.839 93.43C163.457 93.9697 161.093 94.6118 158.702 95.1235C156.4 95.581 154.061 95.8301 151.714 95.8679C150.301 95.8951 148.891 95.9976 147.489 96.175C147.489 96.2866 147.424 96.4076 147.378 96.5193C147.244 96.9924 146.938 97.3979 146.518 97.6548C146.099 97.9118 145.599 98.0014 145.117 97.9057C144.791 98.7524 144.419 99.5805 144.028 100.39C147.381 100.462 150.701 101.068 153.863 102.186V102.186ZM144.075 91.0852C145.968 83.0016 145.161 74.5203 141.776 66.9391C138.115 58.9512 131.762 52.5053 123.827 48.7296C120.141 46.9547 116.185 45.8069 112.122 45.3333C111.321 53.0445 112.324 60.8363 115.053 68.0929C115.604 68.8353 116.108 69.6123 116.56 70.4192C116.863 70.9426 116.947 71.5649 116.793 72.1499C119.607 78.1173 123.628 83.4367 128.601 87.7727C131.755 90.5083 135.691 93.002 139.934 93.1881C134.211 79.4728 128.163 65.6737 118.914 53.931C118.6 53.401 118.507 52.7682 118.657 52.1703C118.807 51.5725 119.187 51.0582 119.714 50.7394C120.247 50.4367 120.876 50.3509 121.471 50.4999C122.065 50.649 122.579 51.0213 122.906 51.5396C132.127 63.5057 138.315 77.2489 144.075 91.0852ZM93.9866 111.64C101.235 113.696 108.791 115.538 116.318 114.775C121.401 114.269 126.263 112.443 130.422 109.477C134.581 106.511 137.892 102.509 140.027 97.8685C136.868 97.7445 133.786 96.8535 131.048 95.2724C130.758 95.475 130.415 95.5853 130.061 95.5888C123.271 95.6252 116.562 97.0706 110.359 99.8334C104.156 102.596 98.5933 106.616 94.0238 111.64H93.9866ZM96.778 65.2457C104.464 67.637 107.944 74.6436 111.666 81.1476C113.527 84.4416 115.713 87.9123 119.11 89.857C119.485 90.048 119.809 90.3258 120.055 90.6672C120.301 91.0087 120.462 91.4041 120.524 91.8203C122.124 91.5225 123.743 91.3178 125.363 91.1783C118.984 85.4546 114.041 78.3118 110.931 70.3261C109.786 68.8602 108.398 67.6013 106.827 66.6042C104.265 65.0526 101.459 63.9452 98.5273 63.3289C94.0389 62.3985 89.46 61.9771 84.8771 62.0727C88.9341 62.9474 92.8979 64.0267 96.8432 65.2457H96.778ZM53.4826 84.4509C51.3177 86.6255 48.9739 88.6144 46.476 90.3967C41.9628 93.687 37.1163 96.4938 32.0163 98.771C31.4836 99.07 30.8569 99.1547 30.2639 99.0077C29.6709 98.8608 29.1562 98.4933 28.8248 97.9801C28.5125 97.4496 28.4213 96.8175 28.5711 96.2204C28.7208 95.6233 29.0993 95.109 29.625 94.7886C34.3262 92.6123 38.8309 90.0347 43.0891 87.0841C46.3953 84.9306 49.362 82.2963 51.8914 79.2681C37.8411 80.0218 23.521 88.1542 16.9145 100.558C15.2123 103.742 14.1084 107.211 13.6578 110.793C14.2533 110.793 14.8489 110.849 15.4444 110.839C16.9714 110.827 18.4966 110.731 20.0131 110.551C23.1288 110.17 26.205 109.517 29.2062 108.597C35.3846 106.867 41.1721 103.964 46.2527 100.046C48.2313 98.5671 49.9218 96.7378 51.2401 94.649C52.3283 92.6616 53.1332 90.5319 53.6315 88.3217C54.0874 86.5724 54.4689 84.7951 54.8411 83.0179C54.4224 83.5111 53.9943 83.9856 53.5477 84.4509H53.4826ZM11.7596 49.6135C17.367 52.9525 23.2619 55.7832 29.3737 58.0716C36.5798 60.6895 44.2764 61.6778 51.9101 60.9654C55.632 60.6305 59.2981 60.0349 62.9735 59.4767C60.1251 58.1665 57.1977 57.0353 54.2084 56.0897C49.8072 54.6288 45.3408 53.2982 40.9583 51.7815C38.1668 50.7952 39.516 46.3661 42.354 47.3431C51.5006 50.5068 61.5127 52.619 69.7381 57.9414H70.9478C68.91 49.4367 60.2937 44.1888 52.3939 41.7044C48.3689 40.3155 44.1111 39.7276 39.8603 39.9737C37.0282 40.2318 34.2253 40.7456 31.4859 41.509C30.7415 42.3371 29.3086 42.6163 27.8198 42.6163C26.5171 43.0536 25.2238 43.5468 23.949 44.0213C19.7737 45.6305 15.7027 47.4982 11.7596 49.6135V49.6135ZM13.6951 27.0586C15.4417 29.3522 17.3379 31.528 19.371 33.572C20.1547 34.3999 21.0076 35.1595 21.9205 35.8423C22.7356 36.4798 23.6302 37.0084 24.5817 37.4149C25.3329 37.8134 26.1693 38.0241 27.0196 38.029C30.6718 36.8023 34.4421 35.9603 38.2692 35.5167C40.003 35.3368 41.7479 35.2871 43.4892 35.3678C41.3025 32.8183 38.2226 31.1155 35.1148 29.5895C31.3277 27.7285 27.336 26.1002 24.0793 23.3273C23.5968 22.9498 23.2777 22.4015 23.1876 21.7955C23.0976 21.1895 23.2436 20.5721 23.5954 20.0706C23.9673 19.5803 24.5164 19.2551 25.1251 19.1647C25.7338 19.0742 26.3537 19.2258 26.8521 19.5868C30.4159 22.5643 34.8636 24.1834 38.9484 26.3421C43.3496 28.6404 47.1553 31.6086 49.3698 36.075C54.3657 37.0651 59.1395 38.9569 63.4574 41.6579C62.1743 38.9677 60.493 36.4865 58.47 34.2977C55.0726 30.5843 51.1883 27.3479 46.9227 24.6765C43.1762 22.2867 39.1268 20.409 34.8822 19.0936C29.8893 17.6032 24.7197 16.7865 19.5106 16.6651C15.1764 16.4861 10.8408 16.9853 6.6606 18.1445C9.22874 20.8708 11.4061 24.1089 13.6951 27.0586Z" fill="#23201E"/>
<path d="M143.981 100.39C147.35 100.457 150.686 101.063 153.863 102.186C157.24 103.256 160.683 104.531 164.266 104.642C172.296 104.903 179.73 100.772 187.788 101.041C190.152 101.116 190.366 104.763 188.328 105.499C178.093 109.369 171.868 118.469 167.308 128.026C171.449 123.538 176.017 119.464 180.949 115.864C188.334 110.477 196.49 106.236 205.142 103.284C210.178 101.628 215.308 100.27 220.504 99.2177C221.686 98.9665 222.867 98.7339 224.049 98.5013C224.673 97.6824 225.296 96.845 225.91 95.989C227.297 93.9884 229.995 95.5237 230.023 97.487C232.554 97.1055 235.094 96.7799 237.653 96.5566C240.658 96.296 243.673 96.2867 246.679 96.082C249.114 96.0667 251.506 95.443 253.639 94.2676C255.89 92.8532 257.733 90.9178 259.854 89.336C261.055 88.4055 263.157 86.7772 264.749 86.7213H265.084C265.762 86.2867 266.548 86.0513 267.354 86.0421C269.215 85.856 271.178 85.7164 273.086 85.4931C276.76 85.1303 280.396 84.4516 283.954 83.4646C287.015 82.5341 290.123 81.3524 292.272 78.896C293.882 76.9605 294.813 74.4668 295.743 72.1313C296.729 69.3374 298.031 66.6651 299.623 64.1664C301.52 61.3386 303.951 58.9081 306.779 57.011C309.516 55.2439 312.589 54.0622 315.804 53.5402C319.442 52.9261 323.118 53.289 326.775 53.4751C335.931 53.9217 345.096 54.1265 354.243 54.601L358.448 54.8429C360.977 53.4709 363.62 52.3221 366.348 51.4094C370.759 49.809 375.188 48.19 378.9 45.231C381.236 43.37 383.925 47.2595 381.534 49.0739C378.149 51.532 374.421 53.4789 370.47 54.8522C368.079 55.7827 365.604 56.5643 363.306 57.6437C363.299 57.9332 363.233 58.2183 363.112 58.4811C362.99 58.744 362.815 58.9788 362.599 59.171C362.382 59.3632 362.128 59.5086 361.853 59.598C361.577 59.6874 361.286 59.719 360.998 59.6907L359.667 59.6163C356.838 61.5374 354.555 64.16 353.042 67.2277C351.879 69.4888 350.846 71.815 349.851 74.1691V74.1133C358.16 64.399 371.55 61.0865 383.674 59.3465C396.282 57.4855 409.151 57.5599 421.684 55.15C426.337 54.2195 430.877 53.1308 435.465 52.0887C439.101 51.166 442.789 50.4638 446.509 49.9858C449.375 49.6787 452.251 49.4647 455.098 48.9995C456.419 48.8159 457.723 48.5234 458.997 48.1248C459.553 47.9383 460.099 47.724 460.634 47.4828C460.701 47.4451 460.773 47.4169 460.848 47.399L461.025 47.2688C461.202 47.1385 461.388 47.0082 461.555 46.8687C461.632 46.79 461.704 46.706 461.769 46.6174C461.815 46.5397 461.856 46.4588 461.89 46.3755L462.076 45.901C462.076 45.8358 462.225 45.2775 462.253 45.1473C462.449 43.9697 462.543 42.7773 462.532 41.5835C462.532 38.4664 462.207 35.3586 461.937 32.2787C461.937 31.8506 461.862 31.4226 461.835 31.0039C442.425 36.1123 420.065 32.2228 403.13 43.1002L410.956 33.5907C400.609 40.8484 386.568 37.6941 374.015 39.1736C366.572 40.104 359.453 42.6815 352.084 44.0028C340.713 46.0405 329.026 44.9333 317.507 45.8637C305.988 46.7942 293.873 49.9951 286.271 58.6858C284.252 60.9934 282.623 63.6081 280.688 65.9808C275.747 72.0197 268.954 76.2627 262.078 79.8823C241.098 90.7786 217.948 96.8476 194.32 97.6452C183.527 98.0081 172.519 97.1986 162.163 94.2955C160.981 94.5839 159.799 94.8724 158.618 95.1236C156.315 95.5811 153.977 95.8302 151.63 95.868C150.217 95.8952 148.807 95.9977 147.405 96.175C147.405 96.2867 147.34 96.4077 147.294 96.5193C147.16 96.9925 146.853 97.398 146.434 97.6549C146.015 97.9119 145.515 98.0014 145.032 97.9058C144.744 98.7525 144.372 99.5806 143.981 100.39Z" fill="#ED9254"/>
</svg>
