<svg width="1440" height="925" viewBox="0 0 1440 925" fill="none" xmlns="http://www.w3.org/2000/svg">
<path fill-rule="evenodd" clip-rule="evenodd" d="M0 90.1864H22C44 90.1864 87 90.1864 131 81.6811C147.137 78.5617 163.14 74.3378 179.106 70.1233C206.675 62.8465 234.137 55.5978 262 54.112C289.45 52.8014 317.308 57.4669 345.313 62.1571L345.314 62.1572C361.177 64.814 377.089 67.4788 393 69.0697C427.353 72.35 462.344 70.389 497.463 68.4209L497.463 68.4208C506.303 67.9254 515.152 67.4295 524 67.0167C530.032 66.6875 536.084 66.4045 542.153 66.1208L542.154 66.1207C579.346 64.3817 617.173 62.613 655 50.006C670.877 44.5914 686.89 37.1376 702.939 29.6672C730.356 16.9053 757.877 4.09509 785 1.32014C813.014 -1.29413 841.029 6.31624 868.785 13.8565C884.623 18.1592 900.378 22.439 916 24.7832C939.436 28.0637 962.872 27.1839 986.157 26.3098C1006.59 25.5428 1026.9 24.7801 1047 26.8362C1067.55 28.7538 1088.1 33.486 1108.54 38.1947C1131.88 43.5685 1155.08 48.9117 1178 50.006C1203.54 51.1976 1228.74 47.4486 1254 43.6915C1272.26 40.9758 1290.54 38.2559 1309 37.3946C1353 35.3416 1396 43.5536 1418 47.9529L1440 52.059V101.871V102.798V822.382V873.121L1418 877.227C1396 881.626 1353 889.838 1309 887.785C1290.54 886.924 1272.26 884.204 1254 881.488C1228.74 877.731 1203.54 873.982 1178 875.174C1155.08 876.268 1131.88 881.611 1108.54 886.985C1088.1 891.694 1067.55 896.426 1047 898.344C1026.9 900.4 1006.59 899.637 986.157 898.87C962.872 897.996 939.436 897.116 916 900.396C900.378 902.741 884.623 907.021 868.785 911.323C841.029 918.863 813.014 926.474 785 923.86C757.877 921.085 730.356 908.274 702.939 895.513C686.89 888.042 670.877 880.588 655 875.174C617.173 862.567 579.346 860.798 542.154 859.059C536.085 858.775 530.033 858.492 524 858.163C515.152 857.75 506.304 857.254 497.464 856.759C462.344 854.791 427.353 852.83 393 856.11C377.089 857.701 361.177 860.366 345.313 863.023C317.308 867.713 289.45 872.378 262 871.068C234.137 869.582 206.675 862.333 179.106 855.056C163.14 850.842 147.137 846.618 131 843.499C87 834.993 44 834.993 22 834.993H0V822.382V102.798V101.871V90.1864Z" fill="url(#paint0_linear_142_1139)"/>
<defs>
<linearGradient id="paint0_linear_142_1139" x1="720" y1="0.794922" x2="720" y2="924.385" gradientUnits="userSpaceOnUse">
<stop stop-color="#9B92FF"/>
</linearGradient>
</defs>
</svg>
