<svg width="232" height="221" viewBox="0 0 232 221" fill="none" xmlns="http://www.w3.org/2000/svg">
<path d="M91.1889 142.942C91.3881 143.094 91.5548 143.284 91.6789 143.502H91.839C88.119 135.852 84.099 128.172 79.029 121.352C75.3195 116.205 70.8444 111.656 65.7589 107.862C64.4989 106.952 60.1189 103.252 58.7589 105.492C58.0389 106.672 58.5789 108.272 59.0089 109.492C59.5455 110.897 60.1839 112.26 60.919 113.572C67.689 126.202 79.7689 134.752 91.1889 142.942Z" fill="#C6CF67"/>
<path d="M105.708 142.562C107.778 142.562 109.838 142.662 111.898 142.802C112.069 142.574 112.275 142.374 112.508 142.212C117.775 138.619 122.787 134.667 127.508 130.382C129.578 128.502 131.608 126.562 133.508 124.552C133.948 124.102 139.508 119.002 138.608 118.022C138.398 117.792 136.958 118.022 136.608 118.122C135.449 118.406 134.31 118.767 133.198 119.202C121.483 123.402 111.683 131.699 105.608 142.562H105.708Z" fill="#C6CF67"/>
<path d="M54.7783 50.2919C52.7783 53.1019 50.9483 56.9119 51.6483 60.4719C51.7421 61.1643 52.0198 61.8189 52.4524 62.3676C52.8851 62.9164 53.4568 63.3391 54.1083 63.5919C55.5483 63.9819 56.9583 63.0119 57.9783 62.1119C60.8183 59.5919 62.6383 55.7819 64.0783 52.3419C65.2359 49.4171 66.2373 46.4329 67.0783 43.4019C66.0747 42.933 65.1714 42.2742 64.4183 41.4619C60.8983 43.9519 57.3883 46.6719 54.7783 50.2919Z" fill="white"/>
<path d="M74.7582 33.9619C74.7276 33.8063 74.6875 33.6526 74.6382 33.5019C74.5659 33.2413 74.4722 32.9871 74.3582 32.7419C74.0936 32.1976 73.7191 31.7141 73.2582 31.3219C72.8832 30.999 72.4434 30.7603 71.9682 30.6219C71.7187 30.5477 71.4582 30.5173 71.1982 30.5319C71.0432 30.548 70.8895 30.5747 70.7382 30.6119H70.6882L70.3082 30.7719L70.2382 30.8419C69.9282 31.1219 69.7482 31.4519 69.4482 31.7619C69.161 32.0806 68.7904 32.3127 68.3782 32.4319C67.6043 33.3932 67.1968 34.5981 67.2283 35.8319C67.6905 36.2642 67.9876 36.8441 68.0682 37.4719C68.0882 37.6312 68.0882 37.7925 68.0682 37.9519C68.2704 38.1664 68.4989 38.3546 68.7482 38.5119C69.0341 38.687 69.3395 38.828 69.6583 38.9319C70.0483 38.8022 70.4658 38.7781 70.8682 38.8619C71.0606 38.895 71.2464 38.9591 71.4183 39.0519L71.9582 38.9019C72.4923 38.7298 72.9856 38.4509 73.4083 38.0819C73.7918 37.7491 74.1282 37.3655 74.4083 36.9419C74.4083 36.9419 74.5682 36.6319 74.6182 36.4819C74.7279 36.1847 74.8181 35.8807 74.8882 35.5719C74.7382 36.1519 74.8882 35.5719 74.8882 35.4519C74.8982 35.2954 74.8982 35.1384 74.8882 34.9819C74.9084 34.7189 74.9084 34.4548 74.8882 34.1919C74.7982 34.1519 74.7682 34.0019 74.7582 33.9619Z" fill="#FED671"/>
<path d="M77.0986 41.4317C80.2495 44.0761 83.5626 46.5208 87.0186 48.7516C89.4986 50.3216 93.3486 52.6517 96.1986 51.0517C98.1286 49.9617 98.8586 47.2516 98.4386 45.1616C97.8586 42.2816 95.1086 40.1616 92.5086 39.1616C88.2586 37.5316 83.5086 37.9816 79.0686 38.4716C78.612 39.5777 77.9427 40.5835 77.0986 41.4317Z" fill="white"/>
<path d="M78.8287 30.552C83.0487 28.202 87.3186 25.552 89.9886 21.442C91.8486 18.592 93.0787 14.372 91.3387 11.172C90.7187 10.022 89.6387 8.90203 88.2287 9.17203C86.4487 9.54203 85.0387 11.542 83.9687 12.842C80.5242 17.1594 77.9499 22.1041 76.3887 27.402C77.4142 28.269 78.2456 29.3423 78.8287 30.552Z" fill="white"/>
<path d="M66.3884 26.8116L66.6784 26.9616C67.1712 26.5359 67.6852 26.1354 68.2184 25.7616C68.273 21.2272 67.4898 16.7217 65.9085 12.4716C65.321 10.9019 64.5982 9.38621 63.7484 7.9416C63.154 6.67985 62.114 5.68255 60.8284 5.14162C58.1284 4.38162 55.9684 7.54162 55.8284 9.89162C55.5584 13.4516 57.6384 16.8916 59.6484 19.6716C61.6032 22.3112 63.8658 24.7081 66.3884 26.8116Z" fill="white"/>
<path d="M62.3888 34.1418C62.563 33.0352 62.9249 31.9665 63.4588 30.9818C58.2207 28.8859 52.7131 27.5393 47.0988 26.9818C43.8988 26.6718 39.1988 26.6118 37.4088 29.9818C35.9588 32.6818 38.0088 35.8718 40.3588 37.2118C43.7788 39.2118 47.9788 38.7318 51.6788 38.0618C55.2288 37.4318 58.7588 36.6618 62.2888 35.9118C62.2666 35.3199 62.3 34.7273 62.3888 34.1418Z" fill="white"/>
<path d="M98.8487 142.782C98.8487 142.712 98.8487 142.642 98.8487 142.572C101.409 134.572 103.849 126.572 106.429 118.622C108.559 111.902 110.949 105.202 112.829 98.4018C113.029 97.6618 113.509 96.3518 112.549 96.0018C111.589 95.6518 110.469 96.3418 109.709 96.8818C107.466 98.5883 105.546 100.681 104.039 103.062C96.2687 114.752 96.6086 129.382 97.3786 142.892L98.8487 142.782Z" fill="#C6CF67"/>
<path d="M221.019 186.482C213.317 188.849 205.161 189.346 197.229 187.932C196.944 187.896 196.655 187.916 196.379 187.992C196.09 187.822 195.768 187.716 195.435 187.681C195.102 187.647 194.766 187.685 194.449 187.792C194.281 187.852 194.12 187.929 193.969 188.022C177.649 188.182 161.329 188.282 145.019 188.412L121.419 188.622C114.009 188.682 106.539 188.972 99.1387 188.542C91.7387 188.112 84.5287 186.802 78.5187 182.482C76.5987 181.102 73.5187 183.292 74.7787 185.482C75.3238 186.406 75.5322 187.491 75.3687 188.552C75.2509 189.436 74.8304 190.253 74.1786 190.862C73.8148 191.147 73.385 191.336 72.9288 191.411C72.4726 191.486 72.0048 191.445 71.5687 191.292L71.0787 191.082C71.0287 191.082 70.6587 190.832 70.6187 190.832C70.33 190.595 70.0925 190.301 69.9207 189.969C69.7488 189.638 69.646 189.275 69.6187 188.902C69.3287 186.902 66.7187 186.662 65.4187 187.792C65.1515 187.737 64.8758 187.737 64.6086 187.792C57.5357 189.647 50.2771 190.704 42.9687 190.942C39.5581 191.176 36.133 191.089 32.7386 190.682C29.9386 190.262 26.6387 188.972 25.6887 186.022C25.56 185.573 25.3174 185.165 24.9845 184.837C24.6516 184.509 24.2397 184.273 23.7887 184.152C23.3087 183.872 22.6386 183.582 22.4886 183.822C22.3386 184.062 20.1787 184.142 19.6587 184.142C18.9447 184.147 18.2317 184.087 17.5287 183.962C17.2287 183.962 16.9387 183.832 16.6387 183.762C21.2215 179.585 26.9517 176.878 33.0887 175.992C33.6682 175.939 34.2132 175.693 34.6371 175.294C35.0611 174.896 35.3397 174.367 35.4286 173.792C36.3286 173.052 37.2487 172.332 38.1687 171.622C50.4644 162.067 64.527 155.035 79.5486 150.932C97.5215 146.032 116.528 146.432 134.279 152.082C139.089 153.664 143.77 155.616 148.279 157.922C150.539 159.082 152.749 160.325 154.909 161.652C156.259 162.482 157.909 164.152 159.579 163.892C160.06 163.809 160.506 163.587 160.861 163.252C161.217 162.918 161.466 162.487 161.579 162.012C161.683 161.518 161.637 161.005 161.446 160.537C161.255 160.07 160.929 159.671 160.509 159.392C174.319 159.172 188.609 160.392 201.429 165.602C204.834 166.981 208.113 168.654 211.229 170.602C213.641 172.127 215.925 173.846 218.059 175.742C219.152 176.706 220.194 177.727 221.179 178.802C222.332 179.928 223.34 181.195 224.179 182.572C225.389 184.742 222.709 185.922 221.019 186.482Z" fill="#E5E979"/>
<path d="M75.4587 146.982C78.6087 146.052 81.7987 145.262 85.0087 144.622C82.2087 142.622 79.4287 140.552 76.7188 138.412C63.8188 134.052 48.5487 131.922 35.7188 137.412C48.0359 142.284 60.9937 145.345 74.1887 146.502C74.6481 146.542 75.0875 146.708 75.4587 146.982Z" fill="#C6CF67"/>
<path d="M165.759 193.232C149.359 193.452 132.949 193.432 116.549 193.642H116.389C119.459 197.63 121.923 202.052 123.699 206.762C123.699 206.842 123.769 206.932 123.799 207.022C131.429 207.542 139.069 207.892 146.719 208.132C163.159 208.652 179.615 208.498 196.089 207.672C196.178 202.668 195.34 197.691 193.619 192.992C184.332 193.025 175.045 193.105 165.759 193.232Z" fill="#FCA565"/>
<path d="M21.5687 189.072C18.5895 189.41 15.5737 188.965 12.8187 187.782C12.034 188.684 11.1632 189.508 10.2187 190.242C8.85693 191.147 7.57552 192.167 6.38867 193.292C5.48312 194.137 4.94469 195.304 4.88867 196.542C5.03867 197.872 6.53866 198.702 7.56866 199.302C10.9176 201.268 14.4986 202.81 18.2287 203.892C21.4333 204.775 24.7148 205.351 28.0287 205.612C29.2002 201.936 31.2018 198.58 33.8787 195.802C28.8087 195.292 23.8887 193.702 21.5687 189.072Z" fill="#FEC261"/>
<path d="M110.118 193.802C99.9983 193.962 89.3683 193.802 80.3283 189.382C80.1442 190.781 79.6157 192.113 78.7902 193.258C77.9646 194.403 76.8679 195.325 75.5983 195.942C74.1125 196.568 72.4698 196.722 70.8935 196.382C69.3172 196.042 67.8839 195.225 66.7883 194.042C60.0083 199.132 54.4483 206.582 52.2383 214.782C56.243 215.167 60.2654 215.337 64.2883 215.292C70.6682 215.335 77.0462 215.058 83.3983 214.462C92.6955 213.572 101.927 212.096 111.038 210.042C110.548 208.542 110.038 207.042 109.408 205.582C109.371 205.504 109.337 205.424 109.308 205.342C109.189 205.118 109.083 204.887 108.988 204.652C108.798 204.262 108.618 203.882 108.428 203.502C107.968 202.562 107.428 201.652 106.948 200.742C106.789 200.455 106.687 200.139 106.65 199.813C106.612 199.487 106.639 199.157 106.729 198.841C106.819 198.525 106.971 198.23 107.175 197.973C107.379 197.716 107.631 197.501 107.918 197.342C108.205 197.182 108.521 197.081 108.847 197.043C109.173 197.006 109.503 197.033 109.819 197.123C110.135 197.213 110.43 197.364 110.687 197.568C110.944 197.772 111.159 198.025 111.318 198.312C113.28 201.628 114.822 205.175 115.908 208.872C116.908 208.622 117.908 208.362 118.908 208.092C118.908 207.972 118.818 207.842 118.768 207.722C116.666 202.64 113.744 197.937 110.118 193.802Z" fill="#FEC261"/>
<path d="M41.3891 196.042C41.3091 196.102 41.2591 196.182 41.1791 196.232C40.0064 196.98 38.9199 197.856 37.9391 198.842C37.6891 199.082 37.4491 199.332 37.2091 199.592L37.1391 199.672L36.8191 200.032C36.3891 200.552 35.9691 201.092 35.5791 201.652C34.3796 203.344 33.4517 205.214 32.8291 207.192C36.9108 210.752 41.9045 213.104 47.2491 213.982C49.4663 206.501 53.5113 199.689 59.0191 194.162C53.2036 195.269 47.3072 195.898 41.3891 196.042Z" fill="#FCA565"/>
<path d="M225.979 176.662C215.979 165.192 201.509 159.052 186.789 156.362C176.579 154.502 166.279 154.532 155.949 154.592C155.628 154.602 155.312 154.686 155.028 154.837C154.744 154.988 154.498 155.201 154.309 155.462C152.089 154.232 149.799 153.102 147.539 152.042C138.563 147.854 129.021 145.004 119.219 143.582C123.329 140.598 127.268 137.386 131.019 133.962C133.469 131.722 135.849 129.402 138.129 126.962C140.409 124.522 143.429 121.962 143.719 118.552C144.019 114.902 140.849 112.812 137.519 112.942C134.679 113.052 131.699 114.332 129.099 115.412C123.816 117.635 118.887 120.62 114.469 124.272C112.082 126.232 109.87 128.397 107.859 130.742C109.006 127.102 110.159 123.469 111.319 119.842C112.629 115.692 113.929 111.542 115.249 107.392C115.829 105.592 116.406 103.785 116.979 101.972C117.71 100.191 118.093 98.2869 118.109 96.362C117.819 92.472 114.109 90.242 110.429 91.062C107.109 91.802 104.349 94.692 102.229 97.202C97.9178 102.553 94.9516 108.859 93.5791 115.592C93.1428 117.496 92.809 119.422 92.5791 121.362C90.5791 113.989 88.5991 106.615 86.6391 99.242C83.5091 87.462 79.979 75.712 77.749 63.712C76.6889 58.1289 76.0206 52.4784 75.749 46.802C78.6517 49.1353 81.6868 51.2989 84.8391 53.282C88.8391 55.802 93.929 57.792 98.489 55.402C101.979 53.572 103.669 49.402 103.489 45.632C103.229 41.302 100.269 37.632 96.619 35.582C92.619 33.332 88.389 33.002 84.049 33.142C90.189 29.332 95.8791 24.432 96.9491 16.842C97.549 12.542 96.2991 7.61197 92.4191 5.19197C88.0991 2.51197 83.729 5.33198 80.879 8.70198C77.621 12.5735 74.986 16.9291 73.069 21.612C72.7633 18.0369 71.9796 14.5188 70.739 11.152C69.159 6.91196 66.839 1.69198 62.109 0.291976C57.909 -0.958024 53.4391 1.98197 51.7191 5.75197C49.6291 10.292 51.209 15.452 53.549 19.552C54.3426 20.9282 55.2349 22.245 56.2191 23.492C53.7881 22.8958 51.3237 22.445 48.8391 22.142C43.9091 21.572 38.389 21.582 34.629 25.342C31.079 28.902 31.199 34.342 34.129 38.342C37.059 42.342 42.439 43.692 47.249 43.572C49.9184 43.4288 52.5693 43.0439 55.1691 42.422C53.7841 43.6689 52.5031 45.0267 51.3391 46.482C48.3391 50.252 46.099 55.232 46.559 60.132C47.019 65.032 50.839 69.402 55.999 68.522C60.999 67.662 64.239 62.852 66.489 58.752C68.232 55.4935 69.665 52.0785 70.7691 48.552C71.0449 53.2267 71.6161 57.8793 72.4791 62.482C73.4791 68.532 74.9391 74.482 76.4791 80.482C79.5891 92.582 82.9091 104.632 86.1591 116.692C87.1991 120.525 88.2257 124.359 89.239 128.192C83.629 118.492 77.009 109.472 67.549 103.052C64.459 100.962 60.5491 98.562 56.8291 100.582C53.1091 102.602 52.8891 107.412 54.2291 110.962C56.9191 118.072 61.5891 124.392 66.8991 129.772C67.3091 130.192 67.7291 130.592 68.1491 130.992C62.5806 129.681 56.8682 129.083 51.1491 129.212C43.0955 129.38 35.2203 131.615 28.2791 135.702C26.6291 136.702 27.1791 139.292 28.7691 139.992C40.4006 145.118 52.6663 148.663 65.239 150.532C61.739 151.925 58.3124 153.472 54.9591 155.172C46.1929 159.664 37.9666 165.139 30.439 171.492C22.9627 172.995 16.1501 176.816 10.9691 182.412C10.5496 182.605 10.2002 182.923 9.96907 183.322C7.86907 186.722 3.79908 188.162 1.53908 191.502C-0.910924 195.142 -0.460956 199.602 3.06904 202.332C6.83745 205.018 11.0334 207.047 15.4791 208.332C19.9588 209.788 24.6212 210.606 29.3291 210.762C37.5591 218.532 49.259 219.982 60.139 220.212C73.6604 220.494 87.1779 219.49 100.509 217.212C108.074 215.913 115.564 214.214 122.949 212.122C123.049 212.122 123.139 212.042 123.239 212.002C150.718 213.829 178.286 213.865 205.769 212.112C213.399 211.622 221.009 210.962 228.609 210.202C229.218 210.181 229.8 209.947 230.255 209.542C230.71 209.136 231.008 208.584 231.099 207.982C231.445 207.551 231.61 207.002 231.559 206.452C230.879 199.392 230.319 192.292 229.399 185.252C230.249 182.032 228.079 179.072 225.979 176.662ZM92.509 39.172C95.109 40.172 97.859 42.282 98.439 45.172C98.859 47.262 98.1291 49.972 96.1991 51.062C93.3491 52.662 89.4991 50.332 87.0191 48.762C83.563 46.5311 80.2499 44.0864 77.0991 41.442C77.9529 40.5994 78.6324 39.597 79.0991 38.492C83.4891 37.992 88.259 37.542 92.509 39.172ZM83.9691 12.862C85.0391 11.562 86.4491 9.56197 88.2291 9.19197C89.6391 8.90197 90.7191 10.022 91.3391 11.192C93.0791 14.392 91.849 18.612 89.989 21.462C87.319 25.562 83.0491 28.222 78.8291 30.572C78.2314 29.3575 77.3827 28.2839 76.3391 27.422C77.9154 22.1203 80.5067 17.1753 83.9691 12.862ZM55.7791 9.86198C55.9591 7.51198 58.1191 4.35198 60.7791 5.11198C62.0646 5.65291 63.1047 6.65022 63.699 7.91197C64.5489 9.35658 65.2716 10.8723 65.859 12.442C67.4404 16.692 68.2236 21.1976 68.1691 25.732C67.6359 26.1058 67.1218 26.5063 66.629 26.932L66.3391 26.782C63.8024 24.6808 61.5262 22.2838 59.559 19.642C57.589 16.912 55.5091 13.452 55.7791 9.89198V9.86198ZM51.629 38.012C47.929 38.682 43.729 39.112 40.309 37.162C37.959 35.822 35.909 32.632 37.359 29.932C39.149 26.602 43.849 26.662 47.049 26.932C52.6633 27.4895 58.1709 28.8361 63.4091 30.932C62.8751 31.9167 62.5133 32.9854 62.3391 34.092C62.2515 34.6709 62.218 35.2568 62.239 35.842C58.709 36.642 55.179 37.412 51.629 38.042V38.012ZM64.0791 52.292C62.6391 55.732 60.8191 59.542 57.9791 62.062C56.9791 62.962 55.549 63.932 54.109 63.542C53.4576 63.2892 52.8858 62.8664 52.4532 62.3177C52.0206 61.769 51.7429 61.1144 51.6491 60.422C50.9491 56.862 52.7691 53.052 54.7791 50.242C57.3491 46.672 60.8991 43.952 64.4691 41.412C65.2222 42.2243 66.1255 42.8831 67.129 43.352C66.2717 46.384 65.2536 49.3682 64.0791 52.292ZM74.809 35.482C74.809 35.612 74.659 36.182 74.809 35.602C74.7389 35.9108 74.6487 36.2148 74.5391 36.512C74.5391 36.662 74.3291 36.942 74.3291 36.972C74.049 37.3956 73.7126 37.7792 73.3291 38.112C72.9064 38.481 72.4131 38.76 71.879 38.932L71.3391 39.082C71.1673 38.9892 70.9815 38.9251 70.7891 38.892C70.3866 38.8082 69.9692 38.8323 69.5791 38.962C69.2603 38.8581 68.9549 38.7171 68.6691 38.542C68.4197 38.3847 68.1912 38.1965 67.989 37.982C68.009 37.8226 68.009 37.6613 67.989 37.502C67.9084 36.8742 67.6113 36.2943 67.1491 35.862C67.1176 34.6282 67.5251 33.4233 68.299 32.462C68.7112 32.3428 69.0818 32.1107 69.369 31.792C69.669 31.482 69.8491 31.152 70.1591 30.872L70.2291 30.802L70.609 30.642H70.6591C70.8104 30.6048 70.9641 30.5781 71.119 30.562C71.379 30.5474 71.6395 30.5778 71.8891 30.652C72.3642 30.7904 72.804 31.0291 73.179 31.352C73.6399 31.7442 74.0144 32.2277 74.2791 32.772C74.3931 33.0172 74.4867 33.2714 74.559 33.532C74.6084 33.6827 74.6484 33.8364 74.679 33.992C74.679 33.992 74.679 34.182 74.679 34.252C74.6992 34.5149 74.6992 34.779 74.679 35.042C74.7314 35.1858 74.7748 35.3328 74.809 35.482ZM126.949 121.942C128.983 120.892 131.085 119.977 133.239 119.202C134.351 118.767 135.49 118.406 136.649 118.122C137.029 118.042 138.469 117.792 138.649 118.022C139.539 119.022 133.989 124.102 133.549 124.552C131.609 126.552 129.549 128.552 127.549 130.382C122.828 134.667 117.816 138.62 112.549 142.212C112.315 142.375 112.109 142.574 111.939 142.802C109.879 142.662 107.819 142.572 105.749 142.562H105.689C110.645 133.787 118.027 126.628 126.949 121.942ZM104.079 103.062C105.587 100.681 107.507 98.5885 109.749 96.882C110.509 96.342 111.609 95.642 112.589 96.002C113.569 96.362 113.069 97.662 112.869 98.402C110.989 105.202 108.599 111.902 106.469 118.622C103.939 126.622 101.469 134.622 98.8891 142.572C98.8891 142.642 98.8891 142.712 98.8891 142.782L97.4591 142.892C96.6491 129.382 96.3091 114.752 104.079 103.062ZM60.9191 113.512C60.184 112.2 59.5456 110.837 59.009 109.432C58.579 108.252 58.009 106.652 58.759 105.432C60.119 103.192 64.499 106.892 65.759 107.802C70.8445 111.596 75.3196 116.145 79.0291 121.292C84.0991 128.112 88.1191 135.792 91.8391 143.442H91.679C91.5549 143.224 91.3882 143.034 91.189 142.882C79.769 134.752 67.6891 126.202 60.9191 113.512ZM35.7191 137.432C48.5491 131.922 63.8191 134.052 76.7191 138.432C79.4291 140.572 82.209 142.622 85.009 144.642C81.799 145.282 78.6091 146.072 75.4591 147.002C75.0857 146.736 74.6465 146.576 74.189 146.542C60.993 145.379 48.0351 142.311 35.7191 137.432ZM28.0391 205.652C24.7252 205.391 21.4436 204.816 18.239 203.932C14.5089 202.851 10.928 201.309 7.57905 199.342C6.57905 198.742 5.04906 197.912 4.89906 196.582C4.94209 195.332 5.47767 194.149 6.38905 193.292C7.57109 192.154 8.84918 191.12 10.2091 190.202C11.1536 189.468 12.0244 188.645 12.809 187.742C15.564 188.925 18.5798 189.37 21.559 189.032C23.879 193.662 28.799 195.292 33.879 195.802C31.2022 198.58 29.2006 201.936 28.0291 205.612L28.0391 205.652ZM32.799 207.192C33.4217 205.213 34.3495 203.344 35.549 201.652C35.939 201.092 36.3591 200.552 36.7891 200.032L37.109 199.672L37.179 199.592C37.419 199.332 37.6591 199.082 37.9091 198.842C38.8898 197.855 39.9764 196.98 41.1491 196.232C41.2291 196.182 41.279 196.102 41.359 196.042C47.2772 195.898 53.1736 195.269 58.989 194.162C53.4813 199.689 49.4363 206.501 47.2191 213.982C41.8745 213.104 36.8807 210.752 32.799 207.192ZM115.869 208.822C114.783 205.125 113.241 201.578 111.279 198.262C110.957 197.682 110.418 197.255 109.78 197.073C109.142 196.891 108.459 196.97 107.879 197.292C107.3 197.614 106.872 198.153 106.69 198.791C106.508 199.429 106.587 200.113 106.909 200.692C107.429 201.602 107.909 202.512 108.389 203.452C108.579 203.832 108.759 204.212 108.949 204.602C109.043 204.838 109.15 205.068 109.269 205.292C109.298 205.374 109.331 205.454 109.369 205.532C109.979 207.002 110.509 208.532 110.999 209.992C101.898 212.045 92.6762 213.521 83.3891 214.412C77.037 215.008 70.659 215.286 64.2791 215.242C60.2562 215.287 56.2338 215.117 52.2291 214.732C54.4391 206.532 59.9991 199.082 66.7791 193.992C67.8746 195.175 69.308 195.992 70.8842 196.332C72.4605 196.672 74.1032 196.518 75.5891 195.892C76.8582 195.268 77.9523 194.338 78.7727 193.186C79.5932 192.034 80.1143 190.696 80.2891 189.292C89.2891 193.692 99.9591 193.872 110.079 193.712C113.682 197.836 116.588 202.521 118.679 207.582C118.729 207.702 118.769 207.832 118.819 207.952C117.869 208.292 116.869 208.572 115.869 208.822ZM146.739 208.132C139.089 207.892 131.449 207.542 123.819 207.022C123.819 206.932 123.749 206.842 123.719 206.762C121.943 202.052 119.48 197.631 116.409 193.642H116.549C132.949 193.432 149.359 193.452 165.759 193.232C175.052 193.112 184.346 193.032 193.639 192.992C195.361 197.691 196.198 202.668 196.109 207.672C179.629 208.485 163.172 208.639 146.739 208.132ZM196.389 187.992C196.101 187.822 195.779 187.716 195.446 187.682C195.113 187.647 194.776 187.685 194.459 187.792C194.292 187.852 194.131 187.929 193.979 188.022C177.659 188.182 161.339 188.282 145.029 188.412L121.429 188.622C114.019 188.682 106.549 188.972 99.1491 188.542C91.7491 188.112 84.5391 186.802 78.5291 182.482C76.6091 181.102 73.5291 183.292 74.7891 185.482C75.3342 186.407 75.5426 187.491 75.379 188.552C75.2613 189.436 74.8408 190.253 74.189 190.862C73.8252 191.147 73.3954 191.336 72.9392 191.411C72.483 191.487 72.0152 191.445 71.5791 191.292L71.0891 191.082C71.0391 191.082 70.669 190.832 70.629 190.832C70.3404 190.595 70.1029 190.301 69.931 189.97C69.7592 189.638 69.6564 189.275 69.629 188.902C69.339 186.902 66.729 186.662 65.429 187.792C65.1619 187.737 64.8862 187.737 64.619 187.792C57.5461 189.648 50.2875 190.704 42.9791 190.942C39.5685 191.176 36.1434 191.089 32.749 190.682C29.949 190.262 26.649 188.972 25.699 186.022C25.5704 185.573 25.3278 185.165 24.9949 184.837C24.662 184.51 24.25 184.273 23.799 184.152C23.319 183.872 22.649 183.582 22.499 183.822C22.349 184.062 20.1891 184.142 19.6691 184.142C18.9551 184.147 18.2421 184.087 17.5391 183.962C17.2391 183.962 16.9491 183.832 16.6491 183.762C21.2319 179.585 26.9621 176.879 33.0991 175.992C33.6785 175.939 34.2236 175.693 34.6475 175.295C35.0715 174.896 35.3501 174.367 35.439 173.792C48.3703 163.148 63.4057 155.358 79.559 150.932C97.5319 146.032 116.538 146.432 134.289 152.082C139.1 153.664 143.78 155.616 148.289 157.922C150.549 159.082 152.759 160.325 154.919 161.652C156.269 162.482 157.919 164.152 159.589 163.892C160.07 163.809 160.516 163.587 160.871 163.252C161.227 162.918 161.477 162.487 161.589 162.012C161.693 161.518 161.647 161.005 161.457 160.538C161.266 160.07 160.939 159.671 160.519 159.392C174.329 159.172 188.619 160.392 201.439 165.602C207.518 168.022 213.142 171.457 218.069 175.762C219.163 176.726 220.204 177.747 221.189 178.822C222.343 179.948 223.351 181.215 224.189 182.592C225.259 184.672 222.599 185.852 220.909 186.412C213.207 188.779 205.052 189.276 197.119 187.862C196.87 187.863 196.623 187.907 196.389 187.992ZM201.179 207.392C201.284 202.583 200.57 197.792 199.069 193.222C206.374 194.132 213.787 193.623 220.899 191.722C222.282 191.373 223.623 190.877 224.899 190.242C225.359 195.302 225.899 200.362 226.479 205.402C218.039 206.242 209.602 206.905 201.169 207.392H201.179Z" fill="#23201E"/>
<path d="M221.019 186.482C213.317 188.849 205.161 189.346 197.229 187.932C196.944 187.896 196.655 187.916 196.379 187.992C196.09 187.822 195.768 187.716 195.435 187.681C195.102 187.647 194.766 187.685 194.449 187.792C194.281 187.852 194.12 187.929 193.969 188.022C177.649 188.182 161.329 188.282 145.019 188.412L121.419 188.622C114.009 188.682 106.539 188.972 99.1387 188.542C91.7387 188.112 84.5287 186.802 78.5187 182.482C76.5987 181.102 73.5187 183.292 74.7787 185.482C75.3238 186.407 75.5322 187.491 75.3687 188.552C75.2509 189.436 74.8304 190.253 74.1786 190.862C73.8148 191.147 73.385 191.336 72.9288 191.411C72.4726 191.487 72.0048 191.445 71.5687 191.292L71.0787 191.082C71.0287 191.082 70.6587 190.832 70.6187 190.832C70.33 190.595 70.0925 190.301 69.9207 189.97C69.7488 189.638 69.646 189.275 69.6187 188.902C69.3287 186.902 66.7187 186.662 65.4187 187.792C65.1515 187.737 64.8758 187.737 64.6086 187.792C57.5357 189.648 50.2771 190.704 42.9687 190.942C39.5581 191.176 36.133 191.089 32.7386 190.682C29.9386 190.262 26.6387 188.972 25.6887 186.022C25.56 185.573 25.3174 185.165 24.9845 184.837C24.6516 184.51 24.2397 184.273 23.7887 184.152C23.3087 183.872 22.6386 183.582 22.4886 183.822C22.3386 184.062 20.1787 184.142 19.6587 184.142C18.9447 184.147 18.2317 184.087 17.5287 183.962C17.2287 183.962 16.9387 183.832 16.6387 183.762C21.2215 179.585 26.9517 176.878 33.0887 175.992C33.6682 175.939 34.2132 175.693 34.6371 175.294C35.0611 174.896 35.3397 174.367 35.4286 173.792C36.3286 173.052 37.2487 172.332 38.1687 171.622C40.5466 172.752 43.1065 173.449 45.7287 173.682C56.5469 174.666 67.4488 173.239 77.6487 169.502C77.0887 172.742 80.2787 175.572 83.4987 176.202C86.7187 176.832 90.0487 175.992 93.3287 175.832C100.599 175.472 107.559 178.422 114.609 180.252C125.079 182.982 136.029 183.252 146.859 183.252C167.089 183.252 187.859 181.942 206.269 173.502C208.03 172.72 209.705 171.758 211.269 170.632C213.681 172.157 215.965 173.876 218.099 175.772C219.192 176.736 220.234 177.757 221.219 178.832C222.372 179.958 223.38 181.225 224.219 182.602C225.389 184.742 222.709 185.922 221.019 186.482Z" fill="#C6CF67"/>
</svg>
