<svg width="1440" height="572" viewBox="0 0 1440 572" fill="none" xmlns="http://www.w3.org/2000/svg">
<mask id="mask0_316_70" style="mask-type:alpha" maskUnits="userSpaceOnUse" x="0" y="0" width="1440" height="572">
<path fill-rule="evenodd" clip-rule="evenodd" d="M1440 0H0V492.566V515.79L40 523.621C45.9786 524.792 52.3817 526.185 59.286 527.686C98.5752 536.232 154.096 548.308 240 543.065C291.997 539.891 332.862 532.757 371.192 526.064C407.315 519.757 441.186 513.844 480 512.009C520.928 510.075 551.386 514.02 587.444 518.69C621.866 523.148 661.392 528.267 720 529.562C756.874 530.378 783.644 530.2 806.143 530.05C856.865 529.714 885.879 529.521 960 541.175C993.853 546.497 1019.4 552.131 1041.95 557.105C1090.69 567.854 1125.49 575.526 1200 570.34C1292.93 563.872 1343.7 542.915 1381.44 527.337C1387.97 524.643 1394.1 522.11 1400 519.841L1440 504.178V492.566V0Z" fill="#6F2DBD"/>
</mask>
<g mask="url(#mask0_316_70)">
<path d="M1449.47 -59.1724V740.11C1411.96 773.404 1363.42 811.805 1311.18 841.164C1195.47 906.122 1079.76 871.941 1021.3 846.287C962.842 820.634 791.183 813.808 761.292 817.23C731.401 820.652 671.579 806.983 626.076 793.296C580.572 779.61 490.859 777.872 271.094 825.74C188.163 843.805 87.0715 819.499 -6.64551 782.216V-59.1724H1449.47Z" fill="url(#paint0_linear_316_70)"/>
<path d="M346.987 637.124C338.412 636.716 329.757 636.113 321.465 633.17C316.425 631.375 311.581 628.735 307.052 625.316C302.374 621.771 297.614 616.452 297.614 609.254C297.705 606.832 298.212 604.468 299.097 602.34C299.982 600.212 301.222 598.376 302.724 596.968C305.738 594.197 309.057 592.051 312.566 590.603C342.228 576.155 373.143 561.475 404.517 566.155C419.024 568.318 433.019 574.577 447.459 577.36C469.853 581.668 493.515 577.715 514.548 588.742C518.795 590.958 522.975 593.901 525.819 598.599C528.664 603.297 529.864 610.105 527.761 615.441C525.064 622.533 518.188 624.306 512.256 625.352C470.103 633.018 427.626 637.204 385.075 637.886C372.357 637.992 359.661 637.738 346.987 637.124Z" fill="white"/>
<path d="M1394.19 593.919L1394.77 593.759C1393.62 586.508 1392.68 579.168 1391.65 571.9C1391.07 567.822 1390.3 559.649 1385.61 561.582C1380.92 563.514 1383.37 571.776 1384.75 576.172C1386.75 582.54 1389.36 588.545 1392.52 594.043C1393.05 593.762 1393.64 593.718 1394.19 593.919V593.919Z" fill="white"/>
<path d="M1405.62 597.465L1405.87 597.748C1406.27 597.224 1406.76 596.824 1407.29 596.578C1411.73 594.208 1415.75 590.68 1419.12 586.207C1420.71 584.274 1422.29 582.289 1423.8 580.268C1424.93 578.761 1426.26 576.881 1426.3 574.843C1426.29 574.251 1426.16 573.675 1425.91 573.176C1425.58 572.494 1425.11 571.938 1424.57 571.563C1424.02 571.192 1423.44 570.918 1422.84 570.747C1422.05 570.631 1421.25 570.722 1420.48 571.013C1416.56 572.378 1413.43 577.272 1411.26 581.509C1408.88 586.413 1406.83 591.58 1405.14 596.95C1405.3 597.11 1405.46 597.287 1405.62 597.465Z" fill="white"/>
<path d="M1429.53 639.34C1426.9 640.094 1424.17 640.094 1421.54 639.34C1416.44 640.912 1411.34 642.543 1406.24 644.233C1406.78 647.46 1407.32 650.674 1407.87 653.877C1411.62 676.074 1415.36 698.27 1419.08 720.467C1419.08 716.619 1419.24 712.79 1419.54 708.961C1420.39 696.666 1423.17 684.738 1427.71 673.929C1429.78 669.089 1432.52 662.919 1437.14 661.944C1441.77 660.969 1444.88 665.49 1446.11 670.702C1447.54 676.747 1447.59 683.467 1447.9 689.725C1448.26 696.816 1448.44 703.949 1448.43 711.123C1448.43 721.477 1447.98 731.813 1447.08 742.131C1451.46 735.775 1456.49 730.239 1462.02 725.679C1468.76 720.118 1476.15 716.062 1483.9 713.676C1487.41 712.595 1492.61 710.485 1495.44 714.545C1499.2 719.864 1494.62 726.104 1492.04 730.377C1484.19 743.425 1475.76 755.856 1466.8 767.607C1469.44 766.774 1472.11 766.181 1474.8 765.834C1478.39 765.399 1482 765.429 1485.59 765.923C1488.96 766.366 1492.61 766.827 1495.58 769.15C1498.54 771.472 1500.63 776.241 1499.18 781.01C1497.72 785.779 1494.05 787.623 1490.88 789.662C1475.95 799.444 1460.33 807.317 1444.25 813.17C1443.87 813.501 1443.43 813.68 1442.98 813.684C1429.5 814.015 1416.04 814.334 1402.61 814.642L1366.72 815.439C1360.81 815.563 1354.87 815.759 1348.95 815.812C1343.88 815.812 1338.25 814.571 1335.18 808.72C1328.3 795.583 1342.09 784.166 1349.39 778.759C1353.73 775.556 1358.31 772.948 1363.06 770.976C1360.17 770.142 1357.3 769.203 1354.48 768.139C1350.32 766.561 1346.23 764.717 1342.21 762.661C1338.72 760.888 1334.26 759.275 1331.76 755.41C1328.66 750.623 1330.51 744.649 1333.73 740.961C1336.56 737.784 1339.95 735.584 1343.59 734.561C1351.58 732.203 1360.24 733.692 1368.22 735.394C1374.1 736.653 1379.91 738.429 1385.61 740.713C1381.54 734.962 1377.79 728.823 1374.4 722.346C1371.9 717.577 1369 712.418 1367.88 706.709C1366.89 701.39 1368.29 695.203 1372.23 692.615C1376.16 690.026 1380.84 692.615 1384.36 695.487C1387.71 698.224 1390.95 701.183 1394.07 704.351C1401.06 711.4 1407.49 719.36 1413.27 728.108L1413.47 728.444L1412.12 720.006C1407.99 695.54 1403.88 671.068 1399.77 646.591L1393.91 648.577C1393.76 649.02 1393.59 649.463 1393.43 649.906C1391.36 655.42 1388.66 663.486 1383.13 663.415C1380.03 663.415 1377.66 660.455 1375.64 657.689C1375.14 656.998 1374.64 656.289 1374.19 655.562C1344.02 666.571 1314.24 678.804 1285.02 691.48C1147.27 751.031 1011.49 825.492 865.997 845.419C796.805 854.921 726.224 850.986 659.027 826.059C603.519 805.476 551.895 770.869 501.794 733.869C501.321 733.857 500.858 733.687 500.448 733.378C500.038 733.068 499.694 732.627 499.448 732.097C496.886 730.206 494.329 728.303 491.776 726.388C384.968 646.609 275.072 551.955 146.691 563.869C18.796 575.729 -92.1517 679.105 -186.044 787.357V944.38C-53.6591 943.476 78.7662 944.38 211.164 944.38C451.153 944.38 691.142 944.38 931.131 944.38C1147.43 944.38 1363.76 945.515 1580.06 944.717C1580.06 887.182 1580.06 829.652 1580.06 772.128C1580.06 717.819 1580.06 663.51 1580.06 609.201C1531.83 611.488 1483.63 621.079 1436.11 634.979C1434.23 637.143 1431.96 638.644 1429.53 639.34ZM154.147 866.693C135.878 875.699 115.196 876.479 96.1721 870.133C96.097 872.113 95.5871 874.023 94.7042 875.63C93.8213 877.238 92.6032 878.475 91.1971 879.192C88.076 880.604 84.8244 881.457 81.5301 881.727C77.9168 882.312 74.2765 882.702 70.6362 882.879C48.9551 883.853 27.4484 877.472 8.18521 864.353C-12.9454 873.526 -35.3119 876.722 -57.4477 873.731C-63.4204 876.994 -69.6763 879.972 -76.2423 879.192C-78.9843 878.901 -81.6418 877.806 -84.0194 875.986C-86.3969 874.167 -88.4341 871.67 -89.981 868.679C-91.5146 865.409 -92.2112 861.579 -91.9685 857.75C-91.7259 853.921 -90.5568 850.295 -88.6328 847.404C-87.5682 845.825 -86.2818 844.531 -84.8442 843.593C-86.0515 841.971 -87.1269 840.189 -88.053 838.274C-90.8039 832.291 -91.968 825.278 -91.3629 818.332C-90.7579 811.387 -88.4178 804.901 -84.7093 799.891C-82.1694 796.578 -79.1021 794.047 -75.7286 792.48C-72.355 790.914 -68.7591 790.351 -65.2001 790.832C-67.6553 785.892 -69.5663 780.52 -70.8763 774.876C-72.7227 767.099 -72.6566 758.755 -70.6875 751.031C-69.6313 747.247 -67.9965 743.787 -65.884 740.866C-63.7715 737.945 -61.2261 735.624 -58.4049 734.047C-47.7942 728.108 -36.7385 731.937 -27.3952 739.614C-27.6948 730.188 -26.2659 720.805 -23.2291 712.258C-19.7585 702.369 -14.2105 693.991 -7.2388 688.112C0.0904737 682.206 8.58949 679.3 17.178 679.761C26.0831 680.081 34.703 683.959 41.8915 690.877C46.8261 695.735 51.1405 703.021 52.1787 710.964C54.4152 710.823 56.6444 711.395 58.6771 712.629C60.7098 713.864 62.4859 715.725 63.8545 718.055C65.1228 720.32 66.0035 722.918 66.4363 725.672C66.8692 728.427 66.8439 731.271 66.3623 734.011C69.6833 731.872 73.193 730.282 76.8112 729.278C84.658 727.31 94.1363 730.111 98.6259 739.543C102.334 747.361 101.713 756.048 99.1653 763.937C105.035 759.804 111.277 756.659 117.744 754.577C124.876 752.52 133.209 752.077 139.909 756.527C143.178 758.49 145.798 761.94 147.284 766.242C147.934 768.518 148.2 770.951 148.065 773.376C147.93 775.8 147.397 778.156 146.502 780.283C142.997 789.343 135.959 796.434 129.609 801.859C128.261 803.065 126.777 804.182 125.321 805.228C132.153 805.932 138.88 807.858 145.316 810.954C154.862 815.563 167.656 823.701 170.07 838.203C172.416 852.368 163.234 862.208 154.147 866.693ZM306.621 652.175C299.43 656.998 292.203 661.725 284.941 666.358C284.86 667.848 284.793 669.319 284.712 670.808C284.186 680.382 283.862 690.044 283.134 699.6C283.302 700.429 283.276 701.306 283.059 702.115C282.843 702.925 282.446 703.63 281.921 704.138C264.697 718.94 246.899 732.55 228.597 744.914C228.064 745.219 227.476 745.318 226.901 745.202C226.326 745.086 225.788 744.759 225.348 744.258C225.057 744.304 224.763 744.304 224.472 744.258C204.976 741.83 185.669 737.983 166.389 733.497C165.712 733.359 165.078 732.968 164.565 732.371C164.051 731.774 163.678 730.996 163.49 730.129C163.004 729.734 162.61 729.172 162.351 728.503C162.092 727.833 161.978 727.084 162.021 726.335C162.452 712.542 162.87 698.755 163.275 684.974C158.951 683.874 154.637 682.693 150.331 681.428C149.488 681.045 148.794 680.239 148.4 679.187C148.007 678.134 147.945 676.92 148.228 675.808C148.353 675.308 148.549 674.844 148.808 674.443C148.887 673.969 149.049 673.526 149.28 673.149C151.858 668.819 154.612 664.676 157.531 660.738C153.796 661.146 150.048 661.412 146.3 661.589C145.773 661.575 145.259 661.373 144.813 661.004C144.366 660.636 144.004 660.115 143.765 659.497C140.678 659.692 138.817 653.381 142.161 651.041C161.589 637.61 181.922 626.577 202.9 618.083C203.346 617.701 203.864 617.486 204.396 617.463L204.599 617.374C205.266 617.123 205.979 617.199 206.607 617.587C214.957 618.272 223.336 618.053 231.658 616.931C232.18 616.832 232.713 616.873 233.223 617.053C233.733 617.233 234.209 617.547 234.624 617.977C251.895 619.191 269.024 622.756 285.736 628.614C286.279 628.773 286.779 629.122 287.182 629.625C287.586 630.127 287.878 630.764 288.028 631.468L306.513 644.375C307.049 644.748 307.5 645.304 307.818 645.984C308.136 646.664 308.309 647.444 308.32 648.242C308.331 649.04 308.179 649.828 307.88 650.523C307.582 651.217 307.147 651.794 306.621 652.193V652.175Z" fill="#B6D991"/>
<path d="M146.678 563.869C275.058 551.955 384.954 646.538 491.83 726.388C494.374 728.303 496.931 730.206 499.502 732.097C499.187 731.534 498.973 730.885 498.875 730.199C498.778 729.512 498.801 728.805 498.941 728.132C499.081 727.458 499.335 726.835 499.684 726.308C500.034 725.782 500.469 725.367 500.958 725.094L502.603 724.207C402.63 649.977 301.875 560.589 183.782 554.242C50.8846 547.15 -69.2177 646.183 -167.222 754.399C-173.514 761.384 -179.806 768.476 -186.098 775.674V787.446C-92.165 679.07 18.7827 575.729 146.678 563.869Z" fill="#23201E"/>
<path d="M1392.42 594.078C1389.27 588.581 1386.66 582.575 1384.66 576.208C1383.31 571.811 1380.61 563.585 1385.52 561.617C1390.43 559.649 1390.98 567.858 1391.56 571.935C1392.58 579.204 1393.53 586.544 1394.67 593.795C1396.04 593.446 1397.44 593.398 1398.81 593.653C1399.43 591.88 1400.08 589.912 1400.75 588.051C1400.03 582.962 1399.24 577.892 1398.5 572.822C1397.52 566.014 1397.02 557.983 1391.76 554.313C1389.58 552.759 1387.05 552.252 1384.61 552.88C1382.17 553.507 1379.98 555.23 1378.4 557.752C1374.48 563.869 1375.89 571.421 1377.97 578.158C1379.94 584.414 1382.39 590.39 1385.28 595.993C1386.21 596.702 1387.14 597.429 1387.97 598.174C1389.22 596.409 1390.73 595.012 1392.42 594.078V594.078Z" fill="#23201E"/>
<path d="M1401.7 594.468C1402.93 595.055 1404.09 595.893 1405.12 596.95C1406.82 591.58 1408.87 586.413 1411.24 581.509C1413.41 577.271 1416.54 572.378 1420.47 571.013C1421.23 570.722 1422.03 570.631 1422.83 570.747C1423.43 570.918 1424.01 571.192 1424.55 571.563C1425.1 571.938 1425.56 572.494 1425.9 573.176C1426.14 573.675 1426.28 574.251 1426.29 574.843C1426.29 576.881 1424.94 578.761 1423.78 580.268C1422.27 582.289 1420.7 584.274 1419.1 586.207C1415.74 590.68 1411.71 594.208 1407.28 596.578C1406.74 596.824 1406.26 597.224 1405.85 597.748C1407.45 599.702 1408.58 602.22 1409.11 604.999H1409.28C1414.44 602.353 1419.15 598.395 1423.15 593.351C1425.06 591.047 1426.99 588.671 1428.77 586.171C1430.97 583.473 1432.44 579.917 1432.98 576.03C1433.67 568.655 1428.58 562.681 1423.34 561.848C1417.27 560.943 1411.86 566.475 1408.16 572.183C1405.18 576.988 1402.71 582.295 1400.81 587.962C1401.11 590.107 1401.4 592.27 1401.67 594.415L1401.7 594.468Z" fill="#23201E"/>
</g>
<defs>
<linearGradient id="paint0_linear_316_70" x1="721.411" y1="878.501" x2="721.411" y2="-59.1724" gradientUnits="userSpaceOnUse">
<stop stop-color="#FFCBEA"/>
<stop offset="1" stop-color="#9B92FF"/>
</linearGradient>
</defs>
</svg>
