<svg width="1440" height="718" viewBox="0 0 1440 718" fill="none" xmlns="http://www.w3.org/2000/svg">
<mask id="mask0_204_337" style="mask-type:alpha" maskUnits="userSpaceOnUse" x="0" y="0" width="1440" height="718">
<path fill-rule="evenodd" clip-rule="evenodd" d="M1440 0H0V617.916V647.051L40 656.875C45.9786 658.344 52.3817 660.091 59.286 661.975C98.5752 672.695 154.096 687.844 240 681.267C291.997 677.286 332.862 668.335 371.192 659.94C407.315 652.028 441.186 644.609 480 642.308C520.928 639.882 551.386 644.83 587.444 650.688C621.866 656.281 661.392 662.703 720 664.328C756.874 665.351 783.644 665.128 806.144 664.94C856.865 664.518 885.879 664.276 960 678.896C993.853 685.573 1019.4 692.64 1041.95 698.88C1090.69 712.364 1125.49 721.989 1200 715.483C1292.93 707.369 1343.7 681.078 1381.44 661.536C1387.97 658.156 1394.1 654.979 1400 652.132L1440 632.484V617.916V0Z" fill="#6F2DBD"/>
</mask>
<g mask="url(#mask0_204_337)">
<path d="M1449.47 -45V562.846C1411.96 588.166 1363.42 617.369 1311.18 639.696C1195.47 689.096 1079.76 663.102 1021.3 643.593C962.842 624.083 791.183 618.893 761.292 621.495C731.401 624.097 671.579 613.702 626.076 603.293C580.572 592.885 490.859 591.564 271.094 627.966C188.163 641.705 87.0715 623.221 -6.64551 594.867V-45H1449.47Z" fill="url(#paint0_linear_204_337)"/>
<path d="M-26.2753 283.973C-38.2747 285.686 -50.6787 288.018 -60.467 295.191C-70.2553 302.363 -76.646 315.59 -72.2102 326.875C-68.543 336.312 -58.7277 341.8 -48.9799 344.51C-39.232 347.22 -29.1201 347.867 -19.0622 348.555C1.93012 349.903 23.219 351.17 43.7933 346.883C52.921 344.968 61.8195 341.989 71.0145 340.465C82.6769 338.537 94.582 339.009 106.393 338.834C125.187 338.561 143.919 336.625 162.372 333.05C167.967 331.958 173.643 330.69 178.551 327.751C183.459 324.812 187.477 319.945 187.989 314.269C188.825 305.127 180.87 297.833 173.657 292.157C168.358 287.978 162.938 283.731 156.561 281.533C151.276 279.713 145.613 279.389 140.032 279.133C110.532 277.785 81.2613 278.904 51.775 279.295C25.5785 279.578 -0.281013 280.266 -26.2753 283.973Z" fill="white"/>
<path d="M346.987 484.526C338.412 484.216 329.757 483.757 321.465 481.519C316.425 480.154 311.581 478.147 307.052 475.546C302.374 472.85 297.614 468.805 297.614 463.331C297.705 461.489 298.212 459.692 299.097 458.073C299.982 456.455 301.222 455.059 302.724 453.988C305.738 451.881 309.057 450.249 312.566 449.148C342.228 438.159 373.143 426.996 404.517 430.555C419.024 432.2 433.019 436.96 447.459 439.076C469.853 442.353 493.515 439.346 514.548 447.732C518.795 449.417 522.975 451.655 525.819 455.228C528.664 458.801 529.864 463.978 527.761 468.037C525.064 473.43 518.188 474.778 512.256 475.573C470.103 481.403 427.626 484.587 385.075 485.106C372.357 485.186 359.661 484.993 346.987 484.526Z" fill="white"/>
<path d="M1163.49 497.388C1146.35 495.973 1127.54 493.64 1115.94 480.953C1112.21 476.908 1109.4 471.515 1109.82 466.122C1110.3 459.57 1115.21 454.177 1120.6 450.456C1136.36 439.67 1156.76 439.198 1175.88 439.117L1219.39 438.955C1230.52 438.955 1243.78 437.607 1249.17 427.94C1252.06 422.736 1251.77 416.412 1253.4 410.682C1257.66 395.757 1273.63 387.762 1288.23 382.598C1353.04 359.793 1423.21 356.975 1489.64 374.509C1512 380.454 1535.13 389.744 1548.21 408.822C1553.46 416.48 1556.75 425.297 1559.3 434.223C1563.12 447.705 1565.16 462.765 1558.45 475.007C1552.16 486.44 1539.57 492.858 1527.14 496.849C1484.59 510.574 1434.91 507.433 1390.68 507.635C1342.39 507.824 1294.11 506.287 1245.89 503.415C1218.41 501.716 1190.94 499.707 1163.49 497.388Z" fill="white"/>
<path d="M919.792 465.637C918.336 468.63 917.837 472.378 919.469 475.209C921.1 478.041 924.403 479.524 927.558 480.602C942.524 485.699 958.703 486.629 974.531 487.559C988.526 488.341 1003.15 489.016 1015.98 483.312C1019.48 481.748 1023 479.497 1024.5 475.951C1026.13 472.068 1024.9 467.444 1022.33 464.127C1019.56 460.938 1016.11 458.421 1012.23 456.765C996.939 449.39 979.088 447.88 962.343 448.312C948.955 448.608 926.345 452.141 919.792 465.637Z" fill="white"/>
<path d="M1385.02 460.864C1380.98 458.168 1376.49 455.363 1371.54 454.824C1368.01 454.446 1363.8 455.296 1361.67 458.302C1360.67 459.718 1360.32 461.484 1361.74 462.698C1363.15 463.911 1365.46 464.127 1367.4 464.167C1373.13 464.289 1378.94 463.938 1384.68 463.615C1384.69 462.688 1384.81 461.766 1385.02 460.864Z" fill="white"/>
<path d="M1394.19 451.669L1394.77 451.548C1393.62 446.033 1392.68 440.452 1391.65 434.924C1391.07 431.823 1390.3 425.607 1385.61 427.077C1380.92 428.547 1383.37 434.829 1384.75 438.173C1386.75 443.015 1389.36 447.582 1392.52 451.763C1393.05 451.55 1393.64 451.516 1394.19 451.669Z" fill="white"/>
<path d="M1383.89 497.145C1384.4 496.622 1384.85 496.043 1385.23 495.42C1385.98 494.179 1386.58 492.723 1387.16 491.591C1387.74 490.458 1388.43 488.989 1389.01 487.654C1390.76 483.672 1392.14 479.538 1393.14 475.304C1391.8 474.854 1390.55 474.189 1389.43 473.335C1386.5 476.715 1383.73 480.229 1381.12 483.879C1379.77 485.685 1378.1 487.748 1377.77 490.027C1377.75 490.238 1377.75 490.449 1377.77 490.66C1378 492.332 1378.85 493.859 1380.14 494.948C1380.6 495.433 1381.07 495.946 1381.49 496.417C1381.76 496.692 1382.05 496.948 1382.35 497.186C1383.02 497.739 1383.25 497.779 1383.89 497.145Z" fill="white"/>
<path d="M1325.14 504.103C1325.55 501.559 1325.1 498.955 1323.89 496.686C1322.67 494.417 1320.74 492.609 1318.4 491.537C1316.03 490.622 1313.42 490.491 1310.96 491.162C1308.5 491.834 1306.33 493.274 1304.75 495.271C1303.02 497.402 1299.93 496.175 1299.06 494.004C1297.76 490.925 1295.52 488.343 1292.64 486.638C1289.77 484.933 1286.43 484.195 1283.11 484.533C1279.78 484.871 1276.66 486.268 1274.19 488.517C1271.72 490.765 1270.04 493.748 1269.39 497.024C1269.34 497.605 1269.13 498.163 1268.8 498.642C1268.47 499.122 1268.02 499.508 1267.49 499.764C1266.97 500.02 1266.39 500.136 1265.8 500.103C1265.22 500.069 1264.66 499.887 1264.16 499.572C1263.59 499.212 1263.15 498.665 1262.92 498.022C1262.77 497.865 1262.62 497.699 1262.49 497.523C1258.89 492.753 1253.97 489.151 1248.33 487.168C1238.1 483.447 1226.29 484.998 1218.07 492.386C1214.17 495.817 1211.18 500.147 1209.34 504.999C1207.5 509.851 1206.88 515.079 1207.52 520.228C1207.62 520.738 1207.6 521.263 1207.46 521.763C1207.32 522.264 1207.07 522.726 1206.73 523.116C1206.38 523.505 1205.96 523.812 1205.48 524.012C1205 524.213 1204.48 524.302 1203.96 524.272C1202.36 524.127 1200.75 524.355 1199.25 524.94C1197.75 525.525 1196.41 526.451 1195.34 527.643C1192.54 530.811 1192.45 534.775 1193.78 538.577C1194.11 539.228 1194.24 539.963 1194.14 540.686C1194.04 541.408 1193.72 542.083 1193.23 542.622C1192.85 542.998 1192.38 543.274 1191.86 543.427C1191.35 543.58 1190.81 543.604 1190.28 543.498C1189.91 543.583 1189.53 543.606 1189.15 543.566C1187.9 543.362 1186.65 543.227 1185.38 543.161C1183.13 543.144 1180.89 543.617 1178.83 544.548C1176.78 545.479 1174.94 546.846 1173.47 548.554L1173.05 549.094C1172.86 549.35 1172.67 549.593 1172.5 549.849C1172.19 550.321 1171.89 550.792 1171.61 551.278C1171.38 551.662 1171.19 552.063 1171.03 552.478C1170.78 553.044 1170.55 553.624 1170.37 554.217C1169.96 555.528 1169.72 556.889 1169.68 558.262C1221.42 540.344 1273.05 521.967 1325.33 505.896C1325.14 505.32 1325.07 504.707 1325.14 504.103Z" fill="#A9B749"/>
<path d="M1406.51 471.893C1409.93 474.374 1413.64 476.417 1417.57 477.973C1419.07 478.582 1420.62 479.082 1422.19 479.47C1425.6 480.265 1429.27 480.306 1431.74 477.731C1431.89 477.564 1432.04 477.389 1432.17 477.205C1432.63 476.63 1432.94 475.946 1433.06 475.22C1433.18 474.493 1433.12 473.747 1432.87 473.052C1432.16 471.394 1430.17 470.666 1428.54 470.194C1425.94 469.566 1423.3 469.094 1420.64 468.778C1416.81 468.145 1412.98 467.43 1409.13 466.877C1408.96 467.514 1408.73 468.136 1408.47 468.738C1407.96 469.874 1407.3 470.936 1406.51 471.893Z" fill="white"/>
<path d="M1405.62 454.366L1405.87 454.581C1406.27 454.182 1406.76 453.878 1407.29 453.691C1411.73 451.889 1415.75 449.206 1419.12 445.804C1420.71 444.335 1422.29 442.824 1423.8 441.287C1424.93 440.141 1426.26 438.712 1426.3 437.162C1426.29 436.712 1426.16 436.274 1425.91 435.894C1425.58 435.376 1425.11 434.953 1424.57 434.668C1424.02 434.386 1423.44 434.177 1422.84 434.047C1422.05 433.959 1421.25 434.028 1420.48 434.25C1416.56 435.288 1413.43 439.009 1411.26 442.231C1408.88 445.961 1406.83 449.89 1405.14 453.975C1405.3 454.096 1405.46 454.231 1405.62 454.366Z" fill="white"/>
<path d="M105.893 612.704C114.848 610.633 123.239 606.62 130.471 600.947C132.719 599.198 134.841 597.292 136.822 595.244C138.89 593.375 140.421 590.987 141.257 588.328C142.417 583.164 136.404 580.562 132.291 579.847C119.402 577.609 106.486 584.337 95.565 590.35C95.1087 590.619 94.5928 590.771 94.0635 590.792C93.5341 590.814 93.0078 590.703 92.5314 590.472C91.8486 590.616 91.1383 590.552 90.4922 590.288C89.846 590.025 89.2936 589.574 88.9062 588.993C88.5187 588.413 88.3141 587.73 88.3186 587.032C88.3232 586.334 88.5367 585.654 88.9316 585.079C91.736 581.411 94.3246 577.205 94.4594 572.459C94.6006 570.517 94.1893 568.575 93.2732 566.857C92.357 565.139 90.9733 563.716 89.2821 562.751C81.9746 558.572 73.3323 562.185 66.5506 565.637C65.0546 566.578 63.394 567.228 61.6565 567.551C61.0064 567.91 60.2616 568.06 59.5234 567.98C58.7852 567.9 58.0895 567.595 57.5308 567.106C56.9025 566.478 56.5395 565.632 56.5169 564.744C56.4944 563.856 56.8139 562.993 57.4095 562.334C59.8363 559.071 61.1037 553.813 58.515 550.28C57.5663 549.021 56.2383 548.099 54.7265 547.651C54.3085 547.53 53.8905 547.462 53.4726 547.381H52.6771C52.4508 547.383 52.2251 547.406 52.003 547.449H51.8007C51.5973 548.18 51.3451 548.896 51.0457 549.593C50.6105 550.373 49.8864 550.951 49.0292 551.203C48.172 551.456 47.2501 551.361 46.4617 550.941C45.695 550.496 45.1279 549.774 44.8771 548.924C44.6263 548.074 44.7109 547.16 45.1134 546.37C45.204 546.155 45.2806 545.935 45.3426 545.71C45.2459 544.988 45.373 544.254 45.7066 543.606C45.828 539.764 43.2393 535.921 40.7046 533.306C38.0037 530.66 34.8417 528.531 31.3747 527.023C18.9438 521.347 3.06144 522.843 -7.4819 531.823C-17.432 540.276 -22.825 554.19 -20.2364 567.106C-20.0888 567.791 -20.1213 568.501 -20.3307 569.169C-20.2498 571.717 -23.1081 574.212 -25.6024 572.149C-30.4157 568.104 -35.93 564.653 -42.1185 563.304C-51.772 561.214 -62.504 565.232 -64.9579 575.533C-67.6544 586.872 -60.3064 597.429 -53.7943 605.936C-51.8124 608.525 -55.2639 612.677 -58.1087 610.83C-60.277 609.418 -62.7263 608.494 -65.287 608.121C-67.8477 607.749 -70.4587 607.937 -72.9395 608.673C-75.2945 609.423 -77.4583 610.676 -79.2812 612.345C-81.104 614.015 -82.5422 616.06 -83.4963 618.34C-85.2089 622.471 -85.2493 627.106 -83.6092 631.267C-81.9691 635.428 -78.7767 638.788 -74.7057 640.64C-73.7746 640.919 -72.8718 641.284 -72.0092 641.732C-68.6251 643.525 -71.0385 649.013 -74.7057 647.88C-75.5282 647.61 -76.3236 647.3 -77.1191 646.95C-78.4861 646.604 -79.9276 646.701 -81.2359 647.227C-82.5443 647.753 -83.6521 648.68 -84.3997 649.876C-85.1951 651.185 -85.5278 652.723 -85.3444 654.243C-85.161 655.764 -84.4722 657.179 -83.3885 658.262C-76.9034 665.003 -66.6297 660.958 -59.4031 657.925C-58.5541 657.55 -57.602 657.478 -56.7066 657.722C-35.3218 659.918 -13.7148 657.509 6.66127 650.657C7.36915 650.415 8.13757 650.415 8.84544 650.657C9.35191 650.617 9.85986 650.715 10.315 650.941C17.4938 654.655 25.0049 657.689 32.7499 660.001C44.0976 663.269 55.8615 664.863 67.6697 664.733C73.3879 664.68 79.0939 664.194 84.7385 663.277C85.7362 663.115 89.2552 662.873 89.4305 661.605C89.7001 659.677 86.0463 658.572 84.8059 658.086C80.7612 656.522 82.8645 650.132 86.9227 651.682C98.129 656.018 110.056 658.186 122.072 658.073C132.417 658.123 142.68 656.248 152.34 652.545C155.913 651.075 159.782 649.053 162.02 645.804C163.086 644.21 163.628 642.323 163.57 640.406C163.512 638.49 162.857 636.639 161.697 635.112C159.017 631.618 155.559 628.798 151.598 626.874C147.065 624.454 142.27 622.558 137.307 621.225C127.64 618.607 117.518 618.124 107.645 619.81C106.95 619.966 106.221 619.861 105.597 619.516C104.973 619.17 104.498 618.608 104.261 617.935C103.034 616.196 103.196 613.311 105.893 612.704Z" fill="#61B75A"/>
<path d="M235.016 476.773C216.546 481.938 198.399 488.191 180.668 495.501C196.186 496.997 211.678 498.197 227.25 499.64H227.331C243.914 494.557 260.296 489.07 276.448 482.773C262.841 479.556 248.976 477.548 235.016 476.773Z" fill="#D39061"/>
<path d="M213.632 525.998C212.941 526.949 212.115 527.794 211.179 528.506C210.633 528.817 210.012 528.972 209.384 528.953C208.756 528.934 208.145 528.742 207.619 528.398C206.123 528.277 204.518 527.832 203.291 527.67L197.777 526.861C188.501 525.486 179.248 523.944 170.017 522.236C169.621 531.98 169.226 541.728 168.83 551.48C186.708 555.026 204.909 557.358 223.043 559.125C224.176 543.674 224.877 528.115 224.796 512.61C223.677 514.039 222.531 515.455 221.385 516.857C218.841 519.949 216.257 522.996 213.632 525.998Z" fill="#EBA36D"/>
<path d="M177.957 516.857C186.505 518.376 195.08 519.724 203.682 520.902C205.259 521.117 206.958 521.185 208.522 521.481C208.9 521.077 209.277 520.699 209.601 520.335C213.646 515.643 217.529 510.736 221.371 505.842C213.56 505.114 205.749 504.404 197.938 503.711C188.905 502.902 179.858 501.851 170.812 501.19H169.908H169.76L168.412 501.365C166.848 502.714 165.311 504.183 163.828 505.666C162.79 506.691 161.765 507.743 160.767 508.808C159.554 510.156 158.408 511.504 157.262 512.853C159.338 513.284 161.401 513.702 163.477 514.106C165.553 514.511 167.953 514.996 170.218 515.455C172.821 515.873 175.369 516.399 177.957 516.857Z" fill="#EBA36D"/>
<path d="M166.699 494.152C181.48 487.602 196.581 481.801 211.947 476.773C209.708 476.72 207.461 476.598 205.205 476.409C188.184 481.548 171.608 488.064 155.644 495.892C158.947 495.622 162.223 495.298 165.526 494.921C165.861 494.588 166.26 494.327 166.699 494.152Z" fill="#EBA36D"/>
<path d="M1429.53 486.211C1426.9 486.784 1424.17 486.784 1421.54 486.211C1416.44 487.407 1411.34 488.647 1406.24 489.932C1406.78 492.386 1407.32 494.831 1407.87 497.267C1411.62 514.147 1415.36 531.027 1419.08 547.907C1419.08 544.982 1419.24 542.069 1419.54 539.157C1420.39 529.807 1423.17 520.736 1427.71 512.516C1429.78 508.835 1432.52 504.143 1437.14 503.401C1441.77 502.66 1444.88 506.098 1446.11 510.062C1447.54 514.659 1447.59 519.769 1447.9 524.529C1448.26 529.922 1448.44 535.346 1448.43 540.802C1448.43 548.676 1447.98 556.536 1447.08 564.383C1451.46 559.549 1456.49 555.339 1462.02 551.871C1468.76 547.642 1476.15 544.558 1483.9 542.743C1487.41 541.921 1492.61 540.317 1495.44 543.404C1499.2 547.449 1494.62 552.195 1492.04 555.444C1484.19 565.367 1475.76 574.821 1466.8 583.757C1469.44 583.123 1472.11 582.673 1474.8 582.409C1478.39 582.078 1482 582.101 1485.59 582.476C1488.96 582.813 1492.61 583.164 1495.58 584.93C1498.54 586.696 1500.63 590.323 1499.18 593.95C1497.72 597.577 1494.05 598.979 1490.88 600.53C1475.95 607.969 1460.33 613.956 1444.25 618.407C1443.87 618.659 1443.43 618.795 1442.98 618.798C1429.5 619.05 1416.04 619.293 1402.61 619.526L1366.72 620.133C1360.81 620.227 1354.87 620.376 1348.95 620.416C1343.88 620.416 1338.25 619.472 1335.18 615.023C1328.3 605.033 1342.09 596.35 1349.39 592.238C1353.73 589.803 1358.31 587.819 1363.06 586.319C1360.17 585.685 1357.3 584.971 1354.48 584.162C1350.32 582.962 1346.23 581.56 1342.21 579.996C1338.72 578.647 1334.26 577.42 1331.76 574.481C1328.66 570.841 1330.51 566.297 1333.73 563.493C1336.56 561.077 1339.95 559.404 1343.59 558.626C1351.58 556.833 1360.24 557.965 1368.22 559.26C1374.1 560.217 1379.91 561.568 1385.61 563.304C1381.54 558.931 1377.79 554.262 1374.4 549.336C1371.9 545.71 1369 541.786 1367.88 537.445C1366.89 533.4 1368.29 528.695 1372.23 526.726C1376.16 524.758 1380.84 526.726 1384.36 528.91C1387.71 530.992 1390.95 533.242 1394.07 535.652C1401.06 541.013 1407.49 547.065 1413.27 553.718L1413.47 553.974L1412.12 547.557C1407.99 528.951 1403.88 510.34 1399.77 491.726L1393.91 493.236C1393.76 493.573 1393.59 493.91 1393.43 494.247C1391.36 498.44 1388.66 504.574 1383.13 504.521C1380.03 504.521 1377.66 502.269 1375.64 500.166C1375.14 499.64 1374.64 499.101 1374.19 498.548C1344.02 506.92 1314.24 516.223 1285.02 525.863C1147.27 571.151 1011.49 627.778 865.997 642.932C796.805 650.159 726.224 647.166 659.027 628.209C603.519 612.556 551.895 586.238 501.794 558.1C501.321 558.09 500.858 557.962 500.448 557.726C500.038 557.49 499.694 557.155 499.448 556.752C496.886 555.314 494.329 553.867 491.776 552.41C384.968 491.739 275.072 419.756 146.691 428.816C18.796 437.836 -92.1517 516.453 -186.044 598.777V718.191C-53.6591 717.504 78.7662 718.191 211.164 718.191C451.153 718.191 691.142 718.191 931.131 718.191C1147.43 718.191 1363.76 719.054 1580.06 718.448C1580.06 674.692 1580.06 630.942 1580.06 587.195C1580.06 545.894 1580.06 504.592 1580.06 463.291C1531.83 465.03 1483.63 472.324 1436.11 482.895C1434.23 484.541 1431.96 485.682 1429.53 486.211ZM154.147 659.111C135.878 665.96 115.196 666.553 96.1721 661.727C96.097 663.233 95.5871 664.685 94.7042 665.908C93.8213 667.13 92.6032 668.071 91.1971 668.616C88.076 669.69 84.8244 670.339 81.5301 670.544C77.9168 670.989 74.2765 671.286 70.6362 671.421C48.9551 672.161 27.4484 667.309 8.18521 657.331C-12.9454 664.307 -35.3119 666.738 -57.4477 664.464C-63.4204 666.944 -69.6763 669.209 -76.2423 668.616C-78.9843 668.395 -81.6418 667.562 -84.0194 666.178C-86.3969 664.795 -88.4341 662.896 -89.981 660.621C-91.5146 658.134 -92.2112 655.221 -91.9685 652.31C-91.7259 649.398 -90.5568 646.641 -88.6328 644.442C-87.5682 643.241 -86.2818 642.257 -84.8442 641.543C-86.0515 640.31 -87.1269 638.955 -88.053 637.499C-90.8039 632.949 -91.968 627.615 -91.3629 622.333C-90.7579 617.051 -88.4178 612.119 -84.7093 608.309C-82.1694 605.789 -79.1021 603.864 -75.7286 602.673C-72.355 601.482 -68.7591 601.053 -65.2001 601.419C-67.6553 597.663 -69.5663 593.577 -70.8763 589.285C-72.7227 583.371 -72.6566 577.025 -70.6875 571.151C-69.6313 568.273 -67.9965 565.642 -65.884 563.421C-63.7715 561.199 -61.2261 559.434 -58.4049 558.235C-47.7942 553.718 -36.7385 556.63 -27.3952 562.468C-27.6948 555.3 -26.2659 548.165 -23.2291 541.665C-19.7585 534.145 -14.2105 527.773 -7.2388 523.302C0.0904694 518.811 8.58948 516.6 17.178 516.951C26.0831 517.195 34.703 520.143 41.8915 525.405C46.8261 529.099 51.1405 534.64 52.1787 540.681C54.4152 540.574 56.6444 541.008 58.6771 541.947C60.7098 542.886 62.4859 544.302 63.8545 546.074C65.1228 547.796 66.0035 549.772 66.4363 551.866C66.8692 553.961 66.8439 556.124 66.3623 558.208C69.6833 556.581 73.193 555.372 76.8112 554.608C84.6581 553.112 94.1363 555.242 98.6259 562.414C102.334 568.36 101.713 574.967 99.1653 580.966C105.035 577.823 111.277 575.432 117.744 573.848C124.876 572.284 133.209 571.947 139.909 575.331C143.178 576.823 145.798 579.447 147.284 582.719C147.934 584.45 148.2 586.301 148.065 588.144C147.93 589.988 147.397 591.78 146.502 593.397C142.997 600.287 135.959 605.68 129.609 609.806C128.26 610.722 126.777 611.572 125.321 612.367C132.153 612.903 138.88 614.368 145.316 616.722C154.862 620.227 167.656 626.416 170.07 637.445C172.416 648.217 163.234 655.7 154.147 659.111ZM306.621 495.973C299.43 499.64 292.203 503.235 284.941 506.759C284.86 507.891 284.793 509.01 284.712 510.143C284.186 517.423 283.862 524.771 283.134 532.038C283.302 532.669 283.276 533.336 283.059 533.951C282.843 534.567 282.446 535.103 281.921 535.49C264.697 546.746 246.899 557.097 228.597 566.5C228.064 566.731 227.476 566.807 226.901 566.719C226.326 566.63 225.788 566.382 225.348 566.001C225.057 566.035 224.763 566.035 224.472 566.001C204.976 564.154 185.669 561.228 166.389 557.817C165.712 557.712 165.078 557.414 164.565 556.96C164.051 556.506 163.678 555.915 163.49 555.255C163.004 554.955 162.61 554.527 162.351 554.019C162.092 553.51 161.978 552.939 162.021 552.37C162.452 541.881 162.87 531.396 163.275 520.915C158.951 520.079 154.637 519.18 150.331 518.219C149.488 517.927 148.794 517.315 148.4 516.514C148.007 515.714 147.945 514.791 148.228 513.945C148.353 513.565 148.549 513.212 148.808 512.907C148.887 512.547 149.049 512.21 149.28 511.922C151.858 508.63 154.612 505.479 157.531 502.485C153.796 502.795 150.048 502.997 146.3 503.132C145.773 503.121 145.259 502.967 144.813 502.687C144.366 502.407 144.004 502.011 143.765 501.541C140.678 501.689 138.817 496.889 142.161 495.11C161.589 484.896 181.922 476.505 202.9 470.046C203.346 469.755 203.864 469.592 204.396 469.574L204.599 469.506C205.266 469.316 205.979 469.373 206.607 469.668C214.957 470.19 223.336 470.023 231.658 469.169C232.18 469.094 232.713 469.126 233.223 469.263C233.733 469.399 234.209 469.638 234.624 469.965C251.895 470.889 269.024 473.6 285.736 478.054C286.279 478.175 286.779 478.441 287.182 478.823C287.586 479.205 287.878 479.69 288.028 480.225L306.513 490.04C307.049 490.324 307.5 490.747 307.818 491.264C308.136 491.781 308.309 492.374 308.32 492.981C308.331 493.588 308.179 494.187 307.88 494.716C307.582 495.244 307.147 495.683 306.621 495.986V495.973Z" fill="#B6D991"/>
<path d="M248.699 523.396C248.271 523.392 247.848 523.302 247.455 523.134C247.061 522.965 246.705 522.719 246.407 522.412C246.225 522.31 246.05 522.198 245.882 522.075C240.92 518.205 236.107 514.16 231.334 510.075C231.24 526.16 230.902 542.191 229.797 558.262C245.652 549.66 261.265 540.734 276.46 531.014C276.864 524.043 277.404 517.086 277.943 510.143C268.721 514.547 259.454 518.857 250.142 523.072C249.69 523.284 249.198 523.394 248.699 523.396Z" fill="#EBA36D"/>
<path d="M284.685 486.211C284.313 486.729 283.797 487.128 283.202 487.357L279.562 488.8C264.933 494.597 250.075 499.855 235.069 504.399L238.534 507.365C242.053 510.358 245.667 513.23 249.32 516.115C259.208 511.666 268.991 507.082 278.672 502.363L285.507 499.02C289.552 497.033 293.597 495.033 297.642 493.02L286.438 487.074L284.685 486.211Z" fill="#EBA36D"/>
<path d="M1400.6 468.293L1401.01 467.942L1401.39 467.538C1401.51 467.39 1401.63 467.228 1401.74 467.066C1401.84 466.918 1401.94 466.765 1402.03 466.608C1402.2 466.271 1402.34 465.924 1402.47 465.569C1402.57 465.259 1402.63 464.882 1402.75 464.558C1402.75 464.356 1402.75 464.154 1402.75 463.965C1402.77 463.565 1402.77 463.165 1402.75 462.765C1402.75 462.59 1402.75 462.428 1402.65 462.253C1402.56 462.077 1402.45 461.525 1402.34 461.174C1402.31 461.114 1402.28 461.051 1402.25 460.985L1402.06 460.635C1401.97 460.46 1401.85 460.298 1401.74 460.136C1401.74 460.109 1401.74 460.082 1401.74 460.055C1401.47 459.785 1401.21 459.529 1400.93 459.273L1400.81 459.192L1400.39 458.936C1400.04 458.734 1399.54 458.612 1399.19 458.397L1398.78 458.289C1398.39 458.195 1397.98 458.128 1397.57 458.087H1397.25C1396.8 458.106 1396.35 458.155 1395.9 458.235L1395.51 458.329H1395.37C1394.98 458.464 1394.62 458.639 1394.25 458.801C1394.01 458.977 1393.77 459.138 1393.53 459.341C1393.32 459.501 1393.11 459.649 1392.89 459.785C1392.45 460.379 1392.1 461.033 1391.84 461.727C1391.57 462.49 1391.46 463.299 1391.51 464.107C1391.55 464.914 1391.76 465.705 1392.11 466.432V466.527L1392.19 466.621C1392.29 466.77 1392.4 466.914 1392.52 467.053C1392.74 467.34 1392.99 467.606 1393.27 467.848L1393.39 467.942L1393.89 468.279C1394.15 468.441 1394.42 468.576 1394.69 468.711L1395.21 468.94L1395.59 469.048C1395.97 469.154 1396.35 469.24 1396.74 469.304C1397.21 469.21 1397.19 469.304 1396.96 469.304H1397.17C1397.53 469.331 1397.9 469.331 1398.26 469.304L1398.64 469.237C1399.19 468.716 1399.91 468.402 1400.67 468.347L1400.6 468.293Z" fill="#FAD667"/>
<path d="M690.697 629.126C764.568 644.793 841.081 641.975 915.181 629.476C982.513 618.07 1047.69 599.06 1112.13 577.731C1109.55 576.45 1106.93 575.182 1104.31 573.928C1067.28 556.324 1028.82 541.891 989.348 530.784C949.692 519.622 909.184 511.744 868.235 507.23C827.287 502.702 786.038 501.512 744.897 503.671C703.475 505.831 662.306 511.436 621.815 520.43C583.695 528.938 546.318 540.489 510.045 554.972L514.926 557.669C570.487 588.503 628.206 615.819 690.697 629.126Z" fill="#B6D991"/>
<path d="M1411.59 562.077C1406.34 555.438 1400.4 549.369 1393.88 543.97C1391.06 541.638 1388.13 539.44 1385.13 537.364C1383.55 536.272 1381.96 535.207 1380.31 534.209C1379.03 533.268 1377.52 532.695 1375.93 532.551C1372.98 532.685 1374.7 536.986 1375.43 538.389C1377.3 541.752 1379.41 544.974 1381.76 548.029C1386.48 554.499 1391.84 560.48 1397.76 565.879C1398.45 566.432 1398.91 567.231 1399.03 568.109C1399.15 568.988 1398.93 569.879 1398.41 570.598C1398.24 570.798 1398.06 570.979 1397.85 571.138C1397.74 571.565 1397.55 571.966 1397.28 572.315C1397.01 572.663 1396.67 572.953 1396.28 573.165C1395.9 573.378 1395.47 573.508 1395.03 573.549C1394.59 573.59 1394.15 573.54 1393.73 573.403C1385.12 569.914 1376.15 567.387 1366.98 565.866C1360.47 564.814 1353.36 563.749 1346.75 564.828C1343.89 565.2 1341.16 566.269 1338.8 567.942C1338.18 568.377 1337.63 568.899 1337.16 569.493C1336.9 569.857 1336.82 570.153 1336.8 570.113C1337.07 570.828 1338.99 571.38 1339.62 571.663C1353.52 577.728 1368.35 581.376 1383.47 582.449C1387.76 582.773 1386.96 589.191 1382.82 589.191C1382.21 589.577 1381.52 589.805 1380.8 589.851C1370.72 590.549 1360.93 593.493 1352.13 598.467C1348.41 600.597 1344.04 603.145 1341.35 606.556C1340.34 607.904 1339.46 609.536 1340.46 611.1C1341.39 612.332 1342.74 613.169 1344.26 613.446C1346.83 613.875 1349.44 613.988 1352.04 613.783L1360.04 613.635L1376.03 613.351C1397.95 612.956 1419.87 612.587 1441.78 612.246C1449.68 609.859 1457.51 607.365 1465.21 604.413C1471.93 601.851 1478.54 599.033 1485.04 595.959C1486.74 595.163 1488.46 594.341 1490.13 593.478C1491.11 593.066 1492 592.455 1492.74 591.685C1493.07 591.294 1492.74 591.173 1492.82 591.456C1492.91 591.739 1492.41 591.051 1492.27 590.97C1491.42 590.454 1490.47 590.106 1489.48 589.946C1477.09 587.519 1464.25 589.772 1453.43 596.269C1450.17 598.197 1446.44 593.573 1449.38 590.984C1456.13 584.944 1462.63 578.629 1468.88 572.041C1474.42 566.19 1479.71 560.122 1484.78 553.84C1486.07 552.231 1487.35 550.613 1488.6 548.986L1488.7 548.851C1487.59 549.04 1486.46 549.161 1485.4 549.404C1483.89 549.741 1482.39 550.132 1480.91 550.604C1467.33 554.875 1455.51 563.427 1447.2 574.98C1446.97 575.32 1446.68 575.612 1446.34 575.838C1446 576.064 1445.62 576.22 1445.22 576.297C1444.82 576.374 1444.41 576.369 1444.01 576.284C1443.61 576.2 1443.23 576.036 1442.9 575.803C1442.41 575.871 1441.9 575.824 1441.43 575.664C1440.96 575.505 1440.54 575.238 1440.19 574.884C1439.84 574.531 1439.57 574.101 1439.42 573.628C1439.27 573.156 1439.22 572.654 1439.3 572.162C1440.8 561.722 1441.57 551.188 1441.6 540.64C1441.6 536.043 1441.47 531.432 1441.19 526.834C1441.03 522.455 1440.63 518.089 1439.97 513.756C1439.79 512.523 1439.33 511.347 1438.62 510.318C1438.58 510.244 1438.51 510.186 1438.43 510.154C1438.35 510.123 1438.26 510.119 1438.18 510.143C1437.84 510.243 1437.54 510.419 1437.28 510.655C1435.81 512.06 1434.61 513.718 1433.73 515.549C1432.79 517.158 1431.95 518.819 1431.2 520.524C1423.35 538.24 1425.44 557.992 1428.73 576.517C1429.42 580.4 1424.05 581.452 1422.43 578.472C1420.98 576.517 1419.92 574.104 1418.6 572.041C1416.44 568.603 1414.1 565.278 1411.59 562.077Z" fill="#C6CE66"/>
<path d="M1118.11 580.697L1112.13 577.731C1047.69 599.06 982.513 618.07 915.181 629.423C841.028 641.921 764.568 644.739 690.697 629.072C628.206 615.819 570.487 588.503 514.926 557.695L510.045 554.999C507.713 555.929 505.394 556.86 503.075 557.817C502.648 557.995 502.189 558.082 501.727 558.073C551.828 586.238 603.452 612.556 658.96 628.182C726.157 647.139 796.738 650.132 865.93 642.905C1011.49 627.778 1147.27 571.151 1284.98 525.742C1314.2 516.102 1343.98 506.799 1374.15 498.426C1373 497.116 1372.08 495.61 1371.46 493.977C1371.28 493.486 1371.15 492.981 1371.07 492.467C1361.33 495.164 1351.65 497.932 1342.02 500.772C1338.63 501.783 1335.28 502.795 1331.83 503.833C1331.8 504.501 1331.74 505.167 1331.64 505.828C1331.41 506.688 1330.84 507.421 1330.07 507.87C1329.3 508.319 1328.38 508.447 1327.52 508.228C1326.95 508.08 1326.44 507.782 1326.03 507.367C1325.63 506.952 1325.34 506.434 1325.2 505.869C1272.91 521.94 1221.29 540.317 1169.54 558.235C1169.49 559.133 1169.49 560.033 1169.54 560.931C1169.51 561.743 1169.18 562.514 1168.62 563.105C1168.07 563.696 1167.32 564.067 1166.51 564.15C1165.7 564.233 1164.89 564.024 1164.23 563.559C1163.56 563.094 1163.08 562.406 1162.88 561.619C1162.88 561.268 1162.88 560.918 1162.88 560.567C1149 565.358 1135.1 570.09 1121.19 574.764L1121.88 575.101C1125.72 577.043 1121.94 582.625 1118.11 580.697Z" fill="#23201E"/>
<path d="M146.678 428.816C275.058 419.756 384.954 491.685 491.83 552.41C494.374 553.867 496.931 555.314 499.502 556.752C499.187 556.324 498.973 555.831 498.875 555.308C498.778 554.786 498.801 554.249 498.941 553.736C499.081 553.224 499.335 552.75 499.684 552.35C500.034 551.95 500.469 551.634 500.958 551.426L502.603 550.752C402.63 494.301 301.875 426.322 183.782 421.495C50.8846 416.102 -69.2177 491.415 -167.222 573.713C-173.514 579.025 -179.806 584.418 -186.098 589.892V598.844C-92.165 516.426 18.7827 437.836 146.678 428.816Z" fill="#23201E"/>
<path d="M1406.24 489.946C1411.32 488.67 1416.42 487.429 1421.54 486.225C1418.51 485.542 1415.57 484.529 1412.75 483.205L1410.62 482.207L1404.84 483.636C1405.31 485.739 1405.77 487.843 1406.24 489.946Z" fill="#23201E"/>
<path d="M1435.98 482.908C1483.51 472.338 1531.71 465.044 1579.94 463.305C1579.94 461.242 1579.94 459.165 1579.94 457.103C1533.03 458.815 1486.09 465.637 1439.83 475.547C1439.52 478.398 1438.15 481.028 1435.98 482.908Z" fill="#23201E"/>
<path d="M1398.33 485.254L1396.98 485.591C1396.08 488.154 1395.04 490.665 1393.86 493.114L1399.73 491.604C1399.26 489.488 1398.8 487.371 1398.38 485.254H1398.33Z" fill="#23201E"/>
<path d="M501.78 558.06L499.447 556.711C499.693 557.113 500.035 557.447 500.442 557.682C500.849 557.918 501.309 558.048 501.78 558.06Z" fill="#23201E"/>
<path d="M510.046 554.972C546.319 540.475 583.695 528.91 621.816 520.389C662.307 511.396 703.477 505.79 744.898 503.631C786.039 501.471 827.288 502.662 868.236 507.19C909.185 511.69 949.693 519.554 989.35 530.704C1028.82 541.81 1067.28 556.243 1104.32 573.848C1106.93 575.102 1109.55 576.369 1112.14 577.65L1121.14 574.67C1084.32 556.121 1045.98 540.745 1006.54 528.708C966.636 516.568 925.791 507.765 884.429 502.39C801.469 491.49 717.282 494.295 635.231 510.696C594.724 518.735 554.99 530.274 516.477 545.184C511.804 546.981 507.143 548.838 502.496 550.752L510.006 554.986L510.046 554.972Z" fill="#23201E"/>
<path d="M1112.15 577.731L1118.12 580.697C1121.95 582.625 1125.74 577.043 1121.86 575.088L1121.17 574.751L1112.15 577.731Z" fill="#23201E"/>
<path d="M499.434 556.752L501.767 558.1C502.229 558.109 502.688 558.022 503.115 557.844C505.434 556.887 507.753 555.956 510.085 555.026L502.576 550.792L500.931 551.467C500.445 551.672 500.011 551.983 499.662 552.379C499.313 552.774 499.057 553.242 498.913 553.75C498.77 554.257 498.742 554.79 498.832 555.31C498.922 555.83 499.128 556.322 499.434 556.752Z" fill="#23201E"/>
<path d="M8.92777 650.698C8.2199 650.456 7.45148 650.456 6.74361 650.698C-13.6325 657.549 -35.2395 659.958 -56.6242 657.763C-56.2311 657.882 -55.8654 658.078 -55.5484 658.34C-55.2314 658.601 -54.9693 658.923 -54.7771 659.286C-54.3573 660.073 -54.2634 660.993 -54.5156 661.848C-54.7679 662.703 -55.346 663.424 -56.1254 663.857L-57.4736 664.45C-35.3299 666.732 -12.9538 664.306 8.18624 657.331C7.93007 657.196 7.66042 657.075 7.40425 656.927C4.47855 655.376 6.25824 650.927 8.92777 650.698Z" fill="#23201E"/>
<path d="M145.317 616.681C138.881 614.327 132.154 612.862 125.322 612.327C119.796 615.342 113.905 617.635 107.795 619.149C107.159 619.329 106.482 619.31 105.858 619.093C105.233 618.876 104.69 618.472 104.303 617.935C104.54 618.608 105.015 619.17 105.639 619.515C106.263 619.861 106.991 619.965 107.687 619.809C117.56 618.124 127.681 618.607 137.349 621.225C142.312 622.558 147.107 624.454 151.64 626.874C155.601 628.798 159.059 631.618 161.739 635.112C162.899 636.639 163.554 638.489 163.612 640.406C163.67 642.323 163.128 644.21 162.062 645.804C159.824 649.08 155.955 651.102 152.382 652.545C142.722 656.248 132.458 658.123 122.113 658.073C110.098 658.186 98.1708 656.018 86.9645 651.682C82.9198 650.132 80.803 656.522 84.8478 658.086C86.0882 658.572 89.7419 659.677 89.4723 661.605C89.297 662.873 85.7781 663.115 84.7804 663.277C79.1358 664.194 73.4298 664.68 67.7115 664.733C55.9033 664.863 44.1394 663.269 32.7918 660.001C25.0468 657.689 17.5356 654.655 10.3569 650.941C9.90169 650.715 9.39373 650.617 8.88727 650.657C11.5838 651.574 12.5141 655.821 9.19736 656.94L8.0918 657.304C27.3871 667.3 48.9334 672.152 70.6507 671.394C74.291 671.259 77.9312 670.962 81.5446 670.517C84.8389 670.312 88.0905 669.663 91.2115 668.589C92.6177 668.044 93.8358 667.103 94.7187 665.881C95.6016 664.658 96.1114 663.206 96.1866 661.7C115.156 666.526 135.839 665.933 154.161 659.084C163.249 655.673 172.43 648.19 170.084 637.377C167.657 626.429 154.862 620.187 145.317 616.681Z" fill="#23201E"/>
<path d="M8.9268 650.698C6.2303 650.941 4.47757 655.39 7.34935 656.94C7.60551 657.089 7.87516 657.21 8.13133 657.345L9.2369 656.981C12.5536 655.848 11.5694 651.601 8.9268 650.698Z" fill="#23201E"/>
<path d="M61.6572 567.511C63.3948 567.187 65.0554 566.538 66.5514 565.596C73.2926 562.145 81.9754 558.531 89.2829 562.711C90.9741 563.676 92.3577 565.099 93.2739 566.817C94.1901 568.535 94.6014 570.477 94.4602 572.418C94.2984 577.164 91.7637 581.371 88.9324 585.038C88.5374 585.613 88.3239 586.294 88.3194 586.992C88.3149 587.689 88.5195 588.373 88.9069 588.953C89.2943 589.533 89.8468 589.984 90.4929 590.248C91.1391 590.511 91.8494 590.575 92.5322 590.431C90.3211 589.366 89.2964 585.995 92.0199 584.58C94.3793 583.353 96.7387 582.112 99.1117 580.926C101.66 574.926 102.28 568.32 98.5724 562.374C94.0827 555.201 84.6045 553.071 76.7576 554.568C73.1394 555.332 69.6297 556.541 66.3087 558.167C65.6555 561.354 64.2708 564.345 62.2639 566.904C62.0983 567.14 61.893 567.345 61.6572 567.511Z" fill="#23201E"/>
<path d="M45.343 545.683C45.563 545.002 45.6856 544.294 45.7071 543.579C45.3734 544.227 45.2463 544.961 45.343 545.683Z" fill="#23201E"/>
<path d="M51.7881 547.449H51.9903C52.2125 547.406 52.4381 547.383 52.6645 547.381H53.4734C53.8914 547.462 54.3093 547.53 54.7273 547.651C56.2391 548.099 57.5672 549.021 58.5159 550.28C61.1045 553.812 59.8641 559.071 57.4103 562.333C56.8147 562.993 56.4952 563.856 56.5178 564.744C56.5404 565.632 56.9033 566.478 57.5316 567.106C58.0903 567.595 58.786 567.9 59.5242 567.98C60.2624 568.06 61.0072 567.91 61.6573 567.551C60.9964 567.619 60.3336 567.441 59.7962 567.05C59.2587 566.659 58.8844 566.084 58.7451 565.434C57.4912 562.064 61.4416 560.689 63.7336 559.516L66.3088 558.248C66.7904 556.164 66.8157 554.001 66.3828 551.907C65.95 549.812 65.0692 547.836 63.801 546.114C62.4324 544.342 60.6563 542.926 58.6236 541.987C56.5909 541.049 54.3616 540.614 52.1251 540.721C52.5108 542.961 52.3956 545.259 51.7881 547.449Z" fill="#23201E"/>
<path d="M58.7444 565.394C58.8837 566.044 59.258 566.619 59.7955 567.01C60.3329 567.4 60.9957 567.579 61.6566 567.511C61.8987 567.36 62.113 567.168 62.2903 566.945C64.2971 564.385 65.6818 561.394 66.335 558.208L63.7599 559.475C61.4139 560.648 57.4905 562.023 58.7444 565.394Z" fill="#23201E"/>
<path d="M46.4481 550.927C47.2365 551.348 48.1585 551.442 49.0157 551.19C49.8729 550.938 50.5969 550.359 51.0322 549.579C51.3315 548.882 51.5838 548.166 51.7872 547.435H51.6254L51.2883 547.543C50.9937 547.658 50.7095 547.798 50.4389 547.961C49.6753 548.411 48.7676 548.55 47.9042 548.35C47.0407 548.149 46.2876 547.623 45.801 546.882C45.5643 546.515 45.4081 546.101 45.3426 545.669C45.2805 545.894 45.204 546.115 45.1133 546.33C44.7015 547.121 44.6105 548.04 44.8591 548.896C45.1077 549.752 45.6768 550.48 46.4481 550.927Z" fill="#23201E"/>
<path d="M-20.3305 569.196C-20.1211 568.528 -20.0886 567.817 -20.2361 567.133C-22.8247 554.19 -17.4317 540.276 -7.48164 531.796C3.03472 522.816 18.9441 521.32 31.375 526.996C34.8419 528.504 38.0039 530.633 40.7049 533.279C43.2396 535.894 45.8282 539.737 45.7069 543.579C45.9715 543.026 46.3876 542.558 46.9068 542.231C48.4954 541.297 50.2844 540.756 52.1246 540.654C51.0864 534.613 46.7316 529.072 41.8374 525.378C34.6639 520.127 26.0644 517.179 17.1779 516.924C8.58658 516.581 0.0873623 518.801 -7.23896 523.302C-14.2384 527.78 -19.8066 534.172 -23.2832 541.719C-26.32 548.219 -27.7489 555.354 -27.4493 562.522C-25.4042 563.804 -23.445 565.218 -21.5844 566.756C-21.21 567.046 -20.9038 567.416 -20.6872 567.837C-20.4706 568.259 -20.3489 568.723 -20.3305 569.196Z" fill="#23201E"/>
<path d="M45.7078 543.579C45.6863 544.294 45.5637 545.002 45.3438 545.682C45.4093 546.115 45.5655 546.528 45.8022 546.896C46.2846 547.641 47.0358 548.172 47.8996 548.378C48.7634 548.584 49.6733 548.449 50.4401 548.001C50.7107 547.838 50.9949 547.698 51.2895 547.583L51.6266 547.476H51.7884C52.398 545.281 52.5131 542.979 52.1255 540.734C50.2853 540.837 48.4963 541.377 46.9077 542.312C46.3996 542.617 45.9847 543.055 45.7078 543.579Z" fill="#23201E"/>
<path d="M92.5322 590.471C93.0086 590.703 93.5349 590.813 94.0643 590.792C94.5936 590.771 95.1095 590.619 95.5658 590.35C106.487 584.337 119.403 577.609 132.292 579.847C136.337 580.562 142.418 583.164 141.258 588.328C140.422 590.987 138.89 593.375 136.822 595.244C134.842 597.292 132.72 599.198 130.472 600.947C123.239 606.62 114.849 610.633 105.893 612.704C103.197 613.311 103.035 616.196 104.356 617.935C104.144 617.456 104.043 616.935 104.061 616.411C104.08 615.887 104.216 615.373 104.462 614.91C104.707 614.447 105.055 614.045 105.478 613.735C105.901 613.426 106.389 613.216 106.905 613.122C112.988 612.103 119.173 611.836 125.322 612.327C126.778 611.531 128.207 610.682 129.609 609.765C135.959 605.639 142.997 600.246 146.503 593.357C147.397 591.739 147.931 589.947 148.066 588.104C148.201 586.26 147.934 584.409 147.285 582.679C145.798 579.407 143.179 576.783 139.91 575.29C133.169 571.906 124.877 572.243 117.745 573.807C111.257 575.4 104.997 577.805 99.1117 580.966C97.8151 583.946 96.1481 586.75 94.1501 589.312C93.7461 589.859 93.18 590.265 92.5322 590.471Z" fill="#23201E"/>
<path d="M106.905 613.122C106.389 613.216 105.901 613.426 105.478 613.735C105.055 614.045 104.708 614.447 104.462 614.91C104.217 615.374 104.08 615.887 104.062 616.411C104.043 616.935 104.144 617.456 104.357 617.936C104.744 618.472 105.287 618.876 105.911 619.093C106.536 619.31 107.213 619.329 107.849 619.149C113.959 617.635 119.85 615.342 125.376 612.327C119.21 611.831 113.006 612.099 106.905 613.122Z" fill="#23201E"/>
<path d="M92.5322 590.471C93.18 590.265 93.7461 589.859 94.1501 589.312C96.1481 586.75 97.815 583.946 99.1117 580.966C96.7388 582.153 94.3793 583.393 92.0199 584.62C89.2964 585.982 90.3211 589.406 92.5322 590.471Z" fill="#23201E"/>
<path d="M306.501 490.162L288.016 480.346C287.866 479.811 287.574 479.327 287.17 478.944C286.766 478.562 286.267 478.297 285.724 478.176C269.012 473.721 251.883 471.01 234.612 470.086C234.197 469.76 233.72 469.521 233.211 469.384C232.701 469.247 232.168 469.216 231.646 469.291C223.323 470.144 214.945 470.311 206.595 469.79C205.967 469.495 205.254 469.437 204.586 469.628L204.384 469.695C203.852 469.713 203.334 469.876 202.888 470.167C181.933 476.631 161.623 485.021 142.216 495.231C138.873 497.011 140.733 501.811 143.821 501.662C144.06 502.132 144.422 502.528 144.868 502.808C145.314 503.088 145.828 503.242 146.355 503.253C150.104 503.118 153.852 502.916 157.586 502.606C154.668 505.601 151.913 508.751 149.335 512.044C149.104 512.331 148.942 512.668 148.863 513.028C148.605 513.333 148.408 513.686 148.283 514.066C148 514.912 148.062 515.836 148.456 516.636C148.85 517.436 149.544 518.049 150.387 518.34C154.683 519.284 158.997 520.183 163.33 521.037C162.907 531.508 162.489 541.993 162.076 552.491C162.033 553.061 162.147 553.631 162.406 554.14C162.666 554.649 163.06 555.077 163.546 555.377C163.733 556.036 164.106 556.628 164.62 557.082C165.134 557.536 165.767 557.833 166.444 557.938C185.724 561.349 205.031 564.275 224.527 566.122C224.818 566.156 225.112 566.156 225.403 566.122C225.843 566.503 226.381 566.752 226.956 566.84C227.531 566.928 228.119 566.852 228.653 566.621C246.954 557.218 264.753 546.867 281.976 535.611C282.501 535.224 282.898 534.688 283.115 534.073C283.331 533.457 283.357 532.79 283.189 532.16C283.918 524.893 284.241 517.545 284.767 510.264C284.848 509.132 284.915 508.013 284.996 506.88C292.259 503.348 299.485 499.752 306.676 496.094C307.195 495.784 307.623 495.341 307.914 494.81C308.204 494.28 308.348 493.681 308.331 493.076C308.313 492.472 308.134 491.883 307.812 491.37C307.49 490.858 307.038 490.441 306.501 490.162ZM155.672 495.932C171.636 488.104 188.212 481.589 205.234 476.45C207.472 476.639 209.719 476.76 211.975 476.814C196.61 481.829 181.509 487.616 166.727 494.153C166.295 494.342 165.905 494.617 165.581 494.961C162.251 495.339 158.975 495.649 155.672 495.932ZM163.532 514.134C161.456 513.729 159.393 513.311 157.317 512.88C158.463 511.531 159.609 510.183 160.822 508.835C161.82 507.77 162.845 506.718 163.883 505.694C165.366 504.21 166.903 502.768 168.467 501.393L169.815 501.217H169.963H170.867C179.913 501.878 188.96 502.93 197.993 503.739C205.804 504.431 213.615 505.141 221.426 505.869C217.584 510.763 213.754 515.671 209.656 520.363C209.332 520.727 208.955 521.104 208.577 521.509C207.013 521.212 205.314 521.145 203.737 520.929C195.135 519.715 186.56 518.367 178.012 516.884C175.437 516.426 172.875 515.954 170.3 515.468C168.008 515.023 165.77 514.525 163.532 514.134ZM223.003 559.125C204.87 557.359 186.601 555.08 168.79 551.48C169.186 541.728 169.581 531.98 169.977 522.237C179.199 523.944 188.452 525.486 197.737 526.861L203.252 527.67C204.479 527.832 206.083 528.277 207.579 528.398C208.105 528.742 208.716 528.934 209.344 528.953C209.972 528.972 210.593 528.818 211.139 528.506C212.075 527.794 212.902 526.949 213.593 525.998C216.208 522.987 218.779 519.94 221.305 516.857C222.451 515.509 223.597 514.039 224.716 512.61C224.837 528.128 224.136 543.674 223.003 559.125ZM227.331 499.694H227.25C211.746 498.278 196.241 496.997 180.668 495.555C198.398 488.227 216.546 481.956 235.016 476.774C248.991 477.55 262.869 479.563 276.489 482.787C260.31 489.083 243.915 494.57 227.331 499.694ZM276.489 531.014C261.294 540.735 245.681 549.66 229.826 558.262C230.931 542.191 231.268 526.16 231.363 510.075C236.135 514.12 240.949 518.165 245.91 522.075C246.078 522.198 246.254 522.311 246.436 522.412C246.734 522.719 247.09 522.965 247.483 523.134C247.877 523.303 248.3 523.392 248.728 523.396C249.227 523.395 249.719 523.284 250.171 523.073C259.483 518.857 268.75 514.547 277.972 510.143C277.405 517.086 276.866 524.043 276.489 531.014ZM285.441 499.02L278.578 502.39C268.844 507.1 259.06 511.684 249.227 516.143C245.614 513.257 242 510.385 238.441 507.392L234.976 504.426C250.036 499.883 264.894 494.624 279.468 488.827L283.109 487.384C283.704 487.155 284.219 486.757 284.592 486.238L286.223 487.101L297.427 493.047C293.463 495.051 289.459 497.042 285.414 499.02H285.441Z" fill="#23201E"/>
<path d="M1169.57 558.235C1169.62 556.862 1169.85 555.501 1170.26 554.19C1170.45 553.597 1170.68 553.017 1170.92 552.451C1171.08 552.036 1171.27 551.635 1171.5 551.251C1171.78 550.765 1172.08 550.294 1172.39 549.822C1172.56 549.566 1172.75 549.323 1172.94 549.067L1173.36 548.527C1174.84 546.819 1176.67 545.452 1178.73 544.521C1180.78 543.59 1183.02 543.117 1185.28 543.134C1186.54 543.2 1187.79 543.335 1189.04 543.539C1189.42 543.579 1189.8 543.556 1190.17 543.471C1189.93 543.429 1189.69 543.366 1189.46 543.283C1187.29 542.42 1186.6 539.157 1186.27 537.094C1186.27 536.865 1186.27 536.649 1186.19 536.42C1184.84 536.376 1183.49 536.448 1182.15 536.636C1176.5 537.428 1171.36 540.341 1167.78 544.783C1164.2 549.226 1162.44 554.864 1162.87 560.554L1169.61 558.248L1169.57 558.235Z" fill="#23201E"/>
<path d="M1166.56 564.14C1167.38 564.065 1168.13 563.694 1168.69 563.098C1169.25 562.502 1169.57 561.721 1169.6 560.904C1169.54 560.006 1169.54 559.106 1169.6 558.208L1162.86 560.513C1162.86 560.864 1162.86 561.215 1162.86 561.565C1163.04 562.381 1163.52 563.1 1164.21 563.577C1164.89 564.054 1165.73 564.255 1166.56 564.14Z" fill="#23201E"/>
<path d="M1191.52 537.526C1192.01 537.926 1192.38 538.454 1192.58 539.052C1192.79 539.65 1192.82 540.293 1192.68 540.909C1192.54 541.526 1192.23 542.091 1191.79 542.541C1191.35 542.991 1190.79 543.309 1190.17 543.458C1190.7 543.564 1191.24 543.54 1191.76 543.387C1192.27 543.234 1192.74 542.958 1193.12 542.582C1193.61 542.043 1193.93 541.368 1194.03 540.645C1194.13 539.923 1194.01 539.188 1193.68 538.537C1192.33 534.735 1192.44 530.771 1195.23 527.603C1196.31 526.41 1197.65 525.485 1199.14 524.9C1200.64 524.315 1202.26 524.086 1203.86 524.232C1204.37 524.261 1204.89 524.172 1205.37 523.972C1205.85 523.771 1206.28 523.465 1206.62 523.075C1206.96 522.686 1207.21 522.223 1207.35 521.723C1207.49 521.223 1207.51 520.697 1207.42 520.187C1206.77 515.039 1207.4 509.811 1209.23 504.959C1211.07 500.106 1214.07 495.776 1217.96 492.346C1226.18 484.957 1237.99 483.407 1248.23 487.128C1253.86 489.111 1258.79 492.713 1262.38 497.483C1262.52 497.658 1262.66 497.825 1262.82 497.982C1262.54 496.902 1262.57 495.767 1262.91 494.705C1263.34 493.065 1263.96 491.481 1264.76 489.986C1260.66 485.878 1255.71 482.732 1250.25 480.776C1244.79 478.819 1238.96 478.101 1233.19 478.675C1220.44 479.888 1209.44 488.557 1204.1 500.031C1201.51 505.53 1200.28 511.567 1200.5 517.639C1197.77 518.024 1195.17 519.074 1192.94 520.696C1190.7 522.318 1188.9 524.462 1187.69 526.942C1186.33 529.89 1185.83 533.16 1186.23 536.38H1186.56C1188.12 536.488 1190.27 536.542 1191.52 537.526Z" fill="#23201E"/>
<path d="M1189.46 543.269C1189.69 543.353 1189.93 543.416 1190.17 543.458C1190.79 543.309 1191.35 542.991 1191.79 542.541C1192.23 542.091 1192.54 541.526 1192.68 540.909C1192.82 540.293 1192.79 539.65 1192.58 539.052C1192.38 538.454 1192.01 537.926 1191.52 537.526C1190.27 536.541 1188.12 536.488 1186.58 536.42H1186.19C1186.19 536.649 1186.19 536.865 1186.27 537.094C1186.56 539.144 1187.29 542.406 1189.46 543.269Z" fill="#23201E"/>
<path d="M1268.09 493.923C1268.48 494.627 1268.61 495.45 1268.44 496.24C1268.28 497.03 1267.84 497.735 1267.2 498.226C1266.56 498.717 1265.76 498.962 1264.96 498.914C1264.15 498.867 1263.39 498.531 1262.81 497.968C1263.04 498.611 1263.48 499.158 1264.05 499.519C1264.55 499.833 1265.11 500.015 1265.69 500.049C1266.28 500.083 1266.86 499.966 1267.38 499.71C1267.91 499.454 1268.36 499.068 1268.69 498.589C1269.03 498.109 1269.23 497.552 1269.29 496.97C1269.93 493.694 1271.61 490.712 1274.08 488.463C1276.55 486.214 1279.68 484.818 1283 484.479C1286.32 484.141 1289.66 484.879 1292.54 486.584C1295.41 488.289 1297.65 490.871 1298.95 493.95C1299.82 496.121 1302.91 497.348 1304.64 495.218C1306.24 493.227 1308.43 491.802 1310.91 491.152C1313.38 490.501 1315.99 490.66 1318.36 491.604C1320.7 492.676 1322.63 494.485 1323.85 496.753C1325.06 499.022 1325.51 501.627 1325.1 504.17C1325 504.757 1325.03 505.361 1325.18 505.936L1331.82 503.9C1332.21 500.397 1331.56 496.856 1329.96 493.716C1328.36 490.576 1325.87 487.975 1322.81 486.236C1319.74 484.496 1316.23 483.694 1312.71 483.93C1309.2 484.165 1305.83 485.427 1303.02 487.56C1300.38 483.692 1296.61 480.74 1292.23 479.112C1287.84 477.484 1283.05 477.26 1278.54 478.472C1273.8 479.908 1269.64 482.824 1266.68 486.791C1265.95 487.8 1265.31 488.869 1264.76 489.986C1265.96 491.219 1267.07 492.534 1268.09 493.923Z" fill="#23201E"/>
<path d="M1327.54 508.228C1328.41 508.447 1329.32 508.319 1330.1 507.87C1330.87 507.421 1331.43 506.688 1331.67 505.828C1331.77 505.167 1331.83 504.501 1331.86 503.833L1325.22 505.869C1325.36 506.434 1325.65 506.952 1326.06 507.367C1326.47 507.783 1326.98 508.08 1327.54 508.228Z" fill="#23201E"/>
<path d="M1262.82 498.022C1263.39 498.585 1264.16 498.921 1264.96 498.968C1265.77 499.016 1266.56 498.771 1267.2 498.28C1267.84 497.789 1268.28 497.084 1268.45 496.294C1268.61 495.504 1268.48 494.681 1268.09 493.977C1267.06 492.587 1265.93 491.271 1264.72 490.04C1263.93 491.55 1263.32 493.147 1262.91 494.8C1262.58 495.844 1262.55 496.96 1262.82 498.022Z" fill="#23201E"/>
<path d="M1397.86 571.151C1398.06 570.992 1398.24 570.812 1398.41 570.612C1398.93 569.893 1399.15 569.002 1399.03 568.123C1398.91 567.244 1398.45 566.446 1397.76 565.893C1391.84 560.493 1386.48 554.513 1381.76 548.042C1379.42 544.988 1377.3 541.766 1375.43 538.402C1374.71 537.054 1372.98 532.699 1375.93 532.564C1377.52 532.708 1379.03 533.282 1380.31 534.223C1381.96 535.22 1383.55 536.285 1385.13 537.377C1388.13 539.454 1391.06 541.651 1393.88 543.984C1403.53 551.971 1411.88 561.409 1418.63 571.96C1419.98 574.023 1421.01 576.436 1422.46 578.391C1422.28 578.059 1422.15 577.699 1422.08 577.326C1421.54 574.468 1421.06 571.596 1420.64 568.711C1420.22 568.91 1419.75 569.011 1419.29 569.004C1418.82 568.998 1418.36 568.886 1417.94 568.675C1417.52 568.465 1417.16 568.162 1416.87 567.79C1416.59 567.418 1416.39 566.986 1416.3 566.527C1415.4 562.311 1414.47 558.091 1413.5 553.867L1413.29 553.61C1407.52 546.958 1401.09 540.905 1394.09 535.544C1390.97 533.135 1387.73 530.885 1384.39 528.803C1380.83 526.632 1376.3 524.583 1372.25 526.618C1368.21 528.654 1366.86 533.252 1367.91 537.337C1368.96 541.678 1371.96 545.602 1374.42 549.229C1377.81 554.154 1381.56 558.823 1385.64 563.197C1389.35 564.319 1392.98 565.67 1396.52 567.241C1396.87 567.408 1397.18 567.642 1397.43 567.93C1397.69 568.217 1397.88 568.553 1398.01 568.917C1398.13 569.281 1398.18 569.666 1398.16 570.049C1398.13 570.433 1398.03 570.807 1397.86 571.151Z" fill="#23201E"/>
<path d="M1384.33 586.508C1384.32 587.026 1384.17 587.532 1383.91 587.981C1383.65 588.43 1383.29 588.809 1382.85 589.083C1386.99 589.15 1387.78 582.719 1383.5 582.342C1368.37 581.268 1353.55 577.62 1339.65 571.556C1339.02 571.273 1337.1 570.72 1336.83 570.005C1336.83 570.005 1336.93 569.749 1337.18 569.385C1337.65 568.791 1338.21 568.269 1338.83 567.835C1341.19 566.162 1343.92 565.092 1346.78 564.72C1353.36 563.642 1360.47 564.72 1367.01 565.758C1376.17 567.279 1385.14 569.806 1393.76 573.295C1394.18 573.432 1394.62 573.482 1395.06 573.441C1395.5 573.401 1395.92 573.27 1396.31 573.057C1396.7 572.845 1397.04 572.556 1397.31 572.207C1397.58 571.858 1397.77 571.457 1397.88 571.03C1397.3 571.523 1396.57 571.802 1395.81 571.821C1395.05 571.841 1394.31 571.6 1393.7 571.138C1390.9 568.576 1388.2 565.907 1385.61 563.129C1379.91 561.393 1374.1 560.041 1368.22 559.084C1360.24 557.736 1351.58 556.658 1343.59 558.451C1339.95 559.229 1336.56 560.902 1333.73 563.318C1330.51 566.122 1328.66 570.666 1331.76 574.306C1334.26 577.245 1338.72 578.472 1342.21 579.821C1346.26 581.384 1350.3 582.787 1354.48 583.987C1357.3 584.796 1360.17 585.51 1363.06 586.144C1368.9 584.265 1374.97 583.159 1381.1 582.854C1381.55 582.874 1382 582.986 1382.41 583.182C1382.82 583.378 1383.19 583.655 1383.49 583.996C1383.79 584.337 1384.02 584.735 1384.17 585.166C1384.31 585.598 1384.37 586.054 1384.33 586.508Z" fill="#23201E"/>
<path d="M1393.68 571.245C1394.28 571.708 1395.02 571.949 1395.78 571.929C1396.55 571.91 1397.28 571.63 1397.86 571.138C1398.18 570.448 1398.22 569.659 1397.97 568.94C1397.72 568.221 1397.19 567.63 1396.51 567.295C1392.97 565.724 1389.33 564.373 1385.63 563.25C1388.18 566.019 1390.86 568.684 1393.68 571.245Z" fill="#23201E"/>
<path d="M1441.88 612.151C1419.95 612.502 1398.03 612.871 1376.12 613.257L1360.13 613.54L1352.14 613.688C1349.54 613.894 1346.93 613.781 1344.36 613.351C1342.84 613.075 1341.48 612.237 1340.55 611.005C1339.56 609.441 1340.43 607.756 1341.44 606.462C1344.14 603.037 1348.44 600.489 1352.23 598.372C1361.02 593.398 1370.82 590.455 1380.89 589.757C1381.61 589.71 1382.31 589.483 1382.92 589.096H1382.74C1376.14 588.676 1369.57 587.743 1363.11 586.305C1358.36 587.806 1353.78 589.789 1349.44 592.224C1342.15 596.336 1328.35 605.019 1335.23 615.01C1338.3 619.499 1343.94 620.484 1349.01 620.403C1354.93 620.403 1360.86 620.214 1366.78 620.12L1402.67 619.513C1416.15 619.288 1429.61 619.045 1443.03 618.785C1443.49 618.781 1443.93 618.645 1444.3 618.394L1443.8 618.542C1440.03 619.526 1438.29 613.244 1441.88 612.151Z" fill="#23201E"/>
<path d="M1382.85 589.083C1383.29 588.808 1383.65 588.43 1383.91 587.981C1384.17 587.532 1384.32 587.026 1384.33 586.508C1384.36 585.613 1384.04 584.743 1383.43 584.087C1382.82 583.431 1381.98 583.041 1381.08 583.002C1374.95 583.307 1368.89 584.413 1363.04 586.292C1369.5 587.73 1376.07 588.663 1382.67 589.083H1382.85Z" fill="#23201E"/>
<path d="M1422.85 566.149C1424.7 568.967 1426.37 571.852 1428.14 574.737C1428.65 575.469 1428.85 576.374 1428.7 577.256C1428.55 578.137 1428.05 578.921 1427.32 579.436C1426.59 579.951 1425.68 580.154 1424.8 580.001C1423.92 579.848 1423.14 579.352 1422.62 578.62L1422.46 578.378C1424.08 581.357 1429.44 580.306 1428.76 576.423C1425.47 557.898 1423.36 538.146 1431.22 520.43C1431.97 518.725 1432.82 517.064 1433.76 515.455C1434.64 513.623 1435.84 511.965 1437.3 510.561C1437.56 510.324 1437.87 510.149 1438.21 510.048C1438.29 510.024 1438.38 510.028 1438.46 510.06C1438.54 510.092 1438.61 510.149 1438.65 510.224C1439.36 511.252 1439.82 512.428 1440 513.662C1440.65 517.994 1441.06 522.361 1441.21 526.74C1441.5 531.337 1441.63 535.948 1441.63 540.546C1441.6 551.094 1440.83 561.627 1439.33 572.068C1439.25 572.559 1439.29 573.061 1439.45 573.534C1439.6 574.006 1439.86 574.437 1440.21 574.79C1440.56 575.143 1440.99 575.41 1441.46 575.57C1441.93 575.729 1442.43 575.777 1442.93 575.708C1442.51 575.486 1442.15 575.177 1441.86 574.804C1441.58 574.43 1441.38 574 1441.27 573.542C1441.16 573.083 1441.16 572.608 1441.25 572.147C1441.34 571.686 1441.53 571.25 1441.81 570.868C1443.43 568.61 1445.18 566.449 1447.05 564.396C1447.87 556.558 1448.32 548.698 1448.4 540.815C1448.4 535.422 1448.23 529.998 1447.87 524.542C1447.56 519.783 1447.51 514.673 1446.08 510.075C1444.85 506.138 1441.58 502.687 1437.12 503.415C1432.65 504.143 1429.79 508.808 1427.68 512.529C1423.14 520.75 1420.36 529.821 1419.51 539.17C1419.21 542.083 1419.09 544.995 1419.05 547.921C1420.3 553.538 1421.55 559.161 1422.8 564.787C1422.91 565.233 1422.93 565.696 1422.85 566.149Z" fill="#23201E"/>
<path d="M1420.64 568.697C1421.07 571.583 1421.55 574.454 1422.09 577.313C1422.15 577.686 1422.28 578.045 1422.46 578.378L1422.62 578.62C1423.14 579.352 1423.92 579.848 1424.8 580.001C1425.69 580.154 1426.59 579.951 1427.32 579.436C1428.05 578.921 1428.55 578.137 1428.7 577.256C1428.86 576.375 1428.65 575.469 1428.14 574.738C1426.37 571.852 1424.7 568.967 1422.85 566.149C1422.74 566.732 1422.48 567.275 1422.09 567.723C1421.7 568.17 1421.2 568.507 1420.64 568.697Z" fill="#23201E"/>
<path d="M1445.81 614.983C1445.66 614.109 1445.18 613.328 1444.46 612.801C1443.75 612.274 1442.86 612.041 1441.98 612.151H1441.87C1438.29 613.243 1440.07 619.526 1443.74 618.569L1444.23 618.421C1444.78 618.044 1445.22 617.525 1445.5 616.92C1445.78 616.314 1445.88 615.645 1445.81 614.983Z" fill="#23201E"/>
<path d="M1412.08 547.435L1413.43 553.853C1415.64 556.388 1417.72 559.044 1419.71 561.767C1419.22 557.169 1418.98 552.546 1419.01 547.921C1415.28 531.041 1411.55 514.161 1407.81 497.28C1407.25 494.845 1406.7 492.4 1406.17 489.946L1399.66 491.604C1403.83 510.21 1407.97 528.821 1412.08 547.435Z" fill="#23201E"/>
<path d="M1399.88 475.735C1399.29 478.207 1398.61 480.648 1397.84 483.056L1398.33 485.254L1404.84 483.636C1404.44 481.789 1404.02 479.942 1403.61 478.095C1402.48 477.313 1401.36 476.504 1400.28 475.655L1399.88 475.735Z" fill="#23201E"/>
<path d="M1404.84 483.636L1398.33 485.254C1398.8 487.371 1399.26 489.487 1399.68 491.604L1406.19 489.946C1405.72 487.843 1405.26 485.739 1404.84 483.636Z" fill="#23201E"/>
<path d="M1420.64 568.697C1420.3 566.392 1420.01 564.073 1419.78 561.767C1417.78 559.071 1415.73 556.374 1413.5 553.853C1414.39 558.069 1415.33 562.289 1416.3 566.513C1416.39 566.972 1416.59 567.404 1416.87 567.776C1417.16 568.149 1417.52 568.451 1417.94 568.662C1418.36 568.872 1418.82 568.985 1419.29 568.991C1419.75 568.997 1420.22 568.897 1420.64 568.697Z" fill="#23201E"/>
<path d="M1419.81 561.713C1420.24 562.293 1420.68 562.859 1421.15 563.453C1421.77 564.329 1422.37 565.205 1422.93 566.149C1423.03 565.704 1423.03 565.246 1422.93 564.801C1421.68 559.183 1420.43 553.561 1419.19 547.934C1419.13 552.535 1419.34 557.136 1419.81 561.713Z" fill="#23201E"/>
<path d="M1422.85 566.149C1422.28 565.259 1421.69 564.383 1421.07 563.453C1420.65 562.859 1420.21 562.293 1419.72 561.713C1419.95 564.019 1420.25 566.338 1420.59 568.643C1421.15 568.465 1421.66 568.141 1422.06 567.702C1422.45 567.264 1422.73 566.728 1422.85 566.149Z" fill="#23201E"/>
<path d="M1396.66 469.264H1396.89C1397.11 469.264 1397.13 469.169 1396.66 469.264Z" fill="#23201E"/>
<path d="M1393.28 474.468C1393.44 473.593 1393.93 472.814 1394.65 472.293C1395.37 471.772 1396.26 471.551 1397.14 471.677H1397.3C1397.33 471.193 1397.46 470.719 1397.68 470.284C1397.89 469.849 1398.19 469.461 1398.56 469.142L1398.18 469.21C1397.81 469.237 1397.45 469.237 1397.09 469.21H1396.65C1396.27 469.145 1395.89 469.06 1395.51 468.954L1395.13 468.846L1394.61 468.616C1394.34 468.482 1394.07 468.347 1393.81 468.185L1393.31 467.848L1393.19 467.754C1392.91 467.512 1392.66 467.246 1392.43 466.958C1392.32 466.82 1392.21 466.676 1392.11 466.527L1392.03 466.432V466.338C1391.68 465.61 1391.47 464.82 1391.43 464.012C1391.38 463.205 1391.49 462.396 1391.76 461.632C1392.02 460.938 1392.37 460.285 1392.81 459.691C1393.03 459.555 1393.24 459.406 1393.45 459.246C1393.69 459.044 1393.93 458.882 1394.17 458.707C1394.54 458.545 1394.9 458.37 1395.29 458.235H1395.43L1395.82 458.141C1396.26 458.061 1396.71 458.011 1397.17 457.992H1397.49C1397.9 458.033 1398.3 458.101 1398.7 458.194L1399.11 458.302C1399.46 458.518 1399.96 458.639 1400.31 458.842L1400.73 459.098L1400.85 459.179C1401.13 459.435 1401.39 459.691 1401.66 459.961C1401.66 459.988 1401.66 460.015 1401.66 460.042C1401.76 460.203 1401.89 460.365 1401.98 460.54L1402.17 460.891C1402.2 460.956 1402.23 461.02 1402.26 461.08C1402.37 461.43 1402.49 461.794 1402.57 462.158C1402.65 462.522 1402.64 462.495 1402.67 462.671C1402.69 463.07 1402.69 463.471 1402.67 463.871C1402.67 464.059 1402.67 464.262 1402.67 464.464C1402.55 464.787 1402.49 465.165 1402.38 465.475C1402.26 465.83 1402.12 466.177 1401.95 466.513C1401.86 466.671 1401.76 466.824 1401.66 466.972C1401.55 467.133 1401.43 467.295 1401.31 467.443L1400.93 467.848L1400.52 468.199C1400.94 468.174 1401.35 468.232 1401.74 468.369C1402.13 468.505 1402.49 468.718 1402.8 468.994C1403.98 469.978 1405.19 470.922 1406.43 471.798C1407.22 470.841 1407.88 469.78 1408.38 468.643C1408.65 468.041 1408.87 467.419 1409.05 466.783H1408.76C1407.88 466.687 1407.07 466.254 1406.5 465.572C1405.93 464.891 1405.64 464.016 1405.7 463.129C1405.78 462.507 1406.01 461.915 1406.39 461.411C1406.76 460.908 1407.26 460.51 1407.83 460.257C1407.18 460.166 1406.57 459.897 1406.07 459.481C1405.57 459.064 1405.19 458.517 1404.97 457.898C1404.82 457.324 1404.82 456.718 1404.98 456.145C1405.14 455.573 1405.46 455.055 1405.89 454.649L1405.65 454.433C1405.49 454.298 1405.32 454.163 1405.15 454.042L1404.74 454.932C1404.33 455.72 1403.62 456.314 1402.77 456.584C1401.92 456.854 1401 456.778 1400.2 456.374C1399.91 456.228 1399.64 456.032 1399.42 455.795C1399.01 455.968 1398.57 456.053 1398.13 456.043C1397.69 456.033 1397.25 455.929 1396.86 455.738C1396.46 455.546 1396.11 455.272 1395.82 454.933C1395.54 454.594 1395.33 454.198 1395.21 453.772C1395.05 453.058 1394.92 452.33 1394.77 451.615L1394.19 451.736C1393.64 451.587 1393.06 451.62 1392.53 451.831C1392.84 452.235 1393.12 452.653 1393.43 453.044C1393.8 453.531 1394.03 454.104 1394.1 454.707C1394.18 455.31 1394.1 455.923 1393.86 456.484C1393.63 457.046 1393.26 457.537 1392.78 457.91C1392.3 458.283 1391.73 458.525 1391.13 458.612C1391.11 459.216 1390.94 459.806 1390.63 460.322C1390.32 460.839 1389.88 461.264 1389.35 461.555C1388.82 461.846 1388.22 461.993 1387.62 461.98C1387.02 461.968 1386.43 461.797 1385.91 461.484L1385.06 460.931C1384.85 461.816 1384.75 462.72 1384.74 463.628L1385.94 463.561C1386.63 463.504 1387.32 463.673 1387.9 464.042C1388.49 464.412 1388.94 464.962 1389.19 465.61C1389.75 465.655 1390.29 465.855 1390.75 466.19C1391.47 466.712 1391.96 467.497 1392.11 468.377C1392.27 469.257 1392.07 470.161 1391.56 470.895C1390.83 471.704 1390.12 472.526 1389.41 473.349C1390.53 474.203 1391.79 474.868 1393.12 475.317C1393.16 475.034 1393.22 474.751 1393.28 474.468Z" fill="#23201E"/>
<path d="M1399.88 475.735L1400.28 475.654L1399.96 475.398C1399.97 475.447 1399.97 475.497 1399.96 475.546C1399.94 475.612 1399.91 475.675 1399.88 475.735Z" fill="#23201E"/>
<path d="M1392.42 451.79C1389.27 447.609 1386.66 443.042 1384.66 438.2C1383.31 434.856 1380.61 428.6 1385.52 427.104C1390.43 425.607 1390.98 431.85 1391.56 434.951C1392.58 440.479 1393.53 446.06 1394.67 451.575C1396.04 451.31 1397.44 451.273 1398.81 451.467C1399.43 450.119 1400.08 448.622 1400.75 447.206C1400.03 443.337 1399.24 439.481 1398.5 435.625C1397.52 430.448 1397.02 424.34 1391.76 421.549C1389.58 420.367 1387.05 419.982 1384.61 420.459C1382.17 420.936 1379.98 422.246 1378.4 424.165C1374.48 428.816 1375.89 434.56 1377.97 439.683C1379.94 444.441 1382.39 448.985 1385.28 453.246C1386.21 453.786 1387.14 454.339 1387.97 454.905C1389.22 453.562 1390.73 452.501 1392.42 451.79Z" fill="#23201E"/>
<path d="M1399.39 455.727C1398.89 455.214 1398.56 454.561 1398.44 453.855C1398.33 453.149 1398.43 452.424 1398.73 451.777C1398.77 451.661 1398.82 451.548 1398.88 451.44C1397.5 451.246 1396.1 451.283 1394.74 451.548C1394.89 452.262 1395.02 452.99 1395.19 453.705C1395.3 454.131 1395.51 454.527 1395.79 454.866C1396.08 455.205 1396.43 455.479 1396.83 455.671C1397.23 455.862 1397.66 455.966 1398.1 455.976C1398.55 455.986 1398.99 455.901 1399.39 455.727Z" fill="#23201E"/>
<path d="M1391.09 458.545C1391.69 458.458 1392.26 458.216 1392.74 457.843C1393.22 457.47 1393.59 456.978 1393.83 456.417C1394.06 455.855 1394.14 455.243 1394.06 454.64C1393.99 454.037 1393.76 453.464 1393.39 452.977C1393.08 452.586 1392.8 452.168 1392.49 451.763C1390.86 452.485 1389.4 453.537 1388.2 454.851L1389.67 455.781C1390.14 456.067 1390.52 456.476 1390.77 456.964C1391.02 457.452 1391.13 457.999 1391.09 458.545Z" fill="#23201E"/>
<path d="M1401.7 452.087C1402.93 452.533 1404.09 453.17 1405.12 453.975C1406.82 449.89 1408.87 445.961 1411.24 442.231C1413.41 439.009 1416.54 435.288 1420.47 434.25C1421.23 434.028 1422.03 433.959 1422.83 434.047C1423.43 434.177 1424.01 434.386 1424.55 434.668C1425.1 434.953 1425.56 435.376 1425.9 435.894C1426.14 436.274 1426.28 436.712 1426.29 437.162C1426.29 438.712 1424.94 440.141 1423.78 441.287C1422.27 442.824 1420.7 444.335 1419.1 445.804C1415.74 449.206 1411.71 451.889 1407.28 453.691C1406.74 453.878 1406.26 454.182 1405.85 454.581C1407.45 456.067 1408.58 457.982 1409.11 460.096H1409.28C1414.44 458.083 1419.15 455.073 1423.15 451.238C1425.06 449.485 1426.99 447.678 1428.77 445.777C1430.97 443.725 1432.44 441.021 1432.98 438.065C1433.67 432.456 1428.58 427.913 1423.34 427.279C1417.27 426.592 1411.86 430.798 1408.16 435.139C1405.18 438.793 1402.71 442.829 1400.81 447.139C1401.11 448.77 1401.4 450.415 1401.67 452.047L1401.7 452.087Z" fill="#23201E"/>
<path d="M1404.97 457.898C1405.18 458.554 1405.56 459.138 1406.09 459.578C1406.62 460.019 1407.26 460.297 1407.94 460.379C1408.32 460.214 1408.74 460.14 1409.15 460.163C1408.62 458.049 1407.49 456.135 1405.89 454.649C1405.46 455.055 1405.14 455.573 1404.98 456.145C1404.82 456.718 1404.82 457.324 1404.97 457.898Z" fill="#23201E"/>
<path d="M1399.39 455.727C1399.62 455.964 1399.88 456.161 1400.18 456.307C1400.97 456.711 1401.89 456.786 1402.74 456.516C1403.59 456.246 1404.3 455.653 1404.72 454.864L1405.12 453.974C1404.09 453.17 1402.93 452.533 1401.7 452.087C1401.7 452.181 1401.7 452.276 1401.7 452.357C1401.81 453.105 1401.63 453.869 1401.21 454.493C1400.78 455.118 1400.13 455.559 1399.39 455.727Z" fill="#23201E"/>
<path d="M1398.88 451.44C1399.84 451.548 1400.78 451.765 1401.69 452.087C1401.42 450.456 1401.12 448.811 1400.82 447.179C1400.15 448.595 1399.47 450.024 1398.88 451.44Z" fill="#23201E"/>
<path d="M1399.39 455.727C1400.14 455.568 1400.8 455.131 1401.23 454.505C1401.67 453.879 1401.85 453.111 1401.74 452.357C1401.74 452.276 1401.74 452.181 1401.74 452.087C1400.83 451.765 1399.89 451.548 1398.93 451.44C1398.88 451.548 1398.83 451.661 1398.79 451.777C1398.47 452.419 1398.37 453.141 1398.47 453.846C1398.58 454.552 1398.9 455.208 1399.39 455.727Z" fill="#23201E"/>
<path d="M1399.07 469.061C1399.38 468.967 1399.68 468.832 1399.97 468.711L1400.43 468.414L1400.59 468.293C1399.83 468.348 1399.11 468.662 1398.56 469.183H1398.69L1399.07 469.061Z" fill="#23201E"/>
<path d="M1429.53 486.211C1431.92 485.657 1434.13 484.512 1435.97 482.881C1431.16 483.942 1426.35 485.047 1421.54 486.198C1424.17 486.775 1426.9 486.78 1429.53 486.211Z" fill="#23201E"/>
<path d="M1406.51 471.893C1405.67 472.925 1404.64 473.79 1403.48 474.441C1403.04 474.671 1402.59 474.878 1402.13 475.061C1402.68 475.436 1403.08 476.003 1403.23 476.652L1403.63 478.122C1405.87 479.625 1408.21 480.976 1410.64 482.166C1414.47 481.268 1418.33 480.369 1422.2 479.47C1420.63 479.082 1419.08 478.582 1417.58 477.973C1413.65 476.418 1409.93 474.375 1406.51 471.893Z" fill="#23201E"/>
<path d="M1409.13 466.877C1412.98 467.444 1416.81 468.145 1420.64 468.778C1423.3 469.094 1425.94 469.566 1428.54 470.194C1430.16 470.666 1432.16 471.394 1432.87 473.052C1433.12 473.747 1433.18 474.493 1433.06 475.22C1432.94 475.946 1432.63 476.63 1432.17 477.205C1434.7 476.639 1437.25 476.086 1439.8 475.547C1439.8 475.317 1439.8 475.088 1439.8 474.859C1440.02 469.169 1435.76 465.327 1430.63 463.857C1427.66 463.096 1424.65 462.515 1421.61 462.118C1417.57 461.457 1413.44 460.851 1409.38 460.123H1409.24H1409.09C1409.69 462.332 1409.7 464.66 1409.13 466.877Z" fill="#23201E"/>
<path d="M1431.74 477.731C1429.27 480.306 1425.6 480.265 1422.19 479.47C1418.33 480.369 1414.47 481.268 1410.62 482.166L1412.75 483.164C1415.56 484.489 1418.51 485.501 1421.54 486.184C1426.34 485.043 1431.15 483.937 1435.97 482.868C1438.13 480.985 1439.5 478.355 1439.8 475.506C1437.26 476.045 1434.71 476.598 1432.17 477.164C1432.04 477.362 1431.89 477.551 1431.74 477.731Z" fill="#23201E"/>
<path d="M1400.28 475.654C1401.36 476.504 1402.48 477.313 1403.61 478.095L1403.29 476.652C1403.13 476.003 1402.74 475.436 1402.18 475.061C1401.57 475.318 1400.93 475.516 1400.28 475.654Z" fill="#23201E"/>
<path d="M1407.91 460.311C1407.34 460.564 1406.84 460.962 1406.47 461.465C1406.09 461.969 1405.86 462.561 1405.78 463.183C1405.72 464.07 1406.01 464.945 1406.58 465.626C1407.15 466.308 1407.96 466.741 1408.84 466.837H1409.13C1409.71 464.628 1409.71 462.305 1409.13 460.096C1408.74 460.26 1408.33 460.334 1407.91 460.311Z" fill="#23201E"/>
<path d="M1399.95 474.374C1400.74 474.344 1401.53 474.576 1402.18 475.034C1402.64 474.851 1403.09 474.644 1403.53 474.414C1404.7 473.763 1405.72 472.898 1406.57 471.866C1405.33 470.989 1404.11 470.046 1402.94 469.061C1402.63 468.785 1402.27 468.573 1401.88 468.436C1401.49 468.3 1401.07 468.242 1400.66 468.266L1400.5 468.387L1400.04 468.684C1399.74 468.805 1399.45 468.94 1399.14 469.034L1398.76 469.142H1398.63C1398.26 469.461 1397.96 469.849 1397.75 470.284C1397.53 470.719 1397.4 471.193 1397.37 471.677C1398.01 471.844 1398.59 472.185 1399.04 472.661C1399.5 473.137 1399.81 473.73 1399.95 474.374Z" fill="#23201E"/>
<path d="M1399.94 474.401C1400.01 474.73 1400.01 475.069 1399.94 475.398L1400.27 475.654C1400.92 475.516 1401.55 475.318 1402.17 475.061C1401.52 474.606 1400.74 474.374 1399.94 474.401Z" fill="#23201E"/>
<path d="M1409.14 460.163H1409.29H1409.13C1409.13 460.163 1409.14 460.163 1409.14 460.163Z" fill="#23201E"/>
<path d="M1407.91 460.311C1408.31 460.358 1408.71 460.316 1409.09 460.19C1409.09 460.168 1409.09 460.144 1409.09 460.122C1408.67 460.1 1408.26 460.174 1407.87 460.338L1407.91 460.311Z" fill="#23201E"/>
<path d="M1397.84 483.056C1397.53 481.641 1397.22 480.225 1396.9 478.809C1396.67 477.859 1396.8 476.858 1397.25 475.992C1396.61 475.993 1395.98 475.948 1395.35 475.857C1394.58 475.748 1393.82 475.562 1393.08 475.304C1392.09 479.538 1390.71 483.672 1388.96 487.654L1397.05 485.591C1397.28 484.755 1397.57 483.906 1397.84 483.056Z" fill="#23201E"/>
<path d="M1377.71 490.027C1378.05 487.748 1379.76 485.685 1381.07 483.879C1383.67 480.283 1386.44 476.769 1389.37 473.335C1388.25 472.49 1387.28 471.454 1386.5 470.275L1383.07 470.45C1380.58 473.376 1378.21 476.382 1375.97 479.483C1373.28 483.258 1370.28 487.667 1371.16 492.454L1377.73 490.647C1377.71 490.441 1377.7 490.233 1377.71 490.027Z" fill="#23201E"/>
<path d="M1383.09 504.399C1388.62 504.399 1391.31 498.319 1393.39 494.125C1393.55 493.788 1393.71 493.451 1393.86 493.114C1390.96 493.869 1388.07 494.638 1385.18 495.42C1384.8 496.043 1384.34 496.622 1383.83 497.146C1383.2 497.779 1382.97 497.739 1382.27 497.146C1381.96 496.908 1381.68 496.651 1381.41 496.377L1374.1 498.386C1374.54 498.939 1375.04 499.478 1375.54 500.004C1377.62 502.148 1379.99 504.359 1383.09 504.399Z" fill="#23201E"/>
<path d="M1374.15 498.426L1381.46 496.418C1380.97 495.946 1380.5 495.433 1380.11 494.948C1378.82 493.859 1377.98 492.333 1377.74 490.661L1371.17 492.467C1371.26 492.981 1371.39 493.486 1371.56 493.977C1372.16 495.602 1373.03 497.108 1374.15 498.426Z" fill="#23201E"/>
<path d="M1388.96 487.654C1388.38 489.002 1387.76 490.35 1387.11 491.591C1386.46 492.831 1385.92 494.179 1385.18 495.42C1388.07 494.638 1390.96 493.869 1393.86 493.114C1395.04 490.665 1396.08 488.154 1396.98 485.591L1388.96 487.654Z" fill="#23201E"/>
<path d="M1397.25 475.991C1396.8 476.858 1396.67 477.859 1396.9 478.809C1397.22 480.225 1397.53 481.641 1397.84 483.056C1398.61 480.638 1399.29 478.198 1399.88 475.735C1399.01 475.922 1398.13 476.008 1397.25 475.991Z" fill="#23201E"/>
<path d="M1390.71 466.176C1390.25 465.842 1389.71 465.641 1389.15 465.596C1389.39 466.073 1389.51 466.604 1389.5 467.14C1389.48 467.675 1389.33 468.199 1389.07 468.662C1388.8 469.126 1388.42 469.516 1387.96 469.795C1387.5 470.074 1386.98 470.235 1386.45 470.261C1387.22 471.441 1388.19 472.476 1389.32 473.322C1390.02 472.499 1390.67 471.677 1391.46 470.868C1391.97 470.141 1392.18 469.245 1392.04 468.369C1391.9 467.493 1391.42 466.707 1390.71 466.176Z" fill="#23201E"/>
<path d="M1397.25 475.992C1397.62 475.33 1398.22 474.827 1398.93 474.576L1398.48 474.198C1398.1 473.907 1397.79 473.53 1397.59 473.099C1397.39 472.668 1397.29 472.194 1397.3 471.718H1397.14C1396.26 471.592 1395.37 471.813 1394.65 472.334C1393.93 472.854 1393.44 473.634 1393.28 474.508C1393.28 474.792 1393.16 475.075 1393.08 475.344C1393.82 475.603 1394.58 475.788 1395.35 475.897C1395.98 475.974 1396.61 476.006 1397.25 475.992Z" fill="#23201E"/>
<path d="M1399.93 475.547C1399.94 475.497 1399.94 475.447 1399.93 475.398L1398.91 474.576C1398.19 474.827 1397.59 475.33 1397.22 475.991C1398.13 476.013 1399.03 475.927 1399.92 475.735C1399.93 475.673 1399.93 475.61 1399.93 475.547Z" fill="#23201E"/>
<path d="M1398.93 474.576H1399.02C1399.32 474.483 1399.63 474.438 1399.95 474.441C1399.8 473.782 1399.47 473.179 1398.99 472.701C1398.51 472.224 1397.91 471.892 1397.25 471.745C1397.23 472.221 1397.33 472.695 1397.54 473.126C1397.74 473.557 1398.04 473.934 1398.42 474.225L1398.93 474.576Z" fill="#23201E"/>
<path d="M1399.94 474.401C1399.63 474.397 1399.32 474.443 1399.01 474.535H1398.93L1399.96 475.358C1400.02 475.041 1400.01 474.716 1399.94 474.401Z" fill="#23201E"/>
<path d="M1384.9 466.298C1384.74 465.408 1384.67 464.505 1384.7 463.601C1378.95 463.925 1373.14 464.275 1367.41 464.154C1365.47 464.154 1363.18 463.925 1361.75 462.684C1360.32 461.444 1360.68 459.705 1361.68 458.289C1363.81 455.282 1368.02 454.433 1371.55 454.81C1376.49 455.35 1380.91 458.181 1385.03 460.851C1385.44 459.075 1386.2 457.401 1387.27 455.93C1386.64 455.026 1386 454.123 1385.4 453.233C1377.94 448.932 1369.41 445.777 1361.13 450.105C1356.61 452.491 1353.17 457.493 1354.23 462.738C1355.28 467.983 1360.97 470.639 1366 470.828C1371.63 471.057 1377.33 470.747 1382.98 470.437C1383.73 469.547 1384.48 468.67 1385.26 467.74C1385.1 467.269 1384.98 466.787 1384.9 466.298Z" fill="#23201E"/>
<path d="M1389.14 465.596C1388.9 464.949 1388.45 464.399 1387.86 464.029C1387.28 463.659 1386.59 463.49 1385.9 463.547L1384.7 463.615C1384.67 464.518 1384.74 465.422 1384.9 466.311C1384.99 466.825 1385.13 467.33 1385.3 467.821L1386 467.012C1386.38 466.545 1386.86 466.173 1387.4 465.926C1387.95 465.68 1388.55 465.567 1389.14 465.596Z" fill="#23201E"/>
<path d="M1391.09 458.545C1390.55 458.646 1389.99 458.584 1389.48 458.368C1388.98 458.153 1388.55 457.792 1388.24 457.332L1387.26 455.983C1386.19 457.454 1385.43 459.129 1385.02 460.904L1385.87 461.457C1386.39 461.772 1386.98 461.943 1387.59 461.953C1388.2 461.964 1388.8 461.814 1389.33 461.518C1389.86 461.222 1390.3 460.791 1390.61 460.269C1390.92 459.747 1391.08 459.152 1391.09 458.545Z" fill="#23201E"/>
<path d="M1388.13 454.878C1387.24 454.312 1386.31 453.759 1385.44 453.22C1386.04 454.136 1386.68 455.04 1387.31 455.916C1387.56 455.554 1387.84 455.207 1388.13 454.878Z" fill="#23201E"/>
<path d="M1391.09 458.545C1391.11 458.003 1390.98 457.466 1390.72 456.991C1390.46 456.515 1390.07 456.121 1389.61 455.849L1388.14 454.918C1387.82 455.255 1387.53 455.611 1387.26 455.983L1388.24 457.332C1388.55 457.792 1388.98 458.153 1389.48 458.368C1389.99 458.584 1390.55 458.646 1391.09 458.545Z" fill="#23201E"/>
<path d="M1386.5 470.261C1385.99 469.501 1385.59 468.676 1385.3 467.808C1384.52 468.684 1383.77 469.56 1383.03 470.504L1386.46 470.329L1386.5 470.261Z" fill="#23201E"/>
<path d="M1389.15 465.596C1388.55 465.559 1387.96 465.662 1387.41 465.896C1386.87 466.13 1386.39 466.489 1386 466.945L1385.3 467.754C1385.59 468.622 1385.99 469.448 1386.5 470.207C1387.03 470.168 1387.53 470.002 1387.98 469.722C1388.42 469.442 1388.79 469.058 1389.05 468.603C1389.31 468.148 1389.45 467.636 1389.47 467.112C1389.49 466.588 1389.38 466.067 1389.15 465.596Z" fill="#23201E"/>
</g>
<defs>
<linearGradient id="paint0_linear_204_337" x1="721.411" y1="668.09" x2="721.411" y2="-45" gradientUnits="userSpaceOnUse">
<stop stop-color="#FFCBEA"/>
<stop offset="1" stop-color="#9B92FF"/>
</linearGradient>
</defs>
</svg>
