<svg width="142" height="74" viewBox="0 0 142 74" fill="none" xmlns="http://www.w3.org/2000/svg">
<path d="M128.883 29.7571C128.674 29.1 125.44 24.099 125.101 23.4289C126.343 20.6529 128.826 17.6906 128.12 14.498C127.165 11.2253 120.638 9.35993 118.351 12.5137C116.46 9.73507 112.478 10.4103 109.909 11.7375C110.364 11.6729 101.007 11.0054 100.976 10.9847V10.9381L100.872 10.9769L99.1258 10.8424C97.6363 10.8029 96.1532 11.0524 94.7586 11.5771C92.5777 12.3999 89.8741 13.4451 89.248 15.0129C87.5689 11.8436 83.6778 11.7738 80.3611 11.3598C77.7246 11.0102 75.056 11.7057 72.9256 13.2976C72.7723 13.5095 72.6397 13.7356 72.5297 13.9728C69.7718 11.365 65.7125 10.7803 62.0362 11.2098C60.652 11.2925 58.5409 11.4193 57.5759 12.1463C55.6769 10.8165 53.2657 11.3391 51.2115 11.2589C49.372 11.3702 47.2997 11.3365 45.7474 12.3403V12.0428H44.1175C43.1809 11.2848 41.921 11.1709 40.7257 11.2822C39.3597 11.3236 37.8798 11.1632 36.5862 11.5694C34.6924 11.7401 32.7055 11.8514 30.9773 12.6379C29.1093 11.7091 24.9492 11.7349 23.371 13.0027C21.8523 11.6625 19.7774 12.2084 17.9664 12.4671C14.911 12.5835 13.827 15.5484 14.0857 17.5147V24.8984C14.5488 28.3885 13.4027 34.2536 16.6728 36.3596C18.1294 37.3142 22.4681 37.1228 23.7901 36.2716C25.7874 36.8848 28.8765 36.8977 30.6823 35.6973C31.4445 36.1041 32.3074 36.2837 33.1686 36.2147L33.285 36.3777C34.426 36.3544 35.8127 36.432 36.9381 36.4527C30.879 37.842 29.0265 46.0511 33.3963 50.2164C29.1637 53.2874 30.1856 57.7192 34.382 60.2572C38.6663 62.5469 45.3127 62.7461 48.4794 58.573C50.4871 60.5159 53.2269 61.3076 55.9977 61.2093C58.1296 66.8364 64.9623 63.517 66.2222 59.1732C69.3268 62.2286 74.4597 62.3037 77.8489 59.7294C79.1218 61.1679 81.2976 61.0929 83.0957 61.0567C84.4566 61.3464 86.5185 60.8963 87.2119 60.0502C89.5403 61.9234 95.3433 60.5677 95.3433 60.5677L95.4235 60.5496C95.5115 60.6065 95.5995 60.6582 95.6822 60.7074C97.5761 61.5353 99.8709 61.2559 101.891 61.142C105.299 61.1058 108.856 59.5251 110.597 56.5265C113.412 52.5164 113.078 45.7381 111.433 41.3321C109.906 37.9507 106.429 35.868 102.789 35.48C104.499 35.4567 109.609 36.4087 111.138 35.4955C113.622 36.3596 116.918 36.6468 118.519 34.1139C121.192 38.7372 130.855 34.8745 128.883 29.7571Z" fill="#817AE5"/>
<path d="M128.592 27.7288C128.382 27.0716 125.149 22.0707 124.81 21.4006C126.051 18.6246 128.535 15.6622 127.829 12.4697C126.874 9.19692 120.347 7.33158 118.06 10.4905C116.168 7.71448 112.187 8.38973 109.618 9.71436C110.073 9.65227 100.715 8.98219 100.684 8.96408V8.91751L100.581 8.95632L98.8345 8.8192C97.3476 8.78209 95.8676 9.03155 94.4751 9.55395C92.2941 10.3741 89.5905 11.4193 88.9644 12.9897C87.2854 9.82043 83.3943 9.74799 80.0749 9.33663C77.4395 8.98459 74.7709 9.67727 72.6394 11.2667C72.4856 11.4782 72.353 11.7044 72.2436 11.9419C69.4857 9.33145 65.4264 8.74934 61.75 9.17881C60.3659 9.2616 58.2548 9.38837 57.2872 10.1154C55.3908 8.78556 52.977 9.30817 50.9254 9.22797C49.0859 9.33922 47.0136 9.30558 45.4613 10.3094V10.0015H43.8313C42.8948 9.24349 41.6348 9.12966 40.4396 9.24091C39.0735 9.2823 37.5937 9.12189 36.3001 9.52549C34.4063 9.69883 32.4194 9.81008 30.6911 10.5966C28.8232 9.66779 24.663 9.69366 23.0849 10.9614C21.5662 9.62122 19.4913 10.1671 17.6803 10.4258C14.6248 10.5397 13.5408 13.5071 13.7995 15.4734V22.8572C14.2626 26.3472 13.1165 32.2123 16.3867 34.3157C17.8433 35.2704 22.182 35.0919 23.5014 34.2303C25.5013 34.8435 28.5904 34.8564 30.3962 33.656C31.1584 34.0628 32.0213 34.2424 32.8825 34.1734L32.9989 34.3364C34.1398 34.3131 35.5265 34.3907 36.652 34.4114C30.5902 35.8007 28.7404 44.0098 33.1101 48.1751C28.8775 51.2461 29.8995 55.6779 34.0958 58.2134C38.3802 60.5056 45.0266 60.7048 48.1933 56.5317C50.2009 58.4747 52.9408 59.2663 55.709 59.1654C57.8434 64.7925 64.6761 61.4732 65.9361 57.1293C69.0407 60.1874 74.1736 60.2624 77.5628 57.6882C78.8357 59.1266 81.0115 59.0516 82.8096 59.0154C84.1704 59.3025 86.2324 58.855 86.9257 58.009C89.2542 59.8821 95.0572 58.5264 95.0572 58.5264L95.1374 58.5109C95.2254 58.5652 95.3107 58.6195 95.3961 58.6661V58.6532C97.2899 59.4811 99.5847 59.2042 101.605 59.0878C105.013 59.0516 108.57 57.4734 110.311 54.4749C113.126 50.4648 112.792 43.6864 111.147 39.2805C109.618 35.8965 106.143 33.8138 102.503 33.4257C104.213 33.405 109.323 34.3571 110.852 33.4412C113.336 34.3079 116.629 34.5925 118.23 32.0623C120.9 36.7088 130.566 32.8462 128.592 27.7288Z" fill="white"/>
<path d="M28.7941 14.009L28.7165 13.7865C28.6409 13.7641 28.5625 13.7527 28.4836 13.7529C28.3423 13.7451 28.2007 13.7451 28.0594 13.7529L27.5678 13.7736C27.397 13.7736 27.2444 13.7865 27.1099 13.7865C26.7373 13.7865 26.3906 13.7865 26.075 13.7736C25.85 13.749 25.6226 13.7837 25.4153 13.8745C25.3485 13.9313 25.2924 13.9997 25.2497 14.0763C25.1824 14.1798 25.1333 14.2626 25.1022 14.3221C25.0533 14.5454 25.0385 14.7748 25.0582 15.0025C25.0734 15.2889 25.0665 15.5761 25.0375 15.8615C25.0065 16.159 24.978 16.4513 24.947 16.7437C24.9159 17.036 24.8952 17.3051 24.8797 17.556C24.8502 18.0249 24.8545 18.4952 24.8927 18.9635C24.9297 19.3345 24.9254 19.7085 24.8797 20.0785C24.8513 20.2441 24.8254 20.389 24.8021 20.5158C24.7981 20.5668 24.783 20.6163 24.758 20.661C24.733 20.7057 24.6986 20.7444 24.6572 20.7745C24.5525 20.8219 24.4384 20.8449 24.3235 20.8417C24.1886 20.8417 24.0539 20.8339 23.9199 20.8185C23.7879 20.8029 23.6612 20.7926 23.5422 20.7848C23.4519 20.7731 23.3604 20.7932 23.2834 20.8417C23.1648 20.9186 23.0223 20.9498 22.8824 20.9297C22.7336 20.9141 22.5836 20.9141 22.4348 20.9297C22.2436 20.9429 22.0535 20.9689 21.8657 21.0073C21.7921 21.0284 21.7147 21.0323 21.6394 21.0189C21.564 21.0054 21.4928 20.9749 21.431 20.9297C21.3575 20.8514 21.3176 20.7474 21.3198 20.6399C21.3051 20.5068 21.2973 20.3729 21.2965 20.2389C21.2816 20.0923 21.293 19.9443 21.3301 19.8017C21.368 19.6681 21.3795 19.5283 21.3638 19.3903C21.3649 19.3193 21.346 19.2494 21.3094 19.1885C21.2633 19.1123 21.2292 19.0294 21.2085 18.9428V18.7875C21.1655 18.6504 21.154 18.5054 21.1749 18.3632C21.1982 18.223 21.2094 18.0811 21.2085 17.9389C21.2063 17.8381 21.1951 17.7377 21.1749 17.6388C21.1526 17.5325 21.1413 17.4241 21.1413 17.3154C21.1102 16.9429 21.0921 16.5781 21.0843 16.2211C21.0724 15.8178 21.0396 15.4153 20.986 15.0154C20.9705 14.9404 20.9524 14.8447 20.9291 14.7257C20.9058 14.6067 20.8851 14.4825 20.8619 14.3583C20.8386 14.2341 20.8205 14.1229 20.8049 14.0323C20.8024 13.9779 20.7874 13.9248 20.761 13.8771C20.6664 13.8123 20.5512 13.7847 20.4376 13.7995C20.2882 13.8081 20.1396 13.8263 19.9926 13.8538C19.8347 13.8849 19.6795 13.9185 19.5217 13.9547C19.3932 13.9884 19.2627 14.0143 19.131 14.0323C19.012 14.0478 18.8878 14.0582 18.7533 14.066C18.6188 14.0737 18.4946 14.0867 18.373 14.0996C18.2218 14.1288 18.0688 14.1478 17.9151 14.1565C17.8062 14.1529 17.6996 14.1887 17.615 14.2574C17.5495 14.3887 17.5226 14.5358 17.5373 14.6817C17.5373 14.9197 17.5244 15.1862 17.5244 15.4837V22.7614C17.5555 23.2788 17.571 23.7963 17.571 24.3137C17.571 24.8311 17.5839 25.2891 17.615 25.6772C17.6158 25.7872 17.6341 25.8963 17.6693 26.0005C17.7107 26.1207 17.7444 26.2434 17.7702 26.3679C17.8012 26.756 17.8116 27.1751 17.8038 27.6279C17.7961 28.0806 17.8038 28.5334 17.8375 28.9784C17.8393 29.0914 17.8658 29.2026 17.9151 29.3043C17.9584 29.3674 17.985 29.4404 17.9927 29.5165C18.0069 29.6263 17.9917 29.7379 17.9487 29.8399C17.9079 29.9261 17.8927 30.0221 17.9047 30.1167C17.945 30.344 18.0128 30.5655 18.1065 30.7764C18.1498 30.9039 18.2174 31.0216 18.3057 31.1231C18.4512 31.1809 18.6073 31.2074 18.7637 31.2007C18.9939 31.2007 19.2475 31.2007 19.5217 31.2007L20.2979 31.1542C20.5436 31.1412 20.7196 31.1335 20.8153 31.1335C20.9599 31.1215 21.1053 31.1215 21.2499 31.1335C21.3063 31.1431 21.364 31.1412 21.4196 31.1279C21.4752 31.1146 21.5275 31.09 21.5733 31.0559C21.7086 30.885 21.7767 30.6706 21.7648 30.4531C21.7831 30.1187 21.7831 29.7836 21.7648 29.4492C21.7493 29.0922 21.7286 28.7507 21.6975 28.4144C21.6665 28.078 21.6535 27.8711 21.6535 27.7676C21.6224 27.4971 21.6077 27.2249 21.6095 26.9526C21.6093 26.6579 21.5938 26.3635 21.563 26.0704C21.55 25.7884 21.5268 25.4986 21.4983 25.2011C21.4753 25.0848 21.4773 24.9649 21.504 24.8494C21.5308 24.7339 21.5817 24.6254 21.6535 24.531C21.7428 24.4605 21.8528 24.4215 21.9666 24.4198C22.092 24.4056 22.2181 24.3978 22.3443 24.3965L23.0247 24.3525C23.2703 24.337 23.5165 24.337 23.7621 24.3525C23.9675 24.3644 24.1721 24.3869 24.3752 24.4198C24.4948 24.4286 24.6103 24.4668 24.7116 24.531V25.0666C24.7271 25.1856 24.74 25.3046 24.7555 25.4236C24.7711 25.5426 24.7866 25.6539 24.7995 25.7599C24.8187 26.09 24.8187 26.4208 24.7995 26.7508C24.7762 27.1027 24.7555 27.4442 24.7323 27.7857C24.709 28.1272 24.6883 28.4273 24.665 28.7016C24.6474 28.928 24.6474 29.1555 24.665 29.382C24.6776 29.4772 24.7002 29.5708 24.7323 29.6614C24.7682 29.7673 24.7976 29.8753 24.8202 29.9848C24.8456 30.1433 24.8456 30.3049 24.8202 30.4634C24.8048 30.5146 24.8016 30.5687 24.8111 30.6213C24.8205 30.6739 24.8423 30.7235 24.8746 30.7661C24.9936 30.8851 25.2316 30.9291 25.5886 30.9006C25.9456 30.8722 26.2949 30.8489 26.639 30.8334C26.9831 30.8179 27.3091 30.8153 27.6195 30.8334C27.7333 30.852 27.8499 30.8424 27.959 30.8054C28.0682 30.7684 28.1666 30.7052 28.2456 30.6212C28.3072 30.5201 28.3378 30.4032 28.3336 30.2849C28.3491 30.1064 28.3595 29.902 28.3672 29.6717C28.375 29.4415 28.3802 29.1931 28.3802 28.924C28.3802 28.655 28.3802 28.4066 28.4008 28.166C28.4319 27.69 28.4604 27.2346 28.4914 26.8026C28.5224 26.3705 28.5431 26.0083 28.5587 25.7108C28.5863 25.0398 28.5932 24.3698 28.5794 23.7006C28.5636 23.0905 28.5791 22.4799 28.6259 21.8714C28.6544 21.6929 28.6829 21.5222 28.7139 21.354C28.7449 21.1858 28.7656 21.028 28.7812 20.865C28.822 20.3484 28.822 19.8294 28.7812 19.3127C28.748 18.7958 28.748 18.2773 28.7812 17.7604C28.7967 17.4784 28.8174 17.1809 28.8484 16.8679C28.8795 16.5548 28.9028 16.2469 28.9261 15.9417C28.949 15.6482 28.9568 15.3537 28.9493 15.0594C28.945 14.8049 28.9182 14.5512 28.8691 14.3014C28.8503 14.2025 28.8252 14.1048 28.7941 14.009V14.009Z" fill="#A799FD"/>
<path d="M41.578 13.6674C41.5487 13.5491 41.5559 13.4246 41.5987 13.3104C41.6453 13.1474 41.6375 13.0336 41.578 12.9741C41.5097 12.9384 41.4314 12.9266 41.3555 12.9404C41.2339 12.9404 41.1098 12.9404 40.9752 12.9404C40.8407 12.9404 40.6337 12.9611 40.4397 12.9611C39.9637 12.9767 39.4574 12.9767 38.921 12.9611C38.4509 12.9429 37.9801 12.9732 37.5162 13.0517C37.4392 13.0669 37.3638 13.0895 37.2911 13.119C37.219 13.1476 37.1445 13.1701 37.0686 13.1862C36.8977 13.217 36.7248 13.2352 36.5512 13.2406L35.951 13.2638C35.7492 13.2638 35.5629 13.2871 35.3921 13.3078C35.2543 13.3199 35.1209 13.3623 35.0015 13.432C34.8849 13.4993 34.7552 13.5408 34.6212 13.5536C34.4582 13.5769 34.2874 13.5898 34.1037 13.5976C33.92 13.6054 33.7467 13.6105 33.5682 13.6105C33.4254 13.6056 33.2826 13.6204 33.1439 13.6545C33.1295 13.6614 33.1175 13.6725 33.1096 13.6864C33.1018 13.7003 33.0984 13.7162 33.0999 13.7321C33.1014 13.746 33.1002 13.76 33.0962 13.7733C33.0922 13.7866 33.0855 13.799 33.0766 13.8097C33.0012 13.8409 32.9166 13.8409 32.8412 13.8097C32.7662 13.7813 32.6834 13.7813 32.6083 13.8097C32.4284 13.8544 32.2678 13.956 32.1504 14.0995C32.066 14.2252 32.0194 14.3724 32.0159 14.5238C32.0102 14.7107 32.0215 14.8977 32.0495 15.0826C32.0802 15.3193 32.088 15.5585 32.0728 15.7967C32.0716 15.9179 32.0524 16.0382 32.0159 16.1537C31.9748 16.2933 31.9411 16.4349 31.915 16.578C31.8743 17.0756 31.8743 17.5758 31.915 18.0734C31.9488 18.6679 31.9488 19.264 31.915 19.8585C31.8701 20.9607 31.8701 22.0619 31.915 23.1623C31.9615 24.0109 31.9728 24.844 31.9486 25.6615C31.925 26.3916 31.944 27.1224 32.0055 27.8503L32.0599 28.1607C32.0814 28.2567 32.0858 28.3556 32.0728 28.4531C32.0754 28.6016 32.049 28.7493 31.9952 28.8877C31.9407 29.0179 31.9134 29.1579 31.915 29.2991C31.9185 29.3981 31.9342 29.4963 31.9615 29.5914C31.99 29.7105 32.0211 29.8295 32.0495 29.9485C32.0957 30.0865 32.1329 30.2273 32.1608 30.3702C32.3425 30.4556 32.5481 30.4757 32.7429 30.4271C33.0311 30.3896 33.3215 30.3706 33.6122 30.3702C33.6872 30.3702 33.7984 30.3702 33.9459 30.3831L34.3831 30.4038C34.5228 30.4038 34.6988 30.4323 34.9006 30.4607C34.9161 30.4607 34.9161 30.484 34.9006 30.528C34.885 30.572 34.8876 30.5953 34.9006 30.5953C34.9239 30.6097 34.9501 30.619 34.9773 30.6225C35.0045 30.6261 35.0321 30.6239 35.0584 30.616C35.1093 30.6037 35.1613 30.5968 35.2136 30.5953C35.9183 30.6688 36.6276 30.6869 37.3351 30.6496C37.9594 30.6114 38.5857 30.6227 39.2082 30.6832C39.3807 30.6987 39.5928 30.7065 39.8446 30.7065C40.0132 30.6971 40.1822 30.7119 40.3466 30.7505C40.3621 30.766 40.3621 30.7919 40.3466 30.8281C40.3336 30.8669 40.3336 30.8928 40.3466 30.9083C40.3853 30.9265 40.4282 30.9336 40.4707 30.929H40.6932C40.7673 30.9332 40.8416 30.9332 40.9157 30.929H41.0399C41.1149 30.898 41.1512 30.8229 41.1512 30.7039C41.1418 30.627 41.1572 30.549 41.1951 30.4814C41.1951 30.4659 41.221 30.4452 41.2728 30.4142C41.3245 30.3831 41.353 30.3779 41.353 30.3909C41.3968 30.2468 41.4152 30.0962 41.4073 29.9459C41.3971 29.79 41.3971 29.6335 41.4073 29.4776C41.4387 29.3069 41.4543 29.1337 41.4539 28.9602C41.4548 28.7473 41.4695 28.5347 41.4978 28.3237C41.5173 28.0782 41.5624 27.8354 41.6324 27.5993C41.6935 27.3845 41.7006 27.1578 41.6531 26.9396C41.6246 26.8688 41.6097 26.7934 41.6091 26.7171C41.6149 26.6616 41.5991 26.6061 41.5651 26.5619C41.4064 26.4357 41.209 26.3681 41.0063 26.3704C40.7476 26.3497 40.463 26.3368 40.181 26.3368C39.9161 26.3385 39.6517 26.3575 39.3893 26.3937C39.1187 26.4273 38.845 26.4273 38.5743 26.3937C38.3897 26.383 38.2062 26.357 38.0259 26.3161C37.8836 26.2807 37.7378 26.2616 37.5912 26.2592C37.4654 26.2437 37.338 26.248 37.2135 26.2721C37.1103 26.2964 37.0058 26.3145 36.9004 26.3264C36.4529 26.3575 36.1657 26.3264 36.0415 26.2281C35.9173 26.1298 35.8423 25.8814 35.8294 25.4804C35.8158 25.4126 35.823 25.3423 35.8501 25.2786C35.8791 25.1999 35.8948 25.1168 35.8966 25.0329C35.9072 24.8286 35.9072 24.6239 35.8966 24.4197C35.8883 24.2185 35.8961 24.0169 35.9199 23.8169C35.9385 23.64 35.9793 23.4661 36.0415 23.2995C36.0971 23.1484 36.2094 23.0249 36.3546 22.9554C36.486 22.8874 36.6309 22.8494 36.7788 22.8441L37.2678 22.7975C37.7439 22.7691 38.2173 22.751 38.6856 22.7432C39.1539 22.7354 39.5756 22.7251 39.9481 22.7096C40.1111 22.7096 40.2482 22.7096 40.3595 22.7096C40.4294 22.7242 40.5017 22.7242 40.5716 22.7096C40.6027 22.6941 40.6234 22.6527 40.6389 22.5854C40.6544 22.5181 40.6699 22.4457 40.6829 22.3629C40.6985 22.2819 40.7063 22.1996 40.7062 22.1171V21.9515C40.7358 21.7364 40.7471 21.5192 40.7398 21.3022C40.7368 21.1387 40.7256 20.9755 40.7062 20.8132C40.7057 20.7342 40.6979 20.6553 40.6829 20.5778C40.6699 20.495 40.6544 20.4173 40.6389 20.3423C40.6309 20.3102 40.6298 20.2769 40.6356 20.2443C40.6414 20.2118 40.654 20.1808 40.6725 20.1535C40.6912 20.1262 40.7039 20.0952 40.7097 20.0627C40.7155 20.0301 40.7143 19.9967 40.7062 19.9646C40.6999 19.8376 40.6527 19.716 40.5716 19.6179C40.492 19.5322 40.3925 19.4673 40.2819 19.4291C40.1592 19.3815 40.0317 19.3477 39.9016 19.3282C39.7696 19.3049 39.6428 19.2868 39.5006 19.2712C39.3987 19.2425 39.2934 19.2277 39.1875 19.2273C39.0825 19.2266 38.9781 19.2118 38.877 19.1833C38.6749 19.1733 38.4736 19.1508 38.2742 19.116C38.0916 19.1036 37.9084 19.1036 37.7258 19.116C37.511 19.116 37.3015 19.116 37.1022 19.116C36.9154 19.1174 36.7287 19.1061 36.5434 19.0824C36.4177 19.0782 36.2965 19.0347 36.1967 18.9582C36.0888 18.8078 36.0341 18.6257 36.0415 18.4408C36.0257 18.2367 36.0257 18.0317 36.0415 17.8276C36.0445 17.7487 36.0523 17.6701 36.0648 17.5922C36.0777 17.4809 36.0984 17.3645 36.1191 17.2455C36.1398 17.1265 36.1631 17.0204 36.1864 16.9221C36.1972 16.8539 36.2238 16.7893 36.264 16.7332C36.3166 16.7089 36.3742 16.6974 36.4322 16.6996C36.5279 16.6996 36.634 16.6996 36.7452 16.6996H37.0686C37.1359 16.7049 37.2036 16.697 37.2678 16.6763C37.2833 16.6763 37.2833 16.653 37.2678 16.609C37.2523 16.5651 37.2549 16.534 37.2678 16.5185C37.3046 16.5053 37.3449 16.5053 37.3817 16.5185H37.4929C38.0229 16.4594 38.5573 16.4491 39.0892 16.4874C39.5832 16.5262 40.0799 16.5149 40.5716 16.4538C40.7338 16.4228 40.9123 16.3814 41.1072 16.3296C41.2498 16.3056 41.3822 16.2399 41.4875 16.1408C41.5126 16.0802 41.5241 16.0148 41.5211 15.9493C41.5211 15.8381 41.5392 15.7061 41.5548 15.5483C41.5703 15.3905 41.5755 15.2404 41.5755 15.0904C41.5789 14.9787 41.5719 14.867 41.5548 14.7566C41.5571 14.6701 41.564 14.5837 41.5755 14.4979C41.591 14.3867 41.6091 14.2806 41.6324 14.1849C41.6557 14.0891 41.6738 13.9986 41.6893 13.9262C41.6996 13.8714 41.7065 13.8161 41.71 13.7606C41.6862 13.7576 41.6633 13.7497 41.6427 13.7373L41.578 13.6674Z" fill="#A799FD"/>
<path d="M56.9602 28.4142C56.9395 28.1245 56.9162 27.8399 56.8929 27.5657C56.8696 27.2914 56.8464 27.012 56.8153 26.7274C56.7843 26.4428 56.7558 26.1324 56.7273 25.7909C56.6523 25.0458 56.5747 24.3524 56.4919 23.703C56.4091 23.0536 56.3315 22.3473 56.2591 21.5712C56.228 21.2763 56.184 20.9399 56.1245 20.5674C56.0711 20.2657 56.0408 19.9604 56.034 19.6541C56.034 19.5946 56.0495 19.5558 56.0806 19.5403C56.1116 19.5248 56.1168 19.4885 56.1012 19.429C56.0836 19.3489 56.0576 19.2709 56.0236 19.1962C55.9874 19.1134 55.9615 19.0591 55.946 19.028C55.9462 19.0138 55.9505 18.9999 55.9582 18.988C55.966 18.9761 55.977 18.9666 55.99 18.9607C56.0034 18.9554 56.0148 18.9461 56.0226 18.9341C56.0305 18.922 56.0345 18.9079 56.034 18.8935C56.0237 18.8413 55.9964 18.794 55.9564 18.7589C55.9199 18.7305 55.8929 18.6917 55.8788 18.6477C55.8509 18.5797 55.8509 18.5035 55.8788 18.4356C55.8964 18.3589 55.8964 18.2793 55.8788 18.2027C55.8477 18.0837 55.8192 17.9673 55.7882 17.856C55.7585 17.7421 55.7369 17.6263 55.7235 17.5094C55.6928 17.31 55.685 17.1077 55.7002 16.9065C55.7261 16.7691 55.7022 16.627 55.633 16.5055C55.5967 16.4564 55.5719 16.3997 55.5602 16.3398C55.5486 16.2798 55.5505 16.218 55.5657 16.1589C55.5968 16.0235 55.5968 15.8828 55.5657 15.7475C55.5062 15.406 55.4467 15.0955 55.3872 14.8213C55.3277 14.547 55.2604 14.2676 55.188 13.983C55.1414 13.7916 55.1 13.5924 55.0638 13.3932C55.0538 13.272 55.0195 13.1541 54.9629 13.0465C54.8413 13.0061 54.712 12.9946 54.5852 13.0129C54.3759 13.0211 54.1663 13.0098 53.9591 12.9792C53.7211 12.9637 53.4416 12.9533 53.0898 12.9456C52.7379 12.9378 52.4042 12.9456 52.0549 12.9456C51.7057 12.9456 51.403 12.9456 51.1287 12.9663C50.8545 12.987 50.6708 12.9896 50.5802 12.9896C50.2353 13.0206 49.8265 13.0465 49.3539 13.0672C48.9631 13.0798 48.5742 13.1283 48.1923 13.2121C47.9698 13.2716 47.799 13.3207 47.6748 13.3569C47.5743 13.3871 47.4845 13.4455 47.4161 13.5251C47.3496 13.6162 47.3005 13.7189 47.2713 13.8278C47.235 13.952 47.1859 14.1357 47.1264 14.3737C47.0669 14.5677 47.0074 14.7644 46.9479 14.9662C46.8884 15.168 46.8444 15.3258 46.8133 15.4448C46.7823 15.5638 46.759 15.6285 46.7357 15.7242C46.7165 15.8123 46.6905 15.8988 46.6581 15.9829C46.6289 16.0881 46.6175 16.1974 46.6245 16.3063C46.6332 16.4008 46.6217 16.496 46.5908 16.5857C46.5397 16.7747 46.4685 16.9577 46.3787 17.1316C46.3025 17.2758 46.2468 17.43 46.2131 17.5896C46.1843 17.6728 46.1798 17.7626 46.2002 17.8483C46.2209 17.9329 46.2253 18.0207 46.2131 18.107C46.1993 18.1787 46.1721 18.2472 46.1329 18.3088C46.0984 18.3642 46.0723 18.4243 46.0553 18.4873C45.9363 19.0047 45.8095 19.5627 45.675 20.1612C45.5404 20.7597 45.4145 21.2771 45.2973 21.7135C45.2655 21.796 45.2506 21.8839 45.2533 21.9722C45.2536 22.0673 45.2379 22.1618 45.2067 22.2516C45.1317 22.5776 45.0541 22.8906 44.9739 23.1882C44.8937 23.4857 44.8212 23.7832 44.7617 24.0807C44.7306 24.1642 44.7306 24.256 44.7617 24.3395C44.7901 24.4296 44.7901 24.5262 44.7617 24.6163H44.6039C44.5979 24.6288 44.5948 24.6425 44.5948 24.6564C44.5948 24.6703 44.5979 24.684 44.6039 24.6965C44.6064 24.7223 44.6064 24.7483 44.6039 24.7741C44.5464 24.9277 44.5124 25.089 44.503 25.2527C44.4943 25.4261 44.4762 25.5988 44.4487 25.7702C44.4176 25.9487 44.3917 26.0832 44.371 26.1712C44.3503 26.2591 44.3219 26.3575 44.2934 26.4609C44.2184 26.805 44.1408 27.1465 44.058 27.4958C43.9752 27.8451 43.8976 28.1814 43.8226 28.5307C43.8082 28.5978 43.8127 28.6677 43.8355 28.7325C43.8466 28.7649 43.8512 28.7992 43.849 28.8334C43.8468 28.8676 43.8378 28.901 43.8226 28.9317C43.8159 28.9917 43.7885 29.0476 43.745 29.0895C43.7059 29.1253 43.6788 29.1723 43.6673 29.224C43.6357 29.3821 43.6132 29.542 43.6001 29.7027C43.5845 29.8734 43.5742 30.0312 43.5664 30.1709C43.5587 30.3106 43.5664 30.4296 43.5664 30.5512C43.5577 30.6249 43.5731 30.6993 43.6104 30.7634C43.6729 30.8304 43.7493 30.883 43.8342 30.9174C43.9191 30.9518 44.0105 30.9672 44.102 30.9626C44.34 30.9781 44.5625 30.9859 44.7721 30.9859C44.9816 30.9859 45.2507 31.004 45.4965 30.9859C45.7422 30.9678 45.9828 30.9859 46.2235 30.9859C46.2804 30.9859 46.389 30.9859 46.5468 31.0092L47.0358 31.0532C47.1883 31.0644 47.3413 31.0644 47.4938 31.0532C47.586 31.0552 47.6766 31.0281 47.7525 30.9755C47.7784 30.9112 47.7933 30.843 47.7964 30.7738C47.812 30.6547 47.8223 30.515 47.8301 30.396C47.8378 30.277 47.8482 30.1373 47.8637 30.0054C47.8792 29.8734 47.887 29.7932 47.887 29.7466C47.931 29.5371 47.975 29.3379 48.0189 29.1438C48.0629 28.9498 48.1017 28.7713 48.1302 28.6083C48.1589 28.4688 48.1702 28.3263 48.1638 28.184C48.1565 28.0708 48.1679 27.9572 48.1975 27.8477C48.2058 27.7889 48.2331 27.7344 48.2751 27.6924C48.319 27.6516 48.3474 27.5967 48.3553 27.5372C48.3836 27.4274 48.3906 27.3133 48.376 27.2009C48.363 27.0974 48.3553 27.0301 48.3553 27.0017C48.3591 26.9762 48.3709 26.9527 48.3889 26.9344C48.409 26.9083 48.4207 26.8767 48.4225 26.8438C48.4385 26.7513 48.4497 26.6581 48.4562 26.5644C48.4556 26.5149 48.4663 26.4659 48.4874 26.4212C48.5084 26.3764 48.5393 26.3369 48.5778 26.3057C48.5848 26.302 48.5907 26.2964 48.5948 26.2895C48.5989 26.2827 48.6011 26.2749 48.6011 26.2669C48.6011 26.2589 48.5989 26.2511 48.5948 26.2443C48.5907 26.2374 48.5848 26.2318 48.5778 26.2281C48.539 26.2048 48.5209 26.2022 48.5209 26.2281C48.542 26.1733 48.5679 26.1205 48.5985 26.0703C48.6291 26.0284 48.6552 25.9833 48.6761 25.9357C48.7169 25.7908 48.7395 25.6413 48.7433 25.4908C48.7455 25.4269 48.7606 25.3642 48.7877 25.3064C48.8148 25.2485 48.8534 25.1968 48.9012 25.1544C48.9708 25.0911 49.0526 25.0426 49.1415 25.0119C49.2305 24.9813 49.3248 24.969 49.4186 24.9759C49.635 24.9772 49.8512 24.9625 50.0654 24.9319C50.194 24.916 50.3212 24.8901 50.4457 24.8543C50.6527 24.8026 50.8778 24.7586 51.1158 24.7198C51.3538 24.681 51.5841 24.6577 51.8066 24.6422C51.9658 24.6153 52.1295 24.6388 52.2748 24.7094C52.3054 24.7535 52.3282 24.8025 52.3421 24.8543C52.3731 24.9371 52.4016 25.0225 52.4326 25.113L52.5206 25.4701C52.5366 25.6454 52.5136 25.8221 52.4533 25.9875C52.4017 26.1153 52.372 26.2508 52.3654 26.3885C52.3698 26.5493 52.388 26.7094 52.4197 26.8671C52.4577 27.0689 52.4913 27.2966 52.5206 27.5501C52.5361 27.8916 52.5439 28.259 52.5439 28.6549C52.5439 29.0507 52.5594 29.4672 52.5879 29.9148C52.6189 30.1373 52.6474 30.365 52.6784 30.5952C52.7095 30.8255 52.7509 30.9574 52.8104 30.9859C52.901 31.0126 52.9954 31.024 53.0898 31.0195L53.7055 31.0428C53.941 31.0428 54.1997 31.0428 54.4817 31.0428H55.2578C55.4959 31.0428 55.6951 31.0428 55.8606 31.0195C55.9488 31.0197 56.0362 31.0048 56.1194 30.9755C56.1349 30.9755 56.1349 30.9523 56.1194 30.9083C56.1038 30.8643 56.1038 30.841 56.1194 30.841C56.273 30.769 56.447 30.7535 56.6109 30.797C56.6689 30.8225 56.7326 30.8318 56.7955 30.8241C56.8583 30.8164 56.9179 30.7918 56.9679 30.753C57.0172 30.594 57.0399 30.4279 57.0352 30.2615C57.0508 29.9642 57.0508 29.6662 57.0352 29.3689C56.9938 29.0274 56.9757 28.704 56.9602 28.4142ZM52.1972 20.6528C52.1333 20.7119 52.0488 20.7435 51.9618 20.7407C51.835 20.7562 51.7031 20.7666 51.5375 20.7744C51.3719 20.7821 51.2296 20.7744 51.0796 20.7744H50.751C50.6751 20.7859 50.6006 20.8049 50.5285 20.8313C50.4069 20.8675 50.2827 20.9011 50.1482 20.9322C50.0231 20.9606 49.8959 20.9788 49.7679 20.9865C49.7254 20.9943 49.6817 20.9936 49.6395 20.9842C49.5973 20.9749 49.5573 20.9572 49.5221 20.9322C49.4916 20.9068 49.4684 20.8738 49.4547 20.8365C49.4411 20.7993 49.4376 20.7591 49.4445 20.72C49.4538 20.615 49.4685 20.5105 49.4885 20.407C49.5104 20.297 49.5407 20.1889 49.579 20.0836C49.6126 19.9892 49.6385 19.8923 49.6566 19.7938C49.7276 19.5153 49.7761 19.2315 49.8015 18.9452C49.828 18.6573 49.8843 18.3729 49.9697 18.0966C50.0303 17.9745 50.0821 17.8483 50.1249 17.7189C50.1404 17.6723 50.1611 17.5999 50.1922 17.4938C50.2232 17.3878 50.2517 17.2817 50.2827 17.1704C50.3101 17.0645 50.3429 16.96 50.381 16.8574C50.4085 16.7802 50.4507 16.709 50.5052 16.6478C50.5213 16.6327 50.5419 16.6232 50.5638 16.6208C50.5858 16.6185 50.6079 16.6234 50.6268 16.6349C50.6455 16.6454 50.6662 16.6519 50.6876 16.6542C50.7089 16.6564 50.7305 16.6542 50.751 16.6478C50.7557 16.641 50.7582 16.6328 50.7582 16.6245C50.7582 16.6162 50.7557 16.6081 50.751 16.6013C50.751 16.5883 50.751 16.5728 50.8079 16.5573C50.8648 16.5418 50.9217 16.5573 51.0201 16.5573C51.1184 16.5573 51.2193 16.5443 51.3305 16.5443H51.6332C51.6937 16.5401 51.7544 16.5481 51.8117 16.5676C51.8402 16.7772 51.8712 16.9505 51.8997 17.0851C51.9282 17.2196 51.9592 17.3645 51.9902 17.4964C52.0136 17.5923 52.0283 17.6902 52.0342 17.7888C52.0498 17.9254 52.0498 18.0634 52.0342 18.2001C52.0182 18.2926 52.0182 18.3871 52.0342 18.4795C52.0455 18.6073 52.0645 18.7343 52.0911 18.8599C52.1274 19.0668 52.1636 19.2893 52.2024 19.5273C52.2379 19.7535 52.2603 19.9816 52.2697 20.2104C52.2918 20.3643 52.2637 20.5213 52.1895 20.6579L52.1972 20.6528Z" fill="#A799FD"/>
<path d="M71.7854 19.473C71.7496 18.8637 71.6411 18.2609 71.462 17.6775C71.3958 17.5301 71.3179 17.3882 71.2291 17.2532C71.1543 17.1515 71.0974 17.0378 71.061 16.9169C71.0322 16.816 71.0208 16.7111 71.0273 16.6064C71.0362 16.523 71.0247 16.4386 70.9937 16.3606C70.9707 16.3351 70.9446 16.3125 70.9161 16.2934C70.8876 16.2742 70.8615 16.2516 70.8385 16.2261C70.824 16.2071 70.8136 16.1854 70.8078 16.1623C70.8021 16.1392 70.801 16.1151 70.8048 16.0916C70.8087 16.0717 70.8077 16.0512 70.8018 16.0318C70.796 16.0124 70.7855 15.9947 70.7712 15.9803C70.7188 15.9142 70.6627 15.8511 70.603 15.7915C70.5469 15.734 70.4982 15.6697 70.4582 15.6C70.2952 15.3775 70.1529 15.1886 70.0339 15.0308C69.91 14.8698 69.7676 14.7239 69.6096 14.5962C69.5216 14.5212 69.4362 14.4565 69.3509 14.397C69.2747 14.3432 69.2037 14.2826 69.1387 14.2159C69.1242 14.2019 69.1064 14.1917 69.087 14.1863C69.0676 14.1809 69.0471 14.1804 69.0275 14.1848C69.0076 14.1883 68.9872 14.1871 68.9678 14.1812C68.9485 14.1754 68.9308 14.1651 68.9162 14.1512C68.8567 14.1059 68.8073 14.0486 68.7713 13.983C68.7343 13.9163 68.6747 13.8649 68.6032 13.8382C68.4453 13.747 68.2767 13.6757 68.1013 13.626C67.8865 13.5587 67.7261 13.5018 67.62 13.4578C67.498 13.4046 67.3788 13.345 67.263 13.2793C67.1801 13.2284 67.0936 13.1834 67.0043 13.1448C66.8149 13.0982 66.6196 13.0799 66.4248 13.0905C66.2543 13.1106 66.0819 13.0753 65.9332 12.9896C65.8892 12.9611 65.8582 12.9482 65.8427 12.9559C65.8271 12.9637 65.7832 12.9559 65.7107 12.9223C65.4324 12.8544 65.1482 12.8137 64.8621 12.8007C64.509 12.7781 64.155 12.7738 63.8014 12.7878C63.4366 12.8033 63.0822 12.8214 62.7406 12.8447C62.3991 12.868 62.1094 12.8938 61.8714 12.9223C61.8119 12.9223 61.7317 12.9223 61.6359 12.9223C61.5362 12.9108 61.4355 12.9108 61.3358 12.9223C61.2549 12.9399 61.1759 12.9659 61.1004 12.9999C61.0265 13.0358 60.9482 13.0619 60.8675 13.0775C60.5555 13.1086 60.2418 13.1199 59.9284 13.1112C59.8095 13.0945 59.6885 13.1029 59.5731 13.1359C59.4577 13.1688 59.3504 13.2256 59.2583 13.3026C59.2174 13.394 59.1946 13.4923 59.1911 13.5924C59.1781 13.7398 59.1652 13.9158 59.16 14.1098C59.1548 14.3038 59.16 14.5212 59.16 14.7462C59.16 14.9713 59.1781 15.1757 59.1911 15.3697C59.2066 15.7268 59.2299 16.0942 59.2583 16.4745C59.2868 16.8548 59.3178 17.1471 59.3489 17.3567C59.3773 17.6982 59.4032 18.0371 59.4265 18.3709C59.4498 18.7046 59.4756 19.0306 59.5041 19.3436C59.5326 19.6567 59.5274 19.9904 59.5274 20.3475C59.5274 20.7045 59.5429 21.0615 59.5714 21.4185C59.588 21.5062 59.6104 21.5926 59.6386 21.6773C59.6765 21.8021 59.7067 21.9291 59.7292 22.0576C59.7866 22.4411 59.8048 22.8294 59.7835 23.2166C59.7577 23.5956 59.7577 23.976 59.7835 24.355C59.799 24.4455 59.8094 24.5335 59.8172 24.6137C59.8256 24.7019 59.8447 24.7888 59.8741 24.8724C59.8899 24.9579 59.8899 25.0456 59.8741 25.1311C59.8574 25.1939 59.8574 25.2598 59.8741 25.3226C59.8896 25.514 59.9103 25.7055 59.9413 25.8918C59.9724 26.078 60.0008 26.2747 60.0293 26.4816C60.0448 26.6866 60.0448 26.8924 60.0293 27.0974C60.0164 27.3016 60.0164 27.5063 60.0293 27.7105C60.0286 27.9017 60.0477 28.0924 60.0862 28.2797C60.1236 28.4746 60.1495 28.6716 60.1638 28.8696C60.1794 28.9886 60.1897 29.1283 60.1975 29.3068C60.2061 29.4897 60.2251 29.672 60.2544 29.8527C60.2673 29.9433 60.2828 30.0467 60.2984 30.1657C60.3139 30.2848 60.332 30.3986 60.3527 30.5124C60.3734 30.6263 60.3941 30.7168 60.4096 30.7893C60.4251 30.8617 60.4458 30.9083 60.4769 30.9238H60.6321C60.7511 30.9238 60.8908 30.9445 61.0124 30.9574L61.548 31.004C61.6992 31.0537 61.8571 31.0799 62.0162 31.0816C62.2103 31.0816 62.3991 31.0816 62.5854 31.0816C62.7717 31.0816 62.9424 31.0816 63.1028 31.0609C63.2063 31.058 63.3082 31.0352 63.403 30.9936C63.5467 30.929 63.7033 30.898 63.8609 30.9031H64.3783C64.7198 30.9186 64.976 30.9212 65.1545 30.9031C65.333 30.885 65.5607 30.8695 65.8582 30.8255C66.2441 30.7897 66.6255 30.7152 66.9965 30.603C67.0801 30.5753 67.1673 30.5605 67.2552 30.559C67.3257 30.5641 67.396 30.5478 67.457 30.5124C67.5555 30.4791 67.6443 30.4223 67.7158 30.3469C67.7991 30.2641 67.8931 30.1927 67.9952 30.1347C68.0987 30.0752 68.2047 30.0235 68.3082 29.9769C68.4095 29.9345 68.5066 29.8825 68.598 29.8216C68.8205 29.7026 69.0326 29.581 69.2344 29.4543C69.417 29.338 69.59 29.2074 69.7519 29.0636C69.7958 29.0041 69.845 28.9446 69.8967 28.8851C69.9485 28.8256 70.0028 28.7583 70.0623 28.6833C70.1809 28.529 70.2857 28.3645 70.3754 28.1917C70.4568 28.0341 70.5539 27.885 70.6651 27.7468C70.8406 27.5736 70.9681 27.3579 71.0351 27.1207C71.1075 26.8702 71.1939 26.6241 71.2938 26.3833C71.3214 26.2982 71.3587 26.2166 71.4051 26.1401C71.4483 26.0683 71.4855 25.993 71.5163 25.915C71.5449 25.8319 71.5529 25.7432 71.5396 25.6563C71.529 25.6164 71.5213 25.5757 71.5163 25.5347C71.5163 25.5192 71.5422 25.5037 71.5939 25.4882C71.6457 25.4752 71.6741 25.4597 71.6741 25.4442C71.7029 25.2733 71.7142 25.0999 71.7078 24.9267C71.7004 24.7399 71.7108 24.5528 71.7388 24.3679C71.7698 24.2049 71.7983 24.029 71.8293 23.8505C71.8604 23.672 71.8811 23.4831 71.8966 23.3046C71.927 23.0263 71.9382 22.7462 71.9302 22.4663C71.9302 22.1636 71.9121 21.8532 71.8966 21.5401C71.8785 20.8675 71.8371 20.1664 71.7854 19.473ZM68.1271 23.7806C68.1099 24.0477 68.0683 24.3127 68.0029 24.5723C67.9901 24.6285 67.9673 24.6819 67.9357 24.7301C67.903 24.7799 67.8737 24.8318 67.8477 24.8853C67.8169 24.948 67.8017 25.0173 67.8037 25.0871C67.8058 25.1475 67.7979 25.2078 67.7804 25.2657C67.6323 25.6799 67.3547 26.0355 66.9888 26.2798C66.5587 26.5018 66.0942 26.6496 65.615 26.7171C65.5484 26.7303 65.4798 26.7303 65.4132 26.7171C65.3329 26.7015 65.2503 26.7015 65.17 26.7171C65.1696 26.7479 65.1616 26.7781 65.1467 26.805C65.1157 26.849 65.095 26.8723 65.0794 26.8723H64.9009C64.7974 26.8723 64.681 26.8852 64.5542 26.8852H64.205C64.1411 26.8931 64.0762 26.8851 64.0161 26.8619C63.9851 26.8464 63.9592 26.7947 63.9385 26.7067C63.9121 26.596 63.8931 26.4836 63.8816 26.3704C63.8661 26.2358 63.8531 26.091 63.8376 25.9357C63.8221 25.7805 63.8066 25.6279 63.7936 25.4778C63.7626 25.1803 63.7289 24.8802 63.6927 24.5749C63.6599 24.3416 63.6409 24.1067 63.6358 23.8712C63.6358 23.5452 63.6358 23.1908 63.6591 22.8104C63.6755 22.4476 63.6451 22.0841 63.5685 21.729C63.4976 21.4901 63.4713 21.2401 63.4909 20.9917C63.5164 20.7025 63.5164 20.4116 63.4909 20.1224C63.4754 19.8844 63.4599 19.6593 63.4469 19.4523C63.434 19.2453 63.4237 19.028 63.4237 18.8055C63.423 18.5625 63.4083 18.3198 63.3797 18.0785C63.3486 17.8327 63.3305 17.6077 63.3228 17.3981C63.315 17.1885 63.3228 16.9997 63.3228 16.8289C63.3214 16.6921 63.3562 16.5573 63.4237 16.4382C63.4521 16.3943 63.4754 16.3762 63.4909 16.3839C63.5064 16.3917 63.5349 16.3839 63.5789 16.3503C63.7105 16.2858 63.8571 16.2581 64.0032 16.2701C64.1874 16.2789 64.3708 16.3014 64.5517 16.3374C64.7354 16.3762 64.919 16.4201 65.0976 16.4719C65.2761 16.5236 65.4106 16.565 65.4986 16.5961C65.696 16.6576 65.8867 16.7391 66.0677 16.8393C66.2453 16.9441 66.4133 17.0644 66.5697 17.1989C66.8658 17.4459 67.1154 17.7438 67.307 18.0785C67.5173 18.4798 67.6821 18.9032 67.7986 19.341C67.8142 19.4177 67.822 19.4957 67.8218 19.5739C67.8207 19.6545 67.8356 19.7346 67.8658 19.8093C67.8918 19.8629 67.9212 19.9148 67.9538 19.9646C67.9848 20.0131 68.0076 20.0664 68.021 20.1224C68.0535 20.2614 68.0683 20.4039 68.065 20.5467C68.065 20.7088 68.0728 20.8718 68.0883 21.0356C68.1168 21.2944 68.1401 21.5712 68.1556 21.8842C68.1711 22.1973 68.1789 22.5129 68.1789 22.8337C68.1789 23.1545 68.1478 23.4753 68.1271 23.7806Z" fill="#A799FD"/>
<path d="M87.3906 23.8869C87.3612 23.7811 87.3168 23.68 87.2586 23.5868C87.1963 23.484 87.1435 23.3758 87.1008 23.2634C87.0255 23.127 86.9697 22.9807 86.9352 22.8288C86.9143 22.7107 86.8646 22.5996 86.7903 22.5054C86.7593 22.4743 86.7438 22.451 86.7438 22.4381C86.7357 22.4051 86.7207 22.3743 86.6998 22.3476C86.6366 22.2395 86.5572 22.1417 86.4643 22.0578C86.383 21.9857 86.3116 21.9031 86.2522 21.812C86.2086 21.7229 86.1392 21.649 86.053 21.5999C85.8547 21.5101 85.6848 21.3678 85.5614 21.1885C85.4967 21.1297 85.4211 21.084 85.3389 21.054C85.2329 21.01 85.1268 20.9686 85.0155 20.9298C84.912 20.8962 84.8108 20.8556 84.7128 20.8082C84.6249 20.7642 84.5705 20.7125 84.5576 20.6504C84.5447 20.5883 84.5783 20.5133 84.6688 20.4615C84.7603 20.4061 84.8469 20.3429 84.9276 20.2727C85.1061 20.1381 85.2535 20.0139 85.3648 19.9156C85.4918 19.793 85.607 19.6587 85.7089 19.5146C85.8213 19.3632 85.9258 19.206 86.0219 19.0438C86.2917 18.3099 86.3908 17.5242 86.3117 16.7464C86.2946 16.6302 86.2615 16.5171 86.2134 16.41C86.1617 16.2949 86.1201 16.1754 86.0892 16.053C86.0592 15.9059 86.0368 15.7574 86.0219 15.608C86.0096 15.4712 85.98 15.3364 85.934 15.207C85.9016 15.1447 85.8644 15.085 85.8227 15.0285C85.7757 14.9667 85.7374 14.8988 85.7089 14.8267C85.5529 14.5002 85.3289 14.2108 85.0518 13.9781C84.7606 13.7579 84.4413 13.5778 84.1023 13.4425C84.0106 13.4118 83.9173 13.3858 83.8229 13.3649C83.7351 13.3444 83.6487 13.3185 83.5641 13.2873C83.4725 13.2631 83.3852 13.2247 83.3054 13.1735C83.2384 13.1298 83.1673 13.0926 83.0933 13.0622C82.866 13.0144 82.6347 12.9884 82.4025 12.9846C82.1438 12.9846 81.8592 12.9846 81.5746 12.9846L80.7726 13.0312C80.5139 13.0467 80.3172 13.0519 80.1698 13.0519C79.8838 13.0709 79.5968 13.0709 79.3108 13.0519C78.9353 13.0264 78.5584 13.0264 78.1828 13.0519C77.8527 13.0831 77.5209 13.0943 77.1894 13.0855C76.9096 13.0734 76.6293 13.0925 76.3537 13.1424C76.3552 13.1671 76.3468 13.1912 76.3304 13.2097C76.2994 13.2537 76.2787 13.277 76.2632 13.277C76.1481 13.3408 76.0163 13.3679 75.8854 13.3546C75.8445 13.342 75.8007 13.3427 75.7602 13.3567C75.7198 13.3706 75.6848 13.3971 75.6604 13.4322C75.6038 13.5038 75.5655 13.5882 75.5491 13.678C75.5206 13.797 75.4948 13.9367 75.4715 14.079C75.4482 14.2213 75.4353 14.3688 75.4275 14.5033C75.4197 14.6378 75.4275 14.7413 75.4275 14.8163C75.4254 14.8989 75.4332 14.9814 75.4508 15.0621C75.4663 15.1216 75.487 15.1966 75.518 15.2846C75.5466 15.4241 75.5579 15.5666 75.5517 15.7089C75.5517 15.8434 75.5336 15.9831 75.518 16.1332C75.3835 18.1719 75.3352 20.2028 75.3732 22.226C75.4111 24.2491 75.4111 26.3025 75.3732 28.386C75.3732 28.5645 75.3732 28.7508 75.3525 28.9448C75.3318 29.1389 75.3266 29.3174 75.3188 29.4804C75.311 29.6217 75.311 29.7633 75.3188 29.9047C75.3186 29.9896 75.3371 30.0735 75.3732 30.1505C75.3776 30.1635 75.3848 30.1754 75.3942 30.1854C75.4037 30.1955 75.4152 30.2033 75.428 30.2085C75.4407 30.2136 75.4545 30.216 75.4682 30.2153C75.482 30.2147 75.4955 30.2111 75.5077 30.2048C75.5951 30.1827 75.6876 30.1947 75.7664 30.2384C75.7975 30.2384 75.8104 30.2617 75.8104 30.3057C75.808 30.3234 75.8112 30.3414 75.8195 30.3572C75.8279 30.3729 75.841 30.3857 75.857 30.3936C75.8745 30.4014 75.8934 30.4054 75.9126 30.4054C75.9318 30.4054 75.9507 30.4014 75.9682 30.3936C76.0041 30.3806 76.0435 30.3806 76.0795 30.3936C76.3599 30.4404 76.6438 30.4629 76.9281 30.4609C77.2696 30.4764 77.5826 30.4868 77.8646 30.4945C78.1466 30.5023 78.4234 30.4945 78.6899 30.4945C78.9564 30.4945 79.2255 30.4945 79.4945 30.4945C79.7636 30.4945 80.0534 30.4764 80.3638 30.4609H81.3806C81.5798 30.4609 81.7635 30.4609 81.9265 30.4609C82.0264 30.4689 82.1267 30.4492 82.2162 30.404C82.2317 30.3911 82.2317 30.36 82.2162 30.316C82.2007 30.2721 82.2162 30.2488 82.2162 30.2488C82.2441 30.2356 82.2746 30.2288 82.3055 30.2288C82.3363 30.2288 82.3668 30.2356 82.3947 30.2488C82.4608 30.2664 82.5304 30.2664 82.5965 30.2488L83.3002 30.1039C83.5009 30.0631 83.6981 30.0069 83.8901 29.9357C84.1488 29.8477 84.4308 29.7469 84.7051 29.6356C84.9793 29.5244 85.2225 29.4235 85.4321 29.3329C85.5874 29.264 85.7307 29.1705 85.8564 29.0561C85.9288 28.9733 86.04 28.8569 86.1901 28.7094C86.3402 28.5619 86.5135 28.4041 86.6247 28.2851C86.7588 28.1351 86.8752 27.9702 86.9714 27.7935L87.093 27.5478C87.1314 27.4758 87.1651 27.4015 87.1939 27.3253C87.2333 27.2703 87.2533 27.2039 87.2508 27.1364C87.2448 27.0707 87.2564 27.0046 87.2845 26.945C87.2845 26.932 87.3052 26.9191 87.3517 26.9113C87.3983 26.9036 87.4164 26.8932 87.4164 26.8803C87.5036 26.6819 87.557 26.4702 87.5742 26.2542C87.6039 25.9758 87.6152 25.6958 87.6079 25.4159C87.6079 25.1262 87.582 24.8442 87.551 24.5699C87.5221 24.3372 87.4683 24.1082 87.3906 23.8869ZM79.3703 18.8109V18.2935C79.3543 18.1267 79.35 17.959 79.3574 17.7916C79.3574 17.6208 79.3703 17.4526 79.3703 17.2897C79.3654 17.2027 79.3541 17.1163 79.3367 17.0309C79.3134 16.9119 79.2953 16.7903 79.2798 16.6636C79.2684 16.5448 79.2684 16.4253 79.2798 16.3065C79.2789 16.2624 79.2874 16.2185 79.3048 16.1779C79.3222 16.1373 79.3481 16.1009 79.3807 16.0711C79.4404 16.0255 79.509 15.9929 79.5821 15.9755C79.6552 15.9581 79.7311 15.9563 79.805 15.9702C79.9835 15.9935 80.0948 16.0064 80.1387 16.0064C80.2342 15.9848 80.331 15.9693 80.4285 15.9599C80.563 15.9469 80.7105 15.9392 80.8761 15.9392C81.0416 15.9392 81.2072 15.9392 81.378 15.9392C81.532 15.9444 81.6853 15.9634 81.8359 15.9961C81.9734 16.0373 82.1075 16.0892 82.2369 16.1513C82.3263 16.1898 82.4128 16.2348 82.4956 16.2858C82.5248 16.3398 82.5577 16.3916 82.594 16.4411C82.6528 16.5233 82.7056 16.6098 82.7518 16.6998C82.8035 16.8033 82.8501 16.9042 82.8966 16.9999C82.9317 17.066 82.9545 17.1379 82.9639 17.212C82.9771 17.316 82.9771 17.4212 82.9639 17.5251C82.948 17.6641 82.9211 17.8016 82.8837 17.9364C82.8475 18.0787 82.8113 18.2133 82.7725 18.34C82.7528 18.4346 82.7111 18.5233 82.6509 18.5988C82.5632 18.669 82.4656 18.7257 82.3611 18.7669C82.211 18.8316 82.0429 18.8963 81.8592 18.9558C81.6755 19.0153 81.4815 19.067 81.29 19.111C81.1347 19.1493 80.9776 19.1796 80.8191 19.2016C80.7752 19.2016 80.682 19.2016 80.5423 19.2223C80.3937 19.2381 80.2442 19.2459 80.0947 19.2456H79.6705C79.5901 19.2561 79.5086 19.2407 79.4376 19.2016C79.4066 19.1861 79.3884 19.1421 79.3807 19.067C79.3686 18.9821 79.3608 18.8966 79.3574 18.8109H79.3703ZM83.5874 25.1934C83.5409 25.3653 83.4519 25.5228 83.3287 25.6514L83.2278 25.7626C83.1942 25.8066 83.153 25.8443 83.1062 25.8739C83.0928 25.8816 83.0777 25.8857 83.0622 25.8857C83.0468 25.8857 83.0316 25.8816 83.0182 25.8739C82.9872 25.8739 82.9639 25.8739 82.951 25.8739C82.876 25.9337 82.8113 26.0053 82.7595 26.086C82.7162 26.1609 82.65 26.2198 82.5707 26.2542C82.4014 26.2981 82.2279 26.3241 82.0532 26.3318C81.7945 26.3542 81.5824 26.3801 81.4168 26.4094L80.9278 26.456C80.7493 26.4689 80.5708 26.4767 80.3923 26.4767C80.2274 26.4776 80.0628 26.4628 79.9007 26.4327C79.8392 26.4254 79.7799 26.4058 79.7261 26.3751C79.6723 26.3445 79.6253 26.3033 79.5877 26.2542C79.5662 26.2163 79.5546 26.1736 79.554 26.13L79.5307 25.9308C79.5307 25.8635 79.5126 25.7704 79.4971 25.6514C79.4842 25.3539 79.4609 25.0977 79.4324 24.8752C79.401 24.5976 79.401 24.3172 79.4324 24.0396C79.4324 23.905 79.4609 23.7679 79.4764 23.6256C79.4761 23.5216 79.516 23.4215 79.5877 23.3462C79.6645 23.2871 79.7524 23.2439 79.8461 23.219C79.9398 23.1941 80.0375 23.1881 80.1336 23.2013C80.3923 23.2013 80.6743 23.2013 80.9718 23.2013C81.3737 23.1858 81.7048 23.1858 81.9653 23.2013C82.2548 23.2252 82.5378 23.3005 82.8009 23.4238C83.0316 23.5339 83.2316 23.6992 83.383 23.905C83.5431 24.1222 83.6334 24.383 83.6418 24.6527C83.6536 24.8356 83.6308 25.0191 83.5745 25.1934H83.5874Z" fill="#A799FD"/>
<path d="M125.058 28.9109C125.018 28.792 124.97 28.6761 124.913 28.5642C124.853 28.4452 124.791 28.3314 124.724 28.2176C124.657 28.1037 124.607 28.0287 124.579 27.9847C124.544 27.9494 124.518 27.9071 124.501 27.8605C124.482 27.8161 124.456 27.775 124.424 27.7389C124.392 27.7061 124.365 27.6686 124.344 27.6277C124.325 27.586 124.299 27.5482 124.266 27.5164C124.2 27.4679 124.15 27.4014 124.121 27.325C124.099 27.2566 124.065 27.1926 124.02 27.1361C124.014 27.1242 124.011 27.1109 124.011 27.0973C124.011 27.0838 124.014 27.0705 124.02 27.0585C124.028 27.047 124.032 27.0335 124.032 27.0197C124.032 27.0059 124.028 26.9924 124.02 26.9809C124.02 26.9654 123.999 26.955 123.953 26.9473C123.906 26.9395 123.888 26.9292 123.888 26.9136C123.738 26.7196 123.596 26.5178 123.464 26.3108L123.107 25.7546C123.076 25.7091 123.064 25.6535 123.073 25.5994C123.079 25.5445 123.067 25.4892 123.04 25.4415C123.003 25.4093 122.961 25.3831 122.915 25.3639C122.87 25.3474 122.828 25.3209 122.794 25.2863C122.778 25.2708 122.778 25.2501 122.794 25.219C122.8 25.209 122.804 25.1973 122.804 25.1854C122.804 25.1735 122.8 25.1618 122.794 25.1518C122.794 25.1388 122.771 25.1233 122.727 25.1078C122.683 25.0923 122.659 25.0793 122.659 25.0638C122.653 25.0537 122.65 25.042 122.65 25.0302C122.65 25.0183 122.653 25.0067 122.659 24.9965C122.663 24.9665 122.663 24.9361 122.659 24.906C122.636 24.8888 122.61 24.8773 122.582 24.8724C122.553 24.8708 122.525 24.8589 122.504 24.8387C122.455 24.758 122.416 24.671 122.39 24.58C122.364 24.486 122.319 24.3981 122.258 24.3213C122.209 24.2448 122.144 24.1803 122.067 24.1324C121.99 24.0853 121.925 24.0206 121.878 23.9436C121.821 23.8588 121.779 23.764 121.756 23.6642C121.736 23.5733 121.702 23.486 121.655 23.4054C121.565 23.2554 121.469 23.1105 121.366 22.9682C121.262 22.8259 121.148 22.6603 121.029 22.4663C120.941 22.3188 120.825 22.1429 120.685 21.9489C120.558 21.7948 120.49 21.6002 120.494 21.4004C120.518 21.2639 120.585 21.1387 120.685 21.0434C120.818 20.8932 120.934 20.7283 121.029 20.5518C121.076 20.4794 121.115 20.4043 121.154 20.3293C121.192 20.2543 121.231 20.1818 121.275 20.1068C121.425 19.8481 121.555 19.6127 121.666 19.3798C121.777 19.147 121.901 18.9089 122.033 18.6554C122.124 18.4769 122.217 18.3139 122.313 18.1638C122.407 18.0207 122.494 17.8721 122.571 17.7189C122.83 17.2273 123.066 16.7357 123.296 16.2442C123.526 15.7526 123.746 15.2481 123.953 14.7281C123.978 14.6403 124.009 14.5539 124.043 14.4694C124.087 14.3555 124.129 14.2443 124.165 14.133C124.201 14.0271 124.232 13.9191 124.256 13.8096C124.274 13.7367 124.274 13.6601 124.256 13.5871C124.227 13.4837 124.113 13.3776 123.922 13.2741C123.716 13.1643 123.503 13.0676 123.285 12.9843C123.066 12.8986 122.842 12.8243 122.615 12.7618C122.474 12.7162 122.328 12.6858 122.181 12.6713C122.096 12.6526 122.009 12.6414 121.922 12.6377C121.811 12.6377 121.697 12.6377 121.586 12.6377C121.474 12.6377 121.373 12.6377 121.286 12.6377C121.225 12.6388 121.164 12.6501 121.107 12.6713C121.048 12.7023 121.024 12.7386 121.04 12.7825C121.055 12.8265 121.024 12.9171 120.949 13.0413C120.874 13.1654 120.804 13.2715 120.737 13.375C120.668 13.4869 120.612 13.6068 120.571 13.732C120.541 13.8024 120.526 13.878 120.525 13.9545C120.525 14.0317 120.51 14.1082 120.481 14.1796C120.434 14.3045 120.374 14.4242 120.302 14.5366C120.227 14.6557 120.16 14.7669 120.103 14.8704C120.032 15.0103 119.973 15.1557 119.925 15.305C119.878 15.4473 119.842 15.5637 119.811 15.6517C119.78 15.7397 119.689 15.8613 119.622 15.9648C119.555 16.0682 119.485 16.1873 119.41 16.3218C119.335 16.4563 119.324 16.565 119.288 16.6892C119.244 16.8316 119.188 16.97 119.12 17.1031C119.076 17.1781 119.017 17.2816 118.942 17.4162C118.867 17.5507 118.786 17.6749 118.683 17.8275C118.602 17.9596 118.508 18.0835 118.403 18.1975C118.309 18.301 118.231 18.3449 118.171 18.3294C118.155 18.3294 118.129 18.2673 118.09 18.1406C118.052 18.0138 118.028 17.9517 118.013 17.9517C117.987 17.8797 117.935 17.8198 117.868 17.7835C117.806 17.7513 117.755 17.7007 117.723 17.6387C117.715 17.6313 117.709 17.6225 117.705 17.6127C117.701 17.6029 117.699 17.5923 117.7 17.5817C117.698 17.5548 117.691 17.5285 117.679 17.5041L117.635 17.4162C117.567 17.1787 117.48 16.9469 117.376 16.7228C117.29 16.5388 117.194 16.36 117.087 16.1872C117.066 16.1529 117.039 16.1231 117.006 16.0993L116.929 16.032C116.854 15.869 116.792 15.7164 116.74 15.5741C116.69 15.4379 116.627 15.3071 116.551 15.1834C116.429 14.9739 116.292 14.7436 116.127 14.4927C115.961 14.2417 115.798 13.9752 115.635 13.732C115.56 13.5975 115.483 13.4604 115.4 13.3207C115.317 13.181 115.237 13.0413 115.154 12.9067C115.079 12.7801 114.992 12.6606 114.895 12.5497C114.828 12.4614 114.739 12.3919 114.637 12.3479C114.556 12.3101 114.465 12.2984 114.378 12.3143C114.294 12.34 114.207 12.3514 114.119 12.3479C113.86 12.3322 113.6 12.34 113.343 12.3712C113.164 12.4022 112.963 12.4462 112.74 12.5057C112.423 12.5747 112.109 12.661 111.801 12.7644C111.67 12.7975 111.551 12.8679 111.459 12.9671C111.368 13.0663 111.306 13.19 111.284 13.3233C111.255 13.514 111.298 13.7086 111.405 13.8691C111.483 14.0045 111.57 14.135 111.664 14.2598C111.695 14.2933 111.721 14.3307 111.741 14.3711C111.76 14.4136 111.786 14.4522 111.819 14.4849C111.852 14.5168 111.878 14.5546 111.897 14.5961C111.918 14.6365 111.944 14.6739 111.974 14.7074C112.067 14.8138 112.153 14.9252 112.233 15.0411C112.313 15.1601 112.383 15.2585 112.443 15.3309C112.514 15.4419 112.571 15.562 112.611 15.6879C112.633 15.7782 112.675 15.8623 112.735 15.9337C112.86 16.0578 112.965 16.201 113.045 16.358C113.12 16.5081 113.195 16.6478 113.271 16.7823C113.529 17.1988 113.788 17.6076 113.995 18.0112C114.202 18.4148 114.461 18.8443 114.743 19.3048C114.833 19.4678 114.944 19.6515 115.076 19.8507C115.211 20.0524 115.335 20.2615 115.446 20.4768C115.556 20.6858 115.643 20.9061 115.705 21.1339C115.764 21.3375 115.772 21.5525 115.728 21.76C115.664 22.0104 115.558 22.2483 115.415 22.4637C115.252 22.7224 115.102 22.9811 114.968 23.2399C114.908 23.3589 114.846 23.4753 114.779 23.5865C114.712 23.6978 114.649 23.8142 114.59 23.9332C114.516 24.0498 114.451 24.1728 114.399 24.3006C114.344 24.4345 114.28 24.565 114.21 24.6913C114.041 25.0049 113.851 25.3065 113.64 25.5942C113.455 25.8467 113.287 26.1121 113.139 26.3884C113.018 26.5687 112.921 26.7634 112.849 26.968C112.783 27.1632 112.697 27.3506 112.59 27.5268C112.552 27.5972 112.499 27.6582 112.435 27.7053C112.357 27.7674 112.283 27.8339 112.212 27.9045C112.205 27.9184 112.201 27.9339 112.201 27.9498C112.201 27.9656 112.205 27.9812 112.212 27.9951C112.219 28.0051 112.222 28.0168 112.222 28.0287C112.222 28.0406 112.219 28.0523 112.212 28.0623C112.212 28.0753 112.189 28.0908 112.145 28.1063C112.113 28.1156 112.082 28.1305 112.055 28.1503C111.882 28.3675 111.729 28.5996 111.597 28.8437C111.528 28.9393 111.479 29.0483 111.454 29.1636C111.429 29.2789 111.428 29.3981 111.452 29.5137C111.476 29.5748 111.514 29.6296 111.563 29.6743C111.611 29.719 111.668 29.7525 111.731 29.7725L112.212 29.9846C112.478 30.0906 112.755 30.1653 113.038 30.2071C113.276 30.2356 113.586 30.2666 113.974 30.2951C114.169 30.3106 114.322 30.3261 114.432 30.3416C114.525 30.3547 114.619 30.3547 114.712 30.3416C114.786 30.3261 114.854 30.2913 114.911 30.2407C114.994 30.1618 115.069 30.0752 115.136 29.982C115.24 29.8646 115.327 29.7331 115.395 29.5914C115.454 29.464 115.522 29.3404 115.596 29.2214C115.619 29.1698 115.658 29.1271 115.708 29.0998C115.757 29.0718 115.796 29.0281 115.819 28.9756C115.851 28.9221 115.863 28.8587 115.852 28.7971C115.844 28.7288 115.855 28.6594 115.886 28.5979C115.917 28.5506 115.96 28.5122 116.01 28.4866C116.058 28.4587 116.1 28.4207 116.132 28.3754C116.235 28.1658 116.336 27.9588 116.432 27.7493C116.528 27.5397 116.631 27.3405 116.735 27.1465C116.809 26.9999 116.902 26.8214 117.014 26.6109C117.125 26.4014 117.239 26.1711 117.358 25.9202C117.374 25.8736 117.413 25.7882 117.472 25.6615C117.532 25.5347 117.594 25.4027 117.661 25.2708C117.728 25.1388 117.795 25.0121 117.863 24.9138C117.93 24.8154 117.984 24.7585 118.028 24.7585C118.072 24.7585 118.191 24.8336 118.287 24.981C118.383 25.1285 118.486 25.2656 118.577 25.382C118.667 25.4985 118.729 25.6407 118.812 25.7856C118.895 25.9305 118.962 26.0443 119.022 26.1427C119.095 26.2716 119.159 26.4056 119.213 26.5437C119.264 26.6763 119.327 26.8037 119.402 26.924C119.625 27.3103 119.883 27.7157 120.178 28.14C120.473 28.5642 120.726 28.9471 120.936 29.2886C121.013 29.396 121.075 29.5124 121.123 29.6353C121.154 29.7363 121.203 29.831 121.267 29.9148C121.342 30.0282 121.424 30.1363 121.513 30.2381C121.577 30.3099 121.652 30.3702 121.736 30.4167C121.816 30.4551 121.905 30.4737 121.994 30.471C122.114 30.4703 122.233 30.4634 122.351 30.4503C122.527 30.4275 122.7 30.3903 122.869 30.339L123.27 30.2045C123.389 30.1605 123.549 30.1036 123.749 30.0363C123.952 29.965 124.15 29.8785 124.341 29.7776C124.523 29.6907 124.696 29.5867 124.858 29.4672C124.981 29.3834 125.072 29.2615 125.117 29.1205C125.106 29.0484 125.086 28.978 125.058 28.9109Z" fill="#A799FD"/>
<path d="M46.531 49.1813C46.5145 49.0958 46.5033 49.0094 46.4974 48.9226C46.493 48.8509 46.4817 48.7799 46.4638 48.7104C46.439 48.641 46.4012 48.5769 46.3525 48.5216C46.3123 48.486 46.2782 48.4441 46.2516 48.3974C46.1848 48.2962 46.1318 48.1866 46.0938 48.0714C46.0733 47.9961 46.0428 47.9239 46.0033 47.8567C45.8843 47.7066 45.7859 47.5798 45.7109 47.4738C45.6785 47.4278 45.636 47.3897 45.5867 47.3625C45.5373 47.3344 45.4948 47.2955 45.4625 47.2487C45.4341 47.1737 45.4108 47.1142 45.3953 47.0702C45.3763 47.0193 45.3463 46.9734 45.3073 46.9356C45.2928 46.9208 45.2747 46.9099 45.2548 46.904C45.2349 46.8981 45.2137 46.8974 45.1935 46.902C45.1736 46.9061 45.153 46.9052 45.1336 46.8993C45.1141 46.8935 45.0965 46.8828 45.0822 46.8684C45.0482 46.8322 45.021 46.7901 45.002 46.7442C44.9829 46.699 44.9567 46.657 44.9244 46.62C44.78 46.5142 44.6297 46.4166 44.4743 46.3277C44.3397 46.2526 44.2026 46.1698 44.0681 46.0689C43.855 45.9253 43.6339 45.794 43.4057 45.6757C43.1884 45.5618 42.9504 45.4403 42.6969 45.3031C42.3968 45.1401 42.1406 45.0108 41.9207 44.9228C41.7008 44.8349 41.4473 44.7262 41.1446 44.6072C41.0514 44.5759 40.9606 44.5378 40.8729 44.4933C40.7894 44.4501 40.703 44.413 40.6142 44.3821C40.3555 44.276 40.0735 44.1648 39.7579 44.0432C39.4526 43.9287 39.1625 43.7776 38.8937 43.593C38.6383 43.4229 38.4293 43.1917 38.2858 42.9203C38.1393 42.6026 38.1109 42.243 38.2056 41.9062C38.3031 41.6075 38.5028 41.3529 38.7696 41.187C39.0138 41.0011 39.2998 40.8776 39.6026 40.8273C39.8003 40.7922 40.0033 40.8001 40.1977 40.8506C40.3244 40.8946 40.4564 40.9386 40.6142 40.9852C40.7671 41.0199 40.9175 41.0649 41.0644 41.1197C41.2299 41.1792 41.3645 41.2309 41.468 41.2775C41.6038 41.3588 41.732 41.4523 41.8509 41.5569C42.0009 41.6863 42.1587 41.8156 42.3243 41.9528C42.4775 42.0792 42.6392 42.195 42.8081 42.2994C42.9372 42.3885 43.0887 42.4396 43.2453 42.4469C43.4978 42.4109 43.7294 42.2872 43.8999 42.0976C44.125 41.8803 44.319 41.6889 44.4846 41.5233C44.5262 41.4855 44.5712 41.4517 44.6191 41.4224C44.6801 41.384 44.7335 41.3349 44.777 41.2775C44.8054 41.2309 44.8546 41.1611 44.9218 41.0628C44.9924 40.9618 45.0564 40.8564 45.1133 40.7471C45.17 40.6421 45.2193 40.5331 45.2608 40.4212C45.2903 40.3492 45.3095 40.2734 45.3177 40.1961C45.2978 40.0984 45.2502 40.0086 45.1805 39.9374C45.0926 39.8261 44.9891 39.7097 44.8778 39.5881L44.5415 39.2595C44.4724 39.1859 44.3971 39.1184 44.3164 39.0577C44.2616 39.0224 44.1999 38.9995 44.1353 38.9904C44.0623 38.9752 43.9935 38.9443 43.9335 38.8999C43.9183 38.8921 43.9051 38.8808 43.8952 38.8668C43.8853 38.8528 43.8789 38.8367 43.8766 38.8197C43.8728 38.7912 43.8612 38.7643 43.843 38.7421C43.7682 38.6669 43.6806 38.6055 43.5843 38.561C43.4947 38.5228 43.4082 38.4779 43.3255 38.4264C43.102 38.3072 42.8693 38.2059 42.6296 38.1237C42.389 38.041 42.1355 37.9633 41.8535 37.8857C41.7124 37.8558 41.5699 37.8334 41.4266 37.8185C41.2765 37.8185 41.186 37.7745 41.1679 37.7305C41.0511 37.6232 40.8968 37.5665 40.7384 37.5727C40.5135 37.5607 40.2881 37.5607 40.0631 37.5727C39.8449 37.5796 39.6273 37.5986 39.4112 37.6296C39.2171 37.6607 39.1033 37.6736 39.0748 37.6736C39.0483 37.6778 39.0212 37.6778 38.9946 37.6736C38.9696 37.664 38.942 37.664 38.917 37.6736C38.5729 37.7797 38.2263 37.8728 37.8822 37.9556C37.5501 38.0337 37.2262 38.1429 36.9146 38.2816C36.6885 38.3875 36.4735 38.5158 36.2729 38.6645C36.0711 38.8145 35.8952 38.949 35.7555 39.0706C35.5894 39.1914 35.4413 39.3351 35.3157 39.4975C35.197 39.6786 35.0881 39.8661 34.9897 40.0589C34.8707 40.3177 34.7724 40.5246 34.6974 40.6902C34.6071 40.9143 34.5462 41.1491 34.5163 41.3888C34.457 41.7983 34.4457 42.2133 34.4826 42.6254C34.5108 42.9905 34.5749 43.3518 34.6741 43.7043C34.706 43.8002 34.7328 43.8978 34.7543 43.9966C34.7676 44.0861 34.7937 44.1733 34.8319 44.2553C34.8474 44.2864 34.8785 44.3381 34.9224 44.4131C34.9664 44.4882 35.0156 44.5632 35.0673 44.6382L35.2148 44.84C35.2428 44.8796 35.273 44.9177 35.3053 44.9539C35.3751 45.0372 35.4503 45.1158 35.5304 45.1893C35.6055 45.2566 35.6805 45.329 35.7555 45.4014C35.8276 45.4761 35.8847 45.564 35.9237 45.6602C35.9561 45.7443 36.0054 45.8209 36.0686 45.8852C36.0834 45.9004 36.1011 45.9123 36.1207 45.9203C36.1402 45.9283 36.1612 45.9322 36.1824 45.9318C36.203 45.9308 36.2236 45.9342 36.2428 45.9418C36.262 45.9494 36.2793 45.961 36.2936 45.9758C36.3258 46.0086 36.3529 46.0461 36.3738 46.087C36.3942 46.1285 36.4203 46.1668 36.4515 46.2009C36.5922 46.315 36.7429 46.4162 36.9016 46.5036C37.0517 46.5864 37.1862 46.6666 37.3078 46.7416C37.6966 46.9738 38.0982 47.1837 38.5108 47.3703C38.9377 47.5669 39.3387 47.7377 39.7139 47.8877C40.089 48.0378 40.446 48.1956 40.8289 48.3612C41.1684 48.501 41.4891 48.6827 41.7836 48.9019C42.0423 49.0959 42.2829 49.2977 42.5158 49.5073C42.7456 49.7145 42.9002 49.9919 42.9556 50.2964C43.0011 50.5928 42.9817 50.8956 42.8987 51.1838C42.8241 51.4456 42.706 51.6931 42.5494 51.9159C42.408 52.1169 42.2329 52.2919 42.032 52.4334C41.8719 52.5565 41.6876 52.6447 41.4912 52.6921C41.2604 52.7542 41.0208 52.7769 40.7824 52.7593C40.5237 52.7438 40.2908 52.7205 40.0968 52.6921C40.0172 52.6893 39.9397 52.6661 39.8717 52.6248C39.8455 52.5968 39.8149 52.5732 39.7811 52.555C39.7048 52.5289 39.622 52.5289 39.5457 52.555C39.4684 52.5741 39.3876 52.5741 39.3103 52.555L38.8498 52.4023C38.7334 52.3709 38.62 52.3293 38.5108 52.2781C38.4097 52.2351 38.3148 52.1785 38.2288 52.11L37.9701 51.8952C37.8681 51.8206 37.7589 51.7565 37.6441 51.7038C37.5354 51.6532 37.4337 51.5889 37.3414 51.5123C37.2599 51.432 37.1847 51.3455 37.1164 51.2536C37.0491 51.1569 36.9738 51.066 36.8913 50.982C36.8007 50.894 36.7153 50.806 36.6326 50.7232C36.5295 50.6345 36.3957 50.5899 36.26 50.5991C36.1402 50.6 36.0233 50.6359 35.9237 50.7025C35.8164 50.772 35.7182 50.8546 35.6313 50.9483C35.5408 51.0466 35.458 51.1398 35.3726 51.2303C35.3134 51.3052 35.2457 51.373 35.1708 51.4321C35.1565 51.4472 35.1392 51.4591 35.1201 51.4671C35.1009 51.4751 35.0803 51.479 35.0596 51.4787C35.0173 51.4778 34.9764 51.4936 34.9457 51.5227C34.7866 51.667 34.6362 51.8208 34.4956 51.9832C34.3721 52.1243 34.2661 52.2798 34.1799 52.4463C34.1393 52.496 34.1085 52.5531 34.0894 52.6145V52.8292C34.0882 53.0137 34.1432 53.1942 34.2472 53.3466C34.3458 53.4689 34.4511 53.5855 34.5628 53.6959C34.6014 53.7416 34.6289 53.7956 34.643 53.8537C34.6553 53.912 34.682 53.9662 34.7206 54.0115C34.763 54.0465 34.8139 54.0697 34.8681 54.0788C34.897 54.0836 34.9247 54.0941 34.9496 54.1096C34.9744 54.1252 34.996 54.1455 35.013 54.1693C35.1442 54.2854 35.2686 54.4089 35.3855 54.5393C35.4862 54.6557 35.5951 54.7647 35.7115 54.8653C35.723 54.873 35.7365 54.8771 35.7503 54.8771C35.7641 54.8771 35.7777 54.873 35.7891 54.8653C35.8016 54.8589 35.8153 54.8556 35.8292 54.8556C35.8432 54.8556 35.8569 54.8589 35.8693 54.8653C35.8693 54.8653 35.8952 54.8886 35.903 54.9326C35.9036 54.951 35.9089 54.969 35.9184 54.9849C35.9279 55.0007 35.9413 55.0139 35.9573 55.0231C36.1407 55.1262 36.3329 55.2127 36.5317 55.2818C36.7645 55.3724 37.0077 55.4629 37.2638 55.5535C37.52 55.644 37.7657 55.732 38.0063 55.8122C38.217 55.8944 38.4354 55.9551 38.6583 55.9933C38.964 56.0384 39.2737 56.0496 39.5819 56.0269C39.895 56.0036 40.2028 55.9933 40.503 55.9933C40.9091 55.9933 41.2791 55.9933 41.5844 56.014C41.8432 56.03 42.1029 56.0231 42.3605 55.9933C42.4611 55.9693 42.559 55.9355 42.6529 55.8924C42.7622 55.843 42.8745 55.8006 42.9892 55.7656C43.2479 55.6751 43.4575 55.5897 43.6308 55.5069C43.8042 55.4241 43.9775 55.331 44.1483 55.2249L44.2957 55.1473C44.3496 55.1161 44.4058 55.0893 44.4639 55.0671C44.6507 54.9809 44.81 54.8448 44.9244 54.6738C45.0369 54.4932 45.1614 54.3204 45.297 54.1564C45.347 54.0903 45.4072 54.0327 45.4755 53.9857C45.5335 53.9516 45.5803 53.9012 45.61 53.8408C45.72 53.7071 45.8114 53.5592 45.8817 53.401C45.9416 53.2587 46.0089 53.1196 46.0835 52.9844C46.1148 52.9067 46.152 52.8314 46.1947 52.7593C46.2393 52.6879 46.2774 52.6125 46.3085 52.5343C46.337 52.4463 46.3655 52.3557 46.3862 52.2755C46.4069 52.1953 46.4353 52.0944 46.4664 52.0168C46.5328 51.8166 46.5745 51.6089 46.5906 51.3985C46.6113 51.1398 46.6268 50.8811 46.6345 50.6223C46.6428 50.3634 46.635 50.1042 46.6113 49.8462C46.588 49.5564 46.5595 49.3469 46.531 49.1813Z" fill="#A799FD"/>
<path d="M62.844 45.2671C62.813 44.9386 62.7716 44.6229 62.7199 44.3228C62.6681 44.0227 62.6034 43.7226 62.5284 43.4225C62.4534 43.1224 62.3861 42.83 62.3266 42.5455C62.2641 42.2609 62.1776 41.9822 62.0679 41.7124C61.9929 41.5468 61.9023 41.3683 61.8092 41.1717C61.716 40.975 61.6151 40.7965 61.5505 40.6335C61.4563 40.4024 61.3184 40.1915 61.1443 40.0126C60.9942 39.8703 60.7924 39.6944 60.5363 39.4952C60.3578 39.3296 60.187 39.1873 60.0318 39.0683C59.8758 38.9488 59.7095 38.8432 59.5351 38.7527C59.3574 38.6607 59.1732 38.582 58.984 38.5172C58.7559 38.4402 58.5235 38.3763 58.288 38.3258C58.2725 38.3258 58.2389 38.3025 58.1846 38.2585C58.1476 38.2239 58.1068 38.1935 58.063 38.168C57.7846 38.0975 57.502 38.0448 57.217 38.0101C56.8806 37.9662 56.5288 37.9351 56.1614 37.9196C55.794 37.9041 55.4215 37.9041 55.0463 37.9196C54.7078 37.9323 54.3701 37.9625 54.0347 38.0101C53.7878 38.0571 53.5434 38.1167 53.3026 38.1887C53.0574 38.2641 52.8172 38.3548 52.5833 38.4603C52.3505 38.5664 52.1332 38.6699 51.9314 38.776C51.7522 38.8688 51.5793 38.9733 51.4139 39.089C51.01 39.3899 50.6503 39.7461 50.3454 40.1471C50.0097 40.6064 49.7478 41.1153 49.5693 41.6555C49.4503 42.0142 49.3416 42.4075 49.2433 42.8352C49.145 43.2647 49.0752 43.6114 49.0286 43.8701C49.0001 44.0201 48.9691 44.165 48.9406 44.3099C48.91 44.4464 48.8875 44.5846 48.8734 44.7238C48.8582 44.8047 48.87 44.8884 48.907 44.9619C48.9417 45.0351 48.9535 45.1172 48.9406 45.1973C48.9402 45.457 48.9212 45.7164 48.8837 45.9734C48.8449 46.2322 48.819 46.4909 48.8035 46.7496C48.7581 47.4952 48.7659 48.243 48.8268 48.9875C48.8854 49.617 49.0058 50.2392 49.1864 50.8451C49.3413 51.386 49.5412 51.9131 49.784 52.4207C50.0077 52.8882 50.2998 53.3199 50.6507 53.7013C50.7387 53.7919 50.8603 53.9057 51.0104 54.0402C51.1149 54.1359 51.2274 54.2224 51.3467 54.2989C51.4226 54.3593 51.4898 54.4085 51.5485 54.4464L51.7296 54.5473C51.8341 54.6148 51.9472 54.6679 52.0659 54.7051C52.1897 54.7413 52.3107 54.7862 52.4281 54.8396C52.5161 54.8836 52.5989 54.9302 52.6739 54.9742C52.7457 55.0183 52.8209 55.0563 52.899 55.088C52.9834 55.1195 53.0699 55.1454 53.1577 55.1656C53.256 55.1889 53.3492 55.2148 53.4397 55.2432C53.6422 55.2988 53.849 55.3369 54.058 55.3571C54.3167 55.3855 54.6013 55.4062 54.9014 55.414C55.2016 55.4218 55.512 55.414 55.8354 55.414C56.1588 55.414 56.4693 55.3985 56.7694 55.37C56.8191 55.3716 56.8686 55.3785 56.9168 55.3907C56.9408 55.3999 56.9666 55.4028 56.992 55.3992C57.0173 55.3956 57.0414 55.3855 57.0617 55.37C57.0773 55.37 57.0773 55.3467 57.0617 55.3028C57.0462 55.2588 57.0462 55.2329 57.0617 55.2329C57.1119 55.2135 57.166 55.2064 57.2195 55.2122H57.4783C57.5843 55.2122 57.7033 55.2122 57.8405 55.2329C57.9344 55.3069 58.0075 55.4041 58.0526 55.5149C58.1354 55.6727 58.213 55.8331 58.2906 55.9987C58.4096 56.2083 58.5183 56.4178 58.6166 56.63C58.7149 56.8421 58.8132 57.0413 58.9193 57.2354C58.9943 57.3725 59.0771 57.507 59.178 57.6415C59.2554 57.7555 59.3229 57.8758 59.3798 58.0012C59.4393 58.1357 59.4626 58.2237 59.4471 58.2599C59.4316 58.2961 59.4911 58.3401 59.6282 58.3841C59.7119 58.4317 59.808 58.453 59.9041 58.4452C60.0001 58.4373 60.0915 58.4007 60.1663 58.3401C60.2532 58.2426 60.3513 58.1557 60.4587 58.0814C60.5925 58.0095 60.7205 57.9274 60.8416 57.8356C60.9606 57.7295 61.0589 57.6467 61.1339 57.5769C61.3435 57.4113 61.5841 57.2147 61.8532 56.9818C62.0919 56.8048 62.2532 56.5426 62.3033 56.2497C62.2932 56.1487 62.267 56.05 62.2257 55.9573C62.1714 55.8228 62.1248 55.6986 62.0782 55.5537C62.0317 55.4088 61.9618 55.3131 61.9101 55.1915L61.7652 54.8552C61.7103 54.7502 61.6499 54.6483 61.5841 54.5499C61.5057 54.4342 61.434 54.3141 61.3694 54.1903C61.3042 54.0668 61.248 53.9389 61.2012 53.8074C61.1616 53.7039 61.1389 53.5947 61.1339 53.484C61.1563 53.3769 61.2023 53.2761 61.2685 53.189C61.3486 53.0831 61.435 52.982 61.5272 52.8863C61.6177 52.788 61.7057 52.7001 61.7859 52.6276C61.8645 52.5587 61.9325 52.4785 61.9877 52.3896C62.1566 52.1459 62.2859 51.8769 62.3706 51.5928C62.4611 51.3004 62.5439 51.0029 62.6293 50.7028C62.6733 50.4932 62.7147 50.3044 62.7535 50.1414C62.7923 49.9784 62.8233 49.774 62.8544 49.5334C62.9436 48.7979 62.9774 48.0567 62.9553 47.3162C62.9113 46.5918 62.888 45.9113 62.844 45.2671ZM59.8973 48.2812C59.8945 48.4289 59.8789 48.576 59.8507 48.721C59.8222 48.8944 59.7912 49.0315 59.7627 49.1375C59.7317 49.2876 59.7084 49.404 59.6929 49.4868C59.6523 49.633 59.5922 49.7731 59.5144 49.9033C59.4843 49.9461 59.4575 49.9911 59.4342 50.0379C59.4147 50.0791 59.3885 50.1167 59.3565 50.1491C59.341 50.1957 59.3255 50.2319 59.3126 50.263C59.2815 50.338 59.2738 50.3742 59.2893 50.3742C59.2499 50.3786 59.2101 50.3738 59.1729 50.3604C59.1357 50.3469 59.102 50.3251 59.0745 50.2966C58.9859 50.2202 58.9069 50.1333 58.8391 50.0379L58.614 49.7352C58.5605 49.6549 58.4999 49.5796 58.4329 49.5101L58.2544 49.329C58.1785 49.2548 58.0923 49.1798 57.9957 49.1039C57.9143 49.0337 57.8279 48.9697 57.737 48.9125C57.6665 48.8695 57.5909 48.8356 57.5119 48.8116C57.272 48.787 57.0301 48.83 56.8134 48.9357C56.5909 49.0326 56.38 49.1541 56.1847 49.2979C56.0941 49.373 55.9932 49.4558 55.8794 49.5567C55.7696 49.6459 55.6752 49.7525 55.6 49.8723C55.5217 49.9963 55.4681 50.1342 55.4422 50.2785C55.4138 50.4462 55.4372 50.6186 55.5094 50.7726C55.542 50.8473 55.5876 50.9156 55.644 50.9744C55.7257 51.0747 55.8008 51.1802 55.869 51.2901C55.9418 51.4033 55.991 51.53 56.0139 51.6626C56.0248 51.726 56.0194 51.7911 55.9981 51.8517C55.9768 51.9124 55.9404 51.9666 55.8923 52.0093C55.8523 52.047 55.8022 52.0725 55.748 52.0826C55.6939 52.0927 55.638 52.087 55.587 52.0662C55.4603 52.03 55.2999 51.9886 55.1032 51.942C55.0673 51.929 55.0279 51.929 54.992 51.942C54.974 51.9497 54.9546 51.9537 54.9351 51.9537C54.9155 51.9537 54.8962 51.9497 54.8782 51.942L54.8342 51.8515C54.8214 51.8311 54.8134 51.8081 54.8109 51.7842C54.7267 51.7578 54.6364 51.7578 54.5522 51.7842C54.4827 51.803 54.4095 51.803 54.34 51.7842C54.2076 51.7196 54.0827 51.6407 53.9675 51.5488C53.7941 51.422 53.6648 51.3211 53.5742 51.2461C53.3213 51.0672 53.0971 50.8509 52.9093 50.6045C52.7393 50.3471 52.5996 50.0711 52.4928 49.7817C52.3174 49.3444 52.2152 48.8811 52.1901 48.4105C52.1542 47.8074 52.1542 47.2027 52.1901 46.5995C52.203 46.1959 52.2315 45.782 52.2677 45.3629C52.302 44.9618 52.3625 44.5634 52.4488 44.1702C52.5234 43.8169 52.6281 43.4707 52.7619 43.1353C52.8818 42.8452 53.0576 42.5815 53.2793 42.3592C53.2925 42.3232 53.3135 42.2907 53.3408 42.2638C53.3681 42.237 53.401 42.2165 53.4371 42.2039C53.4518 42.1887 53.4695 42.1767 53.4891 42.1687C53.5087 42.1607 53.5298 42.1568 53.5509 42.1574C53.5715 42.1582 53.5921 42.1547 53.6112 42.1472C53.6304 42.1396 53.6478 42.1281 53.6622 42.1134C53.7246 42.0795 53.7758 42.0283 53.8097 41.9659C53.846 41.8985 53.9058 41.847 53.9778 41.821C54.0456 41.7871 54.1167 41.7602 54.19 41.7408C54.2711 41.7208 54.3507 41.6949 54.428 41.6632C54.5089 41.6291 54.5847 41.5838 54.6531 41.5287C54.702 41.4811 54.7643 41.4495 54.8316 41.4381C54.926 41.4081 55.026 41.4001 55.1239 41.4149C55.2284 41.4303 55.3339 41.4381 55.4396 41.4381C55.6802 41.4071 55.9311 41.3864 56.1924 41.3709C56.4308 41.3533 56.6705 41.376 56.9013 41.4381C56.9761 41.4503 57.0465 41.4815 57.1057 41.5287C57.1858 41.5844 57.2728 41.6297 57.3644 41.6632C57.4409 41.6949 57.5196 41.7208 57.5999 41.7408C57.6807 41.7629 57.7602 41.7897 57.8379 41.821C57.8379 41.821 57.8637 41.8417 57.8715 41.8883C57.873 41.9213 57.8847 41.9529 57.9051 41.9789C58.1348 42.0626 58.3451 42.192 58.5235 42.3592C58.7032 42.5736 58.8577 42.808 58.984 43.0577C59.1345 43.3142 59.2659 43.5814 59.3772 43.8571C59.5128 44.1912 59.615 44.5378 59.6825 44.892C59.7566 45.2774 59.7938 45.669 59.7938 46.0614C59.7938 46.4521 59.8093 46.8867 59.8403 47.355C59.8392 47.5173 59.854 47.6793 59.8843 47.8388C59.9104 47.9848 59.9148 48.1339 59.8973 48.2812V48.2812Z" fill="#A799FD"/>
<path d="M78.3471 41.6685C78.3471 41.4098 78.3471 41.0942 78.3471 40.7113C78.3471 40.3284 78.3213 39.9507 78.2902 39.5755C78.2825 39.4472 78.2678 39.3194 78.2462 39.1926C78.2152 38.9986 78.1841 38.7916 78.1557 38.5743C78.1272 38.357 78.091 38.1655 78.0548 37.9999C78.0352 37.9007 78.0084 37.8029 77.9746 37.7076C77.8565 37.682 77.7353 37.6742 77.615 37.6843C77.4269 37.6869 77.2389 37.6722 77.0536 37.6403C76.9477 37.6093 76.8379 37.5936 76.7276 37.5938C76.6316 37.5975 76.5358 37.5825 76.4456 37.5498C76.4258 37.544 76.4076 37.5341 76.392 37.5207C76.3763 37.5073 76.3638 37.4908 76.355 37.4721C76.3395 37.4333 76.3188 37.4152 76.2878 37.4152C76.2127 37.3997 76.0808 37.3816 75.8945 37.3583C75.7082 37.335 75.5116 37.3221 75.3098 37.3143C75.122 37.3024 74.9336 37.3024 74.7458 37.3143C74.6306 37.3114 74.5171 37.343 74.4198 37.4049C74.3448 37.4644 74.3215 37.6274 74.3526 37.8887C74.3836 38.15 74.4043 38.4242 74.4198 38.7088C74.4353 38.9934 74.469 39.2573 74.4767 39.4513C74.4845 39.6454 74.4949 39.8886 74.5104 40.1731C74.4936 40.1741 74.4778 40.1815 74.4664 40.1939C74.4353 40.2249 74.4198 40.2482 74.4198 40.2611C74.419 40.2674 74.4196 40.2739 74.4216 40.2799C74.4237 40.2859 74.4271 40.2914 74.4316 40.2959C74.4361 40.3004 74.4416 40.3038 74.4476 40.3059C74.4537 40.3079 74.4601 40.3085 74.4664 40.3077C74.4715 40.3146 74.4781 40.3204 74.4857 40.3244C74.4933 40.3284 74.5018 40.3307 74.5104 40.331C74.6129 41.2491 74.6467 42.1735 74.6113 43.0967C74.575 43.997 74.5388 44.9335 74.5104 45.9089C74.4949 46.1676 74.4845 46.4548 74.4767 46.7756C74.469 47.0964 74.4535 47.4146 74.4328 47.7199C74.4121 48.0252 74.3784 48.3175 74.3422 48.5866C74.3169 48.8019 74.2674 49.0137 74.1947 49.2179C74.0855 49.5168 73.946 49.8038 73.7782 50.0742C73.625 50.3013 73.4213 50.4899 73.1832 50.6253C73.013 50.741 72.8211 50.8211 72.6192 50.8607C72.3968 50.9018 72.1688 50.9018 71.9465 50.8607C71.8429 50.8371 71.7409 50.8068 71.6412 50.7702C71.5131 50.7254 71.3893 50.6691 71.2712 50.602L70.9323 50.4106C70.8517 50.3665 70.7762 50.3136 70.7072 50.2527C70.6929 50.238 70.6817 50.2206 70.6741 50.2015C70.6666 50.1824 70.6629 50.162 70.6633 50.1415C70.6642 50.1023 70.6563 50.0634 70.64 50.0277L70.5624 49.9501L70.4822 49.8699C70.2949 49.5584 70.1652 49.2157 70.0993 48.8583C70.005 48.4043 69.9342 47.9457 69.8871 47.4845C69.8328 46.9903 69.7966 46.4832 69.7733 45.9658C69.75 45.4484 69.7319 44.9723 69.7189 44.5377C69.6879 44.2221 69.6543 43.922 69.6155 43.6374C69.5803 43.3689 69.5621 43.0984 69.5611 42.8276V42.0954C69.5611 41.8031 69.5611 41.49 69.5611 41.1511C69.5611 40.8122 69.5766 40.4629 69.5844 40.0929C69.5922 39.723 69.6025 39.3789 69.618 39.0581C69.6212 38.9106 69.6359 38.7635 69.662 38.6183C69.6931 38.4475 69.719 38.2793 69.7422 38.1008C69.7626 37.9516 69.7738 37.8013 69.7759 37.6507C69.7813 37.5414 69.7581 37.4326 69.7086 37.335C69.6366 37.2906 69.555 37.264 69.4706 37.2574C69.3438 37.2341 69.2119 37.2083 69.0773 37.1772C68.7155 37.0978 68.3456 37.0604 67.9752 37.066C67.5535 37.066 67.199 37.0815 66.917 37.11C66.723 37.1255 66.5264 37.1332 66.3323 37.1332C66.1887 37.1279 66.045 37.1427 65.9055 37.1772C65.8007 37.2276 65.6988 37.2838 65.6002 37.3454C65.5177 37.4534 65.4674 37.5826 65.4553 37.7179C65.4242 37.8822 65.4322 38.0515 65.4786 38.2121C65.5232 38.3807 65.5381 38.5558 65.5226 38.7295C65.5226 38.8951 65.5226 39.1021 65.4889 39.3478C65.4553 39.5936 65.4475 39.8653 65.432 40.124C65.4165 40.3827 65.401 40.6621 65.388 40.9338C65.3751 41.2054 65.3647 41.4512 65.3647 41.6763C65.3803 42.0204 65.4061 42.38 65.4449 42.7552C65.4838 43.1303 65.5071 43.5132 65.5226 43.9039C65.5381 44.3514 65.5226 44.7912 65.5226 45.2181C65.4953 45.6342 65.4953 46.0516 65.5226 46.4677C65.5536 46.8144 65.5898 47.1249 65.6338 47.4017C65.6778 47.6785 65.7166 47.9191 65.7477 48.1546C65.7787 48.3357 65.8046 48.4961 65.8253 48.6384C65.846 48.7807 65.8744 48.9281 65.9055 49.0782C65.9365 49.2282 65.9572 49.4119 65.9727 49.5956C65.9871 49.7662 66.0174 49.9351 66.0633 50.1001C66.0909 50.2009 66.1282 50.2988 66.1745 50.3925C66.2211 50.483 66.2573 50.5658 66.2884 50.6512L66.648 51.686C66.7483 52.0011 66.892 52.3006 67.0749 52.576C67.1939 52.7847 67.3103 52.9762 67.4241 53.1504C67.5354 53.3211 67.6518 53.4919 67.7734 53.6549C67.7882 53.6872 67.8114 53.7149 67.8407 53.7351C67.8719 53.7587 67.9013 53.7846 67.9286 53.8127C68.1553 54.1116 68.4158 54.3833 68.7048 54.6225C68.9653 54.8516 69.2529 55.048 69.5611 55.2072L69.9777 55.4116C70.1044 55.4711 70.2493 55.5306 70.4149 55.5901C70.6629 55.6894 70.9246 55.7505 71.191 55.7712C71.4989 55.7996 71.7809 55.8152 72.0345 55.8152C72.3432 55.816 72.6518 55.797 72.9581 55.7582C73.1971 55.737 73.4317 55.6804 73.654 55.5901C73.8507 55.515 74.0369 55.4374 74.218 55.3546C74.3725 55.2849 74.5228 55.2063 74.6682 55.1192C74.9269 54.9536 75.1856 54.7855 75.4883 54.6018C75.7545 54.4505 75.994 54.2565 76.1972 54.0274C76.2637 53.9456 76.3242 53.8592 76.3783 53.7687C76.4378 53.6626 76.5051 53.5514 76.5801 53.4298C76.608 53.3742 76.6511 53.3275 76.7043 53.2953C76.7497 53.271 76.7915 53.2405 76.8285 53.2047C76.9554 53.0558 77.0442 52.8782 77.0872 52.6873C77.1363 52.4659 77.2002 52.2481 77.2787 52.0353C77.3382 51.9008 77.3976 51.7766 77.4572 51.6421C77.5148 51.5229 77.5599 51.398 77.5917 51.2695C77.6383 51.0755 77.6745 50.8763 77.7055 50.6745C77.7259 50.5098 77.7631 50.3477 77.8168 50.1907C77.8607 50.0932 77.8954 49.9919 77.9203 49.888C77.945 49.8033 77.9632 49.7168 77.9746 49.6292C77.9786 49.6235 77.9813 49.6169 77.9824 49.61C77.9835 49.6031 77.9831 49.596 77.9811 49.5893C77.9791 49.5826 77.9756 49.5764 77.9709 49.5713C77.9662 49.5661 77.9604 49.562 77.9539 49.5594C77.9229 49.5456 77.9073 49.5456 77.9073 49.5594C77.9206 49.4935 77.9432 49.4299 77.9746 49.3705C78.0088 49.3087 78.039 49.2447 78.0651 49.1791C78.0807 49.0935 78.0807 49.0059 78.0651 48.9204C78.0496 48.827 78.0496 48.7317 78.0651 48.6384C78.0806 48.4865 78.1074 48.336 78.1453 48.1882C78.1825 48.0324 78.2084 47.8742 78.223 47.7147C78.241 47.4261 78.241 47.1367 78.223 46.848C78.1952 46.5901 78.1952 46.3299 78.223 46.0719C78.222 46.0029 78.2458 45.9359 78.2902 45.883C78.3348 45.8293 78.3587 45.7614 78.3575 45.6916C78.3724 45.6227 78.3642 45.5509 78.3342 45.4872C78.3031 45.4046 78.2882 45.3167 78.2902 45.2285C78.3057 44.8378 78.3135 44.4032 78.3135 43.9349C78.3135 43.4666 78.3135 43.0346 78.2902 42.6749C78.2907 42.5093 78.3055 42.3439 78.3342 42.1808C78.3634 42.0116 78.3677 41.839 78.3471 41.6685V41.6685Z" fill="#A799FD"/>
<path d="M93.6566 52.682C93.6359 52.3896 93.6126 52.1051 93.5893 51.8256C93.5661 51.5462 93.5402 51.2668 93.5117 50.9822C93.4833 50.6976 93.4522 50.382 93.4212 50.0379C93.347 49.2876 93.2685 48.5865 93.1857 47.9345C93.103 47.28 93.0227 46.5659 92.9477 45.7846C92.9193 45.4845 92.8727 45.1482 92.8132 44.773C92.7598 44.4679 92.7295 44.1591 92.7226 43.8494C92.7226 43.7899 92.7382 43.7537 92.7692 43.7382C92.8002 43.7226 92.8054 43.6864 92.7925 43.6243C92.7751 43.543 92.7482 43.4639 92.7123 43.3889C92.6761 43.3061 92.6476 43.2492 92.6347 43.2207C92.6338 43.2063 92.6376 43.1919 92.6455 43.1798C92.6534 43.1677 92.6651 43.1584 92.6787 43.1535C92.6922 43.1477 92.7037 43.1379 92.7116 43.1254C92.7194 43.1129 92.7233 43.0983 92.7226 43.0836C92.7123 43.0314 92.6851 42.9841 92.645 42.9491C92.6075 42.9216 92.5802 42.8825 92.5674 42.8378C92.5409 42.7687 92.5409 42.6922 92.5674 42.6231C92.5855 42.5457 92.5855 42.4651 92.5674 42.3877L92.4769 42.0384C92.445 41.924 92.4225 41.8072 92.4096 41.6891C92.3789 41.4889 92.3711 41.2858 92.3863 41.0837C92.4127 40.9446 92.3889 40.8007 92.319 40.6775C92.2822 40.6282 92.2571 40.5711 92.2454 40.5106C92.2338 40.4501 92.2359 40.3878 92.2518 40.3283C92.28 40.1909 92.28 40.0491 92.2518 39.9117C92.1923 39.5676 92.1302 39.2572 92.0707 38.9778C92.0112 38.6984 91.9439 38.4189 91.8689 38.1344C91.8249 37.9403 91.7835 37.7411 91.7447 37.5393C91.7349 37.4173 91.7006 37.2985 91.6438 37.19C91.5204 37.1496 91.3894 37.1381 91.2609 37.1564C91.0508 37.1633 90.8404 37.152 90.6322 37.1228C90.3916 37.1073 90.0993 37.0969 89.7526 37.0891C89.4059 37.0814 89.0644 37.0891 88.7177 37.0891C88.371 37.0891 88.0632 37.0891 87.7863 37.1124C87.5095 37.1357 87.3232 37.1357 87.2327 37.1357C86.8886 37.1642 86.4772 37.1926 85.996 37.2133C85.6024 37.2253 85.2109 37.2747 84.8266 37.3608C84.6015 37.4203 84.4282 37.4695 84.3092 37.5057C84.2046 37.535 84.1104 37.5933 84.0375 37.6738C83.9705 37.7656 83.9213 37.8692 83.8926 37.9791C83.853 38.1068 83.8038 38.2905 83.7452 38.5302C83.6857 38.7242 83.6262 38.9234 83.5667 39.1252C83.5072 39.327 83.4606 39.49 83.4321 39.609C83.4037 39.728 83.3752 39.7953 83.3519 39.891C83.3317 39.9789 83.3058 40.0653 83.2743 40.1498C83.2452 40.2558 83.2339 40.366 83.2407 40.4757C83.2479 40.571 83.2365 40.6668 83.207 40.7577C83.1534 40.9479 83.0815 41.1325 82.9923 41.3088C82.9138 41.4532 82.8571 41.6084 82.8241 41.7693C82.7957 41.8527 82.7912 41.9423 82.8112 42.028C82.8328 42.1125 82.8372 42.2005 82.8241 42.2868C82.8104 42.3585 82.7831 42.4269 82.7439 42.4886C82.7099 42.5451 82.6838 42.606 82.6663 42.6697C82.5473 43.1871 82.4076 43.7563 82.2834 44.3565C82.1592 44.9567 82.0247 45.4819 81.9005 45.9321C81.8702 46.0149 81.8553 46.1026 81.8565 46.1908C81.8565 46.2865 81.8416 46.3816 81.8126 46.4728C81.7349 46.8014 81.6573 47.117 81.5745 47.4171C81.4918 47.7172 81.4219 48.0173 81.3624 48.3174C81.3313 48.4009 81.3313 48.4927 81.3624 48.5762C81.3909 48.668 81.3909 48.7663 81.3624 48.8582H81.2046C81.1959 48.8689 81.1902 48.8817 81.1879 48.8953C81.1857 48.9089 81.1869 48.9228 81.1916 48.9358C81.1977 48.9613 81.2021 48.9873 81.2046 49.0134C81.1449 49.1681 81.1108 49.3315 81.1037 49.4972C81.1037 49.655 81.0752 49.8309 81.0468 50.0276C81.0183 50.2242 80.9898 50.3432 80.9666 50.4312C80.9433 50.5191 80.9174 50.62 80.8889 50.7235C80.8139 51.0702 80.7337 51.4143 80.6535 51.7584C80.5733 52.1025 80.4905 52.4491 80.4155 52.7932C80.3998 52.8603 80.4043 52.9305 80.4284 52.995C80.4497 53.0615 80.4451 53.1336 80.4155 53.1968C80.4076 53.2565 80.3804 53.312 80.3379 53.3546C80.297 53.3894 80.2688 53.4367 80.2577 53.4892C80.2292 53.6392 80.2059 53.7996 80.1904 53.973C80.1749 54.1463 80.1645 54.3041 80.1568 54.4464C80.149 54.5887 80.1568 54.7051 80.1568 54.8267C80.1472 54.9012 80.1627 54.9768 80.2008 55.0415C80.2636 55.1097 80.3407 55.1631 80.4265 55.198C80.5124 55.2329 80.6049 55.2483 80.6975 55.2433C80.9355 55.2588 81.1606 55.2666 81.3727 55.2666C81.6108 55.2821 81.8565 55.2847 82.1023 55.2666C82.3481 55.2485 82.5939 55.2666 82.8345 55.2666C82.8949 55.2666 83.0035 55.2743 83.1605 55.2898L83.6546 55.3338C83.8088 55.3437 83.9635 55.3437 84.1177 55.3338C84.2105 55.3371 84.3017 55.3088 84.3764 55.2536C84.4034 55.1896 84.4183 55.1212 84.4204 55.0518C84.436 54.9302 84.4463 54.7931 84.4541 54.6689C84.4618 54.5447 84.4748 54.4102 84.4877 54.2757C84.5006 54.1411 84.511 54.0609 84.511 54.017C84.5575 53.8074 84.6015 53.603 84.6455 53.409C84.6895 53.2149 84.7283 53.0338 84.7593 52.8683C84.787 52.7277 84.7983 52.5845 84.793 52.4414C84.7841 52.3282 84.7955 52.2143 84.8266 52.105C84.8333 52.045 84.8607 51.9892 84.9042 51.9472C84.9487 51.9057 84.9771 51.8498 84.9844 51.7894C85.0128 51.6788 85.0199 51.5638 85.0051 51.4505C85.0051 51.347 84.9844 51.2797 84.9844 51.2487C84.9889 51.2235 85.0006 51.2001 85.0181 51.1814C85.0397 51.1562 85.0516 51.1241 85.0517 51.0909C85.0689 50.9986 85.0802 50.9052 85.0853 50.8115C85.0867 50.762 85.0985 50.7134 85.1199 50.6689C85.1412 50.6243 85.1718 50.5847 85.2095 50.5527C85.238 50.5243 85.2354 50.4984 85.1966 50.4751C85.1578 50.4518 85.1422 50.4493 85.1422 50.4751C85.1606 50.4191 85.1867 50.366 85.2199 50.3173C85.25 50.2746 85.2768 50.2296 85.3001 50.1828C85.3396 50.0358 85.3622 49.8847 85.3673 49.7326C85.3692 49.6686 85.3839 49.6056 85.4106 49.5474C85.4373 49.4892 85.4753 49.4369 85.5226 49.3937C85.5928 49.3313 85.6746 49.2833 85.7634 49.2527C85.8522 49.222 85.9462 49.2093 86.04 49.2152C86.259 49.2156 86.4778 49.2 86.6945 49.1686C86.8239 49.1523 86.9519 49.1264 87.0774 49.091C87.287 49.0393 87.5121 48.9927 87.7501 48.9565C87.9881 48.9202 88.2236 48.8918 88.4486 48.8763C88.6096 48.8516 88.7743 48.875 88.9221 48.9435C88.9502 48.9899 88.9728 49.0394 88.9894 49.091L89.0799 49.3497L89.1679 49.7093C89.1836 49.8847 89.1606 50.0613 89.1006 50.2268C89.0483 50.3563 89.0177 50.4935 89.0101 50.6329C89.0158 50.7955 89.0349 50.9573 89.067 51.1168C89.1058 51.3186 89.1394 51.5462 89.1679 51.8023C89.1834 52.1464 89.1912 52.519 89.1912 52.9148C89.1912 53.3107 89.2067 53.7376 89.2351 54.1877C89.2662 54.4128 89.2972 54.6405 89.3257 54.8733C89.3541 55.1062 89.4007 55.2381 89.4602 55.2666C89.5517 55.2934 89.647 55.3048 89.7422 55.3002L90.3606 55.3235C90.6012 55.3235 90.8599 55.3235 91.1367 55.3235H91.9129C92.1535 55.3235 92.3553 55.3235 92.5208 55.3028C92.609 55.3009 92.6963 55.2852 92.7796 55.2562C92.7796 55.2562 92.7796 55.2329 92.7796 55.189C92.7796 55.145 92.764 55.1217 92.7796 55.1217C92.9333 55.0471 93.1092 55.0314 93.2737 55.0777C93.3323 55.103 93.3966 55.1121 93.4599 55.1039C93.5232 55.0957 93.5831 55.0705 93.6333 55.0311C93.6827 54.8712 93.7054 54.7043 93.7006 54.537C93.7161 54.2371 93.7161 53.9366 93.7006 53.6367C93.698 53.3003 93.6799 52.9743 93.6566 52.682ZM88.8548 44.861C88.8238 44.9075 88.7436 44.9386 88.6168 44.9515C88.49 44.9645 88.3581 44.9774 88.1899 44.9852C88.0218 44.9929 87.8795 44.9852 87.7294 44.9852H87.3905C87.3139 44.996 87.2385 45.0142 87.1654 45.0395C87.0397 45.0802 86.9119 45.1139 86.7825 45.1404C86.6575 45.1696 86.5303 45.1887 86.4022 45.1973C86.3575 45.2075 86.3112 45.2077 86.2665 45.1978C86.2217 45.188 86.1797 45.1684 86.1435 45.1404C86.1128 45.1152 86.0894 45.0822 86.0757 45.0449C86.0621 45.0076 86.0587 44.9673 86.0659 44.9282C86.0727 44.8221 86.0874 44.7166 86.1098 44.6126C86.1321 44.5019 86.1624 44.393 86.2004 44.2866C86.2343 44.1915 86.2603 44.0937 86.278 43.9943C86.3496 43.714 86.3989 43.4286 86.4255 43.1405C86.4504 42.8498 86.5068 42.5627 86.5936 42.2842C86.6545 42.1601 86.7072 42.0322 86.7515 41.9013L86.8187 41.6762L86.9093 41.3502C86.9363 41.243 86.97 41.1376 87.0102 41.0346C87.0357 40.9557 87.0781 40.8833 87.1344 40.8224C87.1519 40.8092 87.1732 40.802 87.1952 40.802C87.2171 40.802 87.2384 40.8092 87.256 40.8224C87.2754 40.8315 87.2966 40.8361 87.3181 40.8361C87.3395 40.8361 87.3607 40.8315 87.3801 40.8224C87.3848 40.8156 87.3873 40.8074 87.3873 40.7991C87.3873 40.7908 87.3848 40.7827 87.3801 40.7759C87.3801 40.7629 87.3801 40.7474 87.4345 40.7319C87.4888 40.7164 87.5509 40.7319 87.6492 40.7319C87.7475 40.7319 87.851 40.7319 87.9649 40.7319H88.2675C88.3289 40.7275 88.3904 40.7354 88.4486 40.7552C88.4771 40.9647 88.5081 41.1406 88.5392 41.2726C88.5702 41.4045 88.5987 41.5546 88.6272 41.6891C88.6524 41.7848 88.6679 41.8827 88.6737 41.9815C88.6867 42.12 88.6867 42.2595 88.6737 42.398C88.6577 42.4913 88.6577 42.5867 88.6737 42.68C88.6848 42.8085 88.703 42.9364 88.7281 43.0629C88.7669 43.2725 88.8031 43.4976 88.8419 43.7382C88.8773 43.9652 88.8997 44.1941 88.9092 44.4237C88.9385 44.5715 88.9195 44.7249 88.8548 44.861V44.861Z" fill="#A799FD"/>
<path d="M108.609 45.9189C108.579 45.1997 108.538 44.4916 108.484 43.7948C108.448 43.1804 108.339 42.5724 108.158 41.9838C108.092 41.835 108.014 41.6922 107.923 41.5569C107.849 41.455 107.792 41.3413 107.755 41.2206C107.726 41.118 107.715 41.0113 107.721 40.905C107.731 40.8173 107.719 40.7286 107.688 40.6463C107.662 40.622 107.636 40.5995 107.607 40.579C107.579 40.5592 107.553 40.5367 107.53 40.5117C107.515 40.4927 107.505 40.471 107.499 40.4479C107.493 40.4248 107.492 40.4007 107.496 40.3772C107.5 40.3569 107.499 40.336 107.493 40.3162C107.487 40.2964 107.477 40.2783 107.462 40.2634C107.403 40.1883 107.346 40.1262 107.294 40.0719C107.237 40.0162 107.187 39.9526 107.147 39.883L106.72 39.3087C106.595 39.1466 106.451 38.999 106.293 38.8689C106.203 38.7938 106.115 38.7266 106.034 38.6671C105.957 38.6133 105.886 38.5527 105.82 38.486C105.805 38.4715 105.787 38.4609 105.767 38.455C105.747 38.4492 105.726 38.4482 105.706 38.4523C105.688 38.4577 105.669 38.4586 105.65 38.455C105.632 38.4514 105.614 38.4434 105.6 38.4316C105.539 38.3864 105.489 38.3291 105.452 38.2635C105.415 38.196 105.356 38.1438 105.284 38.116C105.121 38.0245 104.947 37.9533 104.767 37.9039C104.547 37.8366 104.386 37.7797 104.283 37.7357C104.179 37.6917 104.058 37.6296 103.921 37.5546C103.837 37.5041 103.751 37.4591 103.662 37.4201C103.471 37.3713 103.274 37.3521 103.077 37.3631C102.906 37.3832 102.733 37.3478 102.583 37.2622C102.537 37.2338 102.505 37.2208 102.493 37.2286C102.48 37.2364 102.433 37.2286 102.358 37.195C102.077 37.1272 101.79 37.0857 101.502 37.0708C101.146 37.0513 100.789 37.0513 100.433 37.0708C100.066 37.0863 99.7087 37.1044 99.3646 37.1277C99.0206 37.151 98.7256 37.1743 98.4876 37.2053C98.4281 37.2053 98.3479 37.2053 98.2496 37.2053C98.149 37.1939 98.0474 37.1939 97.9469 37.2053C97.8659 37.2229 97.787 37.2489 97.7114 37.2829C97.6355 37.3189 97.5556 37.3458 97.4734 37.3631C97.1596 37.393 96.8443 37.4042 96.5291 37.3968C96.4094 37.3793 96.2874 37.3874 96.171 37.4204C96.0547 37.4534 95.9466 37.5106 95.8539 37.5882C95.8126 37.6804 95.7898 37.7797 95.7866 37.8806C95.7711 38.0306 95.7607 38.2066 95.753 38.398C95.7452 38.5895 95.753 38.8145 95.753 39.0396C95.753 39.2647 95.7711 39.4743 95.7866 39.6709C95.8021 40.0305 95.8254 40.4005 95.8539 40.7834C95.8823 41.1663 95.9134 41.4612 95.9444 41.6734C95.9755 42.0175 96.0013 42.359 96.022 42.7082C96.0427 43.0575 96.0712 43.3731 96.1022 43.6888C96.1333 44.0044 96.1255 44.3407 96.1255 44.7003C96.1255 45.06 96.1255 45.4196 96.1695 45.7792C96.1862 45.8668 96.2086 45.9533 96.2368 46.0379C96.2755 46.1634 96.3057 46.2913 96.3273 46.4208C96.3855 46.8077 96.4046 47.1995 96.3842 47.5902C96.3571 47.9726 96.3571 48.3565 96.3842 48.7389C96.3998 48.8269 96.4101 48.9174 96.4179 48.9976C96.4262 49.0859 96.4453 49.1728 96.4748 49.2563C96.4878 49.3421 96.4878 49.4293 96.4748 49.5151C96.458 49.5778 96.458 49.6438 96.4748 49.7065C96.4748 49.9031 96.511 50.0946 96.542 50.2809C96.5731 50.4671 96.6016 50.6689 96.6326 50.8785C96.6455 51.0844 96.6455 51.2909 96.6326 51.4968C96.6171 51.7026 96.6171 51.9093 96.6326 52.1152C96.6325 52.3079 96.6507 52.5002 96.6869 52.6895C96.7266 52.8859 96.7534 53.0847 96.7671 53.2845C96.7801 53.4061 96.793 53.5433 96.8008 53.7244C96.8092 53.909 96.8283 54.093 96.8577 54.2754C96.8577 54.366 96.8861 54.4695 96.9017 54.5911C96.9172 54.7127 96.9353 54.8265 96.9586 54.9378C96.9819 55.049 97 55.1447 97.0129 55.2198C97.0258 55.2948 97.0517 55.3388 97.0828 55.3543H97.238C97.3596 55.3543 97.4967 55.3724 97.6209 55.3879L98.1616 55.4319C98.3145 55.4818 98.4742 55.5079 98.6351 55.5095C98.8291 55.5095 99.0205 55.5225 99.2068 55.5225C99.3931 55.5225 99.5664 55.5224 99.7243 55.4992C99.8295 55.4977 99.9334 55.4748 100.03 55.4319C100.174 55.3669 100.332 55.3359 100.49 55.3413H101.02C101.365 55.3569 101.623 55.3595 101.797 55.3413C102.033 55.3268 102.269 55.3 102.503 55.2611C102.893 55.2262 103.278 55.1507 103.652 55.0361C103.735 55.0088 103.822 54.994 103.91 54.9921C103.981 54.9967 104.053 54.9806 104.115 54.9455C104.213 54.9106 104.302 54.853 104.373 54.7773C104.456 54.694 104.55 54.6226 104.653 54.5652C104.755 54.5059 104.86 54.4532 104.968 54.4074C105.07 54.3631 105.168 54.3103 105.261 54.2496C105.486 54.128 105.701 54.0064 105.902 53.877C106.086 53.7606 106.259 53.6291 106.42 53.4838C106.466 53.4234 106.516 53.3639 106.567 53.3053C106.619 53.2457 106.676 53.1759 106.735 53.1009C106.854 52.9451 106.96 52.7798 107.051 52.6067C107.133 52.4469 107.231 52.296 107.343 52.1565C107.52 51.9817 107.648 51.7643 107.716 51.5253C107.788 51.2729 107.874 51.025 107.975 50.7828C108.003 50.6971 108.04 50.6147 108.086 50.537C108.129 50.4652 108.166 50.3899 108.197 50.3119C108.227 50.229 108.235 50.14 108.221 50.0532C108.21 50.0124 108.202 49.9709 108.197 49.929C108.197 49.9135 108.226 49.9005 108.277 49.885C108.329 49.8695 108.355 49.854 108.355 49.8385C108.386 49.6679 108.397 49.4942 108.389 49.321C108.391 49.1394 108.41 48.9584 108.446 48.7803C108.477 48.6147 108.508 48.4388 108.536 48.2629C108.565 48.0869 108.588 47.8929 108.603 47.7118C108.635 47.4319 108.646 47.15 108.637 46.8684C108.634 46.545 108.624 46.2345 108.609 45.9189ZM104.795 48.1361C104.779 48.4059 104.738 48.6736 104.671 48.9355C104.659 48.9919 104.636 49.0455 104.604 49.0934C104.571 49.1432 104.542 49.195 104.516 49.2486C104.484 49.3121 104.468 49.3821 104.469 49.453C104.471 49.5133 104.463 49.5736 104.446 49.6315C104.299 50.0534 104.019 50.4164 103.649 50.6663C103.216 50.8907 102.748 51.0387 102.265 51.1036C102.199 51.1195 102.129 51.1195 102.063 51.1036C101.977 51.0895 101.89 51.0895 101.804 51.1036C101.804 51.1352 101.796 51.1664 101.781 51.1941C101.753 51.2407 101.729 51.2614 101.714 51.2614L101.535 51.2743C101.429 51.2743 101.313 51.2743 101.186 51.2743H100.826C100.713 51.2743 100.648 51.2743 100.635 51.251C100.622 51.2278 100.578 51.1838 100.555 51.0932C100.529 50.9825 100.511 50.8701 100.5 50.7569C100.485 50.6224 100.469 50.4749 100.454 50.3197C100.438 50.1644 100.423 50.0066 100.41 49.8566C100.379 49.5564 100.345 49.2538 100.309 48.9459C100.276 48.7109 100.257 48.4742 100.252 48.237C100.252 47.9084 100.252 47.5514 100.275 47.1685C100.29 46.8022 100.26 46.4355 100.185 46.0767C100.112 45.8364 100.084 45.5845 100.105 45.3342C100.13 45.0424 100.13 44.7489 100.105 44.4571C100.089 44.2165 100.074 43.9915 100.061 43.7819C100.048 43.5723 100.037 43.355 100.037 43.1299C100.037 42.8851 100.021 42.6406 99.9907 42.3978C99.9623 42.1391 99.9442 41.9217 99.9364 41.7122C99.9286 41.5026 99.9364 41.3112 99.9364 41.1378C99.9345 41.0001 99.9694 40.8644 100.037 40.7446C100.066 40.7006 100.089 40.6799 100.105 40.6876C100.12 40.6954 100.149 40.6877 100.195 40.654C100.327 40.5888 100.475 40.5619 100.622 40.5764C100.807 40.584 100.991 40.6064 101.173 40.6437C101.359 40.6799 101.546 40.7265 101.724 40.7782C101.903 40.8299 102.04 40.8713 102.13 40.9024C102.329 40.9694 102.521 41.056 102.702 41.1611C102.885 41.265 103.058 41.3853 103.22 41.5207C103.518 41.7697 103.77 42.0702 103.962 42.4081C104.174 42.8124 104.34 43.2394 104.456 43.681C104.472 43.7585 104.48 43.8374 104.479 43.9164C104.479 43.9972 104.495 44.0773 104.526 44.1519C104.551 44.2065 104.581 44.2593 104.614 44.3097C104.647 44.3573 104.67 44.411 104.681 44.4675C104.715 44.6073 104.73 44.7507 104.728 44.8944C104.728 45.06 104.728 45.2255 104.749 45.3885C104.78 45.6472 104.803 45.9292 104.818 46.2449C104.834 46.5605 104.839 46.8787 104.839 47.2021C104.839 47.5255 104.824 47.8282 104.795 48.1361V48.1361Z" fill="#A799FD"/>
<path d="M108.117 27.7081L108.836 29.5657L98.1948 28.8025L97.6748 26.9346L108.117 27.7081Z" fill="#A799FD"/>
<path d="M108.797 14.7956L107.933 26.0006L97.4756 25.2064L98.2698 13.9729L108.797 14.7956Z" fill="#A799FD"/>
<path d="M96.5445 14.4385L95.7684 25.3356L92.374 26.3705L93.4399 15.6648C94.0324 15.4061 95.251 14.9352 96.5445 14.4385Z" fill="#A799FD"/>
<path d="M94.9484 27.3586L94.2058 28.7143L91.5229 29.2628L92.0171 28.2486L94.9484 27.3586Z" fill="#A799FD"/>
</svg>
