<svg width="232" height="221" viewBox="0 0 232 221" fill="none" xmlns="http://www.w3.org/2000/svg">
<path d="M140.379 142.942C140.18 143.094 140.014 143.284 139.889 143.502H139.729C143.449 135.852 147.469 128.172 152.539 121.352C156.249 116.205 160.724 111.656 165.809 107.862C167.069 106.952 171.449 103.252 172.809 105.492C173.529 106.672 172.989 108.272 172.559 109.492C172.023 110.897 171.384 112.26 170.649 113.572C163.879 126.202 151.799 134.752 140.379 142.942Z" fill="#C6CF67"/>
<path d="M125.86 142.562C123.79 142.562 121.73 142.662 119.67 142.802C119.5 142.574 119.294 142.374 119.06 142.212C113.793 138.619 108.781 134.667 104.06 130.382C101.99 128.502 99.9599 126.562 98.0599 124.552C97.6199 124.102 92.06 119.002 92.96 118.022C93.17 117.792 94.61 118.022 94.96 118.122C96.1193 118.406 97.2583 118.767 98.3699 119.202C110.085 123.402 119.885 131.699 125.96 142.562H125.86Z" fill="#C6CF67"/>
<path d="M176.79 50.2919C178.79 53.1019 180.62 56.9119 179.92 60.4719C179.826 61.1643 179.549 61.8189 179.116 62.3676C178.683 62.9164 178.112 63.3391 177.46 63.5919C176.02 63.9819 174.61 63.0119 173.59 62.1119C170.75 59.5919 168.93 55.7819 167.49 52.3419C166.332 49.4171 165.331 46.4329 164.49 43.4019C165.494 42.933 166.397 42.2742 167.15 41.4619C170.67 43.9519 174.18 46.6719 176.79 50.2919Z" fill="white"/>
<path d="M156.81 33.9619C156.841 33.8063 156.881 33.6526 156.93 33.5019C157.002 33.2413 157.096 32.9871 157.21 32.7419C157.475 32.1976 157.849 31.7141 158.31 31.3219C158.685 30.999 159.125 30.7603 159.6 30.6219C159.85 30.5477 160.11 30.5173 160.37 30.5319C160.525 30.548 160.679 30.5747 160.83 30.6119H160.88L161.26 30.7719L161.33 30.8419C161.64 31.1219 161.82 31.4519 162.12 31.7619C162.407 32.0806 162.778 32.3127 163.19 32.4319C163.964 33.3932 164.372 34.5981 164.34 35.8319C163.878 36.2642 163.581 36.8441 163.5 37.4719C163.48 37.6312 163.48 37.7925 163.5 37.9519C163.298 38.1664 163.069 38.3546 162.82 38.5119C162.534 38.687 162.229 38.828 161.91 38.9319C161.52 38.8022 161.103 38.7781 160.7 38.8619C160.508 38.895 160.322 38.9591 160.15 39.0519L159.61 38.9019C159.076 38.7298 158.583 38.4509 158.16 38.0819C157.777 37.7491 157.44 37.3655 157.16 36.9419C157.16 36.9419 157 36.6319 156.95 36.4819C156.841 36.1847 156.75 35.8807 156.68 35.5719C156.83 36.1519 156.68 35.5719 156.68 35.4519C156.67 35.2954 156.67 35.1384 156.68 34.9819C156.66 34.7189 156.66 34.4548 156.68 34.1919C156.77 34.1519 156.8 34.0019 156.81 33.9619Z" fill="#FED671"/>
<path d="M154.47 41.4317C151.319 44.0761 148.006 46.5208 144.55 48.7516C142.07 50.3216 138.22 52.6517 135.37 51.0517C133.44 49.9617 132.71 47.2516 133.13 45.1616C133.71 42.2816 136.46 40.1616 139.06 39.1616C143.31 37.5316 148.06 37.9816 152.5 38.4716C152.956 39.5777 153.626 40.5835 154.47 41.4317Z" fill="white"/>
<path d="M152.74 30.552C148.52 28.202 144.25 25.552 141.58 21.442C139.72 18.592 138.49 14.372 140.23 11.172C140.85 10.022 141.93 8.90203 143.34 9.17203C145.12 9.54203 146.53 11.542 147.6 12.842C151.044 17.1594 153.618 22.1041 155.18 27.402C154.154 28.269 153.323 29.3423 152.74 30.552Z" fill="white"/>
<path d="M165.18 26.8116L164.89 26.9616C164.397 26.5359 163.883 26.1354 163.35 25.7616C163.295 21.2272 164.079 16.7217 165.66 12.4716C166.247 10.9019 166.97 9.38621 167.82 7.9416C168.414 6.67985 169.454 5.68255 170.74 5.14162C173.44 4.38162 175.6 7.54162 175.74 9.89162C176.01 13.4516 173.93 16.8916 171.92 19.6716C169.965 22.3112 167.703 24.7081 165.18 26.8116Z" fill="white"/>
<path d="M169.18 34.1418C169.005 33.0352 168.643 31.9665 168.11 30.9818C173.348 28.8859 178.855 27.5393 184.47 26.9818C187.67 26.6718 192.37 26.6118 194.16 29.9818C195.61 32.6818 193.56 35.8718 191.21 37.2118C187.79 39.2118 183.59 38.7318 179.89 38.0618C176.34 37.4318 172.81 36.6618 169.28 35.9118C169.302 35.3199 169.268 34.7273 169.18 34.1418Z" fill="white"/>
<path d="M132.72 142.782C132.72 142.712 132.72 142.642 132.72 142.572C130.16 134.572 127.72 126.572 125.14 118.622C123.01 111.902 120.62 105.202 118.74 98.4018C118.54 97.6618 118.06 96.3518 119.02 96.0018C119.98 95.6518 121.1 96.3418 121.86 96.8818C124.102 98.5883 126.022 100.681 127.53 103.062C135.3 114.752 134.96 129.382 134.19 142.892L132.72 142.782Z" fill="#C6CF67"/>
<path d="M10.5497 186.482C18.2518 188.849 26.4072 189.346 34.3397 187.932C34.6242 187.896 34.9131 187.916 35.1897 187.992C35.4781 187.822 35.7999 187.716 36.1329 187.681C36.466 187.647 36.8024 187.685 37.1196 187.792C37.2869 187.852 37.4479 187.929 37.5997 188.022C53.9197 188.182 70.2397 188.282 86.5497 188.412L110.15 188.622C117.56 188.682 125.03 188.972 132.43 188.542C139.83 188.112 147.04 186.802 153.05 182.482C154.97 181.102 158.05 183.292 156.79 185.482C156.245 186.406 156.036 187.491 156.2 188.552C156.317 189.436 156.738 190.253 157.39 190.862C157.754 191.147 158.183 191.336 158.64 191.411C159.096 191.486 159.564 191.445 160 191.292L160.49 191.082C160.54 191.082 160.91 190.832 160.95 190.832C161.238 190.595 161.476 190.301 161.648 189.969C161.82 189.638 161.922 189.275 161.95 188.902C162.24 186.902 164.85 186.662 166.15 187.792C166.417 187.737 166.693 187.737 166.96 187.792C174.033 189.647 181.291 190.704 188.6 190.942C192.01 191.176 195.435 191.089 198.83 190.682C201.63 190.262 204.93 188.972 205.88 186.022C206.008 185.573 206.251 185.165 206.584 184.837C206.917 184.509 207.329 184.273 207.78 184.152C208.26 183.872 208.93 183.582 209.08 183.822C209.23 184.062 211.39 184.142 211.91 184.142C212.624 184.147 213.337 184.087 214.04 183.962C214.34 183.962 214.63 183.832 214.93 183.762C210.347 179.585 204.617 176.878 198.48 175.992C197.9 175.939 197.355 175.693 196.931 175.294C196.507 174.896 196.229 174.367 196.14 173.792C195.24 173.052 194.32 172.332 193.4 171.622C181.104 162.067 167.041 155.035 152.02 150.932C134.047 146.032 115.041 146.432 97.2897 152.082C92.479 153.664 87.7983 155.616 83.2897 157.922C81.0297 159.082 78.8197 160.325 76.6597 161.652C75.3097 162.482 73.6597 164.152 71.9897 163.892C71.5088 163.809 71.0629 163.587 70.7073 163.252C70.3517 162.918 70.1022 162.487 69.9897 162.012C69.8853 161.518 69.9314 161.005 70.1222 160.537C70.313 160.07 70.6395 159.671 71.0597 159.392C57.2497 159.172 42.9597 160.392 30.1396 165.602C26.734 166.981 23.4551 168.654 20.3397 170.602C17.9273 172.127 15.643 173.846 13.5096 175.742C12.416 176.706 11.3745 177.727 10.3896 178.802C9.23595 179.928 8.22807 181.195 7.38965 182.572C6.17964 184.742 8.85968 185.922 10.5497 186.482Z" fill="#E5E979"/>
<path d="M156.11 146.982C152.96 146.052 149.77 145.262 146.56 144.622C149.36 142.622 152.14 140.552 154.85 138.412C167.75 134.052 183.02 131.922 195.85 137.412C183.532 142.284 170.575 145.345 157.38 146.502C156.92 146.542 156.481 146.708 156.11 146.982Z" fill="#C6CF67"/>
<path d="M65.8097 193.231C82.2097 193.451 98.6197 193.431 115.02 193.641H115.18C112.109 197.63 109.645 202.051 107.87 206.761C107.87 206.841 107.8 206.931 107.77 207.021C100.14 207.541 92.4997 207.891 84.8497 208.131C68.4097 208.651 51.9531 208.498 35.4797 207.671C35.3906 202.668 36.228 197.691 37.9497 192.991C47.2364 193.025 56.523 193.105 65.8097 193.231Z" fill="#FCA565"/>
<path d="M29.5981 191.21C45.9981 191.43 62.408 191.41 78.808 191.62H78.9681C75.8973 195.608 73.4338 200.03 71.658 204.74C71.658 204.82 71.588 204.91 71.558 205C63.928 205.52 56.2881 205.87 48.6381 206.11C32.1981 206.63 15.7414 206.476 -0.731895 205.65C-0.821053 200.646 0.0163498 195.669 1.73808 190.97C11.0247 191.003 20.3114 191.083 29.5981 191.21Z" fill="#FCA565"/>
<path d="M210 189.072C212.979 189.41 215.995 188.965 218.75 187.782C219.534 188.684 220.405 189.508 221.35 190.242C222.711 191.147 223.993 192.167 225.18 193.292C226.085 194.137 226.624 195.304 226.68 196.542C226.53 197.872 225.03 198.702 224 199.302C220.651 201.268 217.07 202.81 213.34 203.892C210.135 204.775 206.854 205.351 203.54 205.612C202.368 201.936 200.367 198.58 197.69 195.802C202.76 195.292 207.68 193.702 210 189.072Z" fill="#FEC261"/>
<path d="M121.45 193.802C131.57 193.962 142.2 193.802 151.24 189.382C151.424 190.781 151.953 192.113 152.778 193.258C153.604 194.403 154.7 195.325 155.97 195.942C157.456 196.568 159.099 196.722 160.675 196.382C162.251 196.042 163.684 195.225 164.78 194.042C171.56 199.132 177.12 206.582 179.33 214.782C175.325 215.167 171.303 215.337 167.28 215.292C160.9 215.335 154.522 215.058 148.17 214.462C138.873 213.572 129.641 212.096 120.53 210.042C121.02 208.542 121.53 207.042 122.16 205.582C122.198 205.504 122.231 205.424 122.26 205.342C122.379 205.118 122.486 204.887 122.58 204.652C122.77 204.262 122.95 203.882 123.14 203.502C123.6 202.562 124.14 201.652 124.62 200.742C124.78 200.455 124.881 200.139 124.919 199.813C124.956 199.487 124.929 199.157 124.839 198.841C124.749 198.525 124.598 198.23 124.394 197.973C124.19 197.716 123.937 197.501 123.65 197.342C123.363 197.182 123.048 197.081 122.721 197.043C122.395 197.006 122.065 197.033 121.749 197.123C121.433 197.213 121.139 197.364 120.881 197.568C120.624 197.772 120.41 198.025 120.25 198.312C118.288 201.628 116.746 205.175 115.66 208.872C114.66 208.622 113.66 208.362 112.66 208.092C112.66 207.972 112.75 207.842 112.8 207.722C114.902 202.64 117.824 197.937 121.45 193.802Z" fill="#FEC261"/>
<path d="M190.179 196.042C190.259 196.102 190.309 196.182 190.389 196.232C191.562 196.98 192.649 197.856 193.629 198.842C193.879 199.082 194.119 199.332 194.359 199.592L194.429 199.672L194.749 200.032C195.179 200.552 195.599 201.092 195.989 201.652C197.189 203.344 198.117 205.214 198.739 207.192C194.658 210.752 189.664 213.104 184.319 213.982C182.102 206.501 178.057 199.689 172.549 194.162C178.365 195.269 184.261 195.898 190.179 196.042Z" fill="#FCA565"/>
<path d="M5.58934 176.662C15.5893 165.192 30.0593 159.052 44.7793 156.362C54.9893 154.502 65.2892 154.532 75.6192 154.592C75.9409 154.602 76.2559 154.686 76.5401 154.837C76.8244 154.988 77.0703 155.201 77.2593 155.462C79.4793 154.232 81.7693 153.102 84.0293 152.042C93.0056 147.854 102.547 145.004 112.349 143.582C108.239 140.598 104.3 137.386 100.549 133.962C98.0993 131.722 95.7193 129.402 93.4393 126.962C91.1593 124.522 88.1393 121.962 87.8493 118.552C87.5493 114.902 90.7193 112.812 94.0493 112.942C96.8893 113.052 99.8693 114.332 102.469 115.412C107.752 117.635 112.681 120.62 117.099 124.272C119.486 126.232 121.698 128.397 123.709 130.742C122.563 127.102 121.409 123.469 120.249 119.842C118.939 115.692 117.639 111.542 116.319 107.392C115.739 105.592 115.163 103.785 114.589 101.972C113.859 100.191 113.475 98.2869 113.459 96.362C113.749 92.472 117.459 90.242 121.139 91.062C124.459 91.802 127.219 94.692 129.339 97.202C133.651 102.553 136.617 108.859 137.989 115.592C138.426 117.496 138.759 119.422 138.989 121.362C140.989 113.989 142.969 106.615 144.929 99.242C148.059 87.462 151.589 75.712 153.819 63.712C154.88 58.1289 155.548 52.4784 155.819 46.802C152.917 49.1353 149.882 51.2989 146.729 53.282C142.729 55.802 137.639 57.792 133.079 55.402C129.589 53.572 127.899 49.402 128.079 45.632C128.339 41.302 131.299 37.632 134.949 35.582C138.949 33.332 143.179 33.002 147.519 33.142C141.379 29.332 135.689 24.432 134.619 16.842C134.019 12.542 135.269 7.61197 139.149 5.19197C143.469 2.51197 147.839 5.33198 150.689 8.70198C153.947 12.5735 156.582 16.9291 158.499 21.612C158.805 18.0369 159.589 14.5188 160.829 11.152C162.409 6.91196 164.729 1.69198 169.459 0.291976C173.659 -0.958024 178.129 1.98197 179.849 5.75197C181.939 10.292 180.359 15.452 178.019 19.552C177.226 20.9282 176.333 22.245 175.349 23.492C177.78 22.8958 180.245 22.445 182.729 22.142C187.659 21.572 193.179 21.582 196.939 25.342C200.489 28.902 200.369 34.342 197.439 38.342C194.509 42.342 189.129 43.692 184.319 43.572C181.65 43.4288 178.999 43.0439 176.399 42.422C177.784 43.6689 179.065 45.0267 180.229 46.482C183.229 50.252 185.469 55.232 185.009 60.132C184.549 65.032 180.729 69.402 175.569 68.522C170.569 67.662 167.329 62.852 165.079 58.752C163.336 55.4935 161.903 52.0785 160.799 48.552C160.523 53.2267 159.952 57.8793 159.089 62.482C158.089 68.532 156.629 74.482 155.089 80.482C151.979 92.582 148.659 104.632 145.409 116.692C144.369 120.525 143.343 124.359 142.329 128.192C147.939 118.492 154.559 109.472 164.019 103.052C167.109 100.962 171.019 98.562 174.739 100.582C178.459 102.602 178.679 107.412 177.339 110.962C174.649 118.072 169.979 124.392 164.669 129.772C164.259 130.192 163.839 130.592 163.419 130.992C168.988 129.681 174.7 129.083 180.419 129.212C188.473 129.38 196.348 131.615 203.289 135.702C204.939 136.702 204.389 139.292 202.799 139.992C191.168 145.118 178.902 148.663 166.329 150.532C169.829 151.925 173.256 153.472 176.609 155.172C185.375 159.664 193.602 165.139 201.129 171.492C208.606 172.995 215.418 176.816 220.599 182.412C221.019 182.605 221.368 182.923 221.599 183.322C223.699 186.722 227.769 188.162 230.029 191.502C232.479 195.142 232.029 199.602 228.499 202.332C224.731 205.018 220.535 207.047 216.089 208.332C211.61 209.788 206.947 210.606 202.239 210.762C194.009 218.532 182.309 219.982 171.429 220.212C157.908 220.494 144.39 219.49 131.059 217.212C123.495 215.913 116.004 214.214 108.619 212.122C108.519 212.122 108.429 212.042 108.329 212.002C80.8508 213.829 53.2826 213.865 25.7993 212.112C18.1693 211.622 10.5593 210.962 2.95934 210.202C2.35043 210.181 1.76811 209.947 1.31334 209.542C0.858566 209.136 0.560013 208.584 0.469345 207.982C0.123306 207.551 -0.0417328 207.002 0.00926208 206.452C0.689255 199.392 1.2493 192.292 2.1693 185.252C1.31929 182.032 3.48933 179.072 5.58934 176.662ZM139.059 39.172C136.459 40.172 133.709 42.282 133.129 45.172C132.709 47.262 133.439 49.972 135.369 51.062C138.219 52.662 142.069 50.332 144.549 48.762C148.005 46.5311 151.318 44.0864 154.469 41.442C153.616 40.5994 152.936 39.597 152.469 38.492C148.079 37.992 143.309 37.542 139.059 39.172ZM147.599 12.862C146.529 11.562 145.119 9.56197 143.339 9.19197C141.929 8.90197 140.849 10.022 140.229 11.192C138.489 14.392 139.719 18.612 141.579 21.462C144.249 25.562 148.519 28.222 152.739 30.572C153.337 29.3575 154.186 28.2839 155.229 27.422C153.653 22.1203 151.062 17.1753 147.599 12.862ZM175.789 9.86198C175.609 7.51198 173.449 4.35198 170.789 5.11198C169.504 5.65291 168.464 6.65022 167.869 7.91197C167.019 9.35658 166.297 10.8723 165.709 12.442C164.128 16.692 163.345 21.1976 163.399 25.732C163.932 26.1058 164.447 26.5063 164.939 26.932L165.229 26.782C167.766 24.6808 170.042 22.2838 172.009 19.642C173.979 16.912 176.059 13.452 175.789 9.89198V9.86198ZM179.939 38.012C183.639 38.682 187.839 39.112 191.259 37.162C193.609 35.822 195.659 32.632 194.209 29.932C192.419 26.602 187.719 26.662 184.519 26.932C178.905 27.4895 173.397 28.8361 168.159 30.932C168.693 31.9167 169.055 32.9854 169.229 34.092C169.317 34.6709 169.35 35.2568 169.329 35.842C172.859 36.642 176.389 37.412 179.939 38.042V38.012ZM167.489 52.292C168.929 55.732 170.749 59.542 173.589 62.062C174.589 62.962 176.019 63.932 177.459 63.542C178.111 63.2892 178.683 62.8664 179.115 62.3177C179.548 61.769 179.825 61.1144 179.919 60.422C180.619 56.862 178.799 53.052 176.789 50.242C174.219 46.672 170.669 43.952 167.099 41.412C166.346 42.2243 165.443 42.8831 164.439 43.352C165.297 46.384 166.315 49.3682 167.489 52.292ZM156.759 35.482C156.759 35.612 156.909 36.182 156.759 35.602C156.829 35.9108 156.92 36.2148 157.029 36.512C157.029 36.662 157.239 36.942 157.239 36.972C157.519 37.3956 157.856 37.7792 158.239 38.112C158.662 38.481 159.155 38.76 159.689 38.932L160.229 39.082C160.401 38.9892 160.587 38.9251 160.779 38.892C161.182 38.8082 161.599 38.8323 161.989 38.962C162.308 38.8581 162.613 38.7171 162.899 38.542C163.149 38.3847 163.377 38.1965 163.579 37.982C163.559 37.8226 163.559 37.6613 163.579 37.502C163.66 36.8742 163.957 36.2943 164.419 35.862C164.451 34.6282 164.043 33.4233 163.269 32.462C162.857 32.3428 162.487 32.1107 162.199 31.792C161.899 31.482 161.719 31.152 161.409 30.872L161.339 30.802L160.959 30.642H160.909C160.758 30.6048 160.604 30.5781 160.449 30.562C160.189 30.5474 159.929 30.5778 159.679 30.652C159.204 30.7904 158.764 31.0291 158.389 31.352C157.928 31.7442 157.554 32.2277 157.289 32.772C157.175 33.0172 157.082 33.2714 157.009 33.532C156.96 33.6827 156.92 33.8364 156.889 33.992C156.889 33.992 156.889 34.182 156.889 34.252C156.869 34.5149 156.869 34.779 156.889 35.042C156.837 35.1858 156.794 35.3328 156.759 35.482ZM104.619 121.942C102.585 120.892 100.484 119.977 98.3293 119.202C97.2178 118.767 96.0786 118.406 94.9193 118.122C94.5393 118.042 93.0993 117.792 92.9193 118.022C92.0293 119.022 97.5793 124.102 98.0193 124.552C99.9593 126.552 102.019 128.552 104.019 130.382C108.74 134.667 113.752 138.62 119.019 142.212C119.253 142.375 119.459 142.574 119.629 142.802C121.689 142.662 123.749 142.572 125.819 142.562H125.879C120.923 133.787 113.541 126.628 104.619 121.942ZM127.489 103.062C125.982 100.681 124.062 98.5885 121.819 96.882C121.059 96.342 119.959 95.642 118.979 96.002C117.999 96.362 118.499 97.662 118.699 98.402C120.579 105.202 122.969 111.902 125.099 118.622C127.629 126.622 130.099 134.622 132.679 142.572C132.679 142.642 132.679 142.712 132.679 142.782L134.109 142.892C134.919 129.382 135.259 114.752 127.489 103.062ZM170.649 113.512C171.384 112.2 172.023 110.837 172.559 109.432C172.989 108.252 173.559 106.652 172.809 105.432C171.449 103.192 167.069 106.892 165.809 107.802C160.724 111.596 156.249 116.145 152.539 121.292C147.469 128.112 143.449 135.792 139.729 143.442H139.889C140.013 143.224 140.18 143.034 140.379 142.882C151.799 134.752 163.879 126.202 170.649 113.512ZM195.849 137.432C183.019 131.922 167.749 134.052 154.849 138.432C152.139 140.572 149.359 142.622 146.559 144.642C149.769 145.282 152.959 146.072 156.109 147.002C156.483 146.736 156.922 146.576 157.379 146.542C170.575 145.379 183.533 142.311 195.849 137.432ZM203.529 205.652C206.843 205.391 210.125 204.816 213.329 203.932C217.059 202.851 220.64 201.309 223.989 199.342C224.989 198.742 226.519 197.912 226.669 196.582C226.626 195.332 226.091 194.149 225.179 193.292C223.997 192.154 222.719 191.12 221.359 190.202C220.415 189.468 219.544 188.645 218.759 187.742C216.004 188.925 212.989 189.37 210.009 189.032C207.689 193.662 202.769 195.292 197.689 195.802C200.366 198.58 202.368 201.936 203.539 205.612L203.529 205.652ZM198.769 207.192C198.147 205.213 197.219 203.344 196.019 201.652C195.629 201.092 195.209 200.552 194.779 200.032L194.459 199.672L194.389 199.592C194.149 199.332 193.909 199.082 193.659 198.842C192.679 197.855 191.592 196.98 190.419 196.232C190.339 196.182 190.289 196.102 190.209 196.042C184.291 195.898 178.395 195.269 172.579 194.162C178.087 199.689 182.132 206.501 184.349 213.982C189.694 213.104 194.688 210.752 198.769 207.192ZM115.699 208.822C116.786 205.125 118.328 201.578 120.289 198.262C120.612 197.682 121.151 197.255 121.788 197.073C122.426 196.891 123.11 196.97 123.689 197.292C124.269 197.614 124.697 198.153 124.878 198.791C125.06 199.429 124.982 200.113 124.659 200.692C124.139 201.602 123.659 202.512 123.179 203.452C122.989 203.832 122.809 204.212 122.619 204.602C122.525 204.838 122.418 205.068 122.299 205.292C122.27 205.374 122.237 205.454 122.199 205.532C121.589 207.002 121.059 208.532 120.569 209.992C129.671 212.045 138.892 213.521 148.179 214.412C154.531 215.008 160.909 215.286 167.289 215.242C171.312 215.287 175.335 215.117 179.339 214.732C177.129 206.532 171.569 199.082 164.789 193.992C163.694 195.175 162.26 195.992 160.684 196.332C159.108 196.672 157.465 196.518 155.979 195.892C154.71 195.268 153.616 194.338 152.796 193.186C151.975 192.034 151.454 190.696 151.279 189.292C142.279 193.692 131.609 193.872 121.489 193.712C117.886 197.836 114.981 202.521 112.889 207.582C112.839 207.702 112.799 207.832 112.749 207.952C113.699 208.292 114.699 208.572 115.699 208.822ZM84.8293 208.132C92.4793 207.892 100.119 207.542 107.749 207.022C107.749 206.932 107.819 206.842 107.849 206.762C109.625 202.052 112.088 197.631 115.159 193.642H115.019C98.6193 193.432 82.2093 193.452 65.8093 193.232C56.516 193.112 47.2226 193.032 37.9293 192.992C36.2076 197.691 35.3702 202.668 35.4593 207.672C51.9393 208.485 68.396 208.639 84.8293 208.132ZM35.1793 187.992C35.4677 187.822 35.7895 187.716 36.1225 187.682C36.4556 187.647 36.7922 187.685 37.1094 187.792C37.2767 187.852 37.4375 187.929 37.5893 188.022C53.9093 188.182 70.2293 188.282 86.5393 188.412L110.139 188.622C117.549 188.682 125.019 188.972 132.419 188.542C139.819 188.112 147.029 186.802 153.039 182.482C154.959 181.102 158.039 183.292 156.779 185.482C156.234 186.407 156.026 187.491 156.189 188.552C156.307 189.436 156.728 190.253 157.379 190.862C157.743 191.147 158.173 191.336 158.629 191.411C159.085 191.487 159.553 191.445 159.989 191.292L160.479 191.082C160.529 191.082 160.899 190.832 160.939 190.832C161.228 190.595 161.465 190.301 161.637 189.97C161.809 189.638 161.912 189.275 161.939 188.902C162.229 186.902 164.839 186.662 166.139 187.792C166.407 187.737 166.682 187.737 166.949 187.792C174.022 189.648 181.281 190.704 188.589 190.942C192 191.176 195.425 191.089 198.819 190.682C201.619 190.262 204.919 188.972 205.869 186.022C205.998 185.573 206.241 185.165 206.573 184.837C206.906 184.51 207.318 184.273 207.769 184.152C208.249 183.872 208.919 183.582 209.069 183.822C209.219 184.062 211.379 184.142 211.899 184.142C212.613 184.147 213.326 184.087 214.029 183.962C214.329 183.962 214.619 183.832 214.919 183.762C210.336 179.585 204.606 176.879 198.469 175.992C197.89 175.939 197.345 175.693 196.921 175.295C196.497 174.896 196.218 174.367 196.129 173.792C183.198 163.148 168.163 155.358 152.009 150.932C134.036 146.032 115.03 146.432 97.2793 152.082C92.4686 153.664 87.7879 155.616 83.2793 157.922C81.0193 159.082 78.8093 160.325 76.6493 161.652C75.2993 162.482 73.6494 164.152 71.9794 163.892C71.4984 163.809 71.0525 163.587 70.6969 163.252C70.3413 162.918 70.0918 162.487 69.9794 162.012C69.8749 161.518 69.921 161.005 70.1118 160.538C70.3026 160.07 70.6292 159.671 71.0493 159.392C57.2393 159.172 42.9492 160.392 30.1293 165.602C24.0501 168.022 18.4267 171.457 13.4993 175.762C12.4056 176.726 11.3641 177.747 10.3793 178.822C9.22556 179.948 8.21768 181.215 7.37926 182.592C6.30925 184.672 8.96928 185.852 10.6593 186.412C18.3614 188.779 26.5168 189.276 34.4493 187.862C34.6983 187.863 34.9452 187.907 35.1793 187.992ZM30.3893 207.392C30.2847 202.583 30.9982 197.792 32.4993 193.222C25.1939 194.132 17.7816 193.623 10.6693 191.722C9.28683 191.373 7.94582 190.877 6.6693 190.242C6.20929 195.302 5.66934 200.362 5.08934 205.402C13.5293 206.242 21.9659 206.905 30.3993 207.392H30.3893Z" fill="#23201E"/>
<path d="M10.5497 186.482C18.2518 188.849 26.4072 189.346 34.3397 187.932C34.6242 187.896 34.9131 187.916 35.1897 187.992C35.4781 187.822 35.7999 187.716 36.1329 187.681C36.466 187.647 36.8024 187.685 37.1196 187.792C37.2869 187.852 37.4479 187.929 37.5997 188.022C53.9197 188.182 70.2397 188.282 86.5497 188.412L110.15 188.622C117.56 188.682 125.03 188.972 132.43 188.542C139.83 188.112 147.04 186.802 153.05 182.482C154.97 181.102 158.05 183.292 156.79 185.482C156.245 186.407 156.036 187.491 156.2 188.552C156.317 189.436 156.738 190.253 157.39 190.862C157.754 191.147 158.183 191.336 158.64 191.411C159.096 191.487 159.564 191.445 160 191.292L160.49 191.082C160.54 191.082 160.91 190.832 160.95 190.832C161.238 190.595 161.476 190.301 161.648 189.97C161.82 189.638 161.922 189.275 161.95 188.902C162.24 186.902 164.85 186.662 166.15 187.792C166.417 187.737 166.693 187.737 166.96 187.792C174.033 189.648 181.291 190.704 188.6 190.942C192.01 191.176 195.435 191.089 198.83 190.682C201.63 190.262 204.93 188.972 205.88 186.022C206.008 185.573 206.251 185.165 206.584 184.837C206.917 184.51 207.329 184.273 207.78 184.152C208.26 183.872 208.93 183.582 209.08 183.822C209.23 184.062 211.39 184.142 211.91 184.142C212.624 184.147 213.337 184.087 214.04 183.962C214.34 183.962 214.63 183.832 214.93 183.762C210.347 179.585 204.617 176.878 198.48 175.992C197.9 175.939 197.355 175.693 196.931 175.294C196.507 174.896 196.229 174.367 196.14 173.792C195.24 173.052 194.32 172.332 193.4 171.622C191.022 172.752 188.462 173.449 185.84 173.682C175.021 174.666 164.12 173.239 153.92 169.502C154.48 172.742 151.29 175.572 148.07 176.202C144.85 176.832 141.52 175.992 138.24 175.832C130.97 175.472 124.01 178.422 116.96 180.252C106.49 182.982 95.5397 183.252 84.7097 183.252C64.4797 183.252 43.7097 181.942 25.2997 173.502C23.5387 172.72 21.8632 171.758 20.2997 170.632C17.8873 172.157 15.6031 173.876 13.4697 175.772C12.3761 176.736 11.3346 177.757 10.3497 178.832C9.19603 179.958 8.18816 181.225 7.34973 182.602C6.17973 184.742 8.85968 185.922 10.5497 186.482Z" fill="#C6CF67"/>
</svg>
