<svg width="71" height="55" viewBox="0 0 71 55" fill="none" xmlns="http://www.w3.org/2000/svg">
<path d="M60.1045 4.89768C55.5792 2.82128 50.7265 1.29148 45.6527 0.415297C45.5603 0.398387 45.468 0.440646 45.4204 0.525166C44.7963 1.63518 44.105 3.08328 43.6209 4.22148C38.1637 3.40448 32.7345 3.40448 27.3892 4.22148C26.905 3.05798 26.1886 1.63518 25.5617 0.525166C25.5141 0.443466 25.4218 0.401207 25.3294 0.415297C20.2584 1.28868 15.4057 2.81848 10.8776 4.89768C10.8384 4.91458 10.8048 4.94278 10.7825 4.97938C1.57795 18.7308 -0.943561 32.1442 0.293408 45.3913C0.299005 45.4561 0.335386 45.5181 0.385761 45.5575C6.45866 50.0173 12.3413 52.7248 18.1147 54.5194C18.2071 54.5476 18.305 54.5138 18.3638 54.4377C19.7295 52.5727 20.9469 50.6062 21.9907 48.5382C22.0523 48.4171 21.9935 48.2734 21.8676 48.2255C19.9366 47.493 18.0979 46.5999 16.3292 45.5857C16.1893 45.504 16.1781 45.3039 16.3068 45.2081C16.679 44.9292 17.0513 44.639 17.4067 44.346C17.471 44.2925 17.5606 44.2812 17.6362 44.315C29.2558 49.6201 41.8354 49.6201 53.3179 44.315C53.3935 44.2784 53.4831 44.2897 53.5502 44.3432C53.9057 44.6362 54.2779 44.9292 54.6529 45.2081C54.7816 45.3039 54.7732 45.504 54.6333 45.5857C52.8646 46.6196 51.0259 47.493 49.0921 48.2227C48.9662 48.2706 48.9102 48.4171 48.9718 48.5382C50.038 50.6033 51.2554 52.5698 52.5959 54.4349C52.6519 54.5138 52.7526 54.5476 52.845 54.5194C58.6464 52.7248 64.529 50.0173 70.6019 45.5575C70.6551 45.5181 70.6887 45.4589 70.6943 45.3941C72.1747 30.079 68.2147 16.7756 60.1968 4.98218C60.1772 4.94278 60.1437 4.91458 60.1045 4.89768ZM23.7259 37.3252C20.2276 37.3252 17.3451 34.1135 17.3451 30.1692C17.3451 26.2249 20.1717 23.0132 23.7259 23.0132C27.308 23.0132 30.1626 26.2531 30.1066 30.1692C30.1066 34.1135 27.28 37.3252 23.7259 37.3252ZM47.3178 37.3252C43.8196 37.3252 40.9371 34.1135 40.9371 30.1692C40.9371 26.2249 43.7636 23.0132 47.3178 23.0132C50.9 23.0132 53.7545 26.2531 53.6986 30.1692C53.6986 34.1135 50.9 37.3252 47.3178 37.3252Z" fill="#9B92FF"/>
</svg>
