<svg width="14" height="14" viewBox="0 0 14 14" fill="none" xmlns="http://www.w3.org/2000/svg">
<path d="M13.2655 5.35999C13.5528 6.45204 13.5528 7.54396 13.2655 8.63601C12.978 9.72817 12.4259 10.6823 11.6087 11.4989C10.7915 12.3155 9.83655 12.8675 8.74377 13.1546C7.65098 13.4418 6.55829 13.4418 5.46542 13.1547C4.37249 12.8675 3.41752 12.3156 2.60042 11.4991C1.78327 10.6825 1.23114 9.72823 0.943639 8.63614C0.656366 7.54411 0.656366 6.45218 0.94366 5.36005C1.23108 4.26796 1.78332 3.31369 2.60046 2.49711C3.4176 1.68054 4.37261 1.1286 5.46542 0.841426C6.55813 0.55423 7.65094 0.554394 8.7437 0.841488C9.83649 1.12873 10.7914 1.68066 11.6085 2.4972C12.4257 3.31379 12.9781 4.26812 13.2655 5.35999ZM10.9518 10.8426C11.9214 9.87368 12.4473 8.70741 12.5294 7.34391L12.3535 7.31467C12.2831 7.30287 12.1307 7.2971 11.8961 7.297C11.6615 7.29702 11.422 7.31357 11.1777 7.34678C10.9332 7.38007 10.6244 7.44835 10.251 7.55197C9.87756 7.65551 9.5051 7.79119 9.13364 7.95925C9.51301 9.23691 9.77892 10.4637 9.93133 11.6397C10.3145 11.4052 10.6546 11.1395 10.9518 10.8426ZM6.47724 12.3957C7.32554 12.4934 8.14658 12.3997 8.94029 12.1144C8.77998 10.9853 8.51793 9.77016 8.15439 8.46911C6.65303 9.34429 5.312 10.3718 4.13129 11.5518C4.84682 12.0166 5.62883 12.298 6.47724 12.3957ZM2.12823 9.19862C2.39601 9.81009 2.77241 10.3581 3.25727 10.8427C3.31204 10.8974 3.35511 10.9364 3.38631 10.9599C4.80173 9.54543 6.29916 8.41229 7.87878 7.56063C7.76153 7.19336 7.64814 6.87297 7.53862 6.59942C7.51497 6.60745 7.481 6.62391 7.43599 6.6493C7.3909 6.67482 7.35878 6.69338 7.33904 6.70518L7.04587 6.84579C6.84246 6.9396 6.55404 7.04025 6.18082 7.14766C5.80734 7.25494 5.39398 7.35173 4.94038 7.43765C4.48676 7.52356 3.9648 7.55874 3.37436 7.54298C2.78399 7.52738 2.21717 7.44346 1.67373 7.29111C1.70889 7.95139 1.86053 8.58732 2.12823 9.19862ZM3.25727 3.15343C2.34235 4.06772 1.81848 5.17736 1.68548 6.48229L1.70891 6.32988C2.14688 6.49408 2.63755 6.58204 3.18102 6.59363C3.72445 6.60527 4.20446 6.57317 4.6209 6.49703C5.03717 6.42073 5.46526 6.31329 5.90534 6.17474C6.34507 6.03595 6.6383 5.93457 6.78489 5.86986C6.93151 5.80537 7.04792 5.75366 7.13397 5.71464L7.15153 5.70887L7.16334 5.69707C6.54157 4.31018 5.84178 3.06362 5.06367 1.95799C4.37545 2.23921 3.77348 2.63771 3.25727 3.15343ZM8.26297 1.68522C7.5259 1.52696 6.79364 1.51817 6.06665 1.6588C6.80545 2.71772 7.47231 3.88395 8.06643 5.15769C8.96582 4.50143 9.70856 3.6457 10.2951 2.59086C9.67734 2.14548 8.99982 1.84355 8.26297 1.68522ZM10.9459 3.26481C10.9146 3.31164 10.8745 3.3694 10.8256 3.43769C10.7767 3.50599 10.7171 3.58914 10.6467 3.68683C10.5764 3.7844 10.4951 3.89098 10.4033 4.00617C10.3114 4.12146 10.2117 4.24252 10.1041 4.36961C9.99668 4.49659 9.87928 4.62938 9.75233 4.76806C9.62508 4.90689 9.49322 5.04457 9.35636 5.18134C9.21963 5.31797 9.07186 5.45772 8.91365 5.6003C8.75546 5.74298 8.59601 5.87465 8.43577 5.99578C8.44353 6.02714 8.46118 6.07401 8.48858 6.13653C8.51594 6.19898 8.53739 6.24603 8.55327 6.27704C8.64309 6.51547 8.74278 6.78706 8.8521 7.09185C9.23144 6.93172 9.61462 6.80071 10.0019 6.69902C10.3889 6.59756 10.7112 6.52924 10.9694 6.49397C11.2275 6.45889 11.4846 6.43841 11.7406 6.43254C11.9968 6.4266 12.1686 6.42864 12.2568 6.43828C12.3449 6.4481 12.4299 6.45883 12.5119 6.47053L12.5237 6.47055C12.3985 5.20468 11.8885 4.11257 10.9929 3.19447L10.9459 3.26481Z" fill="#9B92FF"/>
</svg>
