<svg width="13" height="12" viewBox="0 0 13 12" fill="none" xmlns="http://www.w3.org/2000/svg">
<path fill-rule="evenodd" clip-rule="evenodd" d="M3.58576 0.0736373C2.60835 0.117707 1.76119 0.356504 1.07712 1.03721C0.390669 1.72149 0.154673 2.57141 0.110462 3.53798C0.0829802 4.14127 -0.0777217 8.69895 0.38828 9.89421C0.702532 10.7006 1.32146 11.3206 2.13577 11.6356C2.51574 11.7833 2.94949 11.8833 3.58576 11.9125C8.90594 12.1531 10.8781 12.0221 11.7097 9.89421C11.8573 9.51544 11.9588 9.08237 11.9869 8.44812C12.2301 3.11801 11.9475 1.96268 11.0203 1.03721C10.2848 0.304095 9.41974 -0.194952 3.58576 0.0736373ZM3.63474 10.8405C3.05224 10.8143 2.7362 10.7173 2.5253 10.6357C1.99478 10.4297 1.59629 10.0331 1.39137 9.50603C1.03649 8.59782 1.15419 4.2843 1.18585 3.58632C1.21692 2.90263 1.35552 2.27779 1.83825 1.79541C2.43569 1.19986 3.20757 0.907991 8.46323 1.14502C9.14909 1.17599 9.77581 1.31421 10.2597 1.79541C10.8572 2.39095 11.1535 3.16823 10.9121 8.40007C10.8858 8.98073 10.7885 9.2958 10.7066 9.50603C10.1659 10.8907 8.92206 11.0829 3.63474 10.8405ZM8.52119 2.81376C8.52119 3.20802 8.84202 3.52861 9.23812 3.52861C9.63422 3.52861 9.95564 3.20802 9.95564 2.81376C9.95564 2.41952 9.63422 2.09922 9.23812 2.09922C8.84202 2.09922 8.52119 2.41952 8.52119 2.81376ZM2.98115 5.99276C2.98115 7.68172 4.35466 9.05105 6.049 9.05105C7.74333 9.05105 9.11684 7.68172 9.11684 5.99276C9.11684 4.3038 7.74333 2.93535 6.049 2.93535C4.35466 2.93535 2.98115 4.3038 2.98115 5.99276ZM4.05773 5.99276C4.05773 4.89696 4.94911 4.0079 6.049 4.0079C7.14888 4.0079 8.04026 4.89696 8.04026 5.99276C8.04026 7.08915 7.14888 7.97849 6.049 7.97849C4.94911 7.97849 4.05773 7.08915 4.05773 5.99276Z" fill="#9B92FF"/>
</svg>
