<svg width="11" height="10" viewBox="0 0 11 10" fill="none" xmlns="http://www.w3.org/2000/svg">
<path fill-rule="evenodd" clip-rule="evenodd" d="M10.1476 10H8.14619V6.50049C8.14619 5.54049 7.7224 5.00488 6.96237 5.00488C6.13529 5.00488 5.64445 5.56299 5.64445 6.50049V10H3.64306V3.5H5.64445V4.23096C5.64445 4.23096 6.27239 3.12988 7.68737 3.12988C9.10285 3.12988 10.1476 3.99305 10.1476 5.77905V10ZM1.36248 2.46045C0.687506 2.46045 0.140625 1.90948 0.140625 1.22998C0.140625 0.55098 0.687506 0 1.36248 0C2.03694 0 2.58382 0.55098 2.58382 1.22998C2.58432 1.90948 2.03694 2.46045 1.36248 2.46045ZM0.140625 10H2.64236V3.5H0.140625V10Z" fill="#9B92FF"/>
</svg>
