<svg width="13" height="10" viewBox="0 0 13 10" fill="none" xmlns="http://www.w3.org/2000/svg">
<path fill-rule="evenodd" clip-rule="evenodd" d="M3.95533 10C8.48667 10 10.9652 6.15218 10.9652 2.81576C10.9652 2.70623 10.9652 2.59752 10.958 2.48922C11.4401 2.13232 11.8562 1.68918 12.187 1.18214C11.7379 1.38643 11.2606 1.52041 10.7725 1.57948C11.2864 1.26381 11.6713 0.767869 11.8556 0.182674C11.3717 0.476809 10.8427 0.684398 10.2909 0.79578C9.35788 -0.220776 7.7974 -0.270029 6.80491 0.686221C6.16546 1.3028 5.89348 2.2221 6.09221 3.09897C4.11144 2.99683 2.26576 2.03813 1.01449 0.460998C0.360637 1.61477 0.695069 3.09022 1.77762 3.8311C1.38555 3.8194 1.00188 3.71122 0.659044 3.51554V3.54759C0.659645 4.74936 1.48642 5.78415 2.63562 6.02229C2.27296 6.12382 1.8923 6.13854 1.52364 6.06532C1.84607 7.09418 2.77131 7.79888 3.82504 7.81919C2.95264 8.52191 1.87489 8.90349 0.765318 8.90227C0.569582 8.90165 0.373846 8.88995 0.178711 8.86595C1.30569 9.60683 2.6164 10 3.95533 9.99817" fill="#9B92FF"/>
</svg>
